%FSLAX24Y24*%
%MOIN*%
G04 EasyPC Gerber Version 16.0.4 Build 3240 *
%AMT11*0 Octagon Pad at angle 0*4,1,8,-0.01533,-0.03700,0.01533,-0.03700,0.03700,-0.01533,0.03700,0.01533,0.01533,0.03700,-0.01533,0.03700,-0.03700,0.01533,-0.03700,-0.01533,-0.01533,-0.03700,0*%
%ADD11T11*%
%AMT70*0 Octagon Pad at angle 0*4,1,8,-0.02446,-0.05906,0.02446,-0.05906,0.05906,-0.02446,0.05906,0.02446,0.02446,0.05906,-0.02446,0.05906,-0.05906,0.02446,-0.05906,-0.02446,-0.02446,-0.05906,0*%
%ADD70T70*%
%ADD89R,0.00900X0.05800*%
%ADD93R,0.03150X0.04724*%
%ADD100R,0.03346X0.03543*%
%ADD90R,0.03937X0.04331*%
%ADD102R,0.06299X0.07087*%
%ADD96R,0.07600X0.21000*%
%ADD103R,0.12500X0.12500*%
%ADD94R,0.03150X0.03150*%
%ADD19R,0.07400X0.07400*%
%ADD79C,0.00100*%
%ADD78C,0.00500*%
%ADD21C,0.01000*%
%ADD104C,0.01500*%
%ADD20C,0.03200*%
%ADD17C,0.05000*%
%ADD13C,0.06000*%
%ADD12C,0.07000*%
%ADD10C,0.07400*%
%ADD71C,0.07874*%
%ADD16C,0.08600*%
%ADD18C,0.09843*%
%ADD15C,0.12000*%
%ADD14C,0.17000*%
%ADD88R,0.05800X0.00900*%
%AMT95*0 Rectangle Pad at angle 45*21,1,0.03150,0.04724,0,0,45*%
%ADD95T95*%
%ADD98R,0.09843X0.01969*%
%ADD97R,0.07800X0.02200*%
%ADD92R,0.04724X0.03150*%
%ADD101R,0.03543X0.03346*%
%ADD91R,0.04331X0.03937*%
%ADD99R,0.09843X0.07874*%
X0Y0D02*
D02*
D10*
X2830Y13783D03*
Y14783D03*
Y15783D03*
Y16783D03*
Y17783D03*
Y18783D03*
X3380Y11983D03*
X4380D03*
X5380D03*
D02*
D11*
X2830Y1383D03*
Y2383D03*
X3830Y1383D03*
Y2383D03*
X4830Y1383D03*
Y2383D03*
X5830Y1383D03*
Y2383D03*
X6830Y1383D03*
Y2383D03*
X7830Y1383D03*
Y2383D03*
X8830Y1383D03*
Y2383D03*
X9830Y1383D03*
Y2383D03*
X10830Y1383D03*
Y2383D03*
X11830Y1383D03*
Y2383D03*
D02*
D12*
X2430Y7723D03*
Y10282D03*
X4202Y7723D03*
Y10282D03*
D02*
D13*
X20330Y26333D03*
X21780Y19433D03*
Y21433D03*
X22330Y26333D03*
D02*
D14*
X4911Y30783D03*
X6093Y28933D03*
X7274Y30783D03*
D02*
D15*
X11230Y26583D03*
Y28433D03*
Y30283D03*
D02*
D16*
X8830Y25783D03*
Y30783D03*
D02*
D17*
X4080Y22017D03*
Y23749D03*
D02*
D18*
X13664Y2333D03*
Y4538D03*
X14452Y1388D03*
Y3790D03*
Y6034D03*
X22564Y2333D03*
Y4538D03*
X23352Y1388D03*
Y3790D03*
Y6034D03*
X42273Y28789D03*
X42323Y7139D03*
Y14639D03*
X42373Y21739D03*
X43769Y28002D03*
X43819Y6352D03*
Y13852D03*
X43869Y20952D03*
X44517Y28789D03*
X44567Y7139D03*
Y14639D03*
X44617Y21739D03*
X45974Y28002D03*
X46024Y6352D03*
Y13852D03*
X46074Y20952D03*
X46919Y28789D03*
X46969Y7139D03*
Y14639D03*
X47019Y21739D03*
D02*
D19*
X17846Y5739D03*
X18830D03*
X19814D03*
X40086Y26899D03*
Y27883D03*
Y28868D03*
X40186Y5399D03*
Y6383D03*
Y7368D03*
Y19949D03*
Y20933D03*
Y21918D03*
X40336Y12699D03*
Y13683D03*
Y14668D03*
D02*
D70*
X17098Y2983D03*
X20562D03*
X37330Y26151D03*
Y29616D03*
X37430Y4651D03*
Y8116D03*
Y19201D03*
Y22666D03*
X37580Y11951D03*
Y15416D03*
D02*
D71*
X6695Y7448D03*
X8365Y9118D03*
D02*
D20*
X3680Y27283D03*
Y28283D03*
X4430Y16033D03*
Y17033D03*
X4680Y27283D03*
Y28283D03*
X5180Y19833D03*
X5980Y23533D03*
X6130Y20583D03*
X6430Y24283D03*
X7030Y18033D03*
X7230Y20683D03*
X7430Y14883D03*
X7730Y18483D03*
X7780Y21833D03*
X9030Y14533D03*
Y18833D03*
X9330Y17833D03*
X9530Y18683D03*
X9680Y17383D03*
X10130Y23883D03*
X10230Y17283D03*
X10280Y16733D03*
X10580Y17583D03*
X10780Y23883D03*
X11030Y17983D03*
X11280Y13233D03*
X11330Y17033D03*
X11630Y19183D03*
X12030Y23933D03*
X12080Y13233D03*
Y17483D03*
X12330Y20633D03*
X12530Y17883D03*
X12630Y20333D03*
X12780Y16933D03*
X12830Y16383D03*
X12930Y23933D03*
X12980Y20633D03*
X13430D03*
X13730Y17733D03*
X13880Y20633D03*
X14280Y26283D03*
Y27883D03*
X14380Y9533D03*
Y10333D03*
Y11133D03*
Y11933D03*
X14430Y19333D03*
X14530Y19833D03*
X15180Y22233D03*
Y23383D03*
X15330Y15333D03*
X15780Y16783D03*
Y18183D03*
X15830Y20383D03*
X16230Y16783D03*
Y17583D03*
X16330Y23333D03*
X16430Y21033D03*
X16630Y16083D03*
Y17183D03*
X16880Y19183D03*
Y19933D03*
X16980Y17833D03*
Y22433D03*
X17330Y30433D03*
X17530Y19779D03*
X17680Y9533D03*
Y10333D03*
Y11133D03*
Y11933D03*
X17780Y14563D03*
Y15063D03*
Y16063D03*
X18230Y23983D03*
X18330Y14013D03*
Y18163D03*
X18680Y30083D03*
X18930Y2133D03*
X19130Y15333D03*
X19180Y16613D03*
X20680Y18383D03*
X21080Y15463D03*
Y16563D03*
X21280Y30433D03*
X21830Y13763D03*
X22280Y16263D03*
Y17333D03*
X23280Y30233D03*
X24880Y14683D03*
X25480Y17883D03*
X26080Y19233D03*
X26130Y12483D03*
Y26233D03*
X26230Y4883D03*
X26580Y21083D03*
X26680Y14233D03*
Y28033D03*
X26780Y6683D03*
X28230Y13033D03*
Y19833D03*
X28280Y26829D03*
X28430Y5433D03*
X30380Y16483D03*
X30430Y30233D03*
X30530Y23283D03*
X30580Y25479D03*
X30626Y18433D03*
X30630Y8733D03*
Y11683D03*
X30880Y4183D03*
X30980Y25833D03*
X31130Y18633D03*
X31230Y12083D03*
X31280Y4383D03*
X31430Y15583D03*
Y29433D03*
X31480Y14283D03*
Y28083D03*
X31580Y22433D03*
Y24733D03*
Y27283D03*
X31630Y6683D03*
X31680Y8033D03*
X31730Y13583D03*
Y20383D03*
Y21083D03*
X31930Y5883D03*
X32580Y28783D03*
X32930Y21783D03*
X32980Y14983D03*
X33180Y7433D03*
X34330Y28833D03*
X34480Y14783D03*
X34530Y21883D03*
X34730Y7633D03*
X35030Y24733D03*
X44830Y31433D03*
X45030Y29783D03*
Y30183D03*
Y30583D03*
Y30983D03*
X45324Y2818D03*
X45580Y24333D03*
X45591Y9870D03*
X45630Y17183D03*
X45739Y26518D03*
X45874Y4918D03*
Y12318D03*
X45924Y19418D03*
X46135Y10088D03*
X46230Y24283D03*
X46330Y17183D03*
X46624Y12368D03*
X46689Y26468D03*
X46824Y19517D03*
X46880Y5433D03*
X47274Y2468D03*
X48280Y12433D03*
X48430Y11383D03*
D02*
D21*
X2830Y2383D02*
Y2633D01*
X9680Y9483*
Y14733*
X9970Y15023*
Y15683*
X2830Y18783D02*
X3130D01*
X3380Y18533*
Y11983*
X3830Y2383D02*
Y3233D01*
X9830Y9233*
Y14583*
X10130Y14883*
Y15683*
X4430Y14699D02*
X5930D01*
Y14683*
X4430Y18368D02*
X5930D01*
Y18483*
X4830Y2383D02*
Y3233D01*
X9980Y8383*
Y14433*
X10280Y14733*
Y15683*
X5064Y22253D02*
X5710D01*
X5830Y22133*
Y21333*
X6630*
X5064Y22883D02*
X8130D01*
X9280Y21733*
Y21033*
X8980Y20733*
X8380*
X5064Y23513D02*
X5980D01*
Y23533*
X5180Y19833D02*
X6480D01*
X6730Y19583*
Y19449*
X6880Y19299*
X7180*
X5380Y11983D02*
X6680D01*
X7430Y12733*
Y13649*
X5830Y2383D02*
Y3933D01*
X10130Y8233*
Y14283*
X10140*
X10440Y14583*
Y15683*
X6130Y20583D02*
X5930Y20383D01*
X3780*
X3580Y20183*
Y13383*
X3880Y13083*
X4030*
X4880Y12233*
Y9248*
X6780Y7433*
Y7448*
X6695*
X6430Y24283D02*
X13130D01*
X6630Y20868D02*
Y21333D01*
X7430*
X7530Y21233*
Y21213*
X8380*
X6830Y2383D02*
Y3483D01*
X9930Y6583*
X12030*
X12650Y7203*
Y15683*
X7430Y14883D02*
Y14318D01*
X7730Y20668D02*
X7230D01*
Y20683*
X7830Y2383D02*
Y4233D01*
X10030Y6433*
X12130*
X12800Y7103*
Y15683*
X8380Y16483D02*
X8930D01*
X9330Y16883*
Y17833*
X8380Y16643D02*
Y16633D01*
X8830*
X9030Y16833*
Y18183*
X9530Y18683*
X8380Y16803D02*
X8780D01*
X8830Y16853*
Y18583*
X9030Y18783*
Y18833*
X8380Y19003D02*
X7750D01*
X7430Y18683*
Y15633*
X6480Y14683*
X5930*
X8380Y19163D02*
X7680D01*
X7280Y18763*
Y18483*
X5930*
X8380Y19323D02*
X7180D01*
Y19299*
X8380Y20893D02*
X8880D01*
X9130Y21143*
Y21583*
X8130Y22583*
X7880*
X7580Y22283*
X7430*
X7030Y22683*
X6880*
X6480Y22283*
X6380*
X6095Y22568*
X5064*
X8380Y21053D02*
X7850D01*
X7730Y20933*
Y20668*
X8380Y21843D02*
X7780D01*
Y21833*
X9015Y15033D02*
Y14533D01*
X9030*
X9020Y15683D02*
X9030D01*
Y16333*
X9690Y16993*
Y17383*
X9680*
X9180Y15683D02*
Y16233D01*
X10230Y17283*
X9340Y15683D02*
Y16033D01*
X9490Y16183*
X9730*
X10280Y16733*
X9500Y15683D02*
Y15153D01*
X9380Y15033*
X9015*
X9830Y2383D02*
X13130Y5683D01*
X13120*
Y15683*
X10145Y23333D02*
Y23868D01*
X10130Y23883*
X10280Y22483D02*
Y22883D01*
X10130Y23033*
Y23333*
X10145*
X10440Y22483D02*
Y22893D01*
X10530Y22983*
X10665*
X10815Y23133*
Y23333*
X10580Y13029D02*
X10984D01*
X11130Y12883*
X11430*
X11780Y13233*
X12080*
X10580Y13738D02*
Y14233D01*
X11230Y14883*
Y15683*
X10600D02*
Y17583D01*
X10760Y15683D02*
Y16483D01*
X10780*
X11030Y16733*
Y17983*
X10815Y23333D02*
Y23883D01*
X10780*
X10830Y2383D02*
X12430Y3983D01*
Y4333*
X13430Y5333*
Y15683*
X10910D02*
Y16263D01*
X11330Y16683*
Y17033*
X11070Y15683D02*
Y16123D01*
X11230Y16283*
Y16333*
X11630Y16733*
Y19183*
X11280Y13233D02*
Y13783D01*
X11345*
X11390Y15683D02*
Y13783D01*
X11345*
X11430Y23579D02*
Y23783D01*
X11580Y23933*
X12030*
X11430Y24288D02*
Y24283D01*
X13130*
X11540Y15683D02*
Y14823D01*
X11980Y14383*
Y13783*
X12015*
X11700Y15683D02*
Y16183D01*
X11630Y16253*
Y16433*
X11880Y16683*
Y16833*
X12080Y17033*
Y17483*
X11860Y15683D02*
Y16233D01*
X12030Y16403*
Y16733*
X12530Y17233*
Y17883*
X12020Y15683D02*
Y16173D01*
X12780Y16933*
X12030Y23933D02*
Y23333D01*
X12145*
X12080Y13233D02*
Y13783D01*
X12015*
X12170Y15683D02*
Y16033D01*
X12520Y16383*
X12830*
X12170Y22483D02*
X12180D01*
Y23333*
X12145*
X12330Y20633D02*
Y19593D01*
X14180Y17743*
X15180*
X12330Y22483D02*
Y22933D01*
X12430Y23033*
X12880*
X12930Y23083*
Y23333*
X12815*
X12630Y20333D02*
Y20683D01*
X12880Y20933*
X14130*
X14280Y20783*
Y20433*
X14130Y20283*
Y19073*
X14830Y18373*
X15180*
X12815Y23333D02*
X13395D01*
X12930Y23933D02*
Y23333D01*
X12815*
X12960Y15683D02*
Y7013D01*
X12230Y6283*
X11680*
X8830Y3433*
Y2383*
X12980Y20633D02*
Y19203D01*
X14280Y17903*
X15180*
X13130Y24283D02*
X13330D01*
X14180Y23433*
X14065*
Y23333*
X13280Y15683D02*
Y17283D01*
X13730Y17733*
X13430Y20633D02*
Y19163D01*
X14530Y18063*
X15180*
X13750Y22483D02*
Y22913D01*
X13580Y23083*
X13480*
X13395Y23168*
Y23333*
X13880Y20633D02*
Y19033D01*
X14700Y18213*
X15180*
X13910Y22483D02*
Y22933D01*
X13930*
X14065Y23068*
Y23333*
X14060Y15683D02*
Y15203D01*
X14130Y15133*
X14680*
X14880Y15333*
X15330*
X14336Y24947D02*
Y24677D01*
X14480Y24533*
X15936*
X14430Y19333D02*
X14570Y19473D01*
X15180*
X14452Y1388D02*
X16230D01*
Y1429*
X14452Y6034D02*
X14479D01*
X15080Y5433*
Y3383*
X14830Y3133*
X13530*
X13030Y2633*
Y2088*
X13730Y1388*
X14452*
X14530Y19833D02*
X14730Y19633D01*
X15180*
X14730Y23383D02*
X15180D01*
X14730Y24120D02*
Y23383D01*
X15085Y9533D02*
X14380D01*
X15085Y10333D02*
X14380D01*
X15085Y11133D02*
X14380D01*
X15085Y11933D02*
X14380D01*
X15180Y17113D02*
X15580D01*
X15780Y16913*
Y16783*
X15180Y17273D02*
X15730D01*
X15830Y17173*
X15840*
X16230Y16783*
X15180Y17433D02*
X15880D01*
X16130Y17183*
X16630*
X15180Y17583D02*
X16230D01*
X15180Y19163D02*
X15600D01*
X15730Y19033*
Y18733*
X15930Y18533*
X16276*
X15180Y19793D02*
X15780D01*
X15880Y19693*
Y19349*
X16030Y19199*
X16330*
X15180Y19953D02*
X16330D01*
Y19868*
X15180Y21213D02*
X16280D01*
X16430Y21063*
Y21033*
X15180Y21363D02*
X16180D01*
X16980Y22163*
Y22433*
X15180Y21523D02*
X16070D01*
X16330Y21783*
Y23333*
X15180Y21683D02*
X15630D01*
X15880Y21933*
Y22233*
X14730Y23383*
X15180Y22233D02*
Y21843D01*
X15276Y7083D02*
Y3183D01*
X14426Y2333*
X13664*
X15675Y9533D02*
X16376D01*
X15675Y10333D02*
X16376D01*
X15675Y11133D02*
X16376D01*
X15675Y11933D02*
X16376D01*
X15780Y18183D02*
Y18283D01*
X15530Y18533*
X15180*
X15830Y20383D02*
X15550Y20103D01*
X15180*
X15936Y24947D02*
Y24533D01*
X16130Y15349D02*
X15995D01*
X15980Y15333*
X15330*
X16130Y16018D02*
Y16283D01*
X15930Y16483*
X15180*
X16130Y16018D02*
Y16083D01*
X16630*
X16230Y2138D02*
Y2133D01*
X18930*
X16330Y23333D02*
Y24120D01*
X16410Y28833D02*
X17280D01*
X17430Y28683*
Y27868*
X16410Y29333D02*
X17430D01*
X18030Y28733*
Y28729*
X18230Y28529*
X18680*
X16430Y21033D02*
X17817D01*
X16780Y8283D02*
X17534D01*
X17734Y8083*
Y7083*
X16880Y19183D02*
X16330D01*
Y19199*
X16880Y19933D02*
X16330D01*
Y19868*
X16980Y17833D02*
Y18533D01*
X16984*
X16980Y22433D02*
X17180Y22633D01*
X17817*
X16984Y18533D02*
X17347D01*
X17389Y18575*
X17530*
X17026Y7083D02*
X15984D01*
X17084Y9533D02*
X17680D01*
X17084Y10333D02*
X17680D01*
X17084Y11133D02*
X17680D01*
X17084Y11933D02*
X17680D01*
X17530Y19283D02*
Y19779D01*
X17580Y17668D02*
X17230D01*
X16930Y17368*
Y13083*
X17330Y12683*
X17630*
X18280Y12033*
Y7383*
X17980Y7083*
X17734*
X18230Y23033D02*
X18643D01*
X18230D02*
Y21577D01*
X18380Y21427*
X18643*
X18230Y23983D02*
X17530D01*
X16980Y24533*
X15936*
X18230Y23983D02*
Y23033D01*
Y23983D02*
Y24579D01*
Y25288D02*
Y25829D01*
X20330*
Y26333*
X18450Y14563D02*
X17780D01*
X18450Y15063D02*
X17780D01*
X18450Y16063D02*
X17780D01*
X18450Y17063D02*
X17980D01*
X17880Y16963*
X17580*
Y16959*
X18450Y17563D02*
X17980D01*
Y17568*
X17880Y17668*
X17580*
X18476Y13263D02*
Y13683D01*
X18480*
X19230Y14433*
Y14833*
X19000Y15063*
X18450*
X18680Y28529D02*
Y27988D01*
X18826Y18713D02*
X18830D01*
Y18363*
X19230Y17963*
Y17213*
X19080Y17063*
X18450*
X18829Y6933D02*
Y12183D01*
X18479Y12533*
X18130*
X17780Y12883*
Y14563*
X18829Y6933D02*
Y5739D01*
X18830*
X19534Y18713D02*
X19630D01*
Y14663*
X19730Y14563*
X20310*
X19726Y13813D02*
Y12383D01*
X20376Y11733*
X21280*
X19726Y13813D02*
Y13509D01*
X19480Y13263*
X19184*
X19726Y13813D02*
X19730D01*
Y14563*
X20310*
X19931Y6933D02*
X20864D01*
X22564Y5233*
Y4538*
X19980Y8233D02*
Y8283D01*
X18829*
Y6933*
X20310Y15063D02*
X21280D01*
X21730Y14613*
X22276*
X20310Y17563D02*
X21026D01*
Y17533*
X20330Y26333D02*
Y25833D01*
X21930Y24233*
X23576*
X20434Y13813D02*
X20930D01*
X21730Y14613*
X22280*
X21026Y17533D02*
Y17209D01*
X20880Y17063*
X20310*
X21480Y1429D02*
X23352D01*
Y1388*
X21480Y2138D02*
X18930D01*
Y2133*
X21680Y16179D02*
Y16063D01*
X20310*
X21734Y17533D02*
X22080D01*
X22280Y17333*
X21780Y21433D02*
X24180Y19033D01*
Y17683*
X22276Y13813D02*
Y13013D01*
Y14613D02*
Y14413D01*
X22280*
Y14613*
X22276Y15413D02*
Y14613D01*
X22280D02*
Y14013D01*
X22276*
Y13813*
X22280Y16263D02*
X21680D01*
Y16179*
X22564Y4538D02*
Y2333D01*
X22984Y13013D02*
X23630D01*
X26860Y9783*
X34430*
X37830Y6383*
X40186*
X22984Y13813D02*
Y13833D01*
X23430*
X27180Y17583*
X34130*
X38030Y13683*
X40336*
X22984Y14613D02*
X23830D01*
X24880Y15663*
Y22333*
X26914Y24368*
X34424*
X37858Y20933*
X40186*
X22984Y15413D02*
X24310D01*
X24680Y15783*
Y28833*
X26964Y31118*
X34624*
X37858Y27883*
X40086*
X23352Y1388D02*
Y3790D01*
Y6034*
X23576Y24233D02*
Y22833D01*
X20530*
Y23083*
X23576Y24233D02*
X23595Y23533D01*
Y22833D02*
X22280D01*
X20680Y21233*
Y18383*
X23595Y23533D02*
Y22833D01*
X23730Y29088D02*
Y28783D01*
X24230Y28283*
Y28238*
X24180Y16333D02*
X24200Y16933D01*
X24180Y17683*
X24580Y13533D02*
X24880D01*
Y14683*
X26080Y19729D02*
Y19233D01*
Y20438D02*
Y20979D01*
X26130Y14179D02*
Y13688D01*
Y26729D02*
Y26233D01*
Y27438D02*
Y28029D01*
Y28738D02*
Y28933D01*
X26180Y28983*
X27430*
Y28979*
X26230Y6579D02*
Y6138D01*
X26376Y11683D02*
X25830D01*
X25380Y12133*
Y15533*
X25680Y15833*
X27530*
Y15888*
X26680Y14233D02*
X27130D01*
Y14218*
X26680Y28033D02*
X27180D01*
Y27964*
X26780Y6683D02*
X27280D01*
Y6618*
X27080Y20349D02*
X27130D01*
Y19783*
X26580Y19233*
X26080*
X27080Y21018D02*
Y21083D01*
X26580*
X27084Y4183D02*
X28276D01*
X27130Y13549D02*
Y13083D01*
X26530Y12483*
X26130*
X27130Y18433D02*
X27680D01*
Y19099*
X27130Y18433D02*
X28071D01*
X27180Y27294D02*
Y26779D01*
X26634Y26233*
X26130*
X27280Y5949D02*
Y5433D01*
X26730Y4883*
X26230*
X27284Y25479D02*
X28176D01*
X27380Y21979D02*
X26171D01*
X26080Y21888*
Y21688*
X27380Y22688D02*
X25530D01*
X25230Y22388*
Y18838*
X25584Y18483*
X26421*
Y18433*
X27430Y28979D02*
X27830D01*
X27934Y29083*
X28900*
X27430Y29688D02*
X25784D01*
X25480Y29383*
Y25879*
X25880Y25479*
X26576*
X27430Y29688D02*
X27726D01*
X27830Y29583*
X28900*
X27530Y15179D02*
X26230D01*
X26130Y15079*
Y14888*
X27580Y7579D02*
X26330D01*
X26230Y7479*
Y7288*
X27580Y8288D02*
X25880D01*
X25480Y7888*
Y4483*
X25780Y4183*
X26376*
X27680Y19768D02*
Y19833D01*
X28230*
X27730Y12349D02*
Y11683D01*
X28126*
X27730Y13018D02*
X28230D01*
Y13033*
X27930Y4749D02*
Y4183D01*
X28276*
X27930Y5418D02*
X28430D01*
Y5433*
X28126Y11683D02*
X27084D01*
X28176Y25479D02*
X27830D01*
Y26094*
X28280Y26829D02*
X27830D01*
Y26764*
X28430Y5433D02*
X28680Y5683D01*
X29100*
X28900Y12783D02*
X28380D01*
X28230Y12933*
Y13033*
X28900Y13283D02*
X28430D01*
X28230Y13083*
Y13033*
X28900Y14283D02*
X27130D01*
Y14218*
X28900Y14783D02*
X29530D01*
X29730Y14983*
Y16383*
X30464Y17118*
X33824*
X39324Y11618*
X43324*
Y11602*
X28900Y15283D02*
X28130D01*
X28030Y15183*
Y15179*
X27530*
X28900Y15783D02*
X28130D01*
X28030Y15883*
X27530*
Y15888*
X28900Y26583D02*
Y26579D01*
X28380*
X28280Y26679*
Y26829*
X28900Y27083D02*
X28384D01*
X28280Y26979*
Y26829*
X28900Y28083D02*
X27180D01*
Y27964*
X28900Y28583D02*
X29480D01*
X29680Y28783*
Y30233*
X30164Y30718*
X34374*
X39324Y25768*
X43474*
Y25752*
X29000Y19583D02*
X28430D01*
X28230Y19783*
Y19833*
X29000Y20083D02*
X28430D01*
X28230Y19883*
Y19833*
X29000Y21083D02*
X27080D01*
Y21018*
X29000Y21583D02*
X29680D01*
X29830Y21733*
Y23133*
X30564Y23868*
X34174*
X39274Y18768*
X43374*
Y18652*
X29000Y22083D02*
X27880D01*
X27780Y21983*
X27380*
Y21979*
X29000Y22583D02*
X27930D01*
X27826Y22688*
X27380*
X29100Y5183D02*
X28630D01*
X28430Y5383*
Y5433*
X29100Y6683D02*
X27280D01*
Y6618*
X29100Y7183D02*
X29730D01*
X29880Y7333*
Y8633*
X30614Y9368*
X34174*
X39224Y4318*
X43324*
Y4252*
X29100Y7683D02*
X28130D01*
X28030Y7583*
X27580*
Y7579*
X29100Y8183D02*
X28130D01*
X28030Y8283*
X27580*
Y8288*
X30060Y18433D02*
X30626D01*
X30065Y11683D02*
X30630D01*
X30265Y4183D02*
X30880D01*
X30580Y25479D02*
X30065D01*
X30760Y12783D02*
X31280D01*
X31495Y12999*
Y13033*
X31695*
X30760Y13283D02*
X31280D01*
X31495Y13068*
Y13033*
X31695*
X30760Y14283D02*
X31480D01*
X30760Y15283D02*
X31230D01*
X31430Y15483*
Y15583*
X30760Y15783D02*
X31330D01*
X31430Y15683*
Y15583*
X30760Y26583D02*
X31180D01*
X31430Y26833*
X30760Y27083D02*
X31180D01*
X31430Y26833*
X30760Y28083D02*
X31480D01*
X30760Y29083D02*
X31280D01*
X31430Y29233*
Y29433*
X30860Y22083D02*
X31380D01*
X31580Y22283*
Y22433*
X30860Y22583D02*
X31430D01*
X31580Y22433*
X30945Y30233D02*
X30430D01*
X30960Y5183D02*
X31480D01*
X31695Y5399*
Y5433*
X31895*
X30960Y5683D02*
X31480D01*
X31695Y5468*
Y5433*
X31895*
X30960Y6683D02*
X31630D01*
X30960Y7683D02*
X31530D01*
X31680Y7833*
Y8033*
X30995Y16483D02*
X30380D01*
X31095Y23283D02*
X30530D01*
X31195Y8733D02*
X30630D01*
X31230Y12083D02*
X31726D01*
X31430Y26833D02*
X31695D01*
X31430Y29433D02*
X31280Y29583D01*
X30760*
X31476Y25833D02*
X30980D01*
X31580Y24733D02*
X35030D01*
X31580Y27283D02*
Y26833D01*
X31695*
X31680Y8033D02*
X31530Y8183D01*
X30960*
X31695Y13033D02*
X31730D01*
Y13583*
X31726Y18633D02*
X31130D01*
X31730Y21083D02*
X30860D01*
X31745Y19833D02*
Y20383D01*
X31730*
X31745Y19833D02*
X31530D01*
X31280Y20083*
X30860*
X31745Y19833D02*
X31580D01*
X31330Y19583*
X30860*
X31826Y4383D02*
X31280D01*
X31895Y5433D02*
Y5883D01*
X31930*
X31895Y29483D02*
Y29433D01*
X31430*
X31945Y15633D02*
X31430D01*
Y15583*
X32184Y25833D02*
X32330D01*
X32195Y8033D02*
X31680D01*
X32195Y22533D02*
Y22433D01*
X31580*
X32195Y28083D02*
X31480D01*
X32295Y21088D02*
X31730D01*
X32330Y25833D02*
X32980D01*
X33380Y26233*
Y26929*
X33330*
X32365Y26833D02*
X32580D01*
X32780Y26633*
Y25833*
X32330*
X32434Y12083D02*
X33180D01*
X33480Y12383*
Y12879*
X32434Y12083D02*
X32880D01*
Y12833*
X32680Y13033*
X32365*
X32434Y18633D02*
X32930D01*
Y19588*
X32684Y19833*
X32415*
X32434Y18633D02*
X33076D01*
X33430Y18988*
Y19729*
X32534Y4383D02*
X33380D01*
X33680Y4683*
Y5379*
X32534Y4383D02*
X33080D01*
Y5233*
X32880Y5433*
X32565*
X32580Y28783D02*
X33230D01*
Y28779*
X32615Y15633D02*
X33580D01*
Y15688*
X32865Y8033D02*
X33780D01*
Y8088*
X32930Y21783D02*
X33580D01*
Y21829*
X32980Y14983D02*
X33580D01*
Y14979*
X33180Y7433D02*
X33780D01*
Y7379*
X33230Y29488D02*
Y30133D01*
X33130Y30233*
X32884*
X33230Y29488D02*
X32565D01*
Y29483*
X33580Y15688D02*
Y16333D01*
X33430Y16483*
X33034*
X33580Y22538D02*
Y23088D01*
X33434Y23233*
X33084*
Y23283*
X33580Y22538D02*
X32865D01*
Y22533*
X33780Y8088D02*
Y8533D01*
X33580Y8733*
X33234*
X34330Y28833D02*
Y25533D01*
X34180*
X34480Y14783D02*
Y11133D01*
X34180*
X34530Y21883D02*
Y18733D01*
X34380*
X34730Y7633D02*
Y3433D01*
X34380*
X40086Y26899D02*
X40596D01*
X41180Y27483*
Y31033*
X40086Y26899D02*
Y26883D01*
X38524*
X34490Y30918*
X29784*
X28900Y30033*
Y29583*
X40086Y28868D02*
Y27883D01*
X40186Y5399D02*
X40696D01*
X41180Y5883*
Y9533*
X40186Y5399D02*
Y5383D01*
X38474*
X34290Y9568*
X30134*
X29100Y8533*
Y8183*
X40186Y7368D02*
Y6383D01*
Y19949D02*
Y19933D01*
X38480*
X34280Y24133*
X30180*
X29000Y22953*
Y22583*
X40186Y21918D02*
Y20933D01*
X40336Y12699D02*
X40730D01*
X41280Y13249*
Y16733*
X40336Y12699D02*
Y12683D01*
X38630*
X33980Y17333*
X30030*
X28900Y16203*
Y15783*
X40336Y14668D02*
Y13683D01*
X41230Y24033D02*
Y20533D01*
X40646Y19949*
X40186*
X42273Y28789D02*
Y26968D01*
X42723Y26518*
X43055*
X42323Y7139D02*
Y5368D01*
X42774Y4918*
X43089*
X42323Y14639D02*
Y12818D01*
X42823Y12318*
X43139*
X43089Y19417D02*
X42723D01*
X42373Y19767*
Y21489*
X42373*
Y21739*
X43324Y3583D02*
X44174D01*
Y3563*
X43324Y10933D02*
X44224D01*
Y10913*
X43324Y11602D02*
X44224D01*
Y11622*
X43374Y17983D02*
X42930D01*
X42830Y17883*
Y17733*
X42630Y17533*
X34880*
X34530Y17883*
X25480*
X43374Y17983D02*
X44274D01*
Y18013*
X43474Y25083D02*
X44274D01*
Y25063*
X43724Y26518D02*
Y28002D01*
X43769*
X43758Y19417D02*
X44619D01*
X43758D02*
X43874D01*
Y20701*
X43869*
Y20952*
X43759Y4918D02*
X44570D01*
X43759D02*
Y6352D01*
X43819*
X43809Y12318D02*
Y13852D01*
X43819*
X43809Y12318D02*
X44570D01*
X44174Y4272D02*
X43324D01*
Y4252*
X44224Y10913D02*
X45030D01*
X45280Y10663*
Y5483*
X44930Y5133*
Y4633*
X45030Y4533*
X45180*
X45280Y4433*
Y3883*
X44960Y3563*
X44174*
X44224Y11622D02*
X45045D01*
Y11533*
X44274Y18013D02*
X44980D01*
X45280Y17713*
Y12983*
X44880Y12583*
Y12033*
X45030Y11883*
X45280*
X45380Y11783*
Y11263*
X45030Y10913*
X44224*
X44274Y18722D02*
X43374D01*
Y18652*
X44274Y25063D02*
X44710D01*
X45239Y24533*
Y19983*
X45039Y19783*
X45030*
Y19083*
X45130Y18983*
X45380*
X45430Y18933*
Y18363*
X45080Y18013*
X44274*
Y25772D02*
X43474D01*
Y25752*
X44485Y26518D02*
X43724D01*
X44830Y31433D02*
X46430D01*
X48530Y29333*
Y12933*
X48780Y12683*
Y12183*
X48430Y11833*
Y11383*
X44945Y4183D02*
X44174D01*
Y4272*
X45030Y29783D02*
X46880D01*
X47730Y28933*
Y6283*
X46880Y5433*
X45030Y30183D02*
X46780D01*
X47930Y29033*
Y5483*
X47510Y5063*
X47274*
X45095Y18633D02*
X44274D01*
Y18722*
X45105Y25768D02*
X44274D01*
Y25772*
X45278Y4918D02*
X45874D01*
X45278Y12318D02*
X45874D01*
X45324Y2818D02*
Y2817D01*
X46174Y1967*
X46224*
X45324Y2818D02*
X45364D01*
X45729Y3183*
X45328Y19417D02*
X45924D01*
Y19418*
X45615Y4183D02*
X45890D01*
X46224Y4518*
Y5318*
X46024Y5518*
Y6352*
X45715Y11533D02*
X45890D01*
X46324Y11968*
Y12518*
X46024Y12818*
Y13852*
X45739Y26518D02*
X45194D01*
X45765Y18633D02*
X46089D01*
X46474Y19018*
Y19667*
X46074Y20067*
Y20952*
X46074*
X45774Y25768D02*
X46089D01*
X46339Y26018*
Y26918*
X45974Y27283*
Y28002*
X45779Y10533D02*
Y10554D01*
X45591*
Y9870*
X45870Y1068D02*
Y1118D01*
X45824*
X45324Y1618*
Y2818*
X45979Y17633D02*
Y17533D01*
X45630Y17183*
X45979Y24783D02*
Y24733D01*
X45580Y24333*
X46231Y3684D02*
Y3829D01*
X46874Y4472*
X47274*
X46235Y9237D02*
X46224D01*
X45591Y9870*
X46295Y23533D02*
Y23618D01*
X45580Y24333*
X46429Y16332D02*
Y16333D01*
X46430*
X45681Y17083*
Y17183*
X45630*
X46481Y18134D02*
X47264Y18917D01*
X47374*
Y18972*
X46578Y1068D02*
X47174D01*
X47274Y1168*
Y1372*
X46624Y12368D02*
X47174D01*
Y12363*
X46725Y2468D02*
X46674D01*
Y2418*
X47274Y3017*
Y3272*
X47274*
X46824Y19517D02*
X47374D01*
Y19562*
X47174Y10422D02*
Y10168D01*
X46736Y9718*
Y9739*
X47174Y11013D02*
Y10888D01*
X46935*
X46135Y10088*
X47174Y11772D02*
Y11718D01*
X46930*
X46630Y11418*
Y11383*
X46281Y11034*
X47189Y24722D02*
Y24518D01*
X46796Y24124*
Y24034*
X47189Y25313D02*
Y25233D01*
X47130*
X46230Y24333*
Y24283*
X47189Y25872D02*
X46889D01*
X46481Y25463*
Y25284*
X47189Y26463D02*
X46689D01*
Y26468*
X47274Y2468D02*
Y1963D01*
Y3863D02*
X47510D01*
X48130Y4483*
Y11783*
X48580Y12233*
Y12633*
X48330Y12883*
Y29233*
X46580Y30983*
X45030*
X47374Y17672D02*
Y17233D01*
X46974Y16833*
X46930*
X47374Y18263D02*
Y18133D01*
X47280*
Y18283*
X47230*
X46430Y17483*
Y17283*
X46330Y17183*
X48280Y12433D02*
X48130Y12583D01*
Y29133*
X46680Y30583*
X45030*
D02*
D78*
X1630Y283D02*
X49130D01*
Y32783*
X1630*
Y283*
D02*
D79*
X3180Y26033D02*
X7180D01*
Y29233*
X6130Y30283*
Y31933*
X3180*
Y26033*
G36*
X7180*
Y29233*
X6130Y30283*
Y31933*
X3180*
Y26033*
G37*
X5630Y22133D02*
X5626D01*
Y22085*
X4502*
Y23682*
X5626*
Y23633*
X5630*
Y25783*
X2230*
Y20533*
X5630*
Y22133*
X3760Y22017D02*
G75*
G02X4400I320D01*
G01*
G75*
G02X3760I-320*
G01*
Y23749D02*
G75*
G02X4400I320D01*
G01*
G75*
G02X3760I-320*
G01*
X2230Y22017D02*
G36*
Y20533D01*
X5630*
Y22017*
X4400*
G75*
G02X3760I-320*
G01*
X2230*
G37*
X3760D02*
G36*
G75*
G02X4400I320D01*
G01*
X5630*
Y22133*
X5626*
Y22085*
X4502*
Y23682*
X5626*
Y23633*
X5630*
Y23749*
X4400*
G75*
G02X3760I-320*
G01*
X2230*
Y22017*
X3760*
G37*
Y23749D02*
G36*
G75*
G02X4400I320D01*
G01*
X5630*
Y25783*
X2230*
Y23749*
X3760*
G37*
X6280Y31933D02*
Y30383D01*
X6980Y29683*
X9480*
Y31933*
X6280*
G36*
Y30383*
X6980Y29683*
X9480*
Y31933*
X6280*
G37*
X7163Y13433D02*
Y13935D01*
X7697*
Y13433*
X8580*
Y16363*
X8380*
G75*
G02X8346Y16368J120*
G01*
X8020*
Y16383*
X7980*
Y18783*
X8020*
Y18808*
X8580*
Y18883*
X7800*
X7550Y18634*
Y15633*
G75*
G02X7515Y15548I-120*
G01*
X6565Y14598*
G75*
G02X6480Y14563I-85J85*
G01*
X6380*
Y13563*
X5480*
Y14563*
X4697*
Y14412*
X4163*
Y14985*
X4697*
Y14834*
X5480*
Y15803*
X6380*
Y14803*
X6430*
X7310Y15683*
Y18367*
G75*
G02X7280Y18363I-30J116*
G01*
X6380*
Y17363*
X5480*
Y18248*
X4697*
Y18081*
X4163*
Y18654*
X4697*
Y18488*
X5480*
Y19603*
X6380*
Y18603*
X7160*
Y18763*
G75*
G02X7195Y18848I120*
G01*
X7359Y19012*
X6913*
Y19179*
X6880*
G75*
G02X6795Y19214J120*
G01*
X6645Y19364*
G75*
G02X6610Y19449I85J85*
G01*
Y19534*
X6430Y19713*
X5376*
G75*
G02X4950Y19833I-196J120*
G01*
G75*
G02X5376Y19953I230*
G01*
X6480*
G75*
G02X6565Y19918J-120*
G01*
X6815Y19668*
G75*
G02X6850Y19583I-85J-85*
G01*
Y19498*
X6913Y19435*
Y19585*
X7447*
Y19443*
X7980*
Y20183*
X3780*
Y13433*
X7163*
G36*
Y13935*
X7697*
Y13433*
X8580*
Y16363*
X8380*
G75*
G02X8346Y16368J120*
G01*
X8020*
Y16383*
X7980*
Y18783*
X8020*
Y18808*
X8580*
Y18883*
X7800*
X7550Y18634*
Y15633*
G75*
G02X7515Y15548I-120*
G01*
X6565Y14598*
G75*
G02X6480Y14563I-85J85*
G01*
X6380*
Y13563*
X5480*
Y14563*
X4697*
Y14412*
X4163*
Y14985*
X4697*
Y14834*
X5480*
Y15803*
X6380*
Y14803*
X6430*
X7310Y15683*
Y18367*
G75*
G02X7280Y18363I-30J116*
G01*
X6380*
Y17363*
X5480*
Y18248*
X4697*
Y18081*
X4163*
Y18654*
X4697*
Y18488*
X5480*
Y19603*
X6380*
Y18603*
X7160*
Y18763*
G75*
G02X7195Y18848I120*
G01*
X7359Y19012*
X6913*
Y19179*
X6880*
G75*
G02X6795Y19214J120*
G01*
X6645Y19364*
G75*
G02X6610Y19449I85J85*
G01*
Y19534*
X6430Y19713*
X5376*
G75*
G02X4950Y19833I-196J120*
G01*
G75*
G02X5376Y19953I230*
G01*
X6480*
G75*
G02X6565Y19918J-120*
G01*
X6815Y19668*
G75*
G02X6850Y19583I-85J-85*
G01*
Y19498*
X6913Y19435*
Y19585*
X7447*
Y19443*
X7980*
Y20183*
X3780*
Y13433*
X7163*
G37*
X7980Y25183D02*
X9630D01*
Y27583*
X11980*
Y29183*
X7980*
Y25183*
G36*
X9630*
Y27583*
X11980*
Y29183*
X7980*
Y25183*
G37*
X10280Y31033D02*
Y29383D01*
X12680*
Y25533*
X13330*
Y28683*
X15080*
Y31033*
X10280*
G36*
Y29383*
X12680*
Y25533*
X13330*
Y28683*
X15080*
Y31033*
X10280*
G37*
X13430Y28583D02*
Y25533D01*
X14580*
Y28083*
X15080*
Y28583*
X13430*
G36*
Y25533*
X14580*
Y28083*
X15080*
Y28583*
X13430*
G37*
X14610Y23783D02*
Y23873D01*
X14493*
Y24367*
X14967*
Y23873*
X14850*
Y23783*
X16210*
Y23873*
X16093*
Y24367*
X16567*
Y23873*
X16450*
Y23783*
X17230*
Y22753*
X17569*
Y22871*
X18064*
Y22396*
X17569*
Y22513*
X17230*
Y21153*
X17569*
Y21271*
X18064*
Y20796*
X17569*
Y20913*
X17230*
Y20133*
X19780*
Y18083*
X21430*
Y16533*
X21930*
Y16465*
X21947*
Y16383*
X22084*
G75*
G02X22280Y16493I196J-120*
G01*
G75*
G02Y16033J-230*
G01*
G75*
G02X22084Y16143J230*
G01*
X21947*
Y16033*
X24530*
Y27733*
X23630*
X22980Y28383*
Y29283*
X19780*
X19330Y28833*
Y27833*
X19030Y27533*
X17130*
Y25383*
X13830*
Y24233*
X14280Y23783*
X14610*
X14216Y24699D02*
X14099D01*
Y25194*
X14574*
Y24699*
X14484*
X14530Y24653*
X15816*
Y24699*
X15699*
Y25194*
X16174*
Y24699*
X16056*
Y24653*
X16980*
G75*
G02X17065Y24618J-120*
G01*
X17580Y24103*
X18034*
G75*
G02X18110Y24179I196J-120*
G01*
Y24351*
X17924*
Y24806*
X18536*
Y24351*
X18350*
Y24179*
G75*
G02X18460Y23983I-120J-196*
G01*
G75*
G02X18350Y23787I-230*
G01*
Y23153*
X18396*
Y23264*
X18891*
Y22790*
X18396*
Y22913*
X18350*
Y21627*
X18396Y21580*
Y21664*
X18891*
Y21190*
X18396*
Y21307*
X18380*
G75*
G02X18295Y21342J120*
G01*
X18145Y21492*
G75*
G02X18110Y21577I85J85*
G01*
Y22967*
G75*
G02X18093Y23033I120J66*
G01*
G75*
G02X18110Y23099I137*
G01*
Y23787*
G75*
G02X18034Y23863I120J196*
G01*
X17530*
G75*
G02X17445Y23898J120*
G01*
X16930Y24413*
X16002*
G75*
G02X15870I-66J120*
G01*
X14480*
G75*
G02X14395Y24448J120*
G01*
X14251Y24592*
G75*
G02X14216Y24677I85J85*
G01*
Y24699*
X18110Y25515D02*
Y25601D01*
X17924*
Y26056*
X18536*
Y25949*
X20210*
Y25983*
G75*
G02X20330Y26703I120J350*
G01*
G75*
G02X20450Y25983J-370*
G01*
Y25883*
X21980Y24353*
X23348*
Y24539*
X23803*
Y23927*
X23704*
X23708Y23800*
X23882*
Y23266*
X23715*
Y23100*
X23882*
Y22566*
X23309*
Y22713*
X22330*
X20800Y21184*
Y18579*
G75*
G02X20680Y18153I-120J-196*
G01*
G75*
G02X20560Y18579J230*
G01*
Y21233*
G75*
G02X20595Y21318I120*
G01*
X21990Y22713*
X21225*
Y22388*
X19835*
Y23778*
X21225*
Y22953*
X22280*
X23309*
Y23100*
X23456*
Y23266*
X23309*
Y23800*
X23456*
Y23927*
X23348*
Y24113*
X21930*
G75*
G02X21845Y24148J120*
G01*
X20285Y25709*
X18536*
Y25601*
X18350*
Y25515*
X18536*
Y25060*
X17924*
Y25515*
X18110*
X21943Y21101D02*
G75*
G02X21410Y21433I-163J332D01*
G01*
G75*
G02X22150I370*
G01*
G75*
G02X22112Y21271I-370J0*
G01*
X24265Y19118*
G75*
G02X24300Y19033I-85J-85*
G01*
Y17950*
X24467*
Y17416*
X24307*
X24312Y17239*
X24427*
Y16627*
X24310*
X24309Y16600*
X24467*
Y16066*
X23893*
Y16600*
X24069*
X24070Y16627*
X23972*
Y17239*
X24072*
X24067Y17416*
X23893*
Y17950*
X24060*
Y18984*
X21943Y21101*
X21962Y17413D02*
Y17227D01*
X21507*
Y17839*
X21962*
Y17653*
X22080*
G75*
G02X22165Y17618J-120*
G01*
X22226Y17557*
G75*
G02X22280Y17563I54J-224*
G01*
G75*
G02Y17103J-230*
G01*
G75*
G02X22056Y17387J230*
G01*
X22030Y17413*
X21962*
X17230Y23192D02*
G36*
Y22753D01*
X17569*
Y22871*
X18064*
Y22396*
X17569*
Y22513*
X17230*
Y21153*
X17569*
Y21271*
X18064*
Y20796*
X17569*
Y20913*
X17230*
Y20133*
X19780*
Y18935*
X20560*
Y21233*
G75*
G02X20595Y21318I120*
G01*
X21990Y22713*
X21225*
Y22388*
X19835*
Y23192*
X18891*
Y22790*
X18396*
Y22913*
X18350*
Y21627*
X18396Y21580*
Y21664*
X18891*
Y21190*
X18396*
Y21307*
X18380*
G75*
G02X18295Y21342J120*
G01*
X18145Y21492*
G75*
G02X18110Y21577I85J85*
G01*
Y22967*
G75*
G02Y23099I120J66*
G01*
Y23192*
X17230*
G37*
X18110D02*
G36*
Y23787D01*
G75*
G02X18034Y23863I120J196*
G01*
X17530*
G75*
G02X17445Y23898J120*
G01*
X16930Y24413*
X16002*
G75*
G02X15870I-66J120*
G01*
X14480*
G75*
G02X14395Y24448J120*
G01*
X14251Y24592*
G75*
G02X14216Y24677I85J85*
G01*
Y24699*
X14099*
Y25194*
X14574*
Y24699*
X14484*
X14530Y24653*
X15816*
Y24699*
X15699*
Y25194*
X16174*
Y24699*
X16056*
Y24653*
X16980*
G75*
G02X17065Y24618J-120*
G01*
X17580Y24103*
X18034*
G75*
G02X18110Y24179I196J-120*
G01*
Y24351*
X17924*
Y24806*
X18536*
Y24351*
X18350*
Y24179*
G75*
G02Y23787I-120J-196*
G01*
Y23153*
X18396*
Y23264*
X18891*
Y23192*
X19835*
Y23778*
X21225*
Y22953*
X23309*
Y23100*
X23456*
Y23266*
X23309*
Y23800*
X23456*
Y23927*
X23348*
Y24113*
X21930*
G75*
G02X21845Y24148J120*
G01*
X20285Y25709*
X18536*
Y25601*
X18350*
Y25515*
X18536*
Y25060*
X17924*
Y25515*
X18110*
Y25601*
X17924*
Y26056*
X18536*
Y25949*
X20210*
Y25983*
G75*
G02X20330Y26703I120J350*
G01*
G75*
G02X20450Y25983J-370*
G01*
Y25883*
X21980Y24353*
X23348*
Y24539*
X23803*
Y23927*
X23704*
X23708Y23800*
X23882*
Y23266*
X23715*
Y23192*
X24530*
Y27733*
X23630*
X22980Y28383*
Y29283*
X19780*
X19330Y28833*
Y27833*
X19030Y27533*
X17130*
Y25383*
X13830*
Y24233*
X14280Y23783*
X14610*
Y23873*
X14493*
Y24367*
X14967*
Y23873*
X14850*
Y23783*
X16210*
Y23873*
X16093*
Y24367*
X16567*
Y23873*
X16450*
Y23783*
X17230*
Y23192*
X18110*
G37*
X23715D02*
G36*
Y23100D01*
X23882*
Y22566*
X23309*
Y22713*
X22330*
X20800Y21184*
Y18935*
X24060*
Y18984*
X21943Y21101*
G75*
G02X21410Y21433I-163J332*
G01*
G75*
G02X22150I370*
G01*
G75*
G02X22112Y21271I-370J0*
G01*
X24265Y19118*
G75*
G02X24300Y19033I-85J-85*
G01*
Y18935*
X24530*
Y23192*
X23715*
G37*
X19780Y18935D02*
G36*
Y18083D01*
X21430*
Y17471*
X21507*
Y17839*
X21962*
Y17653*
X22080*
G75*
G02X22165Y17618J-120*
G01*
X22226Y17557*
G75*
G02X22280Y17563I54J-224*
G01*
G75*
G02X22464Y17471J-230*
G01*
X23893*
Y17950*
X24060*
Y18935*
X20800*
Y18579*
G75*
G02X20680Y18153I-120J-196*
G01*
G75*
G02X20560Y18579J230*
G01*
Y18935*
X19780*
G37*
X24300D02*
G36*
Y17950D01*
X24467*
Y17471*
X24530*
Y18935*
X24300*
G37*
X21430Y17471D02*
G36*
Y16533D01*
X21930*
Y16465*
X21947*
Y16383*
X22084*
G75*
G02X22280Y16493I196J-120*
G01*
G75*
G02Y16033J-230*
G01*
X24530*
Y17471*
X24467*
Y17416*
X24307*
X24312Y17239*
X24427*
Y16627*
X24310*
X24309Y16600*
X24467*
Y16066*
X23893*
Y16600*
X24069*
X24070Y16627*
X23972*
Y17239*
X24072*
X24067Y17416*
X23893*
Y17471*
X22464*
G75*
G02X22280Y17103I-184J-138*
G01*
G75*
G02X22056Y17387J230*
G01*
X22030Y17413*
X21962*
Y17227*
X21507*
Y17471*
X21430*
G37*
X22280Y16033D02*
G36*
G75*
G02X22084Y16143J230D01*
G01*
X21947*
Y16033*
X22280*
G37*
X15980Y30883D02*
Y29683D01*
X17780*
X18380Y29083*
X18980*
X19380Y29483*
X23980*
Y30883*
X15980*
G36*
Y29683*
X17780*
X18380Y29083*
X18980*
X19380Y29483*
X23980*
Y30883*
X15980*
G37*
X18880Y14383D02*
X18810Y14313D01*
X18030*
Y12863*
X18830*
Y13613*
X19480Y14263*
Y15813*
X17430*
Y14813*
X18850*
X18980Y14683*
Y14483*
X18910Y14413*
Y14383*
X18880*
X17976Y14943D02*
G75*
G02X17780Y14833I-196J120D01*
G01*
G75*
G02Y15293J230*
G01*
G75*
G02X17976Y15183J-230*
G01*
X17990*
Y15243*
X18910*
Y15199*
X19000*
G75*
G02X19096Y15159J-136*
G01*
X19326Y14929*
G75*
G02X19366Y14833I-96J-96*
G01*
Y14433*
G75*
G02X19326Y14337I-136*
G01*
X18611Y13627*
Y13569*
X18703*
Y12957*
X18248*
Y13569*
X18340*
Y13683*
G75*
G02X18380Y13780I136*
G01*
X19094Y14490*
Y14777*
X18944Y14928*
X18910*
Y14883*
X17990*
Y14943*
X17976*
X18030Y14125D02*
G36*
Y12863D01*
X18830*
Y13613*
X19342Y14125*
X19113*
X18611Y13627*
Y13569*
X18703*
Y12957*
X18248*
Y13569*
X18340*
Y13683*
G75*
G02X18380Y13780I136*
G01*
X18728Y14125*
X18030*
G37*
X18728D02*
G36*
X19094Y14490D01*
Y14777*
X18944Y14928*
X18910*
Y14883*
X17990*
Y14943*
X17976*
G75*
G02X17780Y14833I-196J120*
G01*
G75*
G02Y15293J230*
G01*
G75*
G02X17976Y15183J-230*
G01*
X17990*
Y15243*
X18910*
Y15199*
X19000*
G75*
G02X19096Y15159J-136*
G01*
X19326Y14929*
G75*
G02X19366Y14833I-96J-96*
G01*
Y14433*
G75*
G02X19326Y14337I-136*
G01*
X19113Y14125*
X19342*
X19480Y14263*
Y15813*
X17430*
Y14813*
X18850*
X18980Y14683*
Y14483*
X18910Y14413*
Y14383*
X18880*
X18810Y14313*
X18030*
Y14125*
X18728*
G37*
X18900Y17383D02*
X18830Y17313D01*
X17130*
Y16313*
X19480*
Y18113*
X19180Y18413*
Y19113*
X18030*
Y17813*
X18830*
X18900Y17743*
X18910*
Y17733*
X18980Y17663*
Y17463*
X18910Y17393*
Y17383*
X18900*
X17886Y16828D02*
Y16731D01*
X17274*
Y17186*
X17886*
Y17161*
G75*
G02X17980Y17199I94J-98*
G01*
X17990*
Y17243*
X18910*
Y17199*
X19024*
X19094Y17269*
Y17907*
X18730Y18267*
G75*
G02X18690Y18363I95J96*
G01*
Y18407*
X18598*
Y19019*
X19053*
Y18407*
X18974*
X19325Y18060*
G75*
G02X19366Y17963I-95J-96*
G01*
Y17213*
G75*
G02X19326Y17117I-136*
G01*
X19176Y16967*
G75*
G02X19080Y16928I-96J96*
G01*
X18910*
Y16883*
X17992*
X17976Y16867*
G75*
G02X17886Y16828I-96J96*
G01*
X18030Y17875D02*
G36*
Y17813D01*
X18830*
X18900Y17743*
X18910*
Y17733*
X18980Y17663*
Y17463*
X18910Y17393*
Y17383*
X18900*
X18830Y17313*
X17130*
Y16313*
X19480*
Y17875*
X19366*
Y17213*
G75*
G02X19326Y17117I-136*
G01*
X19176Y16967*
G75*
G02X19080Y16928I-96J96*
G01*
X18910*
Y16883*
X17992*
X17976Y16867*
G75*
G02X17886Y16828I-96J96*
G01*
Y16731*
X17274*
Y17186*
X17886*
Y17161*
G75*
G02X17980Y17199I94J-98*
G01*
X17990*
Y17243*
X18910*
Y17199*
X19024*
X19094Y17269*
Y17875*
X18030*
G37*
X19094D02*
G36*
Y17907D01*
X18730Y18267*
G75*
G02X18690Y18363I95J96*
G01*
Y18407*
X18598*
Y19019*
X19053*
Y18407*
X18974*
X19325Y18060*
G75*
G02X19366Y17963I-95J-96*
G01*
Y17875*
X19480*
Y18113*
X19180Y18413*
Y19113*
X18030*
Y17875*
X19094*
G37*
X19780Y17983D02*
Y16313D01*
X21330*
Y17983*
X19780*
X20770Y16943D02*
Y16883D01*
X19850*
Y17243*
X20770*
Y17183*
X20830*
X20874Y17227*
X20798*
Y17443*
X20770*
Y17383*
X19850*
Y17743*
X20770*
Y17683*
X20798*
Y17839*
X21253*
Y17227*
X21146*
Y17209*
G75*
G02X21111Y17124I-120*
G01*
X20965Y16978*
G75*
G02X20880Y16943I-85J85*
G01*
X20770*
X19780Y17361D02*
G36*
Y16313D01*
X21330*
Y17361*
X21253*
Y17227*
X21146*
Y17209*
G75*
G02X21111Y17124I-120*
G01*
X20965Y16978*
G75*
G02X20880Y16943I-85J85*
G01*
X20770*
Y16883*
X19850*
Y17243*
X20770*
Y17183*
X20830*
X20874Y17227*
X20798*
Y17361*
X19780*
G37*
X20798D02*
G36*
Y17443D01*
X20770*
Y17383*
X19850*
Y17743*
X20770*
Y17683*
X20798*
Y17839*
X21253*
Y17361*
X21330*
Y17983*
X19780*
Y17361*
X20798*
G37*
X22630Y15813D02*
X19780D01*
Y14813*
X20830*
Y14313*
X20030*
Y13413*
X21680*
Y12613*
X22630*
Y15813*
X20662Y13693D02*
Y13507D01*
X20207*
Y14119*
X20662*
Y13933*
X20880*
X21560Y14613*
X21230Y14943*
X20770*
Y14883*
X19850*
Y15243*
X20770*
Y15183*
X21280*
G75*
G02X21365Y15148J-120*
G01*
X21780Y14733*
X22048*
Y14919*
X22156*
Y15107*
X22048*
Y15719*
X22503*
Y15107*
X22396*
Y14919*
X22503*
Y14307*
X22416*
Y14119*
X22503*
Y13507*
X22396*
Y13319*
X22503*
Y12707*
X22048*
Y13319*
X22156*
Y13507*
X22048*
Y14119*
X22144*
Y14307*
X22048*
Y14493*
X21780*
X21015Y13728*
G75*
G02X20930Y13693I-85J85*
G01*
X20662*
X20030Y14213D02*
G36*
Y13413D01*
X21680*
Y12613*
X22630*
Y14213*
X22416*
Y14119*
X22503*
Y13507*
X22396*
Y13319*
X22503*
Y12707*
X22048*
Y13319*
X22156*
Y13507*
X22048*
Y14119*
X22144*
Y14307*
X22048*
Y14493*
X21780*
X21015Y13728*
G75*
G02X20930Y13693I-85J85*
G01*
X20662*
Y13507*
X20207*
Y14119*
X20662*
Y13933*
X20880*
X21160Y14213*
X20030*
G37*
X21160D02*
G36*
X21560Y14613D01*
X21230Y14943*
X20770*
Y14883*
X19850*
Y15243*
X20770*
Y15183*
X21280*
G75*
G02X21365Y15148J-120*
G01*
X21780Y14733*
X22048*
Y14919*
X22156*
Y15107*
X22048*
Y15719*
X22503*
Y15107*
X22396*
Y14919*
X22503*
Y14307*
X22416*
Y14213*
X22630*
Y15813*
X19780*
Y14813*
X20830*
Y14313*
X20030*
Y14213*
X21160*
G37*
X27413Y19383D02*
Y19385D01*
X27947*
Y19383*
X28080*
X28430Y19033*
Y18033*
X29730*
Y20833*
X27380*
Y19383*
X27413*
X27947Y19713D02*
Y19481D01*
X27413*
Y20054*
X27947*
Y19953*
X28034*
G75*
G02X28230Y20063I196J-120*
G01*
G75*
G02X28240Y20063I0J-230*
G01*
X28345Y20168*
G75*
G02X28430Y20203I85J-85*
G01*
X28540*
Y20263*
X29460*
Y19903*
X28540*
Y19963*
X28480*
X28441Y19925*
G75*
G02Y19742I-211J-91*
G01*
X28480Y19703*
X28540*
Y19763*
X29460*
Y19403*
X28540*
Y19463*
X28430*
G75*
G02X28345Y19498J120*
G01*
X28240Y19604*
G75*
G02X28230Y19603I-10J230*
G01*
G75*
G02X28034Y19713J230*
G01*
X27947*
X27380Y19833D02*
G36*
Y19383D01*
X27413*
Y19385*
X27947*
Y19383*
X28080*
X28430Y19033*
Y18033*
X29730*
Y19833*
X28460*
G75*
G02X28441Y19742I-230J0*
G01*
X28480Y19703*
X28540*
Y19763*
X29460*
Y19403*
X28540*
Y19463*
X28430*
G75*
G02X28345Y19498J120*
G01*
X28240Y19604*
G75*
G02X28230Y19603I-10J230*
G01*
G75*
G02X28034Y19713J230*
G01*
X27947*
Y19481*
X27413*
Y19833*
X27380*
G37*
X27413D02*
G36*
Y20054D01*
X27947*
Y19953*
X28034*
G75*
G02X28230Y20063I196J-120*
G01*
G75*
G02X28240Y20063I0J-230*
G01*
X28345Y20168*
G75*
G02X28430Y20203I85J-85*
G01*
X28540*
Y20263*
X29460*
Y19903*
X28540*
Y19963*
X28480*
X28441Y19925*
G75*
G02X28460Y19833I-211J-91*
G01*
X29730*
Y20833*
X27380*
Y19833*
X27413*
G37*
X27430Y13983D02*
Y12683D01*
X27980*
X28480Y12183*
Y11233*
X29680*
Y13983*
X27430*
X27997Y12882D02*
Y12731D01*
X27463*
Y13304*
X27997*
Y13154*
X28034*
G75*
G02X28230Y13263I196J-120*
G01*
G75*
G02X28240Y13263I0J-230*
G01*
X28345Y13368*
G75*
G02X28430Y13403I85J-85*
G01*
X28440*
Y13463*
X29360*
Y13103*
X28449*
G75*
G02Y12963I-219J-70*
G01*
X29360*
Y12603*
X28440*
Y12663*
X28380*
G75*
G02X28295Y12698J120*
G01*
X28186Y12808*
G75*
G02X28057Y12882I44J226*
G01*
X27997*
X27430Y13033D02*
G36*
Y12683D01*
X27980*
X28480Y12183*
Y11233*
X29680*
Y13033*
X28460*
G75*
G02X28449Y12963I-230*
G01*
X29360*
Y12603*
X28440*
Y12663*
X28380*
G75*
G02X28295Y12698J120*
G01*
X28186Y12808*
G75*
G02X28057Y12882I44J226*
G01*
X27997*
Y12731*
X27463*
Y13033*
X27430*
G37*
X27463D02*
G36*
Y13304D01*
X27997*
Y13154*
X28034*
G75*
G02X28230Y13263I196J-120*
G01*
G75*
G02X28240Y13263I0J-230*
G01*
X28345Y13368*
G75*
G02X28430Y13403I85J-85*
G01*
X28440*
Y13463*
X29360*
Y13103*
X28449*
G75*
G02X28460Y13033I-219J-70*
G01*
X29680*
Y13983*
X27430*
Y13033*
X27463*
G37*
X27530Y27729D02*
Y26429D01*
X28130*
X28530Y26029*
Y25129*
X29730*
Y27729*
X27530*
X28097Y26690D02*
Y26477D01*
X27563*
Y27050*
X28097*
Y26968*
G75*
G02X28173Y27032I183J-139*
G01*
G75*
G02X28195Y27064I107J-53*
G01*
X28299Y27168*
G75*
G02X28384Y27203I85J-85*
G01*
X28440*
Y27263*
X29360*
Y26903*
X28498*
G75*
G02X28500Y26763I-218J-74*
G01*
X29360*
Y26403*
X28440*
Y26448*
X28380*
G75*
G02X28286Y26485J136*
G01*
X28186Y26581*
G75*
G02X28150Y26639I94J98*
G01*
G75*
G02X28097Y26690I130J190*
G01*
X27530Y26833D02*
G36*
Y26429D01*
X28130*
X28530Y26029*
Y25129*
X29730*
Y26833*
X28510*
G75*
G02X28500Y26763I-230J-4*
G01*
X29360*
Y26403*
X28440*
Y26448*
X28380*
G75*
G02X28286Y26485J136*
G01*
X28186Y26581*
G75*
G02X28150Y26639I94J98*
G01*
G75*
G02X28097Y26690I130J190*
G01*
Y26477*
X27563*
Y26833*
X27530*
G37*
X27563D02*
G36*
Y27050D01*
X28097*
Y26968*
G75*
G02X28173Y27032I183J-139*
G01*
G75*
G02X28195Y27064I107J-53*
G01*
X28299Y27168*
G75*
G02X28384Y27203I85J-85*
G01*
X28440*
Y27263*
X29360*
Y26903*
X28498*
G75*
G02X28510Y26833I-218J-74*
G01*
X29730*
Y27729*
X27530*
Y26833*
X27563*
G37*
X27580Y6383D02*
Y5083D01*
X28180*
X28680Y4583*
Y3733*
X29880*
Y6383*
X27580*
X28197Y5282D02*
Y5131D01*
X27663*
Y5704*
X28197*
Y5554*
X28234*
G75*
G02X28430Y5663I196J-120*
G01*
G75*
G02X28484Y5657I0J-230*
G01*
X28595Y5768*
G75*
G02X28640Y5796I85J-85*
G01*
Y5863*
X29560*
Y5503*
X28670*
X28654Y5487*
G75*
G02X28649Y5363I-224J-54*
G01*
X29560*
Y5003*
X28640*
Y5063*
X28630*
G75*
G02X28545Y5098J120*
G01*
X28440Y5204*
G75*
G02X28430Y5203I-10J230*
G01*
G75*
G02X28257Y5282J230*
G01*
X28197*
X27580Y5433D02*
G36*
Y5083D01*
X28180*
X28680Y4583*
Y3733*
X29880*
Y5433*
X28660*
G75*
G02X28649Y5363I-230*
G01*
X29560*
Y5003*
X28640*
Y5063*
X28630*
G75*
G02X28545Y5098J120*
G01*
X28440Y5204*
G75*
G02X28430Y5203I-10J230*
G01*
G75*
G02X28257Y5282J230*
G01*
X28197*
Y5131*
X27663*
Y5433*
X27580*
G37*
X27663D02*
G36*
Y5704D01*
X28197*
Y5554*
X28234*
G75*
G02X28484Y5657I196J-120*
G01*
X28595Y5768*
G75*
G02X28640Y5796I85J-85*
G01*
Y5863*
X29560*
Y5503*
X28670*
X28654Y5487*
G75*
G02X28660Y5433I-224J-54*
G01*
X29880*
Y6383*
X27580*
Y5433*
X27663*
G37*
X29430Y14533D02*
Y15533D01*
X25630*
Y14533*
X29430*
X26016Y15115D02*
G75*
G02X26045Y15164I114J-36D01*
G01*
X26145Y15264*
G75*
G02X26230Y15299I85J-85*
G01*
X27224*
Y15406*
X27836*
Y15319*
X27974*
X28034Y15379*
G75*
G02X28130Y15419I96J-96*
G01*
X28440*
Y15463*
X29360*
Y15103*
X28440*
Y15148*
X28186*
X28126Y15087*
G75*
G02X28030Y15048I-96J96*
G01*
X27836*
Y14951*
X27224*
Y15059*
X26436*
Y14660*
X25824*
Y15115*
X26016*
X25630Y15062D02*
G36*
Y14533D01*
X29430*
Y15062*
X28090*
G75*
G02X28030Y15048I-60J122*
G01*
X27836*
Y14951*
X27224*
Y15059*
X26436*
Y14660*
X25824*
Y15062*
X25630*
G37*
X25824D02*
G36*
Y15115D01*
X26016*
G75*
G02X26045Y15164I114J-36*
G01*
X26145Y15264*
G75*
G02X26230Y15299I85J-85*
G01*
X27224*
Y15406*
X27836*
Y15319*
X27974*
X28034Y15379*
G75*
G02X28130Y15419I96J-96*
G01*
X28440*
Y15463*
X29360*
Y15103*
X28440*
Y15148*
X28186*
X28126Y15087*
G75*
G02X28090Y15062I-96J96*
G01*
X29430*
Y15533*
X25630*
Y15062*
X25824*
G37*
X29430Y28383D02*
Y29329D01*
X25680*
Y28383*
X29430*
X25998Y28965D02*
G75*
G02X26034Y29029I132J-32D01*
G01*
X26084Y29079*
G75*
G02X26180Y29119I96J-96*
G01*
X27124*
Y29206*
X27736*
Y29099*
X27780*
X27849Y29168*
G75*
G02X27934Y29203I85J-85*
G01*
X28440*
Y29263*
X29360*
Y28903*
X28440*
Y28963*
X27984*
X27915Y28894*
G75*
G02X27830Y28859I-85J85*
G01*
X27736*
Y28751*
X27124*
Y28848*
X26436*
Y28510*
X25824*
Y28965*
X25998*
X25680Y28887D02*
G36*
Y28383D01*
X29430*
Y28887*
X27907*
G75*
G02X27830Y28859I-77J92*
G01*
X27736*
Y28751*
X27124*
Y28848*
X26436*
Y28510*
X25824*
Y28887*
X25680*
G37*
X25824D02*
G36*
Y28965D01*
X25998*
G75*
G02X26034Y29029I132J-32*
G01*
X26084Y29079*
G75*
G02X26180Y29119I96J-96*
G01*
X27124*
Y29206*
X27736*
Y29099*
X27780*
X27849Y29168*
G75*
G02X27934Y29203I85J-85*
G01*
X28440*
Y29263*
X29360*
Y28903*
X28440*
Y28963*
X27984*
X27915Y28894*
G75*
G02X27907Y28887I-85J85*
G01*
X29430*
Y29329*
X25680*
Y28887*
X25824*
G37*
X29580Y21333D02*
Y22333D01*
X25530*
Y21333*
X29580*
X25963Y21915D02*
G75*
G02X25995Y21972I117J-28D01*
G01*
X26086Y22064*
G75*
G02X26171Y22099I85J-85*
G01*
X27074*
Y22206*
X27686*
Y22119*
X27724*
X27784Y22179*
G75*
G02X27880Y22219I96J-96*
G01*
X28540*
Y22263*
X29460*
Y21903*
X28540*
Y21948*
X27936*
X27876Y21887*
G75*
G02X27780Y21848I-96J96*
G01*
X27686*
Y21751*
X27074*
Y21859*
X26386*
Y21460*
X25774*
Y21915*
X25963*
X25530Y21862D02*
G36*
Y21333D01*
X29580*
Y21862*
X27840*
G75*
G02X27780Y21848I-60J122*
G01*
X27686*
Y21751*
X27074*
Y21859*
X26386*
Y21460*
X25774*
Y21862*
X25530*
G37*
X25774D02*
G36*
Y21915D01*
X25963*
G75*
G02X25995Y21972I117J-28*
G01*
X26086Y22064*
G75*
G02X26171Y22099I85J-85*
G01*
X27074*
Y22206*
X27686*
Y22119*
X27724*
X27784Y22179*
G75*
G02X27880Y22219I96J-96*
G01*
X28540*
Y22263*
X29460*
Y21903*
X28540*
Y21948*
X27936*
X27876Y21887*
G75*
G02X27840Y21862I-96J96*
G01*
X29580*
Y22333*
X25530*
Y21862*
X25774*
G37*
X29630Y6983D02*
Y7883D01*
X25780*
Y6983*
X29630*
X26116Y7515D02*
G75*
G02X26145Y7564I114J-36D01*
G01*
X26245Y7664*
G75*
G02X26330Y7699I85J-85*
G01*
X27274*
Y7806*
X27886*
Y7719*
X27974*
X28034Y7779*
G75*
G02X28130Y7819I96J-96*
G01*
X28640*
Y7863*
X29560*
Y7503*
X28640*
Y7548*
X28186*
X28126Y7487*
G75*
G02X28030Y7448I-96J96*
G01*
X27886*
Y7351*
X27274*
Y7459*
X26536*
Y7060*
X25924*
Y7515*
X26116*
X25780Y7462D02*
G36*
Y6983D01*
X29630*
Y7462*
X28090*
G75*
G02X28030Y7448I-60J122*
G01*
X27886*
Y7351*
X27274*
Y7459*
X26536*
Y7060*
X25924*
Y7462*
X25780*
G37*
X25924D02*
G36*
Y7515D01*
X26116*
G75*
G02X26145Y7564I114J-36*
G01*
X26245Y7664*
G75*
G02X26330Y7699I85J-85*
G01*
X27274*
Y7806*
X27886*
Y7719*
X27974*
X28034Y7779*
G75*
G02X28130Y7819I96J-96*
G01*
X28640*
Y7863*
X29560*
Y7503*
X28640*
Y7548*
X28186*
X28126Y7487*
G75*
G02X28090Y7462I-96J96*
G01*
X29630*
Y7883*
X25780*
Y7462*
X25924*
G37*
X29980Y14533D02*
X31430D01*
Y15033*
X32280*
Y16083*
X32680*
Y16883*
X31330*
Y16083*
X29980*
Y14533*
X31201Y15603D02*
X30300D01*
Y15963*
X31220*
Y15903*
X31330*
G75*
G02X31415Y15868J-120*
G01*
X31474Y15809*
G75*
G02X31585Y15753I-44J-226*
G01*
X31659*
Y15900*
X32232*
Y15366*
X31659*
Y15513*
X31649*
G75*
G02X31474Y15358I-219J70*
G01*
X31315Y15198*
G75*
G02X31230Y15163I-85J85*
G01*
X31220*
Y15103*
X30300*
Y15463*
X31220*
Y15443*
X31236Y15459*
G75*
G02X31201Y15603I194J124*
G01*
X29980Y15533D02*
G36*
Y14533D01*
X31430*
Y15033*
X32280*
Y15533*
X32232*
Y15366*
X31659*
Y15513*
X31649*
G75*
G02X31474Y15358I-219J70*
G01*
X31315Y15198*
G75*
G02X31230Y15163I-85J85*
G01*
X31220*
Y15103*
X30300*
Y15463*
X31220*
Y15443*
X31236Y15459*
G75*
G02X31205Y15533I194J124*
G01*
X29980*
G37*
X31205D02*
G36*
G75*
G02X31201Y15603I225J50D01*
G01*
X30300*
Y15963*
X31220*
Y15903*
X31330*
G75*
G02X31415Y15868J-120*
G01*
X31474Y15809*
G75*
G02X31585Y15753I-44J-226*
G01*
X31659*
Y15900*
X32232*
Y15533*
X32280*
Y16083*
X32680*
Y16883*
X31330*
Y16083*
X29980*
Y15533*
X31205*
G37*
X30080Y19283D02*
X32080D01*
Y20133*
X33780*
Y21433*
X32630*
Y20783*
X30080*
Y19283*
X31290Y19903D02*
X30400D01*
Y20263*
X31320*
Y20196*
G75*
G02X31365Y20168I-40J-113*
G01*
X31459Y20074*
Y20100*
X31610*
Y20187*
G75*
G02X31730Y20613I120J196*
G01*
G75*
G02X31881Y20210J-230*
G01*
Y20100*
X32032*
Y19566*
X31483*
X31415Y19498*
G75*
G02X31330Y19463I-85J85*
G01*
X31320*
Y19403*
X30400*
Y19763*
X31320*
Y19743*
X31385Y19808*
X31290Y19903*
X30080Y20008D02*
G36*
Y19283D01*
X32080*
Y20008*
X32032*
Y19566*
X31483*
X31415Y19498*
G75*
G02X31330Y19463I-85J85*
G01*
X31320*
Y19403*
X30400*
Y19763*
X31320*
Y19743*
X31385Y19808*
X31290Y19903*
X30400*
Y20008*
X30080*
G37*
X30400D02*
G36*
Y20263D01*
X31320*
Y20196*
G75*
G02X31365Y20168I-40J-113*
G01*
X31459Y20074*
Y20100*
X31610*
Y20187*
G75*
G02X31730Y20613I120J196*
G01*
G75*
G02X31881Y20210J-230*
G01*
Y20100*
X32032*
Y20008*
X32080*
Y20133*
X33780*
Y21433*
X32630*
Y20783*
X30080*
Y20008*
X30400*
G37*
X30080Y21333D02*
X31530D01*
Y21833*
X32530*
Y22883*
X32730*
Y23633*
X31430*
Y22833*
X30080*
Y21333*
X31320Y21963D02*
Y21903D01*
X30400*
Y22263*
X31320*
Y22203*
X31330*
X31408Y22281*
G75*
G02X31352Y22463I172J152*
G01*
X31320*
Y22403*
X30400*
Y22763*
X31320*
Y22703*
X31430*
G75*
G02X31515Y22668J-120*
G01*
X31526Y22657*
G75*
G02X31580Y22663I54J-224*
G01*
G75*
G02X31776Y22553J-230*
G01*
X31909*
Y22800*
X32482*
Y22266*
X31909*
Y22313*
X31776*
G75*
G02X31687Y22230I-196J120*
G01*
G75*
G02X31665Y22198I-107J53*
G01*
X31465Y21998*
G75*
G02X31380Y21963I-85J85*
G01*
X31320*
X30080Y22352D02*
G36*
Y21333D01*
X31530*
Y21833*
X32530*
Y22352*
X32482*
Y22266*
X31909*
Y22313*
X31776*
G75*
G02X31687Y22230I-196J120*
G01*
G75*
G02X31665Y22198I-107J53*
G01*
X31465Y21998*
G75*
G02X31380Y21963I-85J85*
G01*
X31320*
Y21903*
X30400*
Y22263*
X31320*
Y22203*
X31330*
X31408Y22281*
G75*
G02X31365Y22352I172J152*
G01*
X30080*
G37*
X31365D02*
G36*
G75*
G02X31352Y22463I215J82D01*
G01*
X31320*
Y22403*
X30400*
Y22763*
X31320*
Y22703*
X31430*
G75*
G02X31515Y22668J-120*
G01*
X31526Y22657*
G75*
G02X31776Y22553I54J-224*
G01*
X31909*
Y22800*
X32482*
Y22352*
X32530*
Y22883*
X32730*
Y23633*
X31430*
Y22833*
X30080*
Y22352*
X31365*
G37*
X30130Y4833D02*
X32230D01*
Y5733*
X34080*
Y6983*
X32580*
Y6383*
X30130*
Y4833*
X31420Y5048D02*
Y5003D01*
X30500*
Y5363*
X31420*
Y5319*
X31424*
X31549Y5444*
X31430Y5563*
X31420*
Y5503*
X30500*
Y5863*
X31420*
Y5803*
X31480*
G75*
G02X31565Y5768J-120*
G01*
X31633Y5700*
X31775*
Y5713*
G75*
G02X31930Y6113I155J170*
G01*
G75*
G02X32069Y5700J-230*
G01*
X32182*
Y5166*
X31655*
X31576Y5087*
G75*
G02X31480Y5048I-96J96*
G01*
X31420*
X30130Y5558D02*
G36*
Y4833D01*
X32230*
Y5558*
X32182*
Y5166*
X31655*
X31576Y5087*
G75*
G02X31480Y5048I-96J96*
G01*
X31420*
Y5003*
X30500*
Y5363*
X31420*
Y5319*
X31424*
X31549Y5444*
X31430Y5563*
X31420*
Y5503*
X30500*
Y5558*
X30130*
G37*
X30500D02*
G36*
Y5863D01*
X31420*
Y5803*
X31480*
G75*
G02X31565Y5768J-120*
G01*
X31633Y5700*
X31775*
Y5713*
G75*
G02X31930Y6113I155J170*
G01*
G75*
G02X32069Y5700J-230*
G01*
X32182*
Y5558*
X32230*
Y5733*
X34080*
Y6983*
X32580*
Y6383*
X30130*
Y5558*
X30500*
G37*
X31280Y30533D02*
Y29833D01*
X30030*
Y28333*
X31380*
Y28933*
X32230*
Y29833*
X32530*
Y30533*
X31280*
X31202Y29403D02*
X30300D01*
Y29763*
X31220*
Y29703*
X31280*
G75*
G02X31365Y29668J-120*
G01*
X31376Y29657*
G75*
G02X31430Y29663I54J-224*
G01*
G75*
G02X31609Y29578J-230*
G01*
Y29750*
X32182*
Y29216*
X31609*
Y29289*
G75*
G02X31550Y29237I-179J145*
G01*
Y29233*
G75*
G02X31515Y29148I-120*
G01*
X31365Y28998*
G75*
G02X31280Y28963I-85J85*
G01*
X31220*
Y28903*
X30300*
Y29263*
X31220*
Y29203*
X31230*
X31283Y29256*
G75*
G02X31202Y29403I147J177*
G01*
X30030Y29333D02*
G36*
Y28333D01*
X31380*
Y28933*
X32230*
Y29333*
X32182*
Y29216*
X31609*
Y29289*
G75*
G02X31550Y29237I-179J145*
G01*
Y29233*
G75*
G02X31515Y29148I-120*
G01*
X31365Y28998*
G75*
G02X31280Y28963I-85J85*
G01*
X31220*
Y28903*
X30300*
Y29263*
X31220*
Y29203*
X31230*
X31283Y29256*
G75*
G02X31223Y29333I147J177*
G01*
X30030*
G37*
X31223D02*
G36*
G75*
G02X31202Y29403I207J100D01*
G01*
X30300*
Y29763*
X31220*
Y29703*
X31280*
G75*
G02X31365Y29668J-120*
G01*
X31376Y29657*
G75*
G02X31609Y29578I54J-224*
G01*
Y29750*
X32182*
Y29333*
X32230*
Y29833*
X32530*
Y30533*
X31280*
Y29833*
X30030*
Y29333*
X31223*
G37*
X32078Y13283D02*
Y13300D01*
X32651*
Y13283*
X33830*
Y14633*
X32430*
Y13983*
X29980*
Y12483*
X32030*
Y13283*
X32078*
X31220Y12648D02*
Y12603D01*
X30300*
Y12963*
X31220*
Y12919*
X31224*
X31349Y13044*
X31230Y13163*
X31220*
Y13103*
X30300*
Y13463*
X31220*
Y13403*
X31280*
G75*
G02X31365Y13368J-120*
G01*
X31433Y13300*
X31610*
Y13387*
G75*
G02X31730Y13813I120J196*
G01*
G75*
G02X31850Y13387J-230*
G01*
Y13300*
X31982*
Y12766*
X31455*
X31376Y12687*
G75*
G02X31280Y12648I-96J96*
G01*
X31220*
X29980Y13208D02*
G36*
Y12483D01*
X32030*
Y13208*
X31982*
Y12766*
X31455*
X31376Y12687*
G75*
G02X31280Y12648I-96J96*
G01*
X31220*
Y12603*
X30300*
Y12963*
X31220*
Y12919*
X31224*
X31349Y13044*
X31230Y13163*
X31220*
Y13103*
X30300*
Y13208*
X29980*
G37*
X30300D02*
G36*
Y13463D01*
X31220*
Y13403*
X31280*
G75*
G02X31365Y13368J-120*
G01*
X31433Y13300*
X31610*
Y13387*
G75*
G02X31730Y13813I120J196*
G01*
G75*
G02X31850Y13387J-230*
G01*
Y13300*
X31982*
Y13208*
X32030*
Y13283*
X32078*
Y13300*
X32651*
Y13283*
X33830*
Y14633*
X32430*
Y13983*
X29980*
Y13208*
X30300*
G37*
X32578Y8283D02*
Y8300D01*
X32880*
Y9083*
X31530*
Y8433*
X30080*
Y6983*
X31530*
Y7433*
X32530*
Y8283*
X32578*
X31420Y7563D02*
Y7503D01*
X30500*
Y7863*
X31420*
Y7803*
X31480*
X31533Y7856*
G75*
G02X31452Y8063I147J177*
G01*
X31420*
Y8003*
X30500*
Y8363*
X31420*
Y8303*
X31530*
G75*
G02X31615Y8268J-120*
G01*
X31626Y8257*
G75*
G02X31680Y8263I54J-224*
G01*
G75*
G02X31876Y8153J-230*
G01*
X31909*
Y8300*
X32482*
Y7766*
X31909*
Y7913*
X31876*
G75*
G02X31800Y7837I-196J120*
G01*
Y7833*
G75*
G02X31765Y7748I-120*
G01*
X31615Y7598*
G75*
G02X31530Y7563I-85J85*
G01*
X31420*
X30080Y7933D02*
G36*
Y6983D01*
X31530*
Y7433*
X32530*
Y7933*
X32482*
Y7766*
X31909*
Y7913*
X31876*
G75*
G02X31800Y7837I-196J120*
G01*
Y7833*
G75*
G02X31765Y7748I-120*
G01*
X31615Y7598*
G75*
G02X31530Y7563I-85J85*
G01*
X31420*
Y7503*
X30500*
Y7863*
X31420*
Y7803*
X31480*
X31533Y7856*
G75*
G02X31473Y7933I147J177*
G01*
X30080*
G37*
X31473D02*
G36*
G75*
G02X31452Y8063I207J100D01*
G01*
X31420*
Y8003*
X30500*
Y8363*
X31420*
Y8303*
X31530*
G75*
G02X31615Y8268J-120*
G01*
X31626Y8257*
G75*
G02X31876Y8153I54J-224*
G01*
X31909*
Y8300*
X32482*
Y7933*
X32530*
Y8283*
X32578*
Y8300*
X32880*
Y9083*
X31530*
Y8433*
X30080*
Y7933*
X31473*
G37*
X33630Y27283D02*
Y28333D01*
X32530*
Y27783*
X30030*
Y26283*
X32030*
Y27283*
X33630*
X31190Y26763D02*
X31260Y26833D01*
X31190Y26903*
X30300*
Y27263*
X31220*
Y27196*
G75*
G02X31265Y27168I-40J-113*
G01*
X31409Y27024*
Y27100*
X31441*
G75*
G02X31580Y27513I139J183*
G01*
G75*
G02X31719Y27100J-230*
G01*
X31982*
Y26566*
X31409*
Y26642*
X31265Y26498*
G75*
G02X31220Y26470I-85J85*
G01*
Y26403*
X30300*
Y26763*
X31190*
X30030Y26958D02*
G36*
Y26283D01*
X32030*
Y26958*
X31982*
Y26566*
X31409*
Y26642*
X31265Y26498*
G75*
G02X31220Y26470I-85J85*
G01*
Y26403*
X30300*
Y26763*
X31190*
X31260Y26833*
X31190Y26903*
X30300*
Y26958*
X30030*
G37*
X30300D02*
G36*
Y27263D01*
X31220*
Y27196*
G75*
G02X31265Y27168I-40J-113*
G01*
X31409Y27024*
Y27100*
X31441*
G75*
G02X31580Y27513I139J183*
G01*
G75*
G02X31719Y27100J-230*
G01*
X31982*
Y26958*
X32030*
Y27283*
X33630*
Y28333*
X32530*
Y27783*
X30030*
Y26958*
X30300*
G37*
D02*
D88*
X8380Y16323D03*
Y16483D03*
Y16643D03*
Y16803D03*
Y16953D03*
Y17113D03*
Y17273D03*
Y17433D03*
Y17583D03*
Y17743D03*
Y17903D03*
Y18063D03*
Y18213D03*
Y18373D03*
Y18533D03*
Y18693D03*
Y18843D03*
Y19003D03*
Y19163D03*
Y19323D03*
Y19473D03*
Y19633D03*
Y19793D03*
Y19953D03*
Y20103D03*
Y20263D03*
Y20423D03*
Y20583D03*
Y20733D03*
Y20893D03*
Y21053D03*
Y21213D03*
Y21363D03*
Y21523D03*
Y21683D03*
Y21843D03*
X15180Y16323D03*
Y16483D03*
Y16643D03*
Y16803D03*
Y16953D03*
Y17113D03*
Y17273D03*
Y17433D03*
Y17583D03*
Y17743D03*
Y17903D03*
Y18063D03*
Y18213D03*
Y18373D03*
Y18533D03*
Y18693D03*
Y18843D03*
Y19003D03*
Y19163D03*
Y19323D03*
Y19473D03*
Y19633D03*
Y19793D03*
Y19953D03*
Y20103D03*
Y20263D03*
Y20423D03*
Y20583D03*
Y20733D03*
Y20893D03*
Y21053D03*
Y21213D03*
Y21363D03*
Y21523D03*
Y21683D03*
Y21843D03*
D02*
D89*
X9020Y15683D03*
Y22483D03*
X9180Y15683D03*
Y22483D03*
X9340Y15683D03*
Y22483D03*
X9500Y15683D03*
Y22483D03*
X9650Y15683D03*
Y22483D03*
X9810Y15683D03*
Y22483D03*
X9970Y15683D03*
Y22483D03*
X10130Y15683D03*
Y22483D03*
X10280Y15683D03*
Y22483D03*
X10440Y15683D03*
Y22483D03*
X10600Y15683D03*
Y22483D03*
X10760Y15683D03*
Y22483D03*
X10910Y15683D03*
Y22483D03*
X11070Y15683D03*
Y22483D03*
X11230Y15683D03*
Y22483D03*
X11390Y15683D03*
Y22483D03*
X11540Y15683D03*
Y22483D03*
X11700Y15683D03*
Y22483D03*
X11860Y15683D03*
Y22483D03*
X12020Y15683D03*
Y22483D03*
X12170Y15683D03*
Y22483D03*
X12330Y15683D03*
Y22483D03*
X12490Y15683D03*
Y22483D03*
X12650Y15683D03*
Y22483D03*
X12800Y15683D03*
Y22483D03*
X12960Y15683D03*
Y22483D03*
X13120Y15683D03*
Y22483D03*
X13280Y15683D03*
Y22483D03*
X13430Y15683D03*
Y22483D03*
X13590Y15683D03*
Y22483D03*
X13750Y15683D03*
Y22483D03*
X13910Y15683D03*
Y22483D03*
X14060Y15683D03*
Y22483D03*
X14220Y15683D03*
Y22483D03*
X14380Y15683D03*
Y22483D03*
X14540Y15683D03*
Y22483D03*
D02*
D90*
X3680Y25549D03*
Y26218D03*
X4430Y14699D03*
Y15368D03*
Y17699D03*
Y18368D03*
X6630Y20199D03*
Y20868D03*
X7180Y19299D03*
Y19968D03*
X7430Y13649D03*
Y14318D03*
X7730Y19999D03*
Y20668D03*
X16130Y15349D03*
Y16018D03*
X16330Y19199D03*
Y19868D03*
X17430Y27199D03*
Y27868D03*
X20030Y29049D03*
Y29718D03*
X20880Y29049D03*
Y29718D03*
X21680Y16179D03*
Y16848D03*
X21780Y29049D03*
Y29718D03*
X27080Y20349D03*
Y21018D03*
X27130Y13549D03*
Y14218D03*
X27180Y27294D03*
Y27964D03*
X27280Y5949D03*
Y6618D03*
X27680Y19099D03*
Y19768D03*
X27730Y12349D03*
Y13018D03*
X27830Y26094D03*
Y26764D03*
X27930Y4749D03*
Y5418D03*
X43324Y3583D03*
Y4252D03*
Y10933D03*
Y11602D03*
X43374Y17983D03*
Y18652D03*
X43474Y25083D03*
Y25752D03*
D02*
D91*
X8345Y15033D03*
X9015D03*
X10145Y23333D03*
X10815D03*
X11345Y13783D03*
X12015D03*
X12145Y23333D03*
X12815D03*
X13045Y25833D03*
Y26683D03*
Y27483D03*
X13395Y23333D03*
X13715Y25833D03*
Y26683D03*
Y27483D03*
X14065Y23333D03*
X23511Y16333D03*
Y17683D03*
X23595Y22833D03*
Y23533D03*
X24180Y16333D03*
Y17683D03*
X24265Y22833D03*
Y23533D03*
X29391Y18433D03*
X29395Y11683D03*
Y25479D03*
X29595Y4183D03*
X30060Y18433D03*
X30065Y11683D03*
Y25479D03*
X30265Y4183D03*
X30945Y30233D03*
X30995Y16483D03*
X31095Y23283D03*
X31195Y8733D03*
X31615Y30233D03*
X31665Y16483D03*
X31695Y13033D03*
Y26833D03*
X31745Y19833D03*
X31765Y23283D03*
X31865Y8733D03*
X31895Y5433D03*
Y29483D03*
X31945Y15633D03*
X32095Y14283D03*
X32145Y6683D03*
X32195Y8033D03*
Y22533D03*
Y28083D03*
X32295Y21088D03*
X32365Y13033D03*
Y26833D03*
X32415Y19833D03*
X32565Y5433D03*
Y29483D03*
X32615Y15633D03*
X32765Y14283D03*
X32815Y6683D03*
X32865Y8033D03*
Y22533D03*
Y28083D03*
X32965Y21088D03*
X43055Y26518D03*
X43089Y19417D03*
X43089Y4918D03*
X43139Y12318D03*
X43724Y26518D03*
X43758Y19417D03*
X43759Y4918D03*
X43809Y12318D03*
X44945Y4183D03*
X45045Y11533D03*
X45095Y18633D03*
X45105Y25768D03*
X45615Y4183D03*
X45715Y11533D03*
X45765Y18633D03*
X45774Y25768D03*
D02*
D92*
X4680Y25479D03*
Y26188D03*
X10580Y13029D03*
Y13738D03*
X11430Y23579D03*
Y24288D03*
X16230Y1429D03*
Y2138D03*
X17530Y18575D03*
Y19283D03*
X17580Y16959D03*
Y17668D03*
X18230Y24579D03*
Y25288D03*
Y25829D03*
Y26538D03*
X18680Y27279D03*
Y27988D03*
Y28529D03*
Y29238D03*
X21480Y1429D03*
Y2138D03*
X22680Y29029D03*
Y29738D03*
X24230Y27529D03*
Y28238D03*
X26080Y19729D03*
Y20438D03*
Y20979D03*
Y21688D03*
X26130Y12979D03*
Y13688D03*
Y14179D03*
Y14888D03*
Y26729D03*
Y27438D03*
Y28029D03*
Y28738D03*
X26230Y5429D03*
Y6138D03*
Y6579D03*
Y7288D03*
X27380Y21979D03*
Y22688D03*
X27430Y28979D03*
Y29688D03*
X27530Y15179D03*
Y15888D03*
X27580Y7579D03*
Y8288D03*
X33230Y28779D03*
Y29488D03*
X33330Y26929D03*
Y27638D03*
X33430Y19729D03*
Y20438D03*
X33480Y12879D03*
Y13588D03*
X33580Y14979D03*
Y15688D03*
Y21829D03*
Y22538D03*
X33680Y5379D03*
Y6088D03*
X33780Y7379D03*
Y8088D03*
X44174Y3563D03*
Y4272D03*
X44224Y10913D03*
Y11622D03*
X44274Y18013D03*
Y18722D03*
Y25063D03*
Y25772D03*
D02*
D93*
X13026Y28283D03*
X13734D03*
X15276Y7083D03*
X15984D03*
X16276Y18533D03*
X16376Y9533D03*
Y10333D03*
Y11133D03*
Y11933D03*
X16984Y18533D03*
X17026Y7083D03*
X17084Y9533D03*
Y10333D03*
Y11133D03*
Y11933D03*
X17734Y7083D03*
X18476Y13263D03*
X18826Y18713D03*
X19184Y13263D03*
X19534Y18713D03*
X19726Y13813D03*
X20434D03*
X21026Y17533D03*
X21734D03*
X22276Y13013D03*
Y13813D03*
Y14613D03*
Y15413D03*
X22984Y13013D03*
Y13813D03*
Y14613D03*
Y15413D03*
X23491Y16933D03*
X23576Y24233D03*
X24200Y16933D03*
X24284Y24233D03*
X26376Y4183D03*
Y11683D03*
X26421Y18433D03*
X26576Y25479D03*
X27084Y4183D03*
Y11683D03*
X27130Y18433D03*
X27284Y25479D03*
X28071Y18433D03*
X28126Y11683D03*
X28176Y25479D03*
X28276Y4183D03*
X28780Y18433D03*
X28834Y11683D03*
X28884Y25479D03*
X28984Y4183D03*
X31476Y25833D03*
X31726Y12083D03*
Y18633D03*
X31826Y4383D03*
X32176Y30233D03*
X32184Y25833D03*
X32326Y16483D03*
X32376Y23283D03*
X32434Y12083D03*
Y18633D03*
X32526Y8733D03*
X32534Y4383D03*
X32884Y30233D03*
X33034Y16483D03*
X33084Y23283D03*
X33234Y8733D03*
X44485Y26518D03*
X44570Y4918D03*
Y12318D03*
X44619Y19417D03*
X45194Y26518D03*
X45278Y4918D03*
Y12318D03*
X45328Y19417D03*
X45870Y1068D03*
X46578D03*
D02*
D94*
X15085Y9533D03*
Y10333D03*
Y11133D03*
Y11933D03*
X15675Y9533D03*
Y10333D03*
Y11133D03*
Y11933D03*
X23730Y29088D03*
Y29679D03*
X47174Y10422D03*
Y11013D03*
Y11772D03*
Y12363D03*
X47189Y24722D03*
Y25313D03*
Y25872D03*
Y26463D03*
X47274Y1372D03*
Y1963D03*
Y3272D03*
Y3863D03*
Y4472D03*
Y5063D03*
X47374Y18972D03*
Y19562D03*
X47374Y17672D03*
Y18263D03*
D02*
D95*
X45729Y3183D03*
X45779Y10533D03*
X45979Y17633D03*
Y24783D03*
X46224Y1967D03*
X46231Y3684D03*
X46235Y9237D03*
X46281Y11034D03*
X46295Y23533D03*
X46429Y16332D03*
X46481Y18134D03*
Y25284D03*
X46725Y2468D03*
X46736Y9739D03*
X46796Y24034D03*
X46930Y16833D03*
D02*
D96*
X5930Y14683D03*
Y18483D03*
D02*
D97*
X14550Y28333D03*
Y28833D03*
Y29333D03*
Y29833D03*
X16410Y28333D03*
Y28833D03*
Y29333D03*
Y29833D03*
X18450Y14563D03*
Y15063D03*
Y15563D03*
Y16063D03*
Y16563D03*
Y17063D03*
Y17563D03*
X20310Y14563D03*
Y15063D03*
Y15563D03*
Y16063D03*
Y16563D03*
Y17063D03*
Y17563D03*
X28900Y12783D03*
Y13283D03*
Y13783D03*
Y14283D03*
Y14783D03*
Y15283D03*
Y15783D03*
Y26583D03*
Y27083D03*
Y27583D03*
Y28083D03*
Y28583D03*
Y29083D03*
Y29583D03*
X29000Y19583D03*
Y20083D03*
Y20583D03*
Y21083D03*
Y21583D03*
Y22083D03*
Y22583D03*
X29100Y5183D03*
Y5683D03*
Y6183D03*
Y6683D03*
Y7183D03*
Y7683D03*
Y8183D03*
X30760Y12783D03*
Y13283D03*
Y13783D03*
Y14283D03*
Y14783D03*
Y15283D03*
Y15783D03*
Y26583D03*
Y27083D03*
Y27583D03*
Y28083D03*
Y28583D03*
Y29083D03*
Y29583D03*
X30860Y19583D03*
Y20083D03*
Y20583D03*
Y21083D03*
Y21583D03*
Y22083D03*
Y22583D03*
X30960Y5183D03*
Y5683D03*
Y6183D03*
Y6683D03*
Y7183D03*
Y7683D03*
Y8183D03*
D02*
D98*
X5064Y22253D03*
Y22568D03*
Y22883D03*
Y23198D03*
Y23513D03*
D02*
D99*
X2899Y21112D03*
Y24655D03*
X5064Y21112D03*
Y24655D03*
D02*
D100*
X14336Y24947D03*
X14730Y24120D03*
X15124Y24947D03*
X15936D03*
X16330Y24120D03*
X16724Y24947D03*
D02*
D101*
X17817Y21033D03*
Y22633D03*
X18643Y20640D03*
Y21427D03*
Y22240D03*
Y23027D03*
D02*
D102*
X18829Y6933D03*
X19931D03*
D02*
D103*
X6180Y26933D03*
X13380Y29933D03*
X16780Y8283D03*
X19680Y30833D03*
X19980Y8233D03*
X20530Y23083D03*
X21280Y11733D03*
X24580Y13533D03*
X34180Y11133D03*
Y25533D03*
X34380Y3433D03*
Y18733D03*
X41180Y9533D03*
Y31033D03*
X41230Y4233D03*
Y24033D03*
X41280Y16733D03*
X41430Y18733D03*
X41480Y25733D03*
X41530Y11283D03*
D02*
D104*
X10600Y17583D02*
X10580D01*
X18643Y23033D02*
Y23027D01*
X26130Y12979D02*
Y12483D01*
X26230Y5429D02*
Y4883D01*
X31730Y21088D02*
Y21083D01*
X32095Y14283D02*
X31480D01*
X32145Y6683D02*
X31630D01*
X0Y0D02*
M02*
