%FSLAX24Y24*%
%MOIN*%
G04 EasyPC Gerber Version 16.0.4 Build 3240 *
%AMT11*0 Octagon Pad at angle 0*4,1,8,-0.01533,-0.03700,0.01533,-0.03700,0.03700,-0.01533,0.03700,0.01533,0.01533,0.03700,-0.01533,0.03700,-0.03700,0.01533,-0.03700,-0.01533,-0.01533,-0.03700,0*%
%ADD11T11*%
%AMT70*0 Octagon Pad at angle 0*4,1,8,-0.02446,-0.05906,0.02446,-0.05906,0.05906,-0.02446,0.05906,0.02446,0.02446,0.05906,-0.02446,0.05906,-0.05906,0.02446,-0.05906,-0.02446,-0.02446,-0.05906,0*%
%ADD70T70*%
%ADD19R,0.07400X0.07400*%
%ADD79C,0.00100*%
%ADD78C,0.00500*%
%ADD20C,0.03200*%
%ADD17C,0.05000*%
%ADD13C,0.06000*%
%ADD12C,0.07000*%
%ADD10C,0.07400*%
%ADD71C,0.07874*%
%ADD16C,0.08600*%
%ADD18C,0.09843*%
%ADD15C,0.12000*%
%ADD14C,0.17000*%
X0Y0D02*
D02*
D10*
X2830Y13783D03*
Y14783D03*
Y15783D03*
Y16783D03*
Y17783D03*
Y18783D03*
X3380Y11983D03*
X4380D03*
X5380D03*
D02*
D11*
X2830Y1383D03*
Y2383D03*
X3830Y1383D03*
Y2383D03*
X4830Y1383D03*
Y2383D03*
X5830Y1383D03*
Y2383D03*
X6830Y1383D03*
Y2383D03*
X7830Y1383D03*
Y2383D03*
X8830Y1383D03*
Y2383D03*
X9830Y1383D03*
Y2383D03*
X10830Y1383D03*
Y2383D03*
X11830Y1383D03*
Y2383D03*
D02*
D12*
X2430Y7723D03*
Y10282D03*
X4202Y7723D03*
Y10282D03*
D02*
D13*
X20330Y26333D03*
X21780Y19433D03*
Y21433D03*
X22330Y26333D03*
D02*
D14*
X4911Y30783D03*
X6093Y28933D03*
X7274Y30783D03*
D02*
D15*
X11230Y26583D03*
Y28433D03*
Y30283D03*
D02*
D16*
X8830Y25783D03*
Y30783D03*
D02*
D17*
X4080Y22017D03*
Y23749D03*
D02*
D18*
X13664Y2333D03*
Y4538D03*
X14452Y1388D03*
Y3790D03*
Y6034D03*
X22564Y2333D03*
Y4538D03*
X23352Y1388D03*
Y3790D03*
Y6034D03*
X42273Y28789D03*
X42323Y7139D03*
Y14639D03*
X42373Y21739D03*
X43769Y28002D03*
X43819Y6352D03*
Y13852D03*
X43869Y20952D03*
X44517Y28789D03*
X44567Y7139D03*
Y14639D03*
X44617Y21739D03*
X45974Y28002D03*
X46024Y6352D03*
Y13852D03*
X46074Y20952D03*
X46919Y28789D03*
X46969Y7139D03*
Y14639D03*
X47019Y21739D03*
D02*
D19*
X17846Y5739D03*
X18830D03*
X19814D03*
X40086Y26899D03*
Y27883D03*
Y28868D03*
X40186Y5399D03*
Y6383D03*
Y7368D03*
Y19949D03*
Y20933D03*
Y21918D03*
X40336Y12699D03*
Y13683D03*
Y14668D03*
D02*
D70*
X17098Y2983D03*
X20562D03*
X37330Y26151D03*
Y29616D03*
X37430Y4651D03*
Y8116D03*
Y19201D03*
Y22666D03*
X37580Y11951D03*
Y15416D03*
D02*
D71*
X6695Y7448D03*
X8365Y9118D03*
D02*
D20*
X3680Y27283D03*
Y28283D03*
X4430Y16033D03*
Y17033D03*
X4680Y27283D03*
Y28283D03*
X5180Y19833D03*
X5980Y23533D03*
X6130Y20583D03*
X6430Y24283D03*
X7030Y18033D03*
X7230Y20683D03*
X7430Y14883D03*
X7730Y18483D03*
X7780Y21833D03*
X9030Y14533D03*
Y18833D03*
X9330Y17833D03*
X9530Y18683D03*
X9680Y17383D03*
X10130Y23883D03*
X10230Y17283D03*
X10280Y16733D03*
X10580Y17583D03*
X10780Y23883D03*
X11030Y17983D03*
X11280Y13233D03*
X11330Y17033D03*
X11630Y19183D03*
X12030Y23933D03*
X12080Y13233D03*
Y17483D03*
X12330Y20633D03*
X12530Y17883D03*
X12630Y20333D03*
X12780Y16933D03*
X12830Y16383D03*
X12930Y23933D03*
X12980Y20633D03*
X13430D03*
X13730Y17733D03*
X13880Y20633D03*
X14280Y26283D03*
Y27883D03*
X14380Y9533D03*
Y10333D03*
Y11133D03*
Y11933D03*
X14430Y19333D03*
X14530Y19833D03*
X15180Y22233D03*
Y23383D03*
X15330Y15333D03*
X15780Y16783D03*
Y18183D03*
X15830Y20383D03*
X16230Y16783D03*
Y17583D03*
X16330Y23333D03*
X16430Y21033D03*
X16630Y16083D03*
Y17183D03*
X16880Y19183D03*
Y19933D03*
X16980Y17833D03*
Y22433D03*
X17330Y30433D03*
X17530Y19779D03*
X17680Y9533D03*
Y10333D03*
Y11133D03*
Y11933D03*
X17780Y14563D03*
Y15063D03*
Y16063D03*
X18230Y23983D03*
X18330Y14013D03*
Y18163D03*
X18680Y30083D03*
X18930Y2133D03*
X19130Y15333D03*
X19180Y16613D03*
X20680Y18383D03*
X21080Y15463D03*
Y16563D03*
X21280Y30433D03*
X21830Y13763D03*
X22280Y16263D03*
Y17333D03*
X23280Y30233D03*
X24880Y14683D03*
X25480Y17883D03*
X26080Y19233D03*
X26130Y12483D03*
Y26233D03*
X26230Y4883D03*
X26580Y21083D03*
X26680Y14233D03*
Y28033D03*
X26780Y6683D03*
X28230Y13033D03*
Y19833D03*
X28280Y26829D03*
X28430Y5433D03*
X30380Y16483D03*
X30430Y30233D03*
X30530Y23283D03*
X30580Y25479D03*
X30626Y18433D03*
X30630Y8733D03*
Y11683D03*
X30880Y4183D03*
X30980Y25833D03*
X31130Y18633D03*
X31230Y12083D03*
X31280Y4383D03*
X31430Y15583D03*
Y29433D03*
X31480Y14283D03*
Y28083D03*
X31580Y22433D03*
Y24733D03*
Y27283D03*
X31630Y6683D03*
X31680Y8033D03*
X31730Y13583D03*
Y20383D03*
Y21083D03*
X31930Y5883D03*
X32580Y28783D03*
X32930Y21783D03*
X32980Y14983D03*
X33180Y7433D03*
X34330Y28833D03*
X34480Y14783D03*
X34530Y21883D03*
X34730Y7633D03*
X35030Y24733D03*
X44830Y31433D03*
X45030Y29783D03*
Y30183D03*
Y30583D03*
Y30983D03*
X45324Y2818D03*
X45580Y24333D03*
X45591Y9870D03*
X45630Y17183D03*
X45739Y26518D03*
X45874Y4918D03*
Y12318D03*
X45924Y19418D03*
X46135Y10088D03*
X46230Y24283D03*
X46330Y17183D03*
X46624Y12368D03*
X46689Y26468D03*
X46824Y19517D03*
X46880Y5433D03*
X47274Y2468D03*
X48280Y12433D03*
X48430Y11383D03*
D02*
D78*
X1630Y283D02*
X49130D01*
Y32783*
X1630*
Y283*
D02*
D79*
X49130D01*
Y32783*
X1630*
Y283*
X2081Y7698D02*
G75*
G03X2405Y7374I349J25D01*
G01*
Y7273*
G75*
G02X1981Y7698I25J449*
G01*
X2081*
Y10257D02*
G75*
G03X2405Y9933I349J25D01*
G01*
Y9832*
G75*
G02X1981Y10257I25J449*
G01*
X2081*
X2405Y8072D02*
G75*
G03X2081Y7748I25J-349D01*
G01*
X1981*
G75*
G02X2405Y8172I449J-25*
G01*
Y8072*
Y10631D02*
G75*
G03X2081Y10307I25J-349D01*
G01*
X1981*
G75*
G02X2405Y10731I449J-25*
G01*
Y10631*
X2455Y7374D02*
G75*
G03X2779Y7698I-25J349D01*
G01*
X2879*
G75*
G02X2455Y7273I-449J25*
G01*
Y7374*
Y9933D02*
G75*
G03X2779Y10257I-25J349D01*
G01*
X2879*
G75*
G02X2455Y9832I-449J25*
G01*
Y9933*
X2461Y16758D02*
G75*
G03X2805Y16414I369J25D01*
G01*
Y16314*
G75*
G02X2361Y16758I25J469*
G01*
X2461*
X2779Y7748D02*
G75*
G03X2455Y8072I-349J-25D01*
G01*
Y8172*
G75*
G02X2879Y7748I-25J-449*
G01*
X2779*
Y10307D02*
G75*
G03X2455Y10631I-349J-25D01*
G01*
Y10731*
G75*
G02X2879Y10307I-25J-449*
G01*
X2779*
X2805Y17152D02*
G75*
G03X2461Y16808I25J-369D01*
G01*
X2361*
G75*
G02X2805Y17253I469J-25*
G01*
Y17152*
X2830Y14253D02*
G75*
G02Y13313J-470D01*
G01*
G75*
G02Y14253J470*
G01*
Y15253D02*
G75*
G02Y14313J-470D01*
G01*
G75*
G02Y15253J470*
G01*
Y16253D02*
G75*
G02Y15313J-470D01*
G01*
G75*
G02Y16253J470*
G01*
Y18253D02*
G75*
G02Y17313J-470D01*
G01*
G75*
G02Y18253J470*
G01*
Y19253D02*
G75*
G02Y18313J-470D01*
G01*
G75*
G02Y19253J470*
G01*
X2855Y16414D02*
G75*
G03X3199Y16758I-25J369D01*
G01*
X3299*
G75*
G02X2855Y16314I-469J25*
G01*
Y16414*
X3025Y1853D02*
X3300Y1578D01*
Y1189*
X3025Y913*
X2635*
X2360Y1189*
Y1578*
X2635Y1853*
X3025*
Y2853D02*
X3300Y2578D01*
Y2189*
X3025Y1913*
X2635*
X2360Y2189*
Y2578*
X2635Y2853*
X3025*
X3199Y16808D02*
G75*
G03X2855Y17152I-369J-25D01*
G01*
Y17253*
G75*
G02X3299Y16808I-25J-469*
G01*
X3199*
X3522Y27258D02*
G75*
G03X3655Y27125I158J25D01*
G01*
Y27024*
G75*
G02X3421Y27258I25J259*
G01*
X3522*
Y28258D02*
G75*
G03X3655Y28125I158J25D01*
G01*
Y28024*
G75*
G02X3421Y28258I25J259*
G01*
X3522*
X3655Y27441D02*
G75*
G03X3522Y27308I25J-158D01*
G01*
X3421*
G75*
G02X3655Y27542I259J-25*
G01*
Y27441*
Y28441D02*
G75*
G03X3522Y28308I25J-158D01*
G01*
X3421*
G75*
G02X3655Y28542I259J-25*
G01*
Y28441*
X3705Y27125D02*
G75*
G03X3838Y27258I-25J158D01*
G01*
X3939*
G75*
G02X3705Y27024I-259J25*
G01*
Y27125*
Y28125D02*
G75*
G03X3838Y28258I-25J158D01*
G01*
X3939*
G75*
G02X3705Y28024I-259J25*
G01*
Y28125*
X3730Y22017D02*
G75*
G02X4430I350D01*
G01*
G75*
G02X3730I-350*
G01*
Y23749D02*
G75*
G02X4430I350D01*
G01*
G75*
G02X3730I-350*
G01*
X3838Y27308D02*
G75*
G03X3705Y27441I-158J-25D01*
G01*
Y27542*
G75*
G02X3939Y27308I-25J-259*
G01*
X3838*
Y28308D02*
G75*
G03X3705Y28441I-158J-25D01*
G01*
Y28542*
G75*
G02X3939Y28308I-25J-259*
G01*
X3838*
X3850Y11983D02*
G75*
G02X2910I-470D01*
G01*
G75*
G02X3850I470*
G01*
X4025Y1853D02*
X4300Y1578D01*
Y1189*
X4025Y913*
X3635*
X3360Y1189*
Y1578*
X3635Y1853*
X4025*
Y2853D02*
X4300Y2578D01*
Y2189*
X4025Y1913*
X3635*
X3360Y2189*
Y2578*
X3635Y2853*
X4025*
X4062Y30758D02*
G75*
G03X4886Y29934I850J25D01*
G01*
Y29834*
G75*
G02X3962Y30758I25J950*
G01*
X4062*
X4202Y8173D02*
G75*
G02Y7273J-450D01*
G01*
G75*
G02Y8173J450*
G01*
Y10732D02*
G75*
G02Y9832J-450D01*
G01*
G75*
G02Y10732J450*
G01*
X4272Y16008D02*
G75*
G03X4405Y15875I158J25D01*
G01*
Y15774*
G75*
G02X4171Y16008I25J259*
G01*
X4272*
Y17008D02*
G75*
G03X4405Y16875I158J25D01*
G01*
Y16774*
G75*
G02X4171Y17008I25J259*
G01*
X4272*
X4405Y16191D02*
G75*
G03X4272Y16058I25J-158D01*
G01*
X4171*
G75*
G02X4405Y16292I259J-25*
G01*
Y16191*
Y17191D02*
G75*
G03X4272Y17058I25J-158D01*
G01*
X4171*
G75*
G02X4405Y17292I259J-25*
G01*
Y17191*
X4455Y15875D02*
G75*
G03X4588Y16008I-25J158D01*
G01*
X4689*
G75*
G02X4455Y15774I-259J25*
G01*
Y15875*
Y16875D02*
G75*
G03X4588Y17008I-25J158D01*
G01*
X4689*
G75*
G02X4455Y16774I-259J25*
G01*
Y16875*
X4522Y27258D02*
G75*
G03X4655Y27125I158J25D01*
G01*
Y27024*
G75*
G02X4421Y27258I25J259*
G01*
X4522*
Y28258D02*
G75*
G03X4655Y28125I158J25D01*
G01*
Y28024*
G75*
G02X4421Y28258I25J259*
G01*
X4522*
X4588Y16058D02*
G75*
G03X4455Y16191I-158J-25D01*
G01*
Y16292*
G75*
G02X4689Y16058I-25J-259*
G01*
X4588*
Y17058D02*
G75*
G03X4455Y17191I-158J-25D01*
G01*
Y17292*
G75*
G02X4689Y17058I-25J-259*
G01*
X4588*
X4655Y27441D02*
G75*
G03X4522Y27308I25J-158D01*
G01*
X4421*
G75*
G02X4655Y27542I259J-25*
G01*
Y27441*
Y28441D02*
G75*
G03X4522Y28308I25J-158D01*
G01*
X4421*
G75*
G02X4655Y28542I259J-25*
G01*
Y28441*
X4705Y27125D02*
G75*
G03X4838Y27258I-25J158D01*
G01*
X4939*
G75*
G02X4705Y27024I-259J25*
G01*
Y27125*
Y28125D02*
G75*
G03X4838Y28258I-25J158D01*
G01*
X4939*
G75*
G02X4705Y28024I-259J25*
G01*
Y28125*
X4838Y27308D02*
G75*
G03X4705Y27441I-158J-25D01*
G01*
Y27542*
G75*
G02X4939Y27308I-25J-259*
G01*
X4838*
Y28308D02*
G75*
G03X4705Y28441I-158J-25D01*
G01*
Y28542*
G75*
G02X4939Y28308I-25J-259*
G01*
X4838*
X4850Y11983D02*
G75*
G02X3910I-470D01*
G01*
G75*
G02X4850I470*
G01*
X4886Y31633D02*
G75*
G03X4062Y30808I25J-850D01*
G01*
X3962*
G75*
G02X4886Y31733I950J-25*
G01*
Y31633*
X4920Y19833D02*
G75*
G02X5440I260D01*
G01*
G75*
G02X4920I-260*
G01*
X4936Y29934D02*
G75*
G03X5761Y30758I-25J850D01*
G01*
X5861*
G75*
G02X4936Y29834I-950J25*
G01*
Y29934*
X5025Y1853D02*
X5300Y1578D01*
Y1189*
X5025Y913*
X4635*
X4360Y1189*
Y1578*
X4635Y1853*
X5025*
Y2853D02*
X5300Y2578D01*
Y2189*
X5025Y1913*
X4635*
X4360Y2189*
Y2578*
X4635Y2853*
X5025*
X5243Y28908D02*
G75*
G03X6068Y28083I850J25D01*
G01*
Y27983*
G75*
G02X5143Y28908I25J950*
G01*
X5243*
X5761Y30808D02*
G75*
G03X4936Y31633I-850J-25D01*
G01*
Y31733*
G75*
G02X5861Y30808I-25J-950*
G01*
X5761*
X5822Y23508D02*
G75*
G03X5955Y23375I158J25D01*
G01*
Y23274*
G75*
G02X5721Y23508I25J259*
G01*
X5822*
X5850Y11983D02*
G75*
G02X4910I-470D01*
G01*
G75*
G02X5850I470*
G01*
X5870Y20583D02*
G75*
G02X6390I260D01*
G01*
G75*
G02X5870I-260*
G01*
X5955Y23691D02*
G75*
G03X5822Y23558I25J-158D01*
G01*
X5721*
G75*
G02X5955Y23792I259J-25*
G01*
Y23691*
X6005Y23375D02*
G75*
G03X6138Y23508I-25J158D01*
G01*
X6239*
G75*
G02X6005Y23274I-259J25*
G01*
Y23375*
X6025Y1853D02*
X6300Y1578D01*
Y1189*
X6025Y913*
X5635*
X5360Y1189*
Y1578*
X5635Y1853*
X6025*
Y2853D02*
X6300Y2578D01*
Y2189*
X6025Y1913*
X5635*
X5360Y2189*
Y2578*
X5635Y2853*
X6025*
X6068Y29783D02*
G75*
G03X5243Y28958I25J-850D01*
G01*
X5143*
G75*
G02X6068Y29883I950J-25*
G01*
Y29783*
X6118Y28083D02*
G75*
G03X6942Y28908I-25J850D01*
G01*
X7042*
G75*
G02X6118Y27983I-950J25*
G01*
Y28083*
X6138Y23558D02*
G75*
G03X6005Y23691I-158J-25D01*
G01*
Y23792*
G75*
G02X6239Y23558I-25J-259*
G01*
X6138*
X6170Y24283D02*
G75*
G02X6690I260D01*
G01*
G75*
G02X6170I-260*
G01*
X6346Y7797D02*
G75*
G02X7044Y7099I349J-349D01*
G01*
G75*
G02X6346Y7797I-349J349*
G01*
X6872Y18008D02*
G75*
G03X7005Y17875I158J25D01*
G01*
Y17774*
G75*
G02X6771Y18008I25J259*
G01*
X6872*
X6942Y28958D02*
G75*
G03X6118Y29783I-850J-25D01*
G01*
Y29883*
G75*
G02X7042Y28958I-25J-950*
G01*
X6942*
X6970Y20683D02*
G75*
G02X7490I260D01*
G01*
G75*
G02X6970I-260*
G01*
X7005Y18191D02*
G75*
G03X6872Y18058I25J-158D01*
G01*
X6771*
G75*
G02X7005Y18292I259J-25*
G01*
Y18191*
X7025Y1853D02*
X7300Y1578D01*
Y1189*
X7025Y913*
X6635*
X6360Y1189*
Y1578*
X6635Y1853*
X7025*
Y2853D02*
X7300Y2578D01*
Y2189*
X7025Y1913*
X6635*
X6360Y2189*
Y2578*
X6635Y2853*
X7025*
X7055Y17875D02*
G75*
G03X7188Y18008I-25J158D01*
G01*
X7289*
G75*
G02X7055Y17774I-259J25*
G01*
Y17875*
X7188Y18058D02*
G75*
G03X7055Y18191I-158J-25D01*
G01*
Y18292*
G75*
G02X7289Y18058I-25J-259*
G01*
X7188*
X7272Y14858D02*
G75*
G03X7405Y14725I158J25D01*
G01*
Y14624*
G75*
G02X7171Y14858I25J259*
G01*
X7272*
X7274Y31733D02*
G75*
G02Y29833J-950D01*
G01*
G75*
G02Y31733J950*
G01*
X7405Y15041D02*
G75*
G03X7272Y14908I25J-158D01*
G01*
X7171*
G75*
G02X7405Y15142I259J-25*
G01*
Y15041*
X7455Y14725D02*
G75*
G03X7588Y14858I-25J158D01*
G01*
X7689*
G75*
G02X7455Y14624I-259J25*
G01*
Y14725*
X7572Y18458D02*
G75*
G03X7705Y18325I158J25D01*
G01*
Y18224*
G75*
G02X7471Y18458I25J259*
G01*
X7572*
X7588Y14908D02*
G75*
G03X7455Y15041I-158J-25D01*
G01*
Y15142*
G75*
G02X7689Y14908I-25J-259*
G01*
X7588*
X7622Y21808D02*
G75*
G03X7755Y21675I158J25D01*
G01*
Y21574*
G75*
G02X7521Y21808I25J259*
G01*
X7622*
X7705Y18641D02*
G75*
G03X7572Y18508I25J-158D01*
G01*
X7471*
G75*
G02X7705Y18742I259J-25*
G01*
Y18641*
X7755Y18325D02*
G75*
G03X7888Y18458I-25J158D01*
G01*
X7989*
G75*
G02X7755Y18224I-259J25*
G01*
Y18325*
Y21991D02*
G75*
G03X7622Y21858I25J-158D01*
G01*
X7521*
G75*
G02X7755Y22092I259J-25*
G01*
Y21991*
X7805Y21675D02*
G75*
G03X7938Y21808I-25J158D01*
G01*
X8039*
G75*
G02X7805Y21574I-259J25*
G01*
Y21675*
X7888Y18508D02*
G75*
G03X7755Y18641I-158J-25D01*
G01*
Y18742*
G75*
G02X7989Y18508I-25J-259*
G01*
X7888*
X7938Y21858D02*
G75*
G03X7805Y21991I-158J-25D01*
G01*
Y22092*
G75*
G02X8039Y21858I-25J-259*
G01*
X7938*
X8025Y1853D02*
X8300Y1578D01*
Y1189*
X8025Y913*
X7635*
X7360Y1189*
Y1578*
X7635Y1853*
X8025*
Y2853D02*
X8300Y2578D01*
Y2189*
X8025Y1913*
X7635*
X7360Y2189*
Y2578*
X7635Y2853*
X8025*
X8714Y8769D02*
G75*
G02X8016Y9468I-349J349D01*
G01*
G75*
G02X8714Y8769I349J-349*
G01*
X8770Y14533D02*
G75*
G02X9290I260D01*
G01*
G75*
G02X8770I-260*
G01*
Y18833D02*
G75*
G02X9290I260D01*
G01*
G75*
G02X8770I-260*
G01*
X8830Y26313D02*
G75*
G02Y25253J-530D01*
G01*
G75*
G02Y26313J530*
G01*
Y31313D02*
G75*
G02Y30253J-530D01*
G01*
G75*
G02Y31313J530*
G01*
X9025Y1853D02*
X9300Y1578D01*
Y1189*
X9025Y913*
X8635*
X8360Y1189*
Y1578*
X8635Y1853*
X9025*
Y2853D02*
X9300Y2578D01*
Y2189*
X9025Y1913*
X8635*
X8360Y2189*
Y2578*
X8635Y2853*
X9025*
X9070Y17833D02*
G75*
G02X9590I260D01*
G01*
G75*
G02X9070I-260*
G01*
X9270Y18683D02*
G75*
G02X9790I260D01*
G01*
G75*
G02X9270I-260*
G01*
X9420Y17383D02*
G75*
G02X9940I260D01*
G01*
G75*
G02X9420I-260*
G01*
X9870Y23883D02*
G75*
G02X10390I260D01*
G01*
G75*
G02X9870I-260*
G01*
X10020Y16733D02*
G75*
G02X10540I260D01*
G01*
G75*
G02X10020I-260*
G01*
X10025Y1853D02*
X10300Y1578D01*
Y1189*
X10025Y913*
X9635*
X9360Y1189*
Y1578*
X9635Y1853*
X10025*
Y2853D02*
X10300Y2578D01*
Y2189*
X10025Y1913*
X9635*
X9360Y2189*
Y2578*
X9635Y2853*
X10025*
X10327Y17525D02*
G75*
G02X10320Y17583I253J59D01*
G01*
G75*
G02X10840I260*
G01*
G75*
G02X10483Y17342I-260*
G01*
G75*
G02X10490Y17283I-253J-59*
G01*
G75*
G02X9970I-260*
G01*
G75*
G02X10327Y17525I260*
G01*
X10530Y26583D02*
G75*
G02X11930I700D01*
G01*
G75*
G02X10530I-700*
G01*
Y28433D02*
G75*
G02X11930I700D01*
G01*
G75*
G02X10530I-700*
G01*
Y30283D02*
G75*
G02X11930I700D01*
G01*
G75*
G02X10530I-700*
G01*
X10622Y23858D02*
G75*
G03X10755Y23725I158J25D01*
G01*
Y23624*
G75*
G02X10521Y23858I25J259*
G01*
X10622*
X10755Y24041D02*
G75*
G03X10622Y23908I25J-158D01*
G01*
X10521*
G75*
G02X10755Y24142I259J-25*
G01*
Y24041*
X10770Y17983D02*
G75*
G02X11290I260D01*
G01*
G75*
G02X10770I-260*
G01*
X10805Y23725D02*
G75*
G03X10938Y23858I-25J158D01*
G01*
X11039*
G75*
G02X10805Y23624I-259J25*
G01*
Y23725*
X10938Y23908D02*
G75*
G03X10805Y24041I-158J-25D01*
G01*
Y24142*
G75*
G02X11039Y23908I-25J-259*
G01*
X10938*
X11020Y13233D02*
G75*
G02X11540I260D01*
G01*
G75*
G02X11020I-260*
G01*
X11025Y1853D02*
X11300Y1578D01*
Y1189*
X11025Y913*
X10635*
X10360Y1189*
Y1578*
X10635Y1853*
X11025*
Y2853D02*
X11300Y2578D01*
Y2189*
X11025Y1913*
X10635*
X10360Y2189*
Y2578*
X10635Y2853*
X11025*
X11070Y17033D02*
G75*
G02X11590I260D01*
G01*
G75*
G02X11070I-260*
G01*
X11370Y19183D02*
G75*
G02X11890I260D01*
G01*
G75*
G02X11370I-260*
G01*
X11460Y1358D02*
Y1230D01*
X11677Y1013*
X11805*
Y913*
X11635*
X11360Y1189*
Y1358*
X11460*
X11770Y23933D02*
G75*
G02X12290I260D01*
G01*
G75*
G02X11770I-260*
G01*
X11805Y1753D02*
X11677D01*
X11460Y1537*
Y1408*
X11360*
Y1578*
X11635Y1853*
X11805*
Y1753*
X11820Y17483D02*
G75*
G02X12340I260D01*
G01*
G75*
G02X11820I-260*
G01*
X11855Y1013D02*
X11983D01*
X12200Y1230*
Y1358*
X12300*
Y1189*
X12025Y913*
X11855*
Y1013*
X11922Y13208D02*
G75*
G03X12055Y13075I158J25D01*
G01*
Y12974*
G75*
G02X11821Y13208I25J259*
G01*
X11922*
X12025Y2853D02*
X12300Y2578D01*
Y2189*
X12025Y1913*
X11635*
X11360Y2189*
Y2578*
X11635Y2853*
X12025*
X12055Y13391D02*
G75*
G03X11922Y13258I25J-158D01*
G01*
X11821*
G75*
G02X12055Y13492I259J-25*
G01*
Y13391*
X12105Y13075D02*
G75*
G03X12238Y13208I-25J158D01*
G01*
X12339*
G75*
G02X12105Y12974I-259J25*
G01*
Y13075*
X12200Y1408D02*
Y1537D01*
X11983Y1753*
X11855*
Y1853*
X12025*
X12300Y1578*
Y1408*
X12200*
X12238Y13258D02*
G75*
G03X12105Y13391I-158J-25D01*
G01*
Y13492*
G75*
G02X12339Y13258I-25J-259*
G01*
X12238*
X12270Y17883D02*
G75*
G02X12790I260D01*
G01*
G75*
G02X12270I-260*
G01*
X12374Y20377D02*
G75*
G02X12070Y20633I-44J256D01*
G01*
G75*
G02X12590I260*
G01*
G75*
G02X12586Y20590I-260*
G01*
G75*
G02X12727Y20575I44J-256*
G01*
G75*
G02X12720Y20633I253J59*
G01*
G75*
G02X13205Y20764I260*
G01*
G75*
G02X13655I225J-130*
G01*
G75*
G02X14140Y20633I225J-130*
G01*
G75*
G02X13655Y20503I-260*
G01*
G75*
G02X13205I-225J130*
G01*
G75*
G02X12883Y20392I-225J130*
G01*
G75*
G02X12890Y20333I-253J-59*
G01*
G75*
G02X12370I-260*
G01*
G75*
G02X12374Y20377I260*
G01*
X12520Y16933D02*
G75*
G02X13040I260D01*
G01*
G75*
G02X12520I-260*
G01*
X12570Y16383D02*
G75*
G02X13090I260D01*
G01*
G75*
G02X12570I-260*
G01*
X12772Y23908D02*
G75*
G03X12905Y23775I158J25D01*
G01*
Y23674*
G75*
G02X12671Y23908I25J259*
G01*
X12772*
X12905Y24091D02*
G75*
G03X12772Y23958I25J-158D01*
G01*
X12671*
G75*
G02X12905Y24192I259J-25*
G01*
Y24091*
X12955Y23775D02*
G75*
G03X13088Y23908I-25J158D01*
G01*
X13189*
G75*
G02X12955Y23674I-259J25*
G01*
Y23775*
X13088Y23958D02*
G75*
G03X12955Y24091I-158J-25D01*
G01*
Y24192*
G75*
G02X13189Y23958I-25J-259*
G01*
X13088*
X13470Y17733D02*
G75*
G02X13990I260D01*
G01*
G75*
G02X13470I-260*
G01*
X13664Y2925D02*
G75*
G02Y1741J-592D01*
G01*
G75*
G02Y2925J592*
G01*
X13895Y3993D02*
G75*
G02X13664Y3946I-231J545D01*
G01*
G75*
G02Y5130J592*
G01*
G75*
G02X14221Y4335J-592*
G01*
G75*
G02X14452Y4382I231J-545*
G01*
G75*
G02Y3198J-592*
G01*
G75*
G02X13895Y3993J592*
G01*
X14120Y9533D02*
G75*
G02X14640I260D01*
G01*
G75*
G02X14120I-260*
G01*
Y10333D02*
G75*
G02X14640I260D01*
G01*
G75*
G02X14120I-260*
G01*
Y11133D02*
G75*
G02X14640I260D01*
G01*
G75*
G02X14120I-260*
G01*
Y11933D02*
G75*
G02X14640I260D01*
G01*
G75*
G02X14120I-260*
G01*
X14122Y26258D02*
G75*
G03X14255Y26125I158J25D01*
G01*
Y26024*
G75*
G02X14021Y26258I25J259*
G01*
X14122*
Y27858D02*
G75*
G03X14255Y27725I158J25D01*
G01*
Y27624*
G75*
G02X14021Y27858I25J259*
G01*
X14122*
X14255Y26441D02*
G75*
G03X14122Y26308I25J-158D01*
G01*
X14021*
G75*
G02X14255Y26542I259J-25*
G01*
Y26441*
Y28041D02*
G75*
G03X14122Y27908I25J-158D01*
G01*
X14021*
G75*
G02X14255Y28142I259J-25*
G01*
Y28041*
X14305Y26125D02*
G75*
G03X14438Y26258I-25J158D01*
G01*
X14539*
G75*
G02X14305Y26024I-259J25*
G01*
Y26125*
Y27725D02*
G75*
G03X14438Y27858I-25J158D01*
G01*
X14539*
G75*
G02X14305Y27624I-259J25*
G01*
Y27725*
X14430Y19593D02*
G75*
G02X14270Y19833I100J240D01*
G01*
G75*
G02X14790I260*
G01*
G75*
G02X14530Y19573I-260*
G01*
G75*
G02X14690Y19333I-100J-240*
G01*
G75*
G02X14170I-260*
G01*
G75*
G02X14430Y19593I260*
G01*
X14438Y26308D02*
G75*
G03X14305Y26441I-158J-25D01*
G01*
Y26542*
G75*
G02X14539Y26308I-25J-259*
G01*
X14438*
Y27908D02*
G75*
G03X14305Y28041I-158J-25D01*
G01*
Y28142*
G75*
G02X14539Y27908I-25J-259*
G01*
X14438*
X14452Y1981D02*
G75*
G02Y796J-592D01*
G01*
G75*
G02Y1981J592*
G01*
Y6626D02*
G75*
G02Y5442J-592D01*
G01*
G75*
G02Y6626J592*
G01*
X14920Y23383D02*
G75*
G02X15440I260D01*
G01*
G75*
G02X14920I-260*
G01*
X15022Y22208D02*
G75*
G03X15155Y22075I158J25D01*
G01*
Y21974*
G75*
G02X14921Y22208I25J259*
G01*
X15022*
X15155Y22391D02*
G75*
G03X15022Y22258I25J-158D01*
G01*
X14921*
G75*
G02X15155Y22492I259J-25*
G01*
Y22391*
X15172Y15308D02*
G75*
G03X15305Y15175I158J25D01*
G01*
Y15074*
G75*
G02X15071Y15308I25J259*
G01*
X15172*
X15205Y22075D02*
G75*
G03X15338Y22208I-25J158D01*
G01*
X15439*
G75*
G02X15205Y21974I-259J25*
G01*
Y22075*
X15305Y15491D02*
G75*
G03X15172Y15358I25J-158D01*
G01*
X15071*
G75*
G02X15305Y15592I259J-25*
G01*
Y15491*
X15338Y22258D02*
G75*
G03X15205Y22391I-158J-25D01*
G01*
Y22492*
G75*
G02X15439Y22258I-25J-259*
G01*
X15338*
X15355Y15175D02*
G75*
G03X15488Y15308I-25J158D01*
G01*
X15589*
G75*
G02X15355Y15074I-259J25*
G01*
Y15175*
X15488Y15358D02*
G75*
G03X15355Y15491I-158J-25D01*
G01*
Y15592*
G75*
G02X15589Y15358I-25J-259*
G01*
X15488*
X15520Y18183D02*
G75*
G02X16040I260D01*
G01*
G75*
G02X15520I-260*
G01*
X15570Y20383D02*
G75*
G02X16090I260D01*
G01*
G75*
G02X15570I-260*
G01*
X15970Y17583D02*
G75*
G02X16490I260D01*
G01*
G75*
G02X15970I-260*
G01*
X16005Y16653D02*
G75*
G02X15520Y16783I-225J130D01*
G01*
G75*
G02X16005Y16914I260*
G01*
G75*
G02X16490Y16783I225J-130*
G01*
G75*
G02X16005Y16653I-260*
G01*
X16070Y23333D02*
G75*
G02X16590I260D01*
G01*
G75*
G02X16070I-260*
G01*
X16170Y21033D02*
G75*
G02X16690I260D01*
G01*
G75*
G02X16170I-260*
G01*
X16370Y16083D02*
G75*
G02X16890I260D01*
G01*
G75*
G02X16370I-260*
G01*
Y17183D02*
G75*
G02X16890I260D01*
G01*
G75*
G02X16370I-260*
G01*
X16620Y19933D02*
G75*
G02X17140I260D01*
G01*
G75*
G02X16620I-260*
G01*
X16720Y17833D02*
G75*
G02X17240I260D01*
G01*
G75*
G02X16720I-260*
G01*
Y22433D02*
G75*
G02X17240I260D01*
G01*
G75*
G02X16720I-260*
G01*
X16722Y19158D02*
G75*
G03X16855Y19025I158J25D01*
G01*
Y18924*
G75*
G02X16621Y19158I25J259*
G01*
X16722*
X16855Y19341D02*
G75*
G03X16722Y19208I25J-158D01*
G01*
X16621*
G75*
G02X16855Y19442I259J-25*
G01*
Y19341*
X16905Y19025D02*
G75*
G03X17038Y19158I-25J158D01*
G01*
X17139*
G75*
G02X16905Y18924I-259J25*
G01*
Y19025*
X17038Y19208D02*
G75*
G03X16905Y19341I-158J-25D01*
G01*
Y19442*
G75*
G02X17139Y19208I-25J-259*
G01*
X17038*
X17070Y30433D02*
G75*
G02X17590I260D01*
G01*
G75*
G02X17070I-260*
G01*
X17270Y19779D02*
G75*
G02X17790I260D01*
G01*
G75*
G02X17270I-260*
G01*
X17420Y9533D02*
G75*
G02X17940I260D01*
G01*
G75*
G02X17420I-260*
G01*
Y10333D02*
G75*
G02X17940I260D01*
G01*
G75*
G02X17420I-260*
G01*
Y11133D02*
G75*
G02X17940I260D01*
G01*
G75*
G02X17420I-260*
G01*
Y11933D02*
G75*
G02X17940I260D01*
G01*
G75*
G02X17420I-260*
G01*
X17622Y16038D02*
G75*
G03X17755Y15905I158J25D01*
G01*
Y15804*
G75*
G02X17521Y16038I25J259*
G01*
X17622*
X17709Y14813D02*
G75*
G02X17780Y15323I71J250D01*
G01*
G75*
G02X17851Y14813J-260*
G01*
G75*
G02X17780Y14303I-71J-250*
G01*
G75*
G02X17709Y14813J260*
G01*
X17755Y16221D02*
G75*
G03X17622Y16088I25J-158D01*
G01*
X17521*
G75*
G02X17755Y16322I259J-25*
G01*
Y16221*
X17788Y2697D02*
X17384Y2293D01*
X16812*
X16407Y2697*
Y3269*
X16812Y3674*
X17384*
X17788Y3269*
Y2697*
X17805Y15905D02*
G75*
G03X17938Y16038I-25J158D01*
G01*
X18039*
G75*
G02X17805Y15804I-259J25*
G01*
Y15905*
X17938Y16088D02*
G75*
G03X17805Y16221I-158J-25D01*
G01*
Y16322*
G75*
G02X18039Y16088I-25J-259*
G01*
X17938*
X17970Y23983D02*
G75*
G02X18490I260D01*
G01*
G75*
G02X17970I-260*
G01*
X18316Y5269D02*
X17376D01*
Y6209*
X18316*
Y5269*
X18330Y14273D02*
G75*
G02Y13753J-260D01*
G01*
G75*
G02Y14273J260*
G01*
Y18423D02*
G75*
G02Y17903J-260D01*
G01*
G75*
G02Y18423J260*
G01*
X18420Y30083D02*
G75*
G02X18940I260D01*
G01*
G75*
G02X18420I-260*
G01*
X18772Y2108D02*
G75*
G03X18905Y1975I158J25D01*
G01*
Y1874*
G75*
G02X18671Y2108I25J259*
G01*
X18772*
X18905Y2291D02*
G75*
G03X18772Y2158I25J-158D01*
G01*
X18671*
G75*
G02X18905Y2392I259J-25*
G01*
Y2291*
X18955Y1975D02*
G75*
G03X19088Y2108I-25J158D01*
G01*
X19189*
G75*
G02X18955Y1874I-259J25*
G01*
Y1975*
X19088Y2158D02*
G75*
G03X18955Y2291I-158J-25D01*
G01*
Y2392*
G75*
G02X19189Y2158I-25J-259*
G01*
X19088*
X19130Y15593D02*
G75*
G02Y15073J-260D01*
G01*
G75*
G02Y15593J260*
G01*
X19180Y16873D02*
G75*
G02Y16353J-260D01*
G01*
G75*
G02Y16873J260*
G01*
X19300Y5269D02*
X18360D01*
Y6209*
X19300*
Y5269*
X20284D02*
X19344D01*
Y6209*
X20284*
Y5269*
X20330Y26733D02*
G75*
G02Y25933J-400D01*
G01*
G75*
G02Y26733J400*
G01*
X20680Y18643D02*
G75*
G02Y18123J-260D01*
G01*
G75*
G02Y18643J260*
G01*
X21020Y30433D02*
G75*
G02X21540I260D01*
G01*
G75*
G02X21020I-260*
G01*
X21080Y15723D02*
G75*
G02Y15203J-260D01*
G01*
G75*
G02Y15723J260*
G01*
Y16823D02*
G75*
G02Y16303J-260D01*
G01*
G75*
G02Y16823J260*
G01*
X21253Y2697D02*
X20848Y2293D01*
X20276*
X19872Y2697*
Y3269*
X20276Y3674*
X20848*
X21253Y3269*
Y2697*
X21481Y19408D02*
G75*
G03X21755Y19134I299J25D01*
G01*
Y19034*
G75*
G02X21381Y19408I25J399*
G01*
X21481*
X21755Y19732D02*
G75*
G03X21481Y19458I25J-299D01*
G01*
X21381*
G75*
G02X21755Y19832I399J-25*
G01*
Y19732*
X21805Y19134D02*
G75*
G03X22079Y19408I-25J299D01*
G01*
X22179*
G75*
G02X21805Y19034I-399J25*
G01*
Y19134*
X21830Y14023D02*
G75*
G02Y13503J-260D01*
G01*
G75*
G02Y14023J260*
G01*
X22031Y26308D02*
G75*
G03X22305Y26034I299J25D01*
G01*
Y25934*
G75*
G02X21931Y26308I25J399*
G01*
X22031*
X22079Y19458D02*
G75*
G03X21805Y19732I-299J-25D01*
G01*
Y19832*
G75*
G02X22179Y19458I-25J-399*
G01*
X22079*
X22180Y21433D02*
G75*
G02X21380I-400D01*
G01*
G75*
G02X22180I400*
G01*
X22280Y16523D02*
G75*
G02Y16003J-260D01*
G01*
G75*
G02Y16523J260*
G01*
Y17593D02*
G75*
G02Y17073J-260D01*
G01*
G75*
G02Y17593J260*
G01*
X22305Y26632D02*
G75*
G03X22031Y26358I25J-299D01*
G01*
X21931*
G75*
G02X22305Y26732I399J-25*
G01*
Y26632*
X22355Y26034D02*
G75*
G03X22629Y26308I-25J299D01*
G01*
X22729*
G75*
G02X22355Y25934I-399J25*
G01*
Y26034*
X22564Y2925D02*
G75*
G02Y1741J-592D01*
G01*
G75*
G02Y2925J592*
G01*
X22629Y26358D02*
G75*
G03X22355Y26632I-299J-25D01*
G01*
Y26732*
G75*
G02X22729Y26358I-25J-399*
G01*
X22629*
X22795Y3993D02*
G75*
G02X22564Y3946I-231J545D01*
G01*
G75*
G02Y5130J592*
G01*
G75*
G02X23121Y4335J-592*
G01*
G75*
G02X23352Y4382I231J-545*
G01*
G75*
G02Y3198J-592*
G01*
G75*
G02X22795Y3993J592*
G01*
X23020Y30233D02*
G75*
G02X23540I260D01*
G01*
G75*
G02X23020I-260*
G01*
X23352Y1981D02*
G75*
G02Y796J-592D01*
G01*
G75*
G02Y1981J592*
G01*
Y6626D02*
G75*
G02Y5442J-592D01*
G01*
G75*
G02Y6626J592*
G01*
X24620Y14683D02*
G75*
G02X25140I260D01*
G01*
G75*
G02X24620I-260*
G01*
X25220Y17883D02*
G75*
G02X25740I260D01*
G01*
G75*
G02X25220I-260*
G01*
X25922Y19208D02*
G75*
G03X26055Y19075I158J25D01*
G01*
Y18974*
G75*
G02X25821Y19208I25J259*
G01*
X25922*
X25972Y12458D02*
G75*
G03X26105Y12325I158J25D01*
G01*
Y12224*
G75*
G02X25871Y12458I25J259*
G01*
X25972*
Y26208D02*
G75*
G03X26105Y26075I158J25D01*
G01*
Y25974*
G75*
G02X25871Y26208I25J259*
G01*
X25972*
X26055Y19391D02*
G75*
G03X25922Y19258I25J-158D01*
G01*
X25821*
G75*
G02X26055Y19492I259J-25*
G01*
Y19391*
X26072Y4858D02*
G75*
G03X26205Y4725I158J25D01*
G01*
Y4624*
G75*
G02X25971Y4858I25J259*
G01*
X26072*
X26105Y12641D02*
G75*
G03X25972Y12508I25J-158D01*
G01*
X25871*
G75*
G02X26105Y12742I259J-25*
G01*
Y12641*
Y19075D02*
G75*
G03X26238Y19208I-25J158D01*
G01*
X26339*
G75*
G02X26105Y18974I-259J25*
G01*
Y19075*
Y26391D02*
G75*
G03X25972Y26258I25J-158D01*
G01*
X25871*
G75*
G02X26105Y26492I259J-25*
G01*
Y26391*
X26155Y12325D02*
G75*
G03X26288Y12458I-25J158D01*
G01*
X26389*
G75*
G02X26155Y12224I-259J25*
G01*
Y12325*
Y26075D02*
G75*
G03X26288Y26208I-25J158D01*
G01*
X26389*
G75*
G02X26155Y25974I-259J25*
G01*
Y26075*
X26205Y5041D02*
G75*
G03X26072Y4908I25J-158D01*
G01*
X25971*
G75*
G02X26205Y5142I259J-25*
G01*
Y5041*
X26238Y19258D02*
G75*
G03X26105Y19391I-158J-25D01*
G01*
Y19492*
G75*
G02X26339Y19258I-25J-259*
G01*
X26238*
X26255Y4725D02*
G75*
G03X26388Y4858I-25J158D01*
G01*
X26489*
G75*
G02X26255Y4624I-259J25*
G01*
Y4725*
X26288Y12508D02*
G75*
G03X26155Y12641I-158J-25D01*
G01*
Y12742*
G75*
G02X26389Y12508I-25J-259*
G01*
X26288*
Y26258D02*
G75*
G03X26155Y26391I-158J-25D01*
G01*
Y26492*
G75*
G02X26389Y26258I-25J-259*
G01*
X26288*
X26388Y4908D02*
G75*
G03X26255Y5041I-158J-25D01*
G01*
Y5142*
G75*
G02X26489Y4908I-25J-259*
G01*
X26388*
X26580Y20823D02*
G75*
G02Y21343J260D01*
G01*
G75*
G02Y20823J-260*
G01*
X26680Y13973D02*
G75*
G02Y14493J260D01*
G01*
G75*
G02Y13973J-260*
G01*
Y27773D02*
G75*
G02Y28293J260D01*
G01*
G75*
G02Y27773J-260*
G01*
X26780Y6423D02*
G75*
G02Y6943J260D01*
G01*
G75*
G02Y6423J-260*
G01*
X28230Y12773D02*
G75*
G02Y13293J260D01*
G01*
G75*
G02Y12773J-260*
G01*
Y19573D02*
G75*
G02Y20093J260D01*
G01*
G75*
G02Y19573J-260*
G01*
X28280Y26569D02*
G75*
G02Y27089J260D01*
G01*
G75*
G02Y26569J-260*
G01*
X28430Y5173D02*
G75*
G02Y5693J260D01*
G01*
G75*
G02Y5173J-260*
G01*
X30222Y16458D02*
G75*
G03X30355Y16325I158J25D01*
G01*
Y16224*
G75*
G02X30121Y16458I25J259*
G01*
X30222*
X30272Y30208D02*
G75*
G03X30405Y30075I158J25D01*
G01*
Y29974*
G75*
G02X30171Y30208I25J259*
G01*
X30272*
X30355Y16641D02*
G75*
G03X30222Y16508I25J-158D01*
G01*
X30121*
G75*
G02X30355Y16742I259J-25*
G01*
Y16641*
X30372Y23258D02*
G75*
G03X30505Y23125I158J25D01*
G01*
Y23024*
G75*
G02X30271Y23258I25J259*
G01*
X30372*
X30405Y16325D02*
G75*
G03X30538Y16458I-25J158D01*
G01*
X30639*
G75*
G02X30405Y16224I-259J25*
G01*
Y16325*
Y30391D02*
G75*
G03X30272Y30258I25J-158D01*
G01*
X30171*
G75*
G02X30405Y30492I259J-25*
G01*
Y30391*
X30422Y25454D02*
G75*
G03X30555Y25321I158J25D01*
G01*
Y25220*
G75*
G02X30321Y25454I25J259*
G01*
X30422*
X30455Y30075D02*
G75*
G03X30588Y30208I-25J158D01*
G01*
X30689*
G75*
G02X30455Y29974I-259J25*
G01*
Y30075*
X30468Y18408D02*
G75*
G03X30601Y18275I158J25D01*
G01*
Y18174*
G75*
G02X30367Y18408I25J259*
G01*
X30468*
X30472Y8708D02*
G75*
G03X30605Y8575I158J25D01*
G01*
Y8474*
G75*
G02X30371Y8708I25J259*
G01*
X30472*
Y11658D02*
G75*
G03X30605Y11525I158J25D01*
G01*
Y11424*
G75*
G02X30371Y11658I25J259*
G01*
X30472*
X30505Y23441D02*
G75*
G03X30372Y23308I25J-158D01*
G01*
X30271*
G75*
G02X30505Y23542I259J-25*
G01*
Y23441*
X30538Y16508D02*
G75*
G03X30405Y16641I-158J-25D01*
G01*
Y16742*
G75*
G02X30639Y16508I-25J-259*
G01*
X30538*
X30555Y23125D02*
G75*
G03X30688Y23258I-25J158D01*
G01*
X30789*
G75*
G02X30555Y23024I-259J25*
G01*
Y23125*
Y25637D02*
G75*
G03X30422Y25504I25J-158D01*
G01*
X30321*
G75*
G02X30555Y25738I259J-25*
G01*
Y25637*
X30588Y30258D02*
G75*
G03X30455Y30391I-158J-25D01*
G01*
Y30492*
G75*
G02X30689Y30258I-25J-259*
G01*
X30588*
X30601Y18591D02*
G75*
G03X30468Y18458I25J-158D01*
G01*
X30367*
G75*
G02X30601Y18692I259J-25*
G01*
Y18591*
X30605Y8891D02*
G75*
G03X30472Y8758I25J-158D01*
G01*
X30371*
G75*
G02X30605Y8992I259J-25*
G01*
Y8891*
Y11841D02*
G75*
G03X30472Y11708I25J-158D01*
G01*
X30371*
G75*
G02X30605Y11942I259J-25*
G01*
Y11841*
Y25321D02*
G75*
G03X30738Y25454I-25J158D01*
G01*
X30839*
G75*
G02X30605Y25220I-259J25*
G01*
Y25321*
X30651Y18275D02*
G75*
G03X30784Y18408I-25J158D01*
G01*
X30884*
G75*
G02X30651Y18174I-259J25*
G01*
Y18275*
X30655Y8575D02*
G75*
G03X30788Y8708I-25J158D01*
G01*
X30889*
G75*
G02X30655Y8474I-259J25*
G01*
Y8575*
Y11525D02*
G75*
G03X30788Y11658I-25J158D01*
G01*
X30889*
G75*
G02X30655Y11424I-259J25*
G01*
Y11525*
X30688Y23308D02*
G75*
G03X30555Y23441I-158J-25D01*
G01*
Y23542*
G75*
G02X30789Y23308I-25J-259*
G01*
X30688*
X30722Y4158D02*
G75*
G03X30855Y4025I158J25D01*
G01*
Y3924*
G75*
G02X30621Y4158I25J259*
G01*
X30722*
X30738Y25504D02*
G75*
G03X30605Y25637I-158J-25D01*
G01*
Y25738*
G75*
G02X30839Y25504I-25J-259*
G01*
X30738*
X30784Y18458D02*
G75*
G03X30651Y18591I-158J-25D01*
G01*
Y18692*
G75*
G02X30884Y18458I-25J-259*
G01*
X30784*
X30788Y8758D02*
G75*
G03X30655Y8891I-158J-25D01*
G01*
Y8992*
G75*
G02X30889Y8758I-25J-259*
G01*
X30788*
Y11708D02*
G75*
G03X30655Y11841I-158J-25D01*
G01*
Y11942*
G75*
G02X30889Y11708I-25J-259*
G01*
X30788*
X30855Y4341D02*
G75*
G03X30722Y4208I25J-158D01*
G01*
X30621*
G75*
G02X30855Y4442I259J-25*
G01*
Y4341*
X30905Y4025D02*
G75*
G03X31038Y4158I-25J158D01*
G01*
X31139*
G75*
G02X30905Y3924I-259J25*
G01*
Y4025*
X30980Y25573D02*
G75*
G02Y26093J260D01*
G01*
G75*
G02Y25573J-260*
G01*
X31021Y4402D02*
G75*
G02X31280Y4643I259J-19D01*
G01*
G75*
G02Y4123J-260*
G01*
G75*
G02X31088Y4208J260*
G01*
X31038*
G75*
G03X30905Y4341I-158J-25*
G01*
Y4442*
G75*
G02X31021Y4402I-25J-259*
G01*
X31130Y18373D02*
G75*
G02Y18893J260D01*
G01*
G75*
G02Y18373J-260*
G01*
X31230Y11823D02*
G75*
G02Y12343J260D01*
G01*
G75*
G02Y11823J-260*
G01*
X31320Y24733D02*
G75*
G02X31840I260D01*
G01*
G75*
G02X31320I-260*
G01*
X31322Y14258D02*
G75*
G03X31455Y14125I158J25D01*
G01*
Y14024*
G75*
G02X31221Y14258I25J259*
G01*
X31322*
Y28058D02*
G75*
G03X31455Y27925I158J25D01*
G01*
Y27824*
G75*
G02X31221Y28058I25J259*
G01*
X31322*
X31430Y15323D02*
G75*
G02Y15843J260D01*
G01*
G75*
G02Y15323J-260*
G01*
Y29173D02*
G75*
G02Y29693J260D01*
G01*
G75*
G02Y29173J-260*
G01*
X31455Y14441D02*
G75*
G03X31322Y14308I25J-158D01*
G01*
X31221*
G75*
G02X31455Y14542I259J-25*
G01*
Y14441*
Y28241D02*
G75*
G03X31322Y28108I25J-158D01*
G01*
X31221*
G75*
G02X31455Y28342I259J-25*
G01*
Y28241*
X31472Y6658D02*
G75*
G03X31605Y6525I158J25D01*
G01*
Y6424*
G75*
G02X31371Y6658I25J259*
G01*
X31472*
X31505Y14125D02*
G75*
G03X31638Y14258I-25J158D01*
G01*
X31739*
G75*
G02X31505Y14024I-259J25*
G01*
Y14125*
Y27925D02*
G75*
G03X31638Y28058I-25J158D01*
G01*
X31739*
G75*
G02X31505Y27824I-259J25*
G01*
Y27925*
X31572Y21058D02*
G75*
G03X31705Y20925I158J25D01*
G01*
Y20824*
G75*
G02X31471Y21058I25J259*
G01*
X31572*
X31580Y22173D02*
G75*
G02Y22693J260D01*
G01*
G75*
G02Y22173J-260*
G01*
Y27023D02*
G75*
G02Y27543J260D01*
G01*
G75*
G02Y27023J-260*
G01*
X31605Y6841D02*
G75*
G03X31472Y6708I25J-158D01*
G01*
X31371*
G75*
G02X31605Y6942I259J-25*
G01*
Y6841*
X31638Y14308D02*
G75*
G03X31505Y14441I-158J-25D01*
G01*
Y14542*
G75*
G02X31739Y14308I-25J-259*
G01*
X31638*
Y28108D02*
G75*
G03X31505Y28241I-158J-25D01*
G01*
Y28342*
G75*
G02X31739Y28108I-25J-259*
G01*
X31638*
X31655Y6525D02*
G75*
G03X31788Y6658I-25J158D01*
G01*
X31889*
G75*
G02X31655Y6424I-259J25*
G01*
Y6525*
X31680Y7773D02*
G75*
G02Y8293J260D01*
G01*
G75*
G02Y7773J-260*
G01*
X31705Y21241D02*
G75*
G03X31572Y21108I25J-158D01*
G01*
X31471*
G75*
G02X31705Y21342I259J-25*
G01*
Y21241*
X31730Y13323D02*
G75*
G02Y13843J260D01*
G01*
G75*
G02Y13323J-260*
G01*
Y20123D02*
G75*
G02Y20643J260D01*
G01*
G75*
G02Y20123J-260*
G01*
X31755Y20925D02*
G75*
G03X31888Y21058I-25J158D01*
G01*
X31989*
G75*
G02X31755Y20824I-259J25*
G01*
Y20925*
X31788Y6708D02*
G75*
G03X31655Y6841I-158J-25D01*
G01*
Y6942*
G75*
G02X31889Y6708I-25J-259*
G01*
X31788*
X31888Y21108D02*
G75*
G03X31755Y21241I-158J-25D01*
G01*
Y21342*
G75*
G02X31989Y21108I-25J-259*
G01*
X31888*
X31930Y5623D02*
G75*
G02Y6143J260D01*
G01*
G75*
G02Y5623J-260*
G01*
X32580Y28523D02*
G75*
G02Y29043J260D01*
G01*
G75*
G02Y28523J-260*
G01*
X32930Y21523D02*
G75*
G02Y22043J260D01*
G01*
G75*
G02Y21523J-260*
G01*
X32980Y14723D02*
G75*
G02Y15243J260D01*
G01*
G75*
G02Y14723J-260*
G01*
X33180Y7173D02*
G75*
G02Y7693J260D01*
G01*
G75*
G02Y7173J-260*
G01*
X34330Y28573D02*
G75*
G02Y29093J260D01*
G01*
G75*
G02Y28573J-260*
G01*
X34480Y14523D02*
G75*
G02Y15043J260D01*
G01*
G75*
G02Y14523J-260*
G01*
X34530Y21623D02*
G75*
G02Y22143J260D01*
G01*
G75*
G02Y21623J-260*
G01*
X34730Y7373D02*
G75*
G02Y7893J260D01*
G01*
G75*
G02Y7373J-260*
G01*
X34770Y24733D02*
G75*
G02X35290I260D01*
G01*
G75*
G02X34770I-260*
G01*
X37044Y25460D02*
X36639Y25865D01*
Y26437*
X37044Y26842*
X37616*
X38021Y26437*
Y25865*
X37616Y25460*
X37044*
Y28925D02*
X36639Y29330D01*
Y29902*
X37044Y30306*
X37616*
X38021Y29902*
Y29330*
X37616Y28925*
X37044*
X37144Y3960D02*
X36739Y4365D01*
Y4937*
X37144Y5342*
X37716*
X38121Y4937*
Y4365*
X37716Y3960*
X37144*
Y7425D02*
X36739Y7830D01*
Y8402*
X37144Y8806*
X37716*
X38121Y8402*
Y7830*
X37716Y7425*
X37144*
Y18510D02*
X36739Y18915D01*
Y19487*
X37144Y19892*
X37716*
X38121Y19487*
Y18915*
X37716Y18510*
X37144*
Y21975D02*
X36739Y22380D01*
Y22952*
X37144Y23356*
X37716*
X38121Y22952*
Y22380*
X37716Y21975*
X37144*
X37294Y11260D02*
X36889Y11665D01*
Y12237*
X37294Y12642*
X37866*
X38271Y12237*
Y11665*
X37866Y11260*
X37294*
Y14725D02*
X36889Y15130D01*
Y15702*
X37294Y16106*
X37866*
X38271Y15702*
Y15130*
X37866Y14725*
X37294*
X39616Y26429D02*
Y27369D01*
X40556*
Y26429*
X39616*
Y27413D02*
Y28353D01*
X40556*
Y27413*
X39616*
Y28398D02*
Y29338D01*
X40556*
Y28398*
X39616*
X39716Y4929D02*
Y5869D01*
X40656*
Y4929*
X39716*
Y5913D02*
Y6853D01*
X40656*
Y5913*
X39716*
Y6898D02*
Y7838D01*
X40656*
Y6898*
X39716*
Y19479D02*
Y20419D01*
X40656*
Y19479*
X39716*
Y20463D02*
Y21403D01*
X40656*
Y20463*
X39716*
Y21448D02*
Y22388D01*
X40656*
Y21448*
X39716*
X39866Y12229D02*
Y13169D01*
X40806*
Y12229*
X39866*
Y13213D02*
Y14153D01*
X40806*
Y13213*
X39866*
Y14198D02*
Y15138D01*
X40806*
Y14198*
X39866*
X41782Y28764D02*
G75*
G03X42248Y28298I491J25D01*
G01*
Y28198*
G75*
G02X41682Y28764I25J592*
G01*
X41782*
X41832Y7114D02*
G75*
G03X42298Y6648I491J25D01*
G01*
Y6548*
G75*
G02X41732Y7114I25J592*
G01*
X41832*
Y14614D02*
G75*
G03X42298Y14148I491J25D01*
G01*
Y14048*
G75*
G02X41732Y14614I25J592*
G01*
X41832*
X41882Y21714D02*
G75*
G03X42348Y21248I491J25D01*
G01*
Y21148*
G75*
G02X41782Y21714I25J592*
G01*
X41882*
X42248Y29281D02*
G75*
G03X41782Y28814I25J-491D01*
G01*
X41682*
G75*
G02X42248Y29381I592J-25*
G01*
Y29281*
X42298Y7631D02*
G75*
G03X41832Y7164I25J-491D01*
G01*
X41732*
G75*
G02X42298Y7731I592J-25*
G01*
Y7631*
Y15131D02*
G75*
G03X41832Y14664I25J-491D01*
G01*
X41732*
G75*
G02X42298Y15231I592J-25*
G01*
Y15131*
Y28298D02*
G75*
G03X42765Y28764I-25J491D01*
G01*
X42865*
G75*
G02X42298Y28198I-592J25*
G01*
Y28298*
X42348Y6648D02*
G75*
G03X42815Y7114I-25J491D01*
G01*
X42915*
G75*
G02X42348Y6548I-592J25*
G01*
Y6648*
Y14148D02*
G75*
G03X42815Y14614I-25J491D01*
G01*
X42915*
G75*
G02X42348Y14048I-592J25*
G01*
Y14148*
Y22231D02*
G75*
G03X41882Y21764I25J-491D01*
G01*
X41782*
G75*
G02X42348Y22331I592J-25*
G01*
Y22231*
X42398Y21248D02*
G75*
G03X42865Y21714I-25J491D01*
G01*
X42965*
G75*
G02X42398Y21148I-592J25*
G01*
Y21248*
X42765Y28814D02*
G75*
G03X42298Y29281I-491J-25D01*
G01*
Y29381*
G75*
G02X42865Y28814I-25J-592*
G01*
X42765*
X42815Y7164D02*
G75*
G03X42348Y7631I-491J-25D01*
G01*
Y7731*
G75*
G02X42915Y7164I-25J-592*
G01*
X42815*
Y14664D02*
G75*
G03X42348Y15131I-491J-25D01*
G01*
Y15231*
G75*
G02X42915Y14664I-25J-592*
G01*
X42815*
X42865Y21764D02*
G75*
G03X42398Y22231I-491J-25D01*
G01*
Y22331*
G75*
G02X42965Y21764I-25J-592*
G01*
X42865*
X43972Y28558D02*
G75*
G02X43926Y28764I545J231D01*
G01*
X44026*
G75*
G03X44492Y28298I491J25*
G01*
Y28198*
G75*
G02X44315Y28233I25J592*
G01*
G75*
G02X44361Y28002I-545J-231*
G01*
G75*
G02X43177I-592*
G01*
G75*
G02X43972Y28558I592*
G01*
X44022Y6908D02*
G75*
G02X43976Y7114I545J231D01*
G01*
X44076*
G75*
G03X44542Y6648I491J25*
G01*
Y6548*
G75*
G02X44365Y6583I25J592*
G01*
G75*
G02X44411Y6352I-545J-231*
G01*
G75*
G02X43227I-592*
G01*
G75*
G02X44022Y6908I592*
G01*
Y14408D02*
G75*
G02X43976Y14614I545J231D01*
G01*
X44076*
G75*
G03X44542Y14148I491J25*
G01*
Y14048*
G75*
G02X44365Y14083I25J592*
G01*
G75*
G02X44411Y13852I-545J-231*
G01*
G75*
G02X43227I-592*
G01*
G75*
G02X44022Y14408I592*
G01*
X44072Y21508D02*
G75*
G02X44026Y21714I545J231D01*
G01*
X44126*
G75*
G03X44592Y21248I491J25*
G01*
Y21148*
G75*
G02X44415Y21183I25J592*
G01*
G75*
G02X44461Y20952I-545J-231*
G01*
G75*
G02X43277I-592*
G01*
G75*
G02X44072Y21508I592*
G01*
X44492Y29281D02*
G75*
G03X44026Y28814I25J-491D01*
G01*
X43926*
G75*
G02X44492Y29381I592J-25*
G01*
Y29281*
X44542Y7631D02*
G75*
G03X44076Y7164I25J-491D01*
G01*
X43976*
G75*
G02X44542Y7731I592J-25*
G01*
Y7631*
Y15131D02*
G75*
G03X44076Y14664I25J-491D01*
G01*
X43976*
G75*
G02X44542Y15231I592J-25*
G01*
Y15131*
Y28298D02*
G75*
G03X45009Y28764I-25J491D01*
G01*
X45109*
G75*
G02X44542Y28198I-592J25*
G01*
Y28298*
X44592Y6648D02*
G75*
G03X45059Y7114I-25J491D01*
G01*
X45159*
G75*
G02X44592Y6548I-592J25*
G01*
Y6648*
Y14148D02*
G75*
G03X45059Y14614I-25J491D01*
G01*
X45159*
G75*
G02X44592Y14048I-592J25*
G01*
Y14148*
Y22231D02*
G75*
G03X44126Y21764I25J-491D01*
G01*
X44026*
G75*
G02X44592Y22331I592J-25*
G01*
Y22231*
X44642Y21248D02*
G75*
G03X45109Y21714I-25J491D01*
G01*
X45209*
G75*
G02X44642Y21148I-592J25*
G01*
Y21248*
X44854Y31174D02*
G75*
G02X44570Y31433I-24J259D01*
G01*
G75*
G02X45090I260*
G01*
G75*
G02X45006Y31242I-260J0*
G01*
G75*
G02X45290Y30983I24J-259*
G01*
G75*
G02X45196Y30783I-260*
G01*
G75*
G02X45290Y30583I-166J-200*
G01*
G75*
G02X45196Y30383I-260*
G01*
G75*
G02X45290Y30183I-166J-200*
G01*
G75*
G02X45196Y29983I-260*
G01*
G75*
G02X45290Y29783I-166J-200*
G01*
G75*
G02X44770I-260*
G01*
G75*
G02X44864Y29983I260*
G01*
G75*
G02X44770Y30183I166J200*
G01*
G75*
G02X44864Y30383I260*
G01*
G75*
G02X44770Y30583I166J200*
G01*
G75*
G02X44864Y30783I260*
G01*
G75*
G02X44770Y30983I166J200*
G01*
G75*
G02X44854Y31174I260J0*
G01*
X45009Y28814D02*
G75*
G03X44542Y29281I-491J-25D01*
G01*
Y29381*
G75*
G02X45109Y28814I-25J-592*
G01*
X45009*
X45059Y7164D02*
G75*
G03X44592Y7631I-491J-25D01*
G01*
Y7731*
G75*
G02X45159Y7164I-25J-592*
G01*
X45059*
Y14664D02*
G75*
G03X44592Y15131I-491J-25D01*
G01*
Y15231*
G75*
G02X45159Y14664I-25J-592*
G01*
X45059*
X45064Y2818D02*
G75*
G02X45584I260D01*
G01*
G75*
G02X45064I-260*
G01*
X45109Y21764D02*
G75*
G03X44642Y22231I-491J-25D01*
G01*
Y22331*
G75*
G02X45209Y21764I-25J-592*
G01*
X45109*
X45320Y24333D02*
G75*
G02X45840I260D01*
G01*
G75*
G02X45320I-260*
G01*
X45331Y9870D02*
G75*
G02X45851I260D01*
G01*
G75*
G02X45331I-260*
G01*
X45370Y17183D02*
G75*
G02X45890I260D01*
G01*
G75*
G02X45370I-260*
G01*
X45382Y28002D02*
G75*
G02X46566I592D01*
G01*
G75*
G02X45382I-592*
G01*
X45432Y6352D02*
G75*
G02X46616I592D01*
G01*
G75*
G02X45432I-592*
G01*
Y13852D02*
G75*
G02X46616I592D01*
G01*
G75*
G02X45432I-592*
G01*
X45479Y26518D02*
G75*
G02X45999I260D01*
G01*
G75*
G02X45479I-260*
G01*
X45482Y20952D02*
G75*
G02X46666I592D01*
G01*
G75*
G02X45482I-592*
G01*
X45614Y4918D02*
G75*
G02X46134I260D01*
G01*
G75*
G02X45614I-260*
G01*
Y12318D02*
G75*
G02X46134I260D01*
G01*
G75*
G02X45614I-260*
G01*
X45664Y19418D02*
G75*
G02X46184I260D01*
G01*
G75*
G02X45664I-260*
G01*
X45875Y10088D02*
G75*
G02X46395I260D01*
G01*
G75*
G02X45875I-260*
G01*
X45970Y24283D02*
G75*
G02X46490I260D01*
G01*
G75*
G02X45970I-260*
G01*
X46070Y17183D02*
G75*
G02X46590I260D01*
G01*
G75*
G02X46070I-260*
G01*
X46364Y12368D02*
G75*
G02X46884I260D01*
G01*
G75*
G02X46364I-260*
G01*
X46427Y28764D02*
G75*
G03X46894Y28298I491J25D01*
G01*
Y28198*
G75*
G02X46327Y28764I25J592*
G01*
X46427*
X46429Y26468D02*
G75*
G02X46949I260D01*
G01*
G75*
G02X46429I-260*
G01*
X46477Y7114D02*
G75*
G03X46944Y6648I491J25D01*
G01*
Y6548*
G75*
G02X46377Y7114I25J592*
G01*
X46477*
Y14614D02*
G75*
G03X46944Y14148I491J25D01*
G01*
Y14048*
G75*
G02X46377Y14614I25J592*
G01*
X46477*
X46527Y21714D02*
G75*
G03X46994Y21248I491J25D01*
G01*
Y21148*
G75*
G02X46427Y21714I25J592*
G01*
X46527*
X46564Y19517D02*
G75*
G02X47084I260D01*
G01*
G75*
G02X46564I-260*
G01*
X46620Y5433D02*
G75*
G02X47140I260D01*
G01*
G75*
G02X46620I-260*
G01*
X46894Y29281D02*
G75*
G03X46427Y28814I25J-491D01*
G01*
X46327*
G75*
G02X46894Y29381I592J-25*
G01*
Y29281*
X46944Y7631D02*
G75*
G03X46477Y7164I25J-491D01*
G01*
X46377*
G75*
G02X46944Y7731I592J-25*
G01*
Y7631*
Y15131D02*
G75*
G03X46477Y14664I25J-491D01*
G01*
X46377*
G75*
G02X46944Y15231I592J-25*
G01*
Y15131*
Y28298D02*
G75*
G03X47410Y28764I-25J491D01*
G01*
X47511*
G75*
G02X46944Y28198I-592J25*
G01*
Y28298*
X46994Y6648D02*
G75*
G03X47460Y7114I-25J491D01*
G01*
X47561*
G75*
G02X46994Y6548I-592J25*
G01*
Y6648*
Y14148D02*
G75*
G03X47460Y14614I-25J491D01*
G01*
X47561*
G75*
G02X46994Y14048I-592J25*
G01*
Y14148*
Y22231D02*
G75*
G03X46527Y21764I25J-491D01*
G01*
X46427*
G75*
G02X46994Y22331I592J-25*
G01*
Y22231*
X47014Y2468D02*
G75*
G02X47534I260D01*
G01*
G75*
G02X47014I-260*
G01*
X47044Y21248D02*
G75*
G03X47510Y21714I-25J491D01*
G01*
X47611*
G75*
G02X47044Y21148I-592J25*
G01*
Y21248*
X47410Y28814D02*
G75*
G03X46944Y29281I-491J-25D01*
G01*
Y29381*
G75*
G02X47511Y28814I-25J-592*
G01*
X47410*
X47460Y7164D02*
G75*
G03X46994Y7631I-491J-25D01*
G01*
Y7731*
G75*
G02X47561Y7164I-25J-592*
G01*
X47460*
Y14664D02*
G75*
G03X46994Y15131I-491J-25D01*
G01*
Y15231*
G75*
G02X47561Y14664I-25J-592*
G01*
X47460*
X47510Y21764D02*
G75*
G03X47044Y22231I-491J-25D01*
G01*
Y22331*
G75*
G02X47611Y21764I-25J-592*
G01*
X47510*
X48020Y12433D02*
G75*
G02X48540I260D01*
G01*
G75*
G02X48020I-260*
G01*
X48170Y11383D02*
G75*
G02X48690I260D01*
G01*
G75*
G02X48170I-260*
G01*
X1630Y7485D02*
G36*
Y6825D01*
X26562*
G75*
G02X26780Y6943I218J-142*
G01*
G75*
G02X26998Y6825J-260*
G01*
X31412*
G75*
G02X31605Y6942I218J-142*
G01*
Y6841*
G75*
G03X31556Y6825I25J-158*
G01*
X31704*
G75*
G03X31655Y6841I-74J-142*
G01*
Y6942*
G75*
G02X31848Y6825I-25J-259*
G01*
X39716*
Y6853*
X40656*
Y6825*
X41821*
G75*
G02X41732Y7114I502J314*
G01*
X41832*
G75*
G03X41944Y6825I491J25*
G01*
X42702*
G75*
G03X42815Y7114I-379J314*
G01*
X42915*
G75*
G02X42825Y6825I-592J25*
G01*
X43464*
G75*
G02X44022Y6908I356J-473*
G01*
G75*
G02X43976Y7114I545J231*
G01*
X44076*
G75*
G03X44188Y6825I491J25*
G01*
X44946*
G75*
G03X45059Y7114I-379J314*
G01*
X45159*
G75*
G02X45069Y6825I-592J25*
G01*
X45668*
G75*
G02X46380I356J-473*
G01*
X46467*
G75*
G02X46377Y7114I502J314*
G01*
X46477*
G75*
G03X46590Y6825I491J25*
G01*
X47348*
G75*
G03X47460Y7114I-379J314*
G01*
X47561*
G75*
G02X47471Y6825I-592J25*
G01*
X49130*
Y7485*
X47449*
G75*
G02X47561Y7164I-480J-346*
G01*
X47460*
G75*
G03X47319Y7485I-491J-25*
G01*
X46619*
G75*
G03X46477Y7164I350J-346*
G01*
X46377*
G75*
G02X46489Y7485I592J-25*
G01*
X45048*
G75*
G02X45159Y7164I-480J-346*
G01*
X45059*
G75*
G03X44917Y7485I-491J-25*
G01*
X44218*
G75*
G03X44076Y7164I350J-346*
G01*
X43976*
G75*
G02X44087Y7485I592J-25*
G01*
X42804*
G75*
G02X42915Y7164I-480J-346*
G01*
X42815*
G75*
G03X42673Y7485I-491J-25*
G01*
X41974*
G75*
G03X41832Y7164I350J-346*
G01*
X41732*
G75*
G02X41843Y7485I592J-25*
G01*
X40656*
Y6898*
X39716*
Y7485*
X37776*
X37716Y7425*
X37144*
X37084Y7485*
X34944*
G75*
G02X34730Y7373I-214J148*
G01*
G75*
G02X34516Y7485J260*
G01*
X33435*
G75*
G02X33180Y7173I-255J-52*
G01*
G75*
G02X32925Y7485J260*
G01*
X7187*
G75*
G02X7044Y7099I-492J-37*
G01*
G75*
G02X6203Y7485I-349J349*
G01*
X4584*
G75*
G02X4202Y7273I-382J237*
G01*
G75*
G02X3819Y7485J450*
G01*
X2812*
G75*
G02X2455Y7273I-382J237*
G01*
Y7374*
G75*
G03X2687Y7485I-25J349*
G01*
X2173*
G75*
G03X2405Y7374I257J237*
G01*
Y7273*
G75*
G02X2048Y7485I25J449*
G01*
X1630*
G37*
X2048D02*
G36*
G75*
G02X1981Y7698I382J237D01*
G01*
X2081*
G75*
G03X2173Y7485I349J25*
G01*
X2687*
G75*
G03X2779Y7698I-257J237*
G01*
X2879*
G75*
G02X2812Y7485I-449J25*
G01*
X3819*
G75*
G02Y7960I382J237*
G01*
X2812*
G75*
G02X2879Y7748I-382J-237*
G01*
X2779*
G75*
G03X2687Y7960I-349J-25*
G01*
X2173*
G75*
G03X2081Y7748I257J-237*
G01*
X1981*
G75*
G02X2048Y7960I449J-25*
G01*
X1630*
Y7485*
X2048*
G37*
X6203D02*
G36*
G75*
G02X6346Y7797I492J-37D01*
G01*
G75*
G02X7187Y7485I349J-349*
G01*
X32925*
G75*
G02X33180Y7693I255J-52*
G01*
G75*
G02X33435Y7485J-260*
G01*
X34516*
G75*
G02X34730Y7893I214J148*
G01*
G75*
G02X34944Y7485J-260*
G01*
X37084*
X36739Y7830*
Y7960*
X31929*
G75*
G02X31680Y7773I-249J74*
G01*
G75*
G02X31431Y7960J260*
G01*
X4584*
G75*
G02Y7485I-382J-237*
G01*
X6203*
G37*
X39716D02*
G36*
Y7838D01*
X40656*
Y7485*
X41843*
G75*
G02X42298Y7731I480J-346*
G01*
Y7631*
G75*
G03X41974Y7485I25J-491*
G01*
X42673*
G75*
G03X42348Y7631I-350J-346*
G01*
Y7731*
G75*
G02X42804Y7485I-25J-592*
G01*
X44087*
G75*
G02X44542Y7731I480J-346*
G01*
Y7631*
G75*
G03X44218Y7485I25J-491*
G01*
X44917*
G75*
G03X44592Y7631I-350J-346*
G01*
Y7731*
G75*
G02X45048Y7485I-25J-592*
G01*
X46489*
G75*
G02X46944Y7731I480J-346*
G01*
Y7631*
G75*
G03X46619Y7485I25J-491*
G01*
X47319*
G75*
G03X46994Y7631I-350J-346*
G01*
Y7731*
G75*
G02X47449Y7485I-25J-592*
G01*
X49130*
Y7960*
X38121*
Y7830*
X37776Y7485*
X39716*
G37*
X1630Y10045D02*
G36*
Y9533D01*
X8098*
G75*
G02X8633I268J-415*
G01*
X14120*
G75*
G02X14640I260*
G01*
X17420*
G75*
G02X17940I260*
G01*
X49130*
Y10045*
X46392*
G75*
G02X45879I-256J43*
G01*
X45784*
G75*
G02X45851Y9870I-193J-174*
G01*
G75*
G02X45331I-260*
G01*
G75*
G02X45398Y10045I260*
G01*
X4584*
G75*
G02X4202Y9832I-382J237*
G01*
G75*
G02X3819Y10045J450*
G01*
X2812*
G75*
G02X2455Y9832I-382J237*
G01*
Y9933*
G75*
G03X2687Y10045I-25J349*
G01*
X2173*
G75*
G03X2405Y9933I257J237*
G01*
Y9832*
G75*
G02X2048Y10045I25J449*
G01*
X1630*
G37*
X2048D02*
G36*
G75*
G02X1981Y10257I382J237D01*
G01*
X2081*
G75*
G03X2173Y10045I349J25*
G01*
X2687*
G75*
G03X2779Y10257I-257J237*
G01*
X2879*
G75*
G02X2812Y10045I-449J25*
G01*
X3819*
G75*
G02Y10519I382J237*
G01*
X2812*
G75*
G02X2879Y10307I-382J-237*
G01*
X2779*
G75*
G03X2687Y10519I-349J-25*
G01*
X2173*
G75*
G03X2081Y10307I257J-237*
G01*
X1981*
G75*
G02X2048Y10519I449J-25*
G01*
X1630*
Y10045*
X2048*
G37*
X45398D02*
G36*
G75*
G02X45784I193J-174D01*
G01*
X45879*
G75*
G02X45875Y10088I256J43*
G01*
G75*
G02X46395I260*
G01*
G75*
G02X46392Y10045I-260*
G01*
X49130*
Y10519*
X17862*
G75*
G02X17940Y10333I-182J-186*
G01*
G75*
G02X17420I-260*
G01*
G75*
G02X17498Y10519I260*
G01*
X14562*
G75*
G02X14640Y10333I-182J-186*
G01*
G75*
G02X14120I-260*
G01*
G75*
G02X14198Y10519I260*
G01*
X4584*
G75*
G02Y10045I-382J-237*
G01*
X45398*
G37*
X2048Y7960D02*
G36*
G75*
G02X2405Y8172I382J-237D01*
G01*
Y8072*
G75*
G03X2173Y7960I25J-349*
G01*
X2687*
G75*
G03X2455Y8072I-257J-237*
G01*
Y8172*
G75*
G02X2812Y7960I-25J-449*
G01*
X3819*
G75*
G02X4202Y8173I382J-237*
G01*
G75*
G02X4584Y7960J-450*
G01*
X31431*
G75*
G02X31680Y8293I249J74*
G01*
G75*
G02X31929Y7960J-260*
G01*
X36739*
Y8402*
X36929Y8591*
X30848*
G75*
G02X30655Y8474I-218J142*
G01*
Y8575*
G75*
G03X30704Y8591I-25J158*
G01*
X30556*
G75*
G03X30605Y8575I74J142*
G01*
Y8474*
G75*
G02X30412Y8591I25J259*
G01*
X1630*
Y7960*
X2048*
G37*
X49130D02*
G36*
Y8591D01*
X37931*
X38121Y8402*
Y7960*
X49130*
G37*
X2048Y10519D02*
G36*
G75*
G02X2405Y10731I382J-237D01*
G01*
Y10631*
G75*
G03X2173Y10519I25J-349*
G01*
X2687*
G75*
G03X2455Y10631I-257J-237*
G01*
Y10731*
G75*
G02X2812Y10519I-25J-449*
G01*
X3819*
G75*
G02X4202Y10732I382J-237*
G01*
G75*
G02X4584Y10519J-450*
G01*
X14198*
G75*
G02X14562I182J-186*
G01*
X17498*
G75*
G02X17862I182J-186*
G01*
X49130*
Y11133*
X48501*
G75*
G02X48359I-71J250*
G01*
X17940*
G75*
G02X17420I-260*
G01*
X14640*
G75*
G02X14120I-260*
G01*
X1630*
Y10519*
X2048*
G37*
X1630Y16536D02*
G36*
Y16341D01*
X2670*
G75*
G02X2430Y16536I160J442*
G01*
X1630*
G37*
X2430D02*
G36*
G75*
G02X2361Y16758I400J247D01*
G01*
X2461*
G75*
G03X2555Y16536I369J25*
G01*
X3105*
G75*
G03X3199Y16758I-275J247*
G01*
X3299*
G75*
G02X3230Y16536I-469J25*
G01*
X10111*
G75*
G02X10020Y16733I169J197*
G01*
G75*
G02X10074Y16891I260J0*
G01*
X4648*
G75*
G02X4455Y16774I-218J142*
G01*
Y16875*
G75*
G03X4504Y16891I-25J158*
G01*
X4356*
G75*
G03X4405Y16875I74J142*
G01*
Y16774*
G75*
G02X4212Y16891I25J259*
G01*
X3287*
G75*
G02X3299Y16808I-457J-108*
G01*
X3199*
G75*
G03X3184Y16891I-369J-25*
G01*
X2476*
G75*
G03X2461Y16808I354J-108*
G01*
X2361*
G75*
G02X2373Y16891I469J-25*
G01*
X1630*
Y16536*
X2430*
G37*
X2555D02*
G36*
G75*
G03X2805Y16414I275J247D01*
G01*
Y16341*
X2855*
Y16414*
G75*
G03X3105Y16536I-25J369*
G01*
X2555*
G37*
X3230D02*
G36*
G75*
G02X2990Y16341I-400J247D01*
G01*
X12573*
G75*
G02X12570Y16383I257J42*
G01*
G75*
G02X12620Y16536I260J0*
G01*
X10449*
G75*
G02X10111I-169J197*
G01*
X3230*
G37*
X12620D02*
G36*
G75*
G02X13040I210J-153D01*
G01*
X15699*
G75*
G02X15520Y16783I81J247*
G01*
G75*
G02X15544Y16891I260*
G01*
X13037*
G75*
G02X12523I-257J42*
G01*
X11548*
G75*
G02X11112I-218J142*
G01*
X10486*
G75*
G02X10540Y16733I-206J-158*
G01*
G75*
G02X10449Y16536I-260*
G01*
X12620*
G37*
X13040D02*
G36*
G75*
G02X13090Y16383I-210J-153D01*
G01*
G75*
G02X13087Y16341I-260J0*
G01*
X16599*
G75*
G02X16661I31J-258*
G01*
X20944*
G75*
G02X20821Y16536I136J222*
G01*
X19428*
G75*
G02X19180Y16353I-248J77*
G01*
G75*
G02X18932Y16536J260*
G01*
X16311*
G75*
G02X16005Y16653I-81J247*
G01*
G75*
G02X15699Y16536I-225J130*
G01*
X13040*
G37*
X18932D02*
G36*
G75*
G02X19180Y16873I248J77D01*
G01*
G75*
G02X19428Y16536J-260*
G01*
X20821*
G75*
G02X21080Y16823I259J27*
G01*
G75*
G02X21339Y16536J-260*
G01*
X30125*
G75*
G02X30355Y16742I255J-53*
G01*
Y16641*
G75*
G03X30229Y16536I25J-158*
G01*
X30531*
G75*
G03X30405Y16641I-151J-53*
G01*
Y16742*
G75*
G02X30635Y16536I-25J-259*
G01*
X49130*
Y16891*
X16466*
G75*
G02X16490Y16783I-236J-108*
G01*
G75*
G02X16311Y16536I-260*
G01*
X18932*
G37*
X21339D02*
G36*
G75*
G02X21216Y16341I-259J27D01*
G01*
X22032*
G75*
G02X22280Y16523I248J-78*
G01*
G75*
G02X22528Y16341J-260*
G01*
X30162*
G75*
G02X30121Y16458I218J142*
G01*
X30222*
G75*
G03X30306Y16341I158J25*
G01*
X30454*
G75*
G03X30538Y16458I-74J142*
G01*
X30639*
G75*
G02X30598Y16341I-259J25*
G01*
X49130*
Y16536*
X30635*
G75*
G02X30639Y16508I-255J-53*
G01*
X30538*
G75*
G03X30531Y16536I-158J-25*
G01*
X30229*
G75*
G03X30222Y16508I151J-53*
G01*
X30121*
G75*
G02X30125Y16536I259J-25*
G01*
X21339*
G37*
X1630Y17030D02*
G36*
Y16891D01*
X2373*
G75*
G02X2430Y17030I457J-108*
G01*
X1630*
G37*
X2430D02*
G36*
G75*
G02X2571Y17175I400J-247D01*
G01*
X1630*
Y17030*
X2430*
G37*
X2555D02*
G36*
G75*
G03X2476Y16891I275J-247D01*
G01*
X3184*
G75*
G03X3105Y17030I-354J-108*
G01*
X2555*
G37*
X3105D02*
G36*
G75*
G03X2855Y17152I-275J-247D01*
G01*
Y17175*
X2805*
Y17152*
G75*
G03X2555Y17030I25J-369*
G01*
X3105*
G37*
X3230D02*
G36*
G75*
G02X3287Y16891I-400J-247D01*
G01*
X4212*
G75*
G02X4171Y17008I218J142*
G01*
X4272*
G75*
G03X4356Y16891I158J25*
G01*
X4504*
G75*
G03X4588Y17008I-74J142*
G01*
X4689*
G75*
G02X4648Y16891I-259J25*
G01*
X10074*
G75*
G02X10486I206J-158*
G01*
X11112*
G75*
G02X11070Y17030I218J142*
G01*
X10291*
G75*
G02X10169I-61J253*
G01*
X3230*
G37*
X10169D02*
G36*
G75*
G02X9994Y17175I61J253D01*
G01*
X9836*
G75*
G02X9524I-156J208*
G01*
X4648*
G75*
G02X4689Y17058I-218J-142*
G01*
X4588*
G75*
G03X4504Y17175I-158J-25*
G01*
X4356*
G75*
G03X4272Y17058I74J-142*
G01*
X4171*
G75*
G02X4212Y17175I259J-25*
G01*
X3089*
G75*
G02X3230Y17030I-259J-392*
G01*
X10169*
G37*
X11070D02*
G36*
G75*
G02Y17033I260J1D01*
G01*
G75*
G02X11112Y17175I260*
G01*
X10466*
G75*
G02X10291Y17030I-236J108*
G01*
X11070*
G37*
X11590D02*
G36*
G75*
G02X11548Y16891I-260J3D01*
G01*
X12523*
G75*
G02X12520Y16933I257J42*
G01*
G75*
G02X12539Y17030I260J0*
G01*
X11590*
G37*
X12539D02*
G36*
G75*
G02X12685Y17175I241J-97D01*
G01*
X11548*
G75*
G02X11590Y17033I-218J-142*
G01*
G75*
G02Y17030I-260J-1*
G01*
X12539*
G37*
X13021D02*
G36*
G75*
G02X13040Y16933I-241J-97D01*
G01*
G75*
G02X13037Y16891I-260J0*
G01*
X15544*
G75*
G02X15699Y17030I236J-108*
G01*
X13021*
G37*
X15699D02*
G36*
G75*
G02X16005Y16914I81J-247D01*
G01*
G75*
G02X16311Y17030I225J-130*
G01*
X16420*
G75*
G02X16370Y17175I210J153*
G01*
X12875*
G75*
G02X13021Y17030I-95J-242*
G01*
X15699*
G37*
X16311D02*
G36*
G75*
G02X16466Y16891I-81J-247D01*
G01*
X49130*
Y17030*
X46540*
G75*
G02X46120I-210J153*
G01*
X45840*
G75*
G02X45420I-210J153*
G01*
X16840*
G75*
G02X16420I-210J153*
G01*
X16311*
G37*
X45420D02*
G36*
G75*
G02X45370Y17175I210J153D01*
G01*
X22486*
G75*
G02X22280Y17073I-206J158*
G01*
G75*
G02X22074Y17175J260*
G01*
X16890*
G75*
G02X16840Y17030I-260J8*
G01*
X45420*
G37*
X46120D02*
G36*
G75*
G02X46070Y17175I210J153D01*
G01*
X45890*
G75*
G02X45840Y17030I-260J8*
G01*
X46120*
G37*
X49130D02*
G36*
Y17175D01*
X46590*
G75*
G02X46540Y17030I-260J8*
G01*
X49130*
G37*
X1630Y13783D02*
G36*
Y13375D01*
X2597*
G75*
G02X2360Y13783I233J408*
G01*
X1630*
G37*
X2360D02*
G36*
G75*
G02X2694Y14233I470D01*
G01*
X1630*
Y13783*
X2360*
G37*
X3300D02*
G36*
G75*
G02X3063Y13375I-470D01*
G01*
X11062*
G75*
G02X11498I218J-142*
G01*
X11862*
G75*
G02X12055Y13492I218J-142*
G01*
Y13391*
G75*
G03X12006Y13375I25J-158*
G01*
X12154*
G75*
G03X12105Y13391I-74J-142*
G01*
Y13492*
G75*
G02X12298Y13375I-25J-259*
G01*
X31574*
G75*
G02X31564Y13783I156J208*
G01*
X22089*
G75*
G02X21830Y13503I-259J-20*
G01*
G75*
G02X21571Y13783J260*
G01*
X18451*
G75*
G02X18330Y13753I-121J230*
G01*
G75*
G02X18209Y13783J260*
G01*
X3300*
G37*
X18209D02*
G36*
G75*
G02X18191Y14233I121J230D01*
G01*
X2966*
G75*
G02X3300Y13783I-136J-450*
G01*
X18209*
G37*
X21571D02*
G36*
G75*
G02X21830Y14023I259J-20D01*
G01*
G75*
G02X22089Y13783J-260*
G01*
X31564*
G75*
G02X31730Y13843I166J-200*
G01*
G75*
G02X31896Y13783J-260*
G01*
X39866*
Y14153*
X40806*
Y13783*
X43231*
G75*
G02X43227Y13852I588J69*
G01*
G75*
G02X43367Y14233I592*
G01*
X42754*
G75*
G02X42348Y14048I-431J406*
G01*
Y14148*
G75*
G03X42602Y14233I-25J491*
G01*
X42045*
G75*
G03X42298Y14148I278J406*
G01*
Y14048*
G75*
G02X41892Y14233I25J592*
G01*
X40806*
Y14198*
X39866*
Y14233*
X31735*
G75*
G02X31505Y14024I-255J50*
G01*
Y14125*
G75*
G03X31632Y14233I-25J158*
G01*
X31328*
G75*
G03X31455Y14125I152J50*
G01*
Y14024*
G75*
G02X31225Y14233I25J259*
G01*
X26940*
G75*
G02X26680Y13973I-260*
G01*
G75*
G02X26420Y14233J260*
G01*
X18469*
G75*
G02X18451Y13783I-139J-220*
G01*
X21571*
G37*
X31896D02*
G36*
G75*
G02X31886Y13375I-166J-200D01*
G01*
X39866*
Y13783*
X31896*
G37*
X40806D02*
G36*
Y13375D01*
X43468*
G75*
G02X43231Y13783I351J477*
G01*
X40806*
G37*
X44408D02*
G36*
G75*
G02X44171Y13375I-588J69D01*
G01*
X45673*
G75*
G02X45436Y13783I351J477*
G01*
X44408*
G37*
X45436D02*
G36*
G75*
G02X45432Y13852I588J69D01*
G01*
G75*
G02X45571Y14233I592*
G01*
X44999*
G75*
G02X44592Y14048I-431J406*
G01*
Y14148*
G75*
G03X44846Y14233I-25J491*
G01*
X44289*
G75*
G03X44542Y14148I278J406*
G01*
Y14048*
G75*
G02X44365Y14083I25J592*
G01*
G75*
G02X44411Y13852I-545J-231*
G01*
G75*
G02X44408Y13783I-592*
G01*
X45436*
G37*
X46612D02*
G36*
G75*
G02X46375Y13375I-588J69D01*
G01*
X49130*
Y13783*
X46612*
G37*
X49130D02*
G36*
Y14233D01*
X47400*
G75*
G02X46994Y14048I-431J406*
G01*
Y14148*
G75*
G03X47247Y14233I-25J491*
G01*
X46691*
G75*
G03X46944Y14148I278J406*
G01*
Y14048*
G75*
G02X46538Y14233I25J592*
G01*
X46477*
G75*
G02X46616Y13852I-453J-382*
G01*
G75*
G02X46612Y13783I-592*
G01*
X49130*
G37*
X1630Y14783D02*
G36*
Y14425D01*
X2526*
G75*
G02X2360Y14783I304J358*
G01*
X1630*
G37*
X2360D02*
G36*
G75*
G02X2427Y15025I470J0D01*
G01*
X1630*
Y14783*
X2360*
G37*
X3300D02*
G36*
G75*
G02X3134Y14425I-470D01*
G01*
X8794*
G75*
G02X8770Y14533I236J108*
G01*
G75*
G02X8959Y14783I260*
G01*
X7670*
G75*
G02X7455Y14624I-240J100*
G01*
Y14725*
G75*
G03X7555Y14783I-25J158*
G01*
X7305*
G75*
G03X7405Y14725I125J100*
G01*
Y14624*
G75*
G02X7190Y14783I25J259*
G01*
X3300*
G37*
X7190D02*
G36*
G75*
G02X7171Y14858I240J100D01*
G01*
X7272*
G75*
G03X7305Y14783I158J25*
G01*
X7555*
G75*
G03X7588Y14858I-125J100*
G01*
X7689*
G75*
G02X7670Y14783I-259J25*
G01*
X8959*
G75*
G02X9101I71J-250*
G01*
X17641*
G75*
G02X17709Y14813I139J-220*
G01*
G75*
G02X17523Y15025I71J250*
G01*
X7648*
G75*
G02X7689Y14908I-218J-142*
G01*
X7588*
G75*
G03X7504Y15025I-158J-25*
G01*
X7356*
G75*
G03X7272Y14908I74J-142*
G01*
X7171*
G75*
G02X7212Y15025I259J-25*
G01*
X3233*
G75*
G02X3300Y14783I-403J-242*
G01*
X7190*
G37*
X9101D02*
G36*
G75*
G02X9290Y14533I-71J-250D01*
G01*
G75*
G02X9266Y14425I-260*
G01*
X17560*
G75*
G02X17641Y14783I220J138*
G01*
X9101*
G37*
X17919D02*
G36*
G75*
G02X18000Y14425I-139J-220D01*
G01*
X24849*
G75*
G02X24620Y14683I31J258*
G01*
G75*
G02X24640Y14783I260*
G01*
X17919*
G37*
X24640D02*
G36*
G75*
G02X25120I240J-100D01*
G01*
X32814*
G75*
G02X32723Y15025I166J200*
G01*
X18037*
G75*
G02X17851Y14813I-257J38*
G01*
G75*
G02X17919Y14783I-71J-250*
G01*
X24640*
G37*
X25120D02*
G36*
G75*
G02X25140Y14683I-240J-100D01*
G01*
G75*
G02X24911Y14425I-260*
G01*
X26505*
G75*
G02X26680Y14493I175J-192*
G01*
G75*
G02X26855Y14425J-260*
G01*
X31262*
G75*
G02X31455Y14542I218J-142*
G01*
Y14441*
G75*
G03X31406Y14425I25J-158*
G01*
X31554*
G75*
G03X31505Y14441I-74J-142*
G01*
Y14542*
G75*
G02X31698Y14425I-25J-259*
G01*
X39866*
Y14783*
X37924*
X37866Y14725*
X37294*
X37236Y14783*
X34740*
G75*
G02X34480Y14523I-260*
G01*
G75*
G02X34220Y14783J260*
G01*
X33146*
G75*
G02X32980Y14723I-166J200*
G01*
G75*
G02X32814Y14783J260*
G01*
X25120*
G37*
X34220D02*
G36*
G75*
G02X34385Y15025I260D01*
G01*
X33237*
G75*
G02X33146Y14783I-257J-42*
G01*
X34220*
G37*
X37236D02*
G36*
X36994Y15025D01*
X34575*
G75*
G02X34740Y14783I-95J-242*
G01*
X37236*
G37*
X39866D02*
G36*
Y15025D01*
X38166*
X37924Y14783*
X39866*
G37*
X40806D02*
G36*
Y14425D01*
X41771*
G75*
G02X41732Y14614I552J214*
G01*
X41832*
G75*
G03X41880Y14425I491J25*
G01*
X42766*
G75*
G03X42815Y14614I-443J214*
G01*
X42915*
G75*
G02X42875Y14425I-592J25*
G01*
X43672*
G75*
G02X44022Y14408I148J-573*
G01*
G75*
G02X43976Y14614I545J231*
G01*
X44076*
G75*
G03X44124Y14425I491J25*
G01*
X45011*
G75*
G03X45059Y14614I-443J214*
G01*
X45159*
G75*
G02X45120Y14425I-592J25*
G01*
X45876*
G75*
G02X46172I148J-573*
G01*
X46417*
G75*
G02X46377Y14614I552J214*
G01*
X46477*
G75*
G03X46526Y14425I491J25*
G01*
X47412*
G75*
G03X47460Y14614I-443J214*
G01*
X47561*
G75*
G02X47521Y14425I-592J25*
G01*
X49130*
Y14783*
X47543*
G75*
G02X47561Y14664I-574J-144*
G01*
X47460*
G75*
G03X47440Y14783I-491J-25*
G01*
X46498*
G75*
G03X46477Y14664I471J-144*
G01*
X46377*
G75*
G02X46395Y14783I592J-25*
G01*
X45142*
G75*
G02X45159Y14664I-574J-144*
G01*
X45059*
G75*
G03X45038Y14783I-491J-25*
G01*
X44097*
G75*
G03X44076Y14664I471J-144*
G01*
X43976*
G75*
G02X43993Y14783I592J-25*
G01*
X42898*
G75*
G02X42915Y14664I-574J-144*
G01*
X42815*
G75*
G03X42794Y14783I-491J-25*
G01*
X41853*
G75*
G03X41832Y14664I471J-144*
G01*
X41732*
G75*
G02X41749Y14783I592J-25*
G01*
X40806*
G37*
X41749D02*
G36*
G75*
G02X41874Y15025I574J-144D01*
G01*
X40806*
Y14783*
X41749*
G37*
X42794D02*
G36*
G75*
G03X42629Y15025I-471J-144D01*
G01*
X42018*
G75*
G03X41853Y14783I305J-386*
G01*
X42794*
G37*
X43993D02*
G36*
G75*
G02X44118Y15025I574J-144D01*
G01*
X42772*
G75*
G02X42898Y14783I-449J-386*
G01*
X43993*
G37*
X45038D02*
G36*
G75*
G03X44873Y15025I-471J-144D01*
G01*
X44262*
G75*
G03X44097Y14783I305J-386*
G01*
X45038*
G37*
X46395D02*
G36*
G75*
G02X46520Y15025I574J-144D01*
G01*
X45016*
G75*
G02X45142Y14783I-449J-386*
G01*
X46395*
G37*
X47440D02*
G36*
G75*
G03X47274Y15025I-471J-144D01*
G01*
X46664*
G75*
G03X46498Y14783I305J-386*
G01*
X47440*
G37*
X49130D02*
G36*
Y15025D01*
X47418*
G75*
G02X47543Y14783I-449J-386*
G01*
X49130*
G37*
X1630Y15783D02*
G36*
Y15475D01*
X2475*
G75*
G02X2360Y15783I355J308*
G01*
X1630*
G37*
X2360D02*
G36*
G75*
G02X2381Y15921I470D01*
G01*
X1630*
Y15783*
X2360*
G37*
X3300D02*
G36*
G75*
G02X3185Y15475I-470D01*
G01*
X15112*
G75*
G02X15305Y15592I218J-142*
G01*
Y15491*
G75*
G03X15256Y15475I25J-158*
G01*
X15404*
G75*
G03X15355Y15491I-74J-142*
G01*
Y15592*
G75*
G02X15548Y15475I-25J-259*
G01*
X18912*
G75*
G02X19130Y15593I218J-142*
G01*
G75*
G02X19348Y15475J-260*
G01*
X20820*
G75*
G02X21080Y15723I260J-12*
G01*
G75*
G02X21340Y15475J-260*
G01*
X31194*
G75*
G02X31264Y15783I236J108*
G01*
X4501*
G75*
G02X4455Y15774I-71J250*
G01*
Y15783*
X4405*
Y15774*
G75*
G02X4359Y15783I25J259*
G01*
X3300*
G37*
X4359D02*
G36*
G75*
G02X4195Y15921I71J250D01*
G01*
X3279*
G75*
G02X3300Y15783I-449J-138*
G01*
X4359*
G37*
X4455D02*
G36*
Y15875D01*
G75*
G03X4544Y15921I-25J158*
G01*
X4316*
G75*
G03X4405Y15875I114J112*
G01*
Y15783*
X4455*
G37*
X31264D02*
G36*
G75*
G02X31430Y15843I166J-200D01*
G01*
G75*
G02X31596Y15783J-260*
G01*
X36971*
X37109Y15921*
X17998*
G75*
G02X17805Y15804I-218J142*
G01*
Y15905*
G75*
G03X17854Y15921I-25J158*
G01*
X17706*
G75*
G03X17755Y15905I74J142*
G01*
Y15804*
G75*
G02X17562Y15921I25J259*
G01*
X16833*
G75*
G02X16427I-203J162*
G01*
X4665*
G75*
G02X4501Y15783I-235J112*
G01*
X31264*
G37*
X31596D02*
G36*
G75*
G02X31666Y15475I-166J-200D01*
G01*
X36889*
Y15702*
X36971Y15783*
X31596*
G37*
X38189D02*
G36*
X38271Y15702D01*
Y15475*
X49130*
Y15783*
X38189*
G37*
X49130D02*
G36*
Y15921D01*
X38051*
X38189Y15783*
X49130*
G37*
X1630Y17783D02*
G36*
Y17483D01*
X2468*
G75*
G02X2360Y17783I362J300*
G01*
X1630*
G37*
X2360D02*
G36*
G75*
G02X2571Y18175I470D01*
G01*
X1630*
Y17783*
X2360*
G37*
X3300D02*
G36*
G75*
G02X3192Y17483I-470D01*
G01*
X9440*
G75*
G02X9920I240J-100*
G01*
X10064*
G75*
G02X10327Y17525I166J-200*
G01*
G75*
G02X10320Y17583I253J59*
G01*
G75*
G02X10414Y17783I260*
G01*
X9585*
G75*
G02X9075I-255J50*
G01*
X7101*
G75*
G02X7055Y17774I-71J250*
G01*
Y17783*
X7005*
Y17774*
G75*
G02X6959Y17783I25J259*
G01*
X3300*
G37*
X6959D02*
G36*
G75*
G02X6771Y18008I71J250D01*
G01*
X6872*
G75*
G03X7005Y17875I158J25*
G01*
Y17783*
X7055*
Y17875*
G75*
G03X7188Y18008I-25J158*
G01*
X7289*
G75*
G02X7101Y17783I-259J25*
G01*
X9075*
G75*
G02X9070Y17833I255J50*
G01*
G75*
G02X9590I260*
G01*
G75*
G02X9585Y17783I-260J0*
G01*
X10414*
G75*
G02X10746I166J-200*
G01*
X10864*
G75*
G02X10770Y17983I166J200*
G01*
G75*
G02X10855Y18175I260*
G01*
X7248*
G75*
G02X7289Y18058I-218J-142*
G01*
X7188*
G75*
G03X7104Y18175I-158J-25*
G01*
X6956*
G75*
G03X6872Y18058I74J-142*
G01*
X6771*
G75*
G02X6812Y18175I259J-25*
G01*
X3089*
G75*
G02X3300Y17783I-259J-392*
G01*
X6959*
G37*
X10746D02*
G36*
G75*
G02X10840Y17583I-166J-200D01*
G01*
G75*
G02X10820Y17483I-260*
G01*
X11820*
G75*
G02X12340I260*
G01*
X13659*
G75*
G02X13470Y17733I71J250*
G01*
G75*
G02X13475Y17783I260J0*
G01*
X12770*
G75*
G02X12290I-240J100*
G01*
X11196*
G75*
G02X10864I-166J200*
G01*
X10746*
G37*
X12290D02*
G36*
G75*
G02X12270Y17883I240J100D01*
G01*
G75*
G02X12790I260*
G01*
G75*
G02X12770Y17783I-260*
G01*
X13475*
G75*
G02X13985I255J-50*
G01*
X16064*
G75*
G02X16396I166J-200*
G01*
X16725*
G75*
G02X16720Y17833I255J50*
G01*
G75*
G02X17240I260*
G01*
G75*
G02X17235Y17783I-260J0*
G01*
X25240*
G75*
G02X25220Y17883I240J100*
G01*
G75*
G02X25740I260*
G01*
G75*
G02X25720Y17783I-260*
G01*
X49130*
Y18175*
X30657*
G75*
G02X30651Y18174I-31J258*
G01*
Y18175*
X30601*
Y18174*
G75*
G02X30594Y18175I25J259*
G01*
X20836*
G75*
G02X20680Y18123I-156J208*
G01*
G75*
G02X20524Y18175J260*
G01*
X18590*
G75*
G02X18330Y17903I-260J-12*
G01*
G75*
G02X18070Y18175J260*
G01*
X16040*
G75*
G02X15520I-260J8*
G01*
X11205*
G75*
G02X11290Y17983I-175J-192*
G01*
G75*
G02X11196Y17783I-260*
G01*
X12290*
G37*
X13985D02*
G36*
G75*
G02X13990Y17733I-255J-50D01*
G01*
G75*
G02X13801Y17483I-260*
G01*
X15990*
G75*
G02X15970Y17583I240J100*
G01*
G75*
G02X16064Y17783I260*
G01*
X13985*
G37*
X16396D02*
G36*
G75*
G02X16490Y17583I-166J-200D01*
G01*
G75*
G02X16470Y17483I-260*
G01*
X22068*
G75*
G02X22280Y17593I212J-150*
G01*
G75*
G02X22492Y17483J-260*
G01*
X49130*
Y17783*
X25720*
G75*
G02X25240I-240J100*
G01*
X17235*
G75*
G02X16725I-255J50*
G01*
X16396*
G37*
X1630Y18783D02*
G36*
Y18625D01*
X2387*
G75*
G02X2360Y18783I443J158*
G01*
X1630*
G37*
X2360D02*
G36*
G75*
G02X2437Y19041I470D01*
G01*
X1630*
Y18783*
X2360*
G37*
X3300D02*
G36*
G75*
G02X3273Y18625I-470J0D01*
G01*
X7512*
G75*
G02X7705Y18742I218J-142*
G01*
Y18641*
G75*
G03X7656Y18625I25J-158*
G01*
X7804*
G75*
G03X7755Y18641I-74J-142*
G01*
Y18742*
G75*
G02X7948Y18625I-25J-259*
G01*
X8874*
G75*
G02X8775Y18783I156J208*
G01*
X3300*
G37*
X8775D02*
G36*
G75*
G02X8770Y18833I255J50D01*
G01*
G75*
G02X8874Y19041I260*
G01*
X3223*
G75*
G02X3300Y18783I-393J-258*
G01*
X8775*
G37*
X9285D02*
G36*
G75*
G02X9186Y18625I-255J50D01*
G01*
X9277*
G75*
G02X9270Y18683I253J58*
G01*
G75*
G02X9290Y18783I260*
G01*
X9285*
G37*
X9290D02*
G36*
G75*
G02X9770I240J-100D01*
G01*
X30918*
G75*
G02X31130Y18893I212J-150*
G01*
G75*
G02X31342Y18783J-260*
G01*
X36871*
X36739Y18915*
Y19041*
X26255*
G75*
G02X26105Y18974I-175J192*
G01*
Y19041*
X26055*
Y18974*
G75*
G02X25905Y19041I25J259*
G01*
X21860*
G75*
G02X21805Y19034I-80J392*
G01*
Y19041*
X21755*
Y19034*
G75*
G02X21700Y19041I25J399*
G01*
X17098*
G75*
G02X16905Y18924I-218J142*
G01*
Y19025*
G75*
G03X16954Y19041I-25J158*
G01*
X16806*
G75*
G03X16855Y19025I74J142*
G01*
Y18924*
G75*
G02X16662Y19041I25J259*
G01*
X11848*
G75*
G02X11412I-218J142*
G01*
X9186*
G75*
G02X9290Y18833I-156J-208*
G01*
G75*
G02X9285Y18783I-260J0*
G01*
X9290*
G37*
X9770D02*
G36*
G75*
G02X9790Y18683I-240J-100D01*
G01*
G75*
G02X9783Y18625I-260*
G01*
X20585*
G75*
G02X20680Y18643I95J-242*
G01*
G75*
G02X20775Y18625J-260*
G01*
X30450*
G75*
G02X30601Y18692I175J-192*
G01*
Y18625*
X30651*
Y18692*
G75*
G02X30801Y18625I-25J-259*
G01*
X30870*
G75*
G02X30918Y18783I260J8*
G01*
X9770*
G37*
X31342D02*
G36*
G75*
G02X31390Y18625I-212J-150D01*
G01*
X37029*
X36871Y18783*
X31342*
G37*
X37989D02*
G36*
X37831Y18625D01*
X49130*
Y18783*
X37989*
G37*
X49130D02*
G36*
Y19041D01*
X38121*
Y18915*
X37989Y18783*
X49130*
G37*
X1630Y1383D02*
G36*
Y1136D01*
X2413*
X2360Y1189*
Y1383*
X1630*
G37*
X2360D02*
G36*
Y1578D01*
X2413Y1631*
X1630*
Y1383*
X2360*
G37*
X3300D02*
G36*
Y1189D01*
X3247Y1136*
X3413*
X3360Y1189*
Y1383*
X3300*
G37*
X3360D02*
G36*
Y1578D01*
X3413Y1631*
X3247*
X3300Y1578*
Y1383*
X3360*
G37*
X4300D02*
G36*
Y1189D01*
X4247Y1136*
X4413*
X4360Y1189*
Y1383*
X4300*
G37*
X4360D02*
G36*
Y1578D01*
X4413Y1631*
X4247*
X4300Y1578*
Y1383*
X4360*
G37*
X5300D02*
G36*
Y1189D01*
X5247Y1136*
X5413*
X5360Y1189*
Y1383*
X5300*
G37*
X5360D02*
G36*
Y1578D01*
X5413Y1631*
X5247*
X5300Y1578*
Y1383*
X5360*
G37*
X6300D02*
G36*
Y1189D01*
X6247Y1136*
X6413*
X6360Y1189*
Y1383*
X6300*
G37*
X6360D02*
G36*
Y1578D01*
X6413Y1631*
X6247*
X6300Y1578*
Y1383*
X6360*
G37*
X7300D02*
G36*
Y1189D01*
X7247Y1136*
X7413*
X7360Y1189*
Y1383*
X7300*
G37*
X7360D02*
G36*
Y1578D01*
X7413Y1631*
X7247*
X7300Y1578*
Y1383*
X7360*
G37*
X8300D02*
G36*
Y1189D01*
X8247Y1136*
X8413*
X8360Y1189*
Y1383*
X8300*
G37*
X8360D02*
G36*
Y1578D01*
X8413Y1631*
X8247*
X8300Y1578*
Y1383*
X8360*
G37*
X9300D02*
G36*
Y1189D01*
X9247Y1136*
X9413*
X9360Y1189*
Y1383*
X9300*
G37*
X9360D02*
G36*
Y1578D01*
X9413Y1631*
X9247*
X9300Y1578*
Y1383*
X9360*
G37*
X10300D02*
G36*
Y1189D01*
X10247Y1136*
X10413*
X10360Y1189*
Y1383*
X10300*
G37*
X10360D02*
G36*
Y1578D01*
X10413Y1631*
X10247*
X10300Y1578*
Y1383*
X10360*
G37*
X11300D02*
G36*
Y1189D01*
X11247Y1136*
X11413*
X11360Y1189*
Y1358*
X11460*
Y1230*
X11554Y1136*
X12106*
X12200Y1230*
Y1358*
X12300*
Y1189*
X12247Y1136*
X13916*
G75*
G02X13860Y1383I536J253*
G01*
X11300*
G37*
X13860D02*
G36*
G75*
G02X13911Y1631I592J5D01*
G01*
X12247*
X12300Y1578*
Y1408*
X12200*
Y1537*
X12106Y1631*
X11554*
X11460Y1537*
Y1408*
X11360*
Y1578*
X11413Y1631*
X11247*
X11300Y1578*
Y1383*
X13860*
G37*
X15044D02*
G36*
G75*
G02X14987Y1136I-592J5D01*
G01*
X22816*
G75*
G02X22760Y1383I536J253*
G01*
X15044*
G37*
X22760D02*
G36*
G75*
G02X22811Y1631I592J5D01*
G01*
X14992*
G75*
G02X15044Y1383I-540J-242*
G01*
X22760*
G37*
X23944D02*
G36*
G75*
G02X23887Y1136I-592J5D01*
G01*
X49130*
Y1383*
X23944*
G37*
X49130D02*
G36*
Y1631D01*
X23892*
G75*
G02X23944Y1383I-540J-242*
G01*
X49130*
G37*
X1630Y2383D02*
G36*
Y1991D01*
X2557*
X2360Y2189*
Y2383*
X1630*
G37*
X2360D02*
G36*
Y2578D01*
X2600Y2818*
X1630*
Y2383*
X2360*
G37*
X3300D02*
G36*
Y2189D01*
X3103Y1991*
X3557*
X3360Y2189*
Y2383*
X3300*
G37*
X3360D02*
G36*
Y2578D01*
X3600Y2818*
X3060*
X3300Y2578*
Y2383*
X3360*
G37*
X4300D02*
G36*
Y2189D01*
X4103Y1991*
X4557*
X4360Y2189*
Y2383*
X4300*
G37*
X4360D02*
G36*
Y2578D01*
X4600Y2818*
X4060*
X4300Y2578*
Y2383*
X4360*
G37*
X5300D02*
G36*
Y2189D01*
X5103Y1991*
X5557*
X5360Y2189*
Y2383*
X5300*
G37*
X5360D02*
G36*
Y2578D01*
X5600Y2818*
X5060*
X5300Y2578*
Y2383*
X5360*
G37*
X6300D02*
G36*
Y2189D01*
X6103Y1991*
X6557*
X6360Y2189*
Y2383*
X6300*
G37*
X6360D02*
G36*
Y2578D01*
X6600Y2818*
X6060*
X6300Y2578*
Y2383*
X6360*
G37*
X7300D02*
G36*
Y2189D01*
X7103Y1991*
X7557*
X7360Y2189*
Y2383*
X7300*
G37*
X7360D02*
G36*
Y2578D01*
X7600Y2818*
X7060*
X7300Y2578*
Y2383*
X7360*
G37*
X8300D02*
G36*
Y2189D01*
X8103Y1991*
X8557*
X8360Y2189*
Y2383*
X8300*
G37*
X8360D02*
G36*
Y2578D01*
X8600Y2818*
X8060*
X8300Y2578*
Y2383*
X8360*
G37*
X9300D02*
G36*
Y2189D01*
X9103Y1991*
X9557*
X9360Y2189*
Y2383*
X9300*
G37*
X9360D02*
G36*
Y2578D01*
X9600Y2818*
X9060*
X9300Y2578*
Y2383*
X9360*
G37*
X10300D02*
G36*
Y2189D01*
X10103Y1991*
X10557*
X10360Y2189*
Y2383*
X10300*
G37*
X10360D02*
G36*
Y2578D01*
X10600Y2818*
X10060*
X10300Y2578*
Y2383*
X10360*
G37*
X11300D02*
G36*
Y2189D01*
X11103Y1991*
X11557*
X11360Y2189*
Y2383*
X11300*
G37*
X11360D02*
G36*
Y2578D01*
X11600Y2818*
X11060*
X11300Y2578*
Y2383*
X11360*
G37*
X12300D02*
G36*
Y2189D01*
X12103Y1991*
X13181*
G75*
G02X13074Y2383I483J342*
G01*
X12300*
G37*
X13074D02*
G36*
G75*
G02X13324Y2818I590J-50D01*
G01*
X12060*
X12300Y2578*
Y2383*
X13074*
G37*
X14254D02*
G36*
G75*
G02X14148Y1991I-590J-50D01*
G01*
X18712*
G75*
G02X18671Y2108I218J142*
G01*
X18772*
G75*
G03X18856Y1991I158J25*
G01*
X19004*
G75*
G03X19088Y2108I-74J142*
G01*
X19189*
G75*
G02X19148Y1991I-259J25*
G01*
X22081*
G75*
G02X21974Y2383I483J342*
G01*
X20939*
X20848Y2293*
X20276*
X20186Y2383*
X19001*
G75*
G02X19189Y2158I-71J-250*
G01*
X19088*
G75*
G03X18955Y2291I-158J-25*
G01*
Y2383*
X18905*
Y2291*
G75*
G03X18772Y2158I25J-158*
G01*
X18671*
G75*
G02X18859Y2383I259J-25*
G01*
X17474*
X17384Y2293*
X16812*
X16721Y2383*
X14254*
G37*
X16721D02*
G36*
X16407Y2697D01*
Y2818*
X14005*
G75*
G02X14254Y2383I-341J-484*
G01*
X16721*
G37*
X18859D02*
G36*
G75*
G02X18905Y2392I71J-250D01*
G01*
Y2383*
X18955*
Y2392*
G75*
G02X19001Y2383I-25J-259*
G01*
X20186*
X19872Y2697*
Y2818*
X17788*
Y2697*
X17474Y2383*
X18859*
G37*
X21974D02*
G36*
G75*
G02X22224Y2818I590J-50D01*
G01*
X21253*
Y2697*
X20939Y2383*
X21974*
G37*
X23154D02*
G36*
G75*
G02X23048Y1991I-590J-50D01*
G01*
X49130*
Y2383*
X47520*
G75*
G02X47028I-246J84*
G01*
X23154*
G37*
X47028D02*
G36*
G75*
G02X47014Y2468I246J84D01*
G01*
G75*
G02X47534I260*
G01*
G75*
G02X47520Y2383I-260J0*
G01*
X49130*
Y2818*
X45584*
G75*
G02X45064I-260*
G01*
X22905*
G75*
G02X23154Y2383I-341J-484*
G01*
X47028*
G37*
X1630Y27141D02*
G36*
Y26829D01*
X10575*
G75*
G02X10807Y27141I655J-246*
G01*
X4898*
G75*
G02X4705Y27024I-218J142*
G01*
Y27125*
G75*
G03X4754Y27141I-25J158*
G01*
X4606*
G75*
G03X4655Y27125I74J142*
G01*
Y27024*
G75*
G02X4462Y27141I25J259*
G01*
X3898*
G75*
G02X3705Y27024I-218J142*
G01*
Y27125*
G75*
G03X3754Y27141I-25J158*
G01*
X3606*
G75*
G03X3655Y27125I74J142*
G01*
Y27024*
G75*
G02X3462Y27141I25J259*
G01*
X1630*
G37*
X3462D02*
G36*
G75*
G02X3421Y27258I218J142D01*
G01*
X3522*
G75*
G03X3606Y27141I158J25*
G01*
X3754*
G75*
G03X3838Y27258I-74J142*
G01*
X3939*
G75*
G02X3898Y27141I-259J25*
G01*
X4462*
G75*
G02X4421Y27258I218J142*
G01*
X4522*
G75*
G03X4606Y27141I158J25*
G01*
X4754*
G75*
G03X4838Y27258I-74J142*
G01*
X4939*
G75*
G02X4898Y27141I-259J25*
G01*
X10807*
G75*
G02X11653I423J-558*
G01*
X31362*
G75*
G02Y27425I218J142*
G01*
X4898*
G75*
G02X4939Y27308I-218J-142*
G01*
X4838*
G75*
G03X4754Y27425I-158J-25*
G01*
X4606*
G75*
G03X4522Y27308I74J-142*
G01*
X4421*
G75*
G02X4462Y27425I259J-25*
G01*
X3898*
G75*
G02X3939Y27308I-218J-142*
G01*
X3838*
G75*
G03X3754Y27425I-158J-25*
G01*
X3606*
G75*
G03X3522Y27308I74J-142*
G01*
X3421*
G75*
G02X3462Y27425I259J-25*
G01*
X1630*
Y27141*
X3462*
G37*
X11653D02*
G36*
G75*
G02X11885Y26829I-423J-558D01*
G01*
X28020*
G75*
G02X28280Y27089I260*
G01*
G75*
G02X28540Y26829J-260*
G01*
X37031*
X37044Y26842*
X37616*
X37629Y26829*
X39616*
Y27141*
X31798*
G75*
G02X31580Y27023I-218J142*
G01*
G75*
G02X31362Y27141J260*
G01*
X11653*
G37*
X39616D02*
G36*
Y27369D01*
X40556*
Y27141*
X49130*
Y27425*
X46109*
G75*
G02X45839I-135J577*
G01*
X43904*
G75*
G02X43635I-135J577*
G01*
X40556*
Y27413*
X39616*
Y27425*
X31798*
G75*
G02Y27141I-218J-142*
G01*
X39616*
G37*
X40556D02*
G36*
Y26829D01*
X49130*
Y27141*
X40556*
G37*
X1630Y28141D02*
G36*
Y27941D01*
X10732*
G75*
G02X10594Y28141I498J492*
G01*
X6618*
G75*
G02X6118Y27983I-525J791*
G01*
Y28083*
G75*
G03X6403Y28141I-25J850*
G01*
X5783*
G75*
G03X6068Y28083I310J791*
G01*
Y27983*
G75*
G02X5567Y28141I25J950*
G01*
X4898*
G75*
G02X4705Y28024I-218J142*
G01*
Y28125*
G75*
G03X4754Y28141I-25J158*
G01*
X4606*
G75*
G03X4655Y28125I74J142*
G01*
Y28024*
G75*
G02X4462Y28141I25J259*
G01*
X3898*
G75*
G02X3705Y28024I-218J142*
G01*
Y28125*
G75*
G03X3754Y28141I-25J158*
G01*
X3606*
G75*
G03X3655Y28125I74J142*
G01*
Y28024*
G75*
G02X3462Y28141I25J259*
G01*
X1630*
G37*
X3462D02*
G36*
G75*
G02X3421Y28258I218J142D01*
G01*
X3522*
G75*
G03X3606Y28141I158J25*
G01*
X3754*
G75*
G03X3838Y28258I-74J142*
G01*
X3939*
G75*
G02X3898Y28141I-259J25*
G01*
X4462*
G75*
G02X4421Y28258I218J142*
G01*
X4522*
G75*
G03X4606Y28141I158J25*
G01*
X4754*
G75*
G03X4838Y28258I-74J142*
G01*
X4939*
G75*
G02X4898Y28141I-259J25*
G01*
X5567*
G75*
G02X5290Y28425I525J791*
G01*
X4898*
G75*
G02X4939Y28308I-218J-142*
G01*
X4838*
G75*
G03X4754Y28425I-158J-25*
G01*
X4606*
G75*
G03X4522Y28308I74J-142*
G01*
X4421*
G75*
G02X4462Y28425I259J-25*
G01*
X3898*
G75*
G02X3939Y28308I-218J-142*
G01*
X3838*
G75*
G03X3754Y28425I-158J-25*
G01*
X3606*
G75*
G03X3522Y28308I74J-142*
G01*
X3421*
G75*
G02X3462Y28425I259J-25*
G01*
X1630*
Y28141*
X3462*
G37*
X6403D02*
G36*
G75*
G03X6774Y28425I-310J791D01*
G01*
X5411*
G75*
G03X5783Y28141I682J508*
G01*
X6403*
G37*
X10594D02*
G36*
G75*
G02X10530Y28425I636J292D01*
G01*
X6896*
G75*
G02X6618Y28141I-803J508*
G01*
X10594*
G37*
X11866D02*
G36*
G75*
G02X11728Y27941I-636J292D01*
G01*
X14027*
G75*
G02X14249Y28141I253J-58*
G01*
X11866*
G37*
X14249D02*
G36*
G75*
G02X14255Y28142I31J-258D01*
G01*
Y28141*
X14305*
Y28142*
G75*
G02X14311Y28141I-25J-259*
G01*
X26444*
G75*
G02X26680Y28293I236J-108*
G01*
G75*
G02X26916Y28141J-260*
G01*
X31227*
G75*
G02X31455Y28342I253J-58*
G01*
Y28241*
G75*
G03X31331Y28141I25J-158*
G01*
X31629*
G75*
G03X31505Y28241I-149J-58*
G01*
Y28342*
G75*
G02X31733Y28141I-25J-259*
G01*
X39616*
Y28353*
X40556*
Y28141*
X43194*
G75*
G02X43355Y28425I575J-140*
G01*
X42740*
G75*
G02X42298Y28198I-467J364*
G01*
Y28298*
G75*
G03X42604Y28425I-25J491*
G01*
X41942*
G75*
G03X42248Y28298I331J364*
G01*
Y28198*
G75*
G02X41806Y28425I25J592*
G01*
X40556*
Y28398*
X39616*
Y28425*
X11930*
G75*
G02X11866Y28141I-700J8*
G01*
X14249*
G37*
X14255D02*
G36*
Y28041D01*
G75*
G03X14131Y27941I25J-158*
G01*
X14429*
G75*
G03X14305Y28041I-149J-58*
G01*
Y28141*
X14255*
G37*
X14311D02*
G36*
G75*
G02X14533Y27941I-31J-258D01*
G01*
X26437*
G75*
G02X26444Y28141I243J92*
G01*
X14311*
G37*
X26916D02*
G36*
G75*
G02X26923Y27941I-236J-108D01*
G01*
X31262*
G75*
G02X31221Y28058I218J142*
G01*
X31322*
G75*
G03X31406Y27941I158J25*
G01*
X31554*
G75*
G03X31638Y28058I-74J142*
G01*
X31739*
G75*
G02X31698Y27941I-259J25*
G01*
X39616*
Y28141*
X31733*
G75*
G02X31739Y28108I-253J-58*
G01*
X31638*
G75*
G03X31629Y28141I-158J-25*
G01*
X31331*
G75*
G03X31322Y28108I149J-58*
G01*
X31221*
G75*
G02X31227Y28141I259J-25*
G01*
X26916*
G37*
X40556D02*
G36*
Y27941D01*
X43180*
G75*
G02X43177Y28002I589J60*
G01*
G75*
G02X43194Y28141I592*
G01*
X40556*
G37*
X44345D02*
G36*
G75*
G02X44361Y28002I-575J-140D01*
G01*
G75*
G02X44358Y27941I-592J0*
G01*
X45385*
G75*
G02X45382Y28002I589J60*
G01*
G75*
G02X45399Y28141I592*
G01*
X44345*
G37*
X45399D02*
G36*
G75*
G02X45560Y28425I575J-140D01*
G01*
X44984*
G75*
G02X44542Y28198I-467J364*
G01*
Y28298*
G75*
G03X44849Y28425I-25J491*
G01*
X44186*
G75*
G03X44492Y28298I331J364*
G01*
Y28198*
G75*
G02X44315Y28233I25J592*
G01*
G75*
G02X44345Y28141I-545J-231*
G01*
X45399*
G37*
X46550D02*
G36*
G75*
G02X46566Y28002I-575J-140D01*
G01*
G75*
G02X46563Y27941I-592J0*
G01*
X49130*
Y28141*
X46550*
G37*
X49130D02*
G36*
Y28425D01*
X47386*
G75*
G02X46944Y28198I-467J364*
G01*
Y28298*
G75*
G03X47250Y28425I-25J491*
G01*
X46588*
G75*
G03X46894Y28298I331J364*
G01*
Y28198*
G75*
G02X46452Y28425I25J592*
G01*
X46388*
G75*
G02X46550Y28141I-414J-423*
G01*
X49130*
G37*
X3462Y27425D02*
G36*
G75*
G02X3655Y27542I218J-142D01*
G01*
Y27441*
G75*
G03X3606Y27425I25J-158*
G01*
X3754*
G75*
G03X3705Y27441I-74J-142*
G01*
Y27542*
G75*
G02X3898Y27425I-25J-259*
G01*
X4462*
G75*
G02X4655Y27542I218J-142*
G01*
Y27441*
G75*
G03X4606Y27425I25J-158*
G01*
X4754*
G75*
G03X4705Y27441I-74J-142*
G01*
Y27542*
G75*
G02X4898Y27425I-25J-259*
G01*
X31362*
G75*
G02X31580Y27543I218J-142*
G01*
G75*
G02X31798Y27425J-260*
G01*
X39616*
Y27741*
X14498*
G75*
G02X14305Y27624I-218J142*
G01*
Y27725*
G75*
G03X14354Y27741I-25J158*
G01*
X14206*
G75*
G03X14255Y27725I74J142*
G01*
Y27624*
G75*
G02X14062Y27741I25J259*
G01*
X11336*
G75*
G02X11124I-106J692*
G01*
X1630*
Y27425*
X3462*
G37*
X43635D02*
G36*
G75*
G02X43238Y27741I135J577D01*
G01*
X40556*
Y27425*
X43635*
G37*
X45839D02*
G36*
G75*
G02X45442Y27741I135J577D01*
G01*
X44301*
G75*
G02X43904Y27425I-532J260*
G01*
X45839*
G37*
X49130D02*
G36*
Y27741D01*
X46506*
G75*
G02X46109Y27425I-532J260*
G01*
X49130*
G37*
X3462Y28425D02*
G36*
G75*
G02X3655Y28542I218J-142D01*
G01*
Y28441*
G75*
G03X3606Y28425I25J-158*
G01*
X3754*
G75*
G03X3705Y28441I-74J-142*
G01*
Y28542*
G75*
G02X3898Y28425I-25J-259*
G01*
X4462*
G75*
G02X4655Y28542I218J-142*
G01*
Y28441*
G75*
G03X4606Y28425I25J-158*
G01*
X4754*
G75*
G03X4705Y28441I-74J-142*
G01*
Y28542*
G75*
G02X4898Y28425I-25J-259*
G01*
X5290*
G75*
G02X5154Y28783I803J508*
G01*
X1630*
Y28425*
X3462*
G37*
X6774D02*
G36*
G75*
G03X6929Y28783I-682J508D01*
G01*
X5256*
G75*
G03X5411Y28425I837J150*
G01*
X6774*
G37*
X10530D02*
G36*
G75*
G02Y28433I700J4D01*
G01*
G75*
G02X10624Y28783I700*
G01*
X7031*
G75*
G02X6896Y28425I-938J150*
G01*
X10530*
G37*
X39616D02*
G36*
Y28783D01*
X34585*
G75*
G02X34330Y28573I-255J50*
G01*
G75*
G02X34075Y28783J260*
G01*
X32840*
G75*
G02X32580Y28523I-260*
G01*
G75*
G02X32320Y28783J260*
G01*
X11836*
G75*
G02X11930Y28433I-606J-350*
G01*
G75*
G02Y28425I-701J-4*
G01*
X39616*
G37*
X41806D02*
G36*
G75*
G02X41682Y28764I467J364D01*
G01*
X41782*
G75*
G03X41942Y28425I491J25*
G01*
X42604*
G75*
G03X42765Y28764I-331J364*
G01*
X42865*
G75*
G02X42740Y28425I-592J25*
G01*
X43355*
G75*
G02X43972Y28558I414J-423*
G01*
G75*
G02X43926Y28764I545J231*
G01*
X44026*
G75*
G03X44186Y28425I491J25*
G01*
X44849*
G75*
G03X45009Y28764I-331J364*
G01*
X45109*
G75*
G02X44984Y28425I-592J25*
G01*
X45560*
G75*
G02X46388I414J-423*
G01*
X46452*
G75*
G02X46327Y28764I467J364*
G01*
X46427*
G75*
G03X46588Y28425I491J25*
G01*
X47250*
G75*
G03X47410Y28764I-331J364*
G01*
X47511*
G75*
G02X47386Y28425I-592J25*
G01*
X49130*
Y28783*
X40556*
Y28425*
X41806*
G37*
X1630Y22017D02*
G36*
Y21691D01*
X3952*
G75*
G02X3730Y22017I128J326*
G01*
X1630*
G37*
X3730D02*
G36*
G75*
G02X4430I350D01*
G01*
X7596*
G75*
G02X7755Y22092I184J-184*
G01*
Y22017*
X7805*
Y22092*
G75*
G02X7964Y22017I-25J-259*
G01*
X15036*
G75*
G02X14921Y22208I144J216*
G01*
X15022*
G75*
G03X15155Y22075I158J25*
G01*
Y22017*
X15205*
Y22075*
G75*
G03X15338Y22208I-25J158*
G01*
X15439*
G75*
G02X15324Y22017I-259J25*
G01*
X32816*
G75*
G02X32930Y22043I114J-234*
G01*
G75*
G02X33044Y22017J-260*
G01*
X34307*
G75*
G02X34530Y22143I223J-134*
G01*
G75*
G02X34753Y22017J-260*
G01*
X37102*
X36744Y22375*
X31833*
G75*
G02X31580Y22173I-253J58*
G01*
G75*
G02X31327Y22375J260*
G01*
X17233*
G75*
G02X16727I-253J58*
G01*
X15398*
G75*
G02X15439Y22258I-218J-142*
G01*
X15338*
G75*
G03X15254Y22375I-158J-25*
G01*
X15106*
G75*
G03X15022Y22258I74J-142*
G01*
X14921*
G75*
G02X14962Y22375I259J-25*
G01*
X1630*
Y22017*
X3730*
G37*
X4430D02*
G36*
G75*
G02X4208Y21691I-350D01*
G01*
X7562*
G75*
G02X7521Y21808I218J142*
G01*
X7622*
G75*
G03X7706Y21691I158J25*
G01*
X7854*
G75*
G03X7938Y21808I-74J142*
G01*
X8039*
G75*
G02X7998Y21691I-259J25*
G01*
X21474*
G75*
G02X22086I306J-258*
G01*
X32687*
G75*
G02X32816Y22017I243J92*
G01*
X15324*
G75*
G02X15205Y21974I-144J216*
G01*
Y22017*
X15155*
Y21974*
G75*
G02X15036Y22017I25J259*
G01*
X7964*
G75*
G02X8039Y21858I-184J-184*
G01*
X7938*
G75*
G03X7805Y21991I-158J-25*
G01*
Y22017*
X7755*
Y21991*
G75*
G03X7622Y21858I25J-158*
G01*
X7521*
G75*
G02X7596Y22017I259J-25*
G01*
X4430*
G37*
X33044D02*
G36*
G75*
G02X33173Y21691I-114J-234D01*
G01*
X34355*
G75*
G02X34307Y22017I175J192*
G01*
X33044*
G37*
X34753D02*
G36*
G75*
G02X34705Y21691I-223J-134D01*
G01*
X39716*
Y22017*
X37758*
X37716Y21975*
X37144*
X37102Y22017*
X34753*
G37*
X39716D02*
G36*
Y22375D01*
X38116*
X37758Y22017*
X39716*
G37*
X40656D02*
G36*
Y21691D01*
X41783*
G75*
G02X41782Y21714I590J48*
G01*
X41882*
G75*
G03X41884Y21691I491J25*
G01*
X42863*
G75*
G03X42865Y21714I-490J48*
G01*
X42965*
G75*
G02X42964Y21691I-592J25*
G01*
X44027*
G75*
G02X44026Y21714I590J48*
G01*
X44126*
G75*
G03X44128Y21691I491J25*
G01*
X45107*
G75*
G03X45109Y21714I-490J48*
G01*
X45209*
G75*
G02X45208Y21691I-592J25*
G01*
X46429*
G75*
G02X46427Y21714I590J48*
G01*
X46527*
G75*
G03X46529Y21691I491J25*
G01*
X47509*
G75*
G03X47510Y21714I-490J48*
G01*
X47611*
G75*
G02X47609Y21691I-592J25*
G01*
X49130*
Y22017*
X47542*
G75*
G02X47611Y21764I-523J-278*
G01*
X47510*
G75*
G03X47425Y22017I-491J-25*
G01*
X46613*
G75*
G03X46527Y21764I406J-278*
G01*
X46427*
G75*
G02X46496Y22017I592J-25*
G01*
X45140*
G75*
G02X45209Y21764I-523J-278*
G01*
X45109*
G75*
G03X45024Y22017I-491J-25*
G01*
X44211*
G75*
G03X44126Y21764I406J-278*
G01*
X44026*
G75*
G02X44095Y22017I592J-25*
G01*
X42896*
G75*
G02X42965Y21764I-523J-278*
G01*
X42865*
G75*
G03X42779Y22017I-491J-25*
G01*
X41967*
G75*
G03X41882Y21764I406J-278*
G01*
X41782*
G75*
G02X41850Y22017I592J-25*
G01*
X40656*
G37*
X41850D02*
G36*
G75*
G02X42348Y22331I523J-278D01*
G01*
Y22231*
G75*
G03X41967Y22017I25J-491*
G01*
X42779*
G75*
G03X42398Y22231I-406J-278*
G01*
Y22331*
G75*
G02X42896Y22017I-25J-592*
G01*
X44095*
G75*
G02X44592Y22331I523J-278*
G01*
Y22231*
G75*
G03X44211Y22017I25J-491*
G01*
X45024*
G75*
G03X44642Y22231I-406J-278*
G01*
Y22331*
G75*
G02X45140Y22017I-25J-592*
G01*
X46496*
G75*
G02X46994Y22331I523J-278*
G01*
Y22231*
G75*
G03X46613Y22017I25J-491*
G01*
X47425*
G75*
G03X47044Y22231I-406J-278*
G01*
Y22331*
G75*
G02X47542Y22017I-25J-592*
G01*
X49130*
Y22375*
X40656*
Y22017*
X41850*
G37*
X1630Y23749D02*
G36*
Y23391D01*
X5762*
G75*
G02X5721Y23508I218J142*
G01*
X5822*
G75*
G03X5906Y23391I158J25*
G01*
X6054*
G75*
G03X6138Y23508I-74J142*
G01*
X6239*
G75*
G02X6198Y23391I-259J25*
G01*
X14920*
G75*
G02X15440I260J-8*
G01*
X16077*
G75*
G02X16583I253J-58*
G01*
X30294*
G75*
G02X30505Y23542I236J-108*
G01*
Y23441*
G75*
G03X30412Y23391I25J-158*
G01*
X30648*
G75*
G03X30555Y23441I-118J-108*
G01*
Y23542*
G75*
G02X30766Y23391I-25J-259*
G01*
X49130*
Y23749*
X18344*
G75*
G02X18116I-114J234*
G01*
X13114*
G75*
G02X12955Y23674I-184J184*
G01*
Y23749*
X12905*
Y23674*
G75*
G02X12746Y23749I25J259*
G01*
X12214*
G75*
G02X11846I-184J184*
G01*
X11003*
G75*
G02X10805Y23624I-223J134*
G01*
Y23725*
G75*
G03X10868Y23749I-25J158*
G01*
X10692*
G75*
G03X10755Y23725I88J134*
G01*
Y23624*
G75*
G02X10557Y23749I25J259*
G01*
X10353*
G75*
G02X9907I-223J134*
G01*
X6124*
G75*
G02X6239Y23558I-144J-216*
G01*
X6138*
G75*
G03X6005Y23691I-158J-25*
G01*
Y23749*
X5955*
Y23691*
G75*
G03X5822Y23558I25J-158*
G01*
X5721*
G75*
G02X5836Y23749I259J-25*
G01*
X4430*
G75*
G02X3730I-350*
G01*
X1630*
G37*
X3730D02*
G36*
G75*
G02X3864Y24025I350D01*
G01*
X1630*
Y23749*
X3730*
G37*
X5836D02*
G36*
G75*
G02X5955Y23792I144J-216D01*
G01*
Y23749*
X6005*
Y23792*
G75*
G02X6124Y23749I-25J-259*
G01*
X9907*
G75*
G02X9870Y23883I223J134*
G01*
G75*
G02X9912Y24025I260*
G01*
X6461*
G75*
G02X6399I-31J258*
G01*
X4296*
G75*
G02X4430Y23749I-216J-276*
G01*
X5836*
G37*
X10557D02*
G36*
G75*
G02X10521Y23858I223J134D01*
G01*
X10622*
G75*
G03X10692Y23749I158J25*
G01*
X10868*
G75*
G03X10938Y23858I-88J134*
G01*
X11039*
G75*
G02X11003Y23749I-259J25*
G01*
X11846*
G75*
G02X11770Y23933I184J184*
G01*
G75*
G02X11787Y24025I260J0*
G01*
X10998*
G75*
G02X11039Y23908I-218J-142*
G01*
X10938*
G75*
G03X10854Y24025I-158J-25*
G01*
X10706*
G75*
G03X10622Y23908I74J-142*
G01*
X10521*
G75*
G02X10562Y24025I259J-25*
G01*
X10348*
G75*
G02X10390Y23883I-218J-142*
G01*
G75*
G02X10353Y23749I-260J0*
G01*
X10557*
G37*
X12746D02*
G36*
G75*
G02X12671Y23908I184J184D01*
G01*
X12772*
G75*
G03X12905Y23775I158J25*
G01*
Y23749*
X12955*
Y23775*
G75*
G03X13088Y23908I-25J158*
G01*
X13189*
G75*
G02X13114Y23749I-259J25*
G01*
X18116*
G75*
G02X17970Y23983I114J234*
G01*
G75*
G02X17973Y24025I260J0*
G01*
X13173*
G75*
G02X13189Y23958I-243J-92*
G01*
X13088*
G75*
G03X13061Y24025I-158J-25*
G01*
X12799*
G75*
G03X12772Y23958I131J-92*
G01*
X12671*
G75*
G02X12687Y24025I259J-25*
G01*
X12273*
G75*
G02X12290Y23933I-243J-92*
G01*
G75*
G02X12214Y23749I-260*
G01*
X12746*
G37*
X49130D02*
G36*
Y24025D01*
X46261*
G75*
G02X46199I-31J258*
G01*
X18487*
G75*
G02X18490Y23983I-257J-42*
G01*
G75*
G02X18344Y23749I-260*
G01*
X49130*
G37*
X1630Y11983D02*
G36*
Y11825D01*
X2937*
G75*
G02X2910Y11983I443J158*
G01*
X1630*
G37*
X2910D02*
G36*
G75*
G02X3076Y12341I470D01*
G01*
X1630*
Y11983*
X2910*
G37*
X3850D02*
G36*
G75*
G02X3823Y11825I-470J0D01*
G01*
X3937*
G75*
G02X3910Y11983I443J158*
G01*
X3850*
G37*
X3910D02*
G36*
G75*
G02X4076Y12341I470D01*
G01*
X3684*
G75*
G02X3850Y11983I-304J-358*
G01*
X3910*
G37*
X4850D02*
G36*
G75*
G02X4823Y11825I-470J0D01*
G01*
X4937*
G75*
G02X4910Y11983I443J158*
G01*
X4850*
G37*
X4910D02*
G36*
G75*
G02X5076Y12341I470D01*
G01*
X4684*
G75*
G02X4850Y11983I-304J-358*
G01*
X4910*
G37*
X5850D02*
G36*
G75*
G02X5823Y11825I-470J0D01*
G01*
X14144*
G75*
G02X14120Y11933I236J108*
G01*
G75*
G02X14125Y11983I260J0*
G01*
X5850*
G37*
X14125D02*
G36*
G75*
G02X14635I255J-50D01*
G01*
X17425*
G75*
G02X17935I255J-50*
G01*
X30990*
G75*
G02X31199Y12341I240J100*
G01*
X26348*
G75*
G02X26155Y12224I-218J142*
G01*
Y12325*
G75*
G03X26204Y12341I-25J158*
G01*
X26056*
G75*
G03X26105Y12325I74J142*
G01*
Y12224*
G75*
G02X25912Y12341I25J259*
G01*
X5684*
G75*
G02X5850Y11983I-304J-358*
G01*
X14125*
G37*
X14635D02*
G36*
G75*
G02X14640Y11933I-255J-50D01*
G01*
G75*
G02X14616Y11825I-260*
G01*
X17444*
G75*
G02X17420Y11933I236J108*
G01*
G75*
G02X17425Y11983I260J0*
G01*
X14635*
G37*
X17935D02*
G36*
G75*
G02X17940Y11933I-255J-50D01*
G01*
G75*
G02X17916Y11825I-260*
G01*
X30412*
G75*
G02X30605Y11942I218J-142*
G01*
Y11841*
G75*
G03X30556Y11825I25J-158*
G01*
X30704*
G75*
G03X30655Y11841I-74J-142*
G01*
Y11942*
G75*
G02X30848Y11825I-25J-259*
G01*
X31199*
G75*
G02X30990Y11983I31J258*
G01*
X17935*
G37*
X31470D02*
G36*
G75*
G02X31261Y11825I-240J100D01*
G01*
X36889*
Y11983*
X31470*
G37*
X36889D02*
G36*
Y12237D01*
X36994Y12341*
X31261*
G75*
G02X31470Y11983I-31J-258*
G01*
X36889*
G37*
X38271D02*
G36*
Y11825D01*
X49130*
Y11983*
X38271*
G37*
X49130D02*
G36*
Y12341D01*
X48523*
G75*
G02X48037I-243J92*
G01*
X46883*
G75*
G02X46365I-259J26*
G01*
X46133*
G75*
G02X46134Y12318I-259J-24*
G01*
G75*
G02X45614I-260*
G01*
G75*
G02X45615Y12341I260J0*
G01*
X40806*
Y12229*
X39866*
Y12341*
X38166*
X38271Y12237*
Y11983*
X49130*
G37*
X1630Y30296D02*
G36*
Y30091D01*
X4260*
G75*
G02X4096Y30296I651J692*
G01*
X1630*
G37*
X4096D02*
G36*
G75*
G02X3962Y30758I815J487D01*
G01*
X4062*
G75*
G03X4215Y30296I850J25*
G01*
X5608*
G75*
G03X5761Y30758I-696J487*
G01*
X5861*
G75*
G02X5727Y30296I-950J25*
G01*
X6458*
G75*
G02Y31271I815J487*
G01*
X5727*
G75*
G02X5861Y30808I-815J-487*
G01*
X5761*
G75*
G03X5608Y31271I-850J-25*
G01*
X4215*
G75*
G03X4062Y30808I696J-487*
G01*
X3962*
G75*
G02X4096Y31271I950J-25*
G01*
X1630*
Y30296*
X4096*
G37*
X4215D02*
G36*
G75*
G03X4418Y30091I696J487D01*
G01*
X5405*
G75*
G03X5608Y30296I-494J692*
G01*
X4215*
G37*
X5727D02*
G36*
G75*
G02X5563Y30091I-815J487D01*
G01*
X6623*
G75*
G02X6458Y30296I651J692*
G01*
X5727*
G37*
X8089D02*
G36*
G75*
G02X7925Y30091I-815J487D01*
G01*
X10557*
G75*
G02X10530Y30283I673J192*
G01*
G75*
G02Y30296I700J6*
G01*
X9038*
G75*
G02X8830Y30253I-208J487*
G01*
G75*
G02X8622Y30296J530*
G01*
X8089*
G37*
X8622D02*
G36*
G75*
G02X8622Y31271I208J487D01*
G01*
X8089*
G75*
G02Y30296I-815J-487*
G01*
X8622*
G37*
X10530D02*
G36*
G75*
G02X11930I700J-13D01*
G01*
X17109*
G75*
G02X17070Y30433I221J137*
G01*
G75*
G02X17590I260*
G01*
G75*
G02X17551Y30296I-260*
G01*
X18530*
G75*
G02X18830I150J-213*
G01*
X21059*
G75*
G02X21020Y30433I221J137*
G01*
G75*
G02X21540I260*
G01*
G75*
G02X21501Y30296I-260*
G01*
X23028*
G75*
G02X23532I252J-63*
G01*
X30178*
G75*
G02X30405Y30492I252J-63*
G01*
Y30391*
G75*
G03X30283Y30296I25J-158*
G01*
X30577*
G75*
G03X30455Y30391I-147J-63*
G01*
Y30492*
G75*
G02X30682Y30296I-25J-259*
G01*
X37034*
X37044Y30306*
X37616*
X37626Y30296*
X44796*
G75*
G02X44864Y30383I234J-113*
G01*
G75*
G02Y30783I166J200*
G01*
G75*
G02X44854Y31174I166J200*
G01*
G75*
G02X44627Y31271I-24J259*
G01*
X9038*
G75*
G02X9038Y30296I-208J-487*
G01*
X10530*
G37*
X11930D02*
G36*
G75*
G02Y30283I-700J-6D01*
G01*
G75*
G02X11903Y30091I-700*
G01*
X18420*
G75*
G02X18530Y30296I260J-8*
G01*
X17551*
G75*
G02X17109I-221J137*
G01*
X11930*
G37*
X18830D02*
G36*
G75*
G02X18940Y30091I-150J-213D01*
G01*
X23062*
G75*
G02X23020Y30233I218J142*
G01*
G75*
G02X23028Y30296I260J0*
G01*
X21501*
G75*
G02X21059I-221J137*
G01*
X18830*
G37*
X23532D02*
G36*
G75*
G02X23540Y30233I-252J-63D01*
G01*
G75*
G02X23498Y30091I-260*
G01*
X30212*
G75*
G02X30171Y30208I218J142*
G01*
X30272*
G75*
G03X30356Y30091I158J25*
G01*
X30504*
G75*
G03X30588Y30208I-74J142*
G01*
X30689*
G75*
G02X30648Y30091I-259J25*
G01*
X36829*
X37034Y30296*
X30682*
G75*
G02X30689Y30258I-252J-63*
G01*
X30588*
G75*
G03X30577Y30296I-158J-25*
G01*
X30283*
G75*
G03X30272Y30258I147J-63*
G01*
X30171*
G75*
G02X30178Y30296I259J-25*
G01*
X23532*
G37*
X37626D02*
G36*
X37831Y30091D01*
X44787*
G75*
G02X44796Y30296I243J92*
G01*
X37626*
G37*
X45264D02*
G36*
G75*
G02X45273Y30091I-234J-113D01*
G01*
X49130*
Y30296*
X45264*
G37*
X49130D02*
G36*
Y31271D01*
X45033*
G75*
G02X45006Y31242I-203J163*
G01*
G75*
G02X45196Y30783I24J-259*
G01*
G75*
G02Y30383I-166J-200*
G01*
G75*
G02X45264Y30296I-166J-200*
G01*
X49130*
G37*
X1630Y16175D02*
G36*
Y15921D01*
X2381*
G75*
G02X2571Y16175I449J-138*
G01*
X1630*
G37*
X2571D02*
G36*
G75*
G02X2830Y16253I259J-392D01*
G01*
G75*
G02X3089Y16175J-470*
G01*
X4212*
G75*
G02X4405Y16292I218J-142*
G01*
Y16191*
G75*
G03X4356Y16175I25J-158*
G01*
X4504*
G75*
G03X4455Y16191I-74J-142*
G01*
Y16292*
G75*
G02X4648Y16175I-25J-259*
G01*
X12674*
G75*
G02X12573Y16341I156J208*
G01*
X2990*
G75*
G02X2855Y16314I-160J442*
G01*
Y16341*
X2805*
Y16314*
G75*
G02X2670Y16341I25J469*
G01*
X1630*
Y16175*
X2571*
G37*
X3089D02*
G36*
G75*
G02X3279Y15921I-259J-392D01*
G01*
X4195*
G75*
G02X4171Y16008I235J112*
G01*
X4272*
G75*
G03X4316Y15921I158J25*
G01*
X4544*
G75*
G03X4588Y16008I-114J112*
G01*
X4689*
G75*
G02X4665Y15921I-259J25*
G01*
X16427*
G75*
G02X16370Y16083I203J162*
G01*
G75*
G02X16387Y16175I260J0*
G01*
X12986*
G75*
G02X12674I-156J208*
G01*
X4648*
G75*
G02X4689Y16058I-218J-142*
G01*
X4588*
G75*
G03X4504Y16175I-158J-25*
G01*
X4356*
G75*
G03X4272Y16058I74J-142*
G01*
X4171*
G75*
G02X4212Y16175I259J-25*
G01*
X3089*
G37*
X16387D02*
G36*
G75*
G02X16599Y16341I243J-92D01*
G01*
X13087*
G75*
G02X12986Y16175I-257J42*
G01*
X16387*
G37*
X16873D02*
G36*
G75*
G02X16890Y16083I-243J-92D01*
G01*
G75*
G02X16833Y15921I-260*
G01*
X17562*
G75*
G02X17521Y16038I218J142*
G01*
X17622*
G75*
G03X17706Y15921I158J25*
G01*
X17854*
G75*
G03X17938Y16038I-74J142*
G01*
X18039*
G75*
G02X17998Y15921I-259J25*
G01*
X37109*
X37294Y16106*
X37866*
X38051Y15921*
X49130*
Y16175*
X22525*
G75*
G02X22280Y16003I-245J88*
G01*
G75*
G02X22035Y16175J260*
G01*
X18015*
G75*
G02X18039Y16088I-235J-112*
G01*
X17938*
G75*
G03X17894Y16175I-158J-25*
G01*
X17666*
G75*
G03X17622Y16088I114J-112*
G01*
X17521*
G75*
G02X17545Y16175I259J-25*
G01*
X16873*
G37*
X17545D02*
G36*
G75*
G02X17755Y16322I235J-112D01*
G01*
Y16221*
G75*
G03X17666Y16175I25J-158*
G01*
X17894*
G75*
G03X17805Y16221I-114J-112*
G01*
Y16322*
G75*
G02X18015Y16175I-25J-259*
G01*
X22035*
G75*
G02X22032Y16341I245J88*
G01*
X21216*
G75*
G02X21080Y16303I-136J222*
G01*
G75*
G02X20944Y16341J260*
G01*
X16661*
G75*
G02X16873Y16175I-31J-258*
G01*
X17545*
G37*
X49130D02*
G36*
Y16341D01*
X30598*
G75*
G02X30405Y16224I-218J142*
G01*
Y16325*
G75*
G03X30454Y16341I-25J158*
G01*
X30306*
G75*
G03X30355Y16325I74J142*
G01*
Y16224*
G75*
G02X30162Y16341I25J259*
G01*
X22528*
G75*
G02X22525Y16175I-248J-78*
G01*
X49130*
G37*
X2571Y17175D02*
G36*
G75*
G02X2805Y17253I259J-392D01*
G01*
Y17175*
X2855*
Y17253*
G75*
G02X3089Y17175I-25J-469*
G01*
X4212*
G75*
G02X4405Y17292I218J-142*
G01*
Y17191*
G75*
G03X4356Y17175I25J-158*
G01*
X4504*
G75*
G03X4455Y17191I-74J-142*
G01*
Y17292*
G75*
G02X4648Y17175I-25J-259*
G01*
X9524*
G75*
G02X9420Y17383I156J208*
G01*
G75*
G02X9440Y17483I260*
G01*
X3192*
G75*
G02X2830Y17313I-362J300*
G01*
G75*
G02X2468Y17483J470*
G01*
X1630*
Y17175*
X2571*
G37*
X9994D02*
G36*
G75*
G02X9970Y17283I236J108D01*
G01*
G75*
G02X10064Y17483I260J0*
G01*
X9920*
G75*
G02X9940Y17383I-240J-100*
G01*
G75*
G02X9836Y17175I-260*
G01*
X9994*
G37*
X11112D02*
G36*
G75*
G02X11548I218J-142D01*
G01*
X12685*
G75*
G02X12875I95J-242*
G01*
X16370*
G75*
G02X16370Y17183I260J8*
G01*
G75*
G02X16890I260*
G01*
G75*
G02X16890Y17175I-260J0*
G01*
X22074*
G75*
G02X22068Y17483I206J158*
G01*
X16470*
G75*
G02X15990I-240J100*
G01*
X13801*
G75*
G02X13659I-71J250*
G01*
X12340*
G75*
G02X11820I-260*
G01*
X10820*
G75*
G02X10483Y17342I-240J100*
G01*
G75*
G02X10490Y17283I-253J-59*
G01*
G75*
G02X10466Y17175I-260*
G01*
X11112*
G37*
X45370D02*
G36*
G75*
G02X45370Y17183I260J8D01*
G01*
G75*
G02X45890I260*
G01*
G75*
G02X45890Y17175I-260J0*
G01*
X46070*
G75*
G02X46070Y17183I260J8*
G01*
G75*
G02X46590I260*
G01*
G75*
G02X46590Y17175I-260J0*
G01*
X49130*
Y17483*
X22492*
G75*
G02X22486Y17175I-212J-150*
G01*
X45370*
G37*
X4096Y31271D02*
G36*
G75*
G02X4886Y31733I816J-487D01*
G01*
Y31633*
G75*
G03X4215Y31271I25J-850*
G01*
X5608*
G75*
G03X4936Y31633I-696J-487*
G01*
Y31733*
G75*
G02X5727Y31271I-25J-950*
G01*
X6458*
G75*
G02X7274Y31733I815J-487*
G01*
G75*
G02X8089Y31271J-950*
G01*
X8622*
G75*
G02X8830Y31313I208J-487*
G01*
G75*
G02X9038Y31271I0J-530*
G01*
X44627*
G75*
G02X44570Y31433I203J163*
G01*
G75*
G02X45090I260*
G01*
G75*
G02X45033Y31271I-260J0*
G01*
X49130*
Y32783*
X1630*
Y31271*
X4096*
G37*
X1630Y19833D02*
G36*
Y19645D01*
X5000*
G75*
G02X4920Y19833I180J188*
G01*
X1630*
G37*
X4920D02*
G36*
G75*
G02X5440I260D01*
G01*
X14270*
G75*
G02X14790I260*
G01*
X16640*
G75*
G02X16620Y19933I240J100*
G01*
G75*
G02X17140I260*
G01*
G75*
G02X17120Y19833I-260*
G01*
X17276*
G75*
G02X17784I254J-54*
G01*
X27970*
G75*
G02X28230Y20093I260*
G01*
G75*
G02X28490Y19833J-260*
G01*
X37086*
X37144Y19892*
X37716*
X37774Y19833*
X39716*
Y20419*
X40656*
Y19833*
X49130*
Y20583*
X46538*
G75*
G02X45611I-464J369*
G01*
X44333*
G75*
G02X43406I-464J369*
G01*
X40656*
Y20463*
X39716*
Y20583*
X31896*
G75*
G02X31730Y20123I-166J-200*
G01*
G75*
G02X31564Y20583J260*
G01*
X15996*
G75*
G02X16090Y20383I-166J-200*
G01*
G75*
G02X15570I-260*
G01*
G75*
G02X15664Y20583I260*
G01*
X14135*
G75*
G02X13655Y20503I-255J50*
G01*
G75*
G02X13205I-225J130*
G01*
G75*
G02X12883Y20392I-225J130*
G01*
G75*
G02X12890Y20333I-253J-59*
G01*
G75*
G02X12370I-260*
G01*
G75*
G02X12374Y20377I260*
G01*
G75*
G02X12075Y20583I-44J256*
G01*
X7470*
G75*
G02X6990I-240J100*
G01*
X6390*
G75*
G02X5870I-260*
G01*
X1630*
Y19833*
X4920*
G37*
X5440D02*
G36*
G75*
G02X5360Y19645I-260D01*
G01*
X14350*
G75*
G02X14270Y19833I180J188*
G01*
X5440*
G37*
X14790D02*
G36*
G75*
G02X14710Y19645I-260D01*
G01*
X17307*
G75*
G02X17270Y19779I223J134*
G01*
G75*
G02X17276Y19833I260J0*
G01*
X17120*
G75*
G02X16640I-240J100*
G01*
X14790*
G37*
X17784D02*
G36*
G75*
G02X17790Y19779I-254J-54D01*
G01*
G75*
G02X17753Y19645I-260*
G01*
X21441*
G75*
G02X21755Y19832I339J-212*
G01*
Y19732*
G75*
G03X21568Y19645I25J-299*
G01*
X21992*
G75*
G03X21805Y19732I-212J-212*
G01*
Y19832*
G75*
G02X22119Y19645I-25J-399*
G01*
X28050*
G75*
G02X27970Y19833I180J188*
G01*
X17784*
G37*
X28490D02*
G36*
G75*
G02X28410Y19645I-260D01*
G01*
X36898*
X37086Y19833*
X28490*
G37*
X37774D02*
G36*
X37962Y19645D01*
X39716*
Y19833*
X37774*
G37*
X40656D02*
G36*
Y19645D01*
X45799*
G75*
G02X46049I125J-228*
G01*
X46597*
G75*
G02X47050I226J-128*
G01*
X49130*
Y19833*
X40656*
G37*
X1630Y23391D02*
G36*
Y23141D01*
X15085*
G75*
G02X14920Y23383I95J242*
G01*
G75*
G02X14920Y23391I260J0*
G01*
X6198*
G75*
G02X6005Y23274I-218J142*
G01*
Y23375*
G75*
G03X6054Y23391I-25J158*
G01*
X5906*
G75*
G03X5955Y23375I74J142*
G01*
Y23274*
G75*
G02X5762Y23391I25J259*
G01*
X1630*
G37*
X15440D02*
G36*
G75*
G02X15440Y23383I-260J-8D01*
G01*
G75*
G02X15275Y23141I-260*
G01*
X16155*
G75*
G02X16070Y23333I175J192*
G01*
G75*
G02X16077Y23391I260*
G01*
X15440*
G37*
X16583D02*
G36*
G75*
G02X16590Y23333I-253J-58D01*
G01*
G75*
G02X16505Y23141I-260*
G01*
X30312*
G75*
G02X30271Y23258I218J142*
G01*
X30372*
G75*
G03X30456Y23141I158J25*
G01*
X30604*
G75*
G03X30688Y23258I-74J142*
G01*
X30789*
G75*
G02X30748Y23141I-259J25*
G01*
X36929*
X37144Y23356*
X37716*
X37931Y23141*
X49130*
Y23391*
X30766*
G75*
G02X30789Y23308I-236J-108*
G01*
X30688*
G75*
G03X30648Y23391I-158J-25*
G01*
X30412*
G75*
G03X30372Y23308I118J-108*
G01*
X30271*
G75*
G02X30294Y23391I259J-25*
G01*
X16583*
G37*
X5870Y20583D02*
G36*
G75*
G02X6390I260D01*
G01*
X6990*
G75*
G02X6970Y20683I240J100*
G01*
G75*
G02X7490I260*
G01*
G75*
G02X7470Y20583I-260*
G01*
X12075*
G75*
G02X12070Y20633I255J50*
G01*
G75*
G02X12590I260*
G01*
G75*
G02X12586Y20590I-260*
G01*
G75*
G02X12727Y20575I44J-256*
G01*
G75*
G02X13205Y20764I253J59*
G01*
G75*
G02X13655I225J-130*
G01*
G75*
G02X14140Y20633I225J-130*
G01*
G75*
G02X14135Y20583I-260J0*
G01*
X15664*
G75*
G02X15996I166J-200*
G01*
X31564*
G75*
G02X31730Y20643I166J-200*
G01*
G75*
G02X31896Y20583J-260*
G01*
X39716*
Y21033*
X31985*
G75*
G02X31755Y20824I-255J50*
G01*
Y20925*
G75*
G03X31882Y21033I-25J158*
G01*
X31578*
G75*
G03X31705Y20925I152J50*
G01*
Y20824*
G75*
G02X31475Y21033I25J259*
G01*
X26835*
G75*
G02X26580Y20823I-255J50*
G01*
G75*
G02X26325Y21033J260*
G01*
X16690*
G75*
G02X16170I-260*
G01*
X1630*
Y20583*
X5870*
G37*
X43406D02*
G36*
G75*
G02X43277Y20952I464J368D01*
G01*
G75*
G02X43283Y21033I592J0*
G01*
X40656*
Y20583*
X43406*
G37*
X45611D02*
G36*
G75*
G02X45482Y20952I464J368D01*
G01*
G75*
G02X45488Y21033I592J0*
G01*
X44456*
G75*
G02X44461Y20952I-586J-82*
G01*
G75*
G02X44333Y20583I-592J0*
G01*
X45611*
G37*
X49130D02*
G36*
Y21033D01*
X46661*
G75*
G02X46666Y20952I-587J-81*
G01*
G75*
G02X46538Y20583I-592J0*
G01*
X49130*
G37*
X1630Y29420D02*
G36*
Y29097D01*
X5157*
G75*
G02X5277Y29420I936J-165*
G01*
X1630*
G37*
X5277D02*
G36*
G75*
G02X6068Y29883I816J-487D01*
G01*
Y29783*
G75*
G03X5396Y29420I25J-850*
G01*
X6789*
G75*
G03X6118Y29783I-696J-487*
G01*
Y29883*
G75*
G02X6908Y29420I-25J-950*
G01*
X31170*
G75*
G02X31430Y29693I260J13*
G01*
G75*
G02X31690Y29420J-260*
G01*
X36639*
Y29902*
X36829Y30091*
X30648*
G75*
G02X30455Y29974I-218J142*
G01*
Y30075*
G75*
G03X30504Y30091I-25J158*
G01*
X30356*
G75*
G03X30405Y30075I74J142*
G01*
Y29974*
G75*
G02X30212Y30091I25J259*
G01*
X23498*
G75*
G02X23062I-218J142*
G01*
X18940*
G75*
G02X18940Y30083I-260J-8*
G01*
G75*
G02X18420I-260*
G01*
G75*
G02X18420Y30091I260J0*
G01*
X11903*
G75*
G02X10557I-673J192*
G01*
X7925*
G75*
G02X7274Y29833I-651J692*
G01*
G75*
G02X6623Y30091J950*
G01*
X5563*
G75*
G02X4936Y29834I-651J692*
G01*
Y29934*
G75*
G03X5405Y30091I-25J850*
G01*
X4418*
G75*
G03X4886Y29934I494J692*
G01*
Y29834*
G75*
G02X4260Y30091I25J950*
G01*
X1630*
Y29420*
X5277*
G37*
X5396D02*
G36*
G75*
G03X5259Y29097I696J-487D01*
G01*
X6927*
G75*
G03X6789Y29420I-834J-165*
G01*
X5396*
G37*
X6908D02*
G36*
G75*
G02X7028Y29097I-816J-487D01*
G01*
X11009*
G75*
G02X11451I221J-664*
G01*
X36871*
X36639Y29330*
Y29420*
X31690*
G75*
G02X31430Y29173I-260J13*
G01*
G75*
G02X31170Y29420J260*
G01*
X6908*
G37*
X38021D02*
G36*
Y29330D01*
X37789Y29097*
X39616*
Y29338*
X40556*
Y29097*
X41768*
G75*
G02X42248Y29381I506J-308*
G01*
Y29281*
G75*
G03X41890Y29097I25J-491*
G01*
X42657*
G75*
G03X42298Y29281I-384J-308*
G01*
Y29381*
G75*
G02X42779Y29097I-25J-592*
G01*
X44012*
G75*
G02X44492Y29381I506J-308*
G01*
Y29281*
G75*
G03X44134Y29097I25J-491*
G01*
X44901*
G75*
G03X44542Y29281I-384J-308*
G01*
Y29381*
G75*
G02X45023Y29097I-25J-592*
G01*
X46413*
G75*
G02X46894Y29381I506J-308*
G01*
Y29281*
G75*
G03X46535Y29097I25J-491*
G01*
X47303*
G75*
G03X46944Y29281I-384J-308*
G01*
Y29381*
G75*
G02X47425Y29097I-25J-592*
G01*
X49130*
Y29420*
X38021*
G37*
X49130D02*
G36*
Y30091D01*
X45273*
G75*
G02X45196Y29983I-243J92*
G01*
G75*
G02X45290Y29783I-166J-200*
G01*
G75*
G02X44770I-260*
G01*
G75*
G02X44864Y29983I260*
G01*
G75*
G02X44787Y30091I166J200*
G01*
X37831*
X38021Y29902*
Y29420*
X49130*
G37*
X1630Y24283D02*
G36*
Y24025D01*
X3864*
G75*
G02X4296I216J-276*
G01*
X6399*
G75*
G02X6170Y24283I31J258*
G01*
X1630*
G37*
X6170D02*
G36*
G75*
G02X6690I260D01*
G01*
X45325*
G75*
G02X45320Y24333I255J50*
G01*
G75*
G02X45840I260*
G01*
G75*
G02X45835Y24283I-260J0*
G01*
X45970*
G75*
G02X46490I260*
G01*
X49130*
Y24733*
X35290*
G75*
G02X34770I-260*
G01*
X31840*
G75*
G02X31320I-260*
G01*
X1630*
Y24283*
X6170*
G37*
X6690D02*
G36*
G75*
G02X6461Y24025I-260D01*
G01*
X9912*
G75*
G02X10348I218J-142*
G01*
X10562*
G75*
G02X10755Y24142I218J-142*
G01*
Y24041*
G75*
G03X10706Y24025I25J-158*
G01*
X10854*
G75*
G03X10805Y24041I-74J-142*
G01*
Y24142*
G75*
G02X10998Y24025I-25J-259*
G01*
X11787*
G75*
G02X12273I243J-92*
G01*
X12687*
G75*
G02X12905Y24192I243J-92*
G01*
Y24091*
G75*
G03X12799Y24025I25J-158*
G01*
X13061*
G75*
G03X12955Y24091I-131J-92*
G01*
Y24192*
G75*
G02X13173Y24025I-25J-259*
G01*
X17973*
G75*
G02X18487I257J-42*
G01*
X46199*
G75*
G02X45970Y24283I31J258*
G01*
X45835*
G75*
G02X45325I-255J50*
G01*
X6690*
G37*
X46490D02*
G36*
G75*
G02X46261Y24025I-260D01*
G01*
X49130*
Y24283*
X46490*
G37*
X2571Y18175D02*
G36*
G75*
G02X2830Y18253I259J-392D01*
G01*
G75*
G02X3089Y18175J-470*
G01*
X6812*
G75*
G02X7005Y18292I218J-142*
G01*
Y18191*
G75*
G03X6956Y18175I25J-158*
G01*
X7104*
G75*
G03X7055Y18191I-74J-142*
G01*
Y18292*
G75*
G02X7248Y18175I-25J-259*
G01*
X10855*
G75*
G02X11205I175J-192*
G01*
X15520*
G75*
G02X15520Y18183I260J8*
G01*
G75*
G02X15574Y18341I260J0*
G01*
X7948*
G75*
G02X7755Y18224I-218J142*
G01*
Y18325*
G75*
G03X7804Y18341I-25J158*
G01*
X7656*
G75*
G03X7705Y18325I74J142*
G01*
Y18224*
G75*
G02X7512Y18341I25J259*
G01*
X2990*
G75*
G02X2830Y18313I-160J442*
G01*
G75*
G02X2670Y18341J470*
G01*
X1630*
Y18175*
X2571*
G37*
X18070D02*
G36*
G75*
G02X18141Y18341I260J-12D01*
G01*
X15986*
G75*
G02X16040Y18183I-206J-158*
G01*
G75*
G02X16040Y18175I-260J0*
G01*
X18070*
G37*
X20524D02*
G36*
G75*
G02X20423Y18341I156J208D01*
G01*
X18519*
G75*
G02X18590Y18175I-189J-178*
G01*
X20524*
G37*
X30594D02*
G36*
G75*
G02X30382Y18341I31J258D01*
G01*
X20937*
G75*
G02X20836Y18175I-257J42*
G01*
X30594*
G37*
X30651D02*
G36*
Y18275D01*
G75*
G03X30757Y18341I-25J158*
G01*
X30495*
G75*
G03X30601Y18275I131J92*
G01*
Y18175*
X30651*
G37*
X49130D02*
G36*
Y18341D01*
X30869*
G75*
G02X30657Y18175I-243J92*
G01*
X49130*
G37*
X2427Y15025D02*
G36*
G75*
G02X2597Y15191I403J-242D01*
G01*
X1630*
Y15025*
X2427*
G37*
X7212D02*
G36*
G75*
G02X7405Y15142I218J-142D01*
G01*
Y15041*
G75*
G03X7356Y15025I25J-158*
G01*
X7504*
G75*
G03X7455Y15041I-74J-142*
G01*
Y15142*
G75*
G02X7648Y15025I-25J-259*
G01*
X17523*
G75*
G02X17554Y15191I257J38*
G01*
X15548*
G75*
G02X15355Y15074I-218J142*
G01*
Y15175*
G75*
G03X15404Y15191I-25J158*
G01*
X15256*
G75*
G03X15305Y15175I74J142*
G01*
Y15074*
G75*
G02X15112Y15191I25J259*
G01*
X3063*
G75*
G02X3233Y15025I-233J-408*
G01*
X7212*
G37*
X32723D02*
G36*
G75*
G02X32824Y15191I257J-42D01*
G01*
X19348*
G75*
G02X19130Y15073I-218J142*
G01*
G75*
G02X18912Y15191J260*
G01*
X18006*
G75*
G02X18037Y15025I-226J-128*
G01*
X32723*
G37*
X34385D02*
G36*
G75*
G02X34480Y15043I95J-242D01*
G01*
G75*
G02X34575Y15025J-260*
G01*
X36994*
X36889Y15130*
Y15191*
X33136*
G75*
G02X33237Y15025I-156J-208*
G01*
X34385*
G37*
X39866D02*
G36*
Y15138D01*
X40806*
Y15025*
X41874*
G75*
G02X42110Y15191I449J-386*
G01*
X38271*
Y15130*
X38166Y15025*
X39866*
G37*
X42629D02*
G36*
G75*
G03X42348Y15131I-305J-386D01*
G01*
Y15191*
X42298*
Y15131*
G75*
G03X42018Y15025I25J-491*
G01*
X42629*
G37*
X44118D02*
G36*
G75*
G02X44354Y15191I449J-386D01*
G01*
X42537*
G75*
G02X42772Y15025I-214J-552*
G01*
X44118*
G37*
X44873D02*
G36*
G75*
G03X44592Y15131I-305J-386D01*
G01*
Y15191*
X44542*
Y15131*
G75*
G03X44262Y15025I25J-491*
G01*
X44873*
G37*
X46520D02*
G36*
G75*
G02X46755Y15191I449J-386D01*
G01*
X44781*
G75*
G02X45016Y15025I-214J-552*
G01*
X46520*
G37*
X47274D02*
G36*
G75*
G03X46994Y15131I-305J-386D01*
G01*
Y15191*
X46944*
Y15131*
G75*
G03X46664Y15025I25J-491*
G01*
X47274*
G37*
X49130D02*
G36*
Y15191D01*
X47183*
G75*
G02X47418Y15025I-214J-552*
G01*
X49130*
G37*
X2670Y18341D02*
G36*
G75*
G02X2387Y18625I160J442D01*
G01*
X1630*
Y18341*
X2670*
G37*
X7512D02*
G36*
G75*
G02X7471Y18458I218J142D01*
G01*
X7572*
G75*
G03X7656Y18341I158J25*
G01*
X7804*
G75*
G03X7888Y18458I-74J142*
G01*
X7989*
G75*
G02X7948Y18341I-259J25*
G01*
X15574*
G75*
G02X15986I206J-158*
G01*
X18141*
G75*
G02X18330Y18423I189J-178*
G01*
G75*
G02X18519Y18341J-260*
G01*
X20423*
G75*
G02X20585Y18625I257J42*
G01*
X9783*
G75*
G02X9277I-253J58*
G01*
X9186*
G75*
G02X8874I-156J208*
G01*
X7948*
G75*
G02X7989Y18508I-218J-142*
G01*
X7888*
G75*
G03X7804Y18625I-158J-25*
G01*
X7656*
G75*
G03X7572Y18508I74J-142*
G01*
X7471*
G75*
G02X7512Y18625I259J-25*
G01*
X3273*
G75*
G02X2990Y18341I-443J158*
G01*
X7512*
G37*
X30382D02*
G36*
G75*
G02X30367Y18408I243J92D01*
G01*
X30468*
G75*
G03X30495Y18341I158J25*
G01*
X30757*
G75*
G03X30784Y18408I-131J92*
G01*
X30884*
G75*
G02X30869Y18341I-259J25*
G01*
X49130*
Y18625*
X37831*
X37716Y18510*
X37144*
X37029Y18625*
X31390*
G75*
G02X31130Y18373I-260J8*
G01*
G75*
G02X30870Y18625J260*
G01*
X30801*
G75*
G02X30884Y18458I-175J-192*
G01*
X30784*
G75*
G03X30651Y18591I-158J-25*
G01*
Y18625*
X30601*
Y18591*
G75*
G03X30468Y18458I25J-158*
G01*
X30367*
G75*
G02X30450Y18625I259J-25*
G01*
X20775*
G75*
G02X20937Y18341I-95J-242*
G01*
X30382*
G37*
X1630Y21691D02*
G36*
Y21225D01*
X16255*
G75*
G02X16605I175J-192*
G01*
X21438*
G75*
G02X21380Y21433I342J208*
G01*
G75*
G02X21474Y21691I400*
G01*
X7998*
G75*
G02X7805Y21574I-218J142*
G01*
Y21675*
G75*
G03X7854Y21691I-25J158*
G01*
X7706*
G75*
G03X7755Y21675I74J142*
G01*
Y21574*
G75*
G02X7562Y21691I25J259*
G01*
X4208*
G75*
G02X3952I-128J326*
G01*
X1630*
G37*
X22086D02*
G36*
G75*
G02X22180Y21433I-306J-258D01*
G01*
G75*
G02X22122Y21225I-400J0*
G01*
X26362*
G75*
G02X26580Y21343I218J-142*
G01*
G75*
G02X26798Y21225J-260*
G01*
X31512*
G75*
G02X31705Y21342I218J-142*
G01*
Y21241*
G75*
G03X31656Y21225I25J-158*
G01*
X31804*
G75*
G03X31755Y21241I-74J-142*
G01*
Y21342*
G75*
G02X31948Y21225I-25J-259*
G01*
X39716*
Y21403*
X40656*
Y21225*
X42079*
G75*
G02X41783Y21691I294J514*
G01*
X40656*
Y21448*
X39716*
Y21691*
X34705*
G75*
G02X34530Y21623I-175J192*
G01*
G75*
G02X34355Y21691J260*
G01*
X33173*
G75*
G02X32930Y21523I-243J92*
G01*
G75*
G02X32687Y21691J260*
G01*
X22086*
G37*
X41884D02*
G36*
G75*
G03X42348Y21248I490J48D01*
G01*
Y21225*
X42398*
Y21248*
G75*
G03X42863Y21691I-25J491*
G01*
X41884*
G37*
X42964D02*
G36*
G75*
G02X42667Y21225I-590J48D01*
G01*
X43344*
G75*
G02X44072Y21508I525J-273*
G01*
G75*
G02X44027Y21691I545J231*
G01*
X42964*
G37*
X44128D02*
G36*
G75*
G03X44592Y21248I490J48D01*
G01*
Y21225*
X44642*
Y21248*
G75*
G03X45107Y21691I-25J491*
G01*
X44128*
G37*
X45208D02*
G36*
G75*
G02X44911Y21225I-590J48D01*
G01*
X45549*
G75*
G02X46599I525J-273*
G01*
X46725*
G75*
G02X46429Y21691I294J514*
G01*
X45208*
G37*
X46529D02*
G36*
G75*
G03X46994Y21248I490J48D01*
G01*
Y21225*
X47044*
Y21248*
G75*
G03X47509Y21691I-25J491*
G01*
X46529*
G37*
X47609D02*
G36*
G75*
G02X47313Y21225I-590J48D01*
G01*
X49130*
Y21691*
X47609*
G37*
X1630Y9118D02*
G36*
Y8875D01*
X7936*
G75*
G02X7871Y9118I430J243*
G01*
X1630*
G37*
X7871D02*
G36*
G75*
G02X8016Y9468I494D01*
G01*
G75*
G02X8098Y9533I349J-349*
G01*
X1630*
Y9118*
X7871*
G37*
X8859D02*
G36*
G75*
G02X8795Y8875I-494D01*
G01*
X30412*
G75*
G02X30605Y8992I218J-142*
G01*
Y8891*
G75*
G03X30556Y8875I25J-158*
G01*
X30704*
G75*
G03X30655Y8891I-74J-142*
G01*
Y8992*
G75*
G02X30848Y8875I-25J-259*
G01*
X49130*
Y9118*
X8859*
G37*
X49130D02*
G36*
Y9533D01*
X17940*
G75*
G02X17420I-260*
G01*
X14640*
G75*
G02X14120I-260*
G01*
X8633*
G75*
G02X8859Y9118I-268J-415*
G01*
X49130*
G37*
X1630Y25783D02*
G36*
Y25621D01*
X8326*
G75*
G02X8300Y25783I504J162*
G01*
X1630*
G37*
X8300D02*
G36*
G75*
G02X8439Y26141I530D01*
G01*
X1630*
Y25783*
X8300*
G37*
X9360D02*
G36*
G75*
G02X9334Y25621I-530D01*
G01*
X30362*
G75*
G02X30555Y25738I218J-142*
G01*
Y25637*
G75*
G03X30506Y25621I25J-158*
G01*
X30654*
G75*
G03X30605Y25637I-74J-142*
G01*
Y25738*
G75*
G02X30798Y25621I-25J-259*
G01*
X30830*
G75*
G02X30725Y25783I150J212*
G01*
X9360*
G37*
X30725D02*
G36*
G75*
G02X30980Y26093I255J50D01*
G01*
G75*
G02X31235Y25783J-260*
G01*
X36721*
X36639Y25865*
Y26141*
X26373*
G75*
G02X26155Y25974I-243J92*
G01*
Y26075*
G75*
G03X26261Y26141I-25J158*
G01*
X25999*
G75*
G03X26105Y26075I131J92*
G01*
Y25974*
G75*
G02X25887Y26141I25J259*
G01*
X22681*
G75*
G02X22355Y25934I-351J192*
G01*
Y26034*
G75*
G03X22561Y26141I-25J299*
G01*
X22099*
G75*
G03X22305Y26034I231J192*
G01*
Y25934*
G75*
G02X21979Y26141I25J399*
G01*
X20681*
G75*
G02X20330Y25933I-351J192*
G01*
G75*
G02X19979Y26141J400*
G01*
X14498*
G75*
G02X14305Y26024I-218J142*
G01*
Y26125*
G75*
G03X14354Y26141I-25J158*
G01*
X14206*
G75*
G03X14255Y26125I74J142*
G01*
Y26024*
G75*
G02X14062Y26141I25J259*
G01*
X11773*
G75*
G02X10687I-543J442*
G01*
X9221*
G75*
G02X9360Y25783I-391J-358*
G01*
X30725*
G37*
X31235D02*
G36*
G75*
G02X31130Y25621I-255J50D01*
G01*
X36884*
X36721Y25783*
X31235*
G37*
X37939D02*
G36*
X37776Y25621D01*
X49130*
Y25783*
X37939*
G37*
X49130D02*
G36*
Y26141D01*
X38021*
Y25865*
X37939Y25783*
X49130*
G37*
X1630Y13233D02*
G36*
Y13091D01*
X11062*
G75*
G02X11020Y13233I218J142*
G01*
X1630*
G37*
X11020D02*
G36*
G75*
G02X11062Y13375I260D01*
G01*
X3063*
G75*
G02X2830Y13313I-233J408*
G01*
G75*
G02X2597Y13375J470*
G01*
X1630*
Y13233*
X11020*
G37*
X11540D02*
G36*
G75*
G02X11498Y13091I-260D01*
G01*
X11862*
G75*
G02X11821Y13208I218J142*
G01*
X11922*
G75*
G03X12006Y13091I158J25*
G01*
X12154*
G75*
G03X12238Y13208I-74J142*
G01*
X12339*
G75*
G02X12298Y13091I-259J25*
G01*
X27977*
G75*
G02X28064Y13233I253J-58*
G01*
X11540*
G37*
X28064D02*
G36*
G75*
G02X28230Y13293I166J-200D01*
G01*
G75*
G02X28396Y13233J-260*
G01*
X39866*
Y13375*
X31886*
G75*
G02X31730Y13323I-156J208*
G01*
G75*
G02X31574Y13375J260*
G01*
X12298*
G75*
G02X12339Y13258I-218J-142*
G01*
X12238*
G75*
G03X12154Y13375I-158J-25*
G01*
X12006*
G75*
G03X11922Y13258I74J-142*
G01*
X11821*
G75*
G02X11862Y13375I259J-25*
G01*
X11498*
G75*
G02X11540Y13233I-218J-142*
G01*
X28064*
G37*
X28396D02*
G36*
G75*
G02X28483Y13091I-166J-200D01*
G01*
X39866*
Y13169*
X40806*
Y13091*
X49130*
Y13233*
X40806*
Y13213*
X39866*
Y13233*
X28396*
G37*
X49130D02*
G36*
Y13375D01*
X46375*
G75*
G02X45673I-351J477*
G01*
X44171*
G75*
G02X43468I-351J477*
G01*
X40806*
Y13233*
X49130*
G37*
X1630Y19183D02*
G36*
Y19041D01*
X2437*
G75*
G02X2583Y19183I393J-258*
G01*
X1630*
G37*
X2583D02*
G36*
G75*
G02X2830Y19253I247J-400D01*
G01*
G75*
G02X3077Y19183J-470*
G01*
X11370*
G75*
G02X11412Y19325I260*
G01*
X1630*
Y19183*
X2583*
G37*
X3077D02*
G36*
G75*
G02X3223Y19041I-247J-400D01*
G01*
X8874*
G75*
G02X9186I156J-208*
G01*
X11412*
G75*
G02X11370Y19183I218J142*
G01*
X3077*
G37*
X11890D02*
G36*
G75*
G02X11848Y19041I-260D01*
G01*
X16662*
G75*
G02X16621Y19158I218J142*
G01*
X16722*
G75*
G03X16806Y19041I158J25*
G01*
X16954*
G75*
G03X17038Y19158I-74J142*
G01*
X17139*
G75*
G02X17098Y19041I-259J25*
G01*
X21700*
G75*
G02X21468Y19183I80J392*
G01*
X14642*
G75*
G02X14218I-212J150*
G01*
X11890*
G37*
X14218D02*
G36*
G75*
G02X14170Y19325I212J150D01*
G01*
X11848*
G75*
G02X11890Y19183I-218J-142*
G01*
X14218*
G37*
X21468D02*
G36*
G75*
G02X21395Y19325I312J250D01*
G01*
X17098*
G75*
G02X17139Y19208I-218J-142*
G01*
X17038*
G75*
G03X16954Y19325I-158J-25*
G01*
X16806*
G75*
G03X16722Y19208I74J-142*
G01*
X16621*
G75*
G02X16662Y19325I259J-25*
G01*
X14690*
G75*
G02X14642Y19183I-260J8*
G01*
X21468*
G37*
X21614D02*
G36*
G75*
G03X21755Y19134I166J250D01*
G01*
Y19041*
X21805*
Y19134*
G75*
G03X21946Y19183I-25J299*
G01*
X21614*
G37*
X21946D02*
G36*
G75*
G03X22060Y19325I-166J250D01*
G01*
X21500*
G75*
G03X21614Y19183I280J108*
G01*
X21946*
G37*
X22092D02*
G36*
G75*
G02X21860Y19041I-312J250D01*
G01*
X25905*
G75*
G02X25825Y19183I175J192*
G01*
X22092*
G37*
X25825D02*
G36*
G75*
G02X25821Y19208I255J50D01*
G01*
X25922*
G75*
G03X25928Y19183I158J25*
G01*
X26232*
G75*
G03X26238Y19208I-152J50*
G01*
X26339*
G75*
G02X26335Y19183I-259J25*
G01*
X36739*
Y19325*
X26323*
G75*
G02X26339Y19258I-243J-92*
G01*
X26238*
G75*
G03X26211Y19325I-158J-25*
G01*
X25949*
G75*
G03X25922Y19258I131J-92*
G01*
X25821*
G75*
G02X25837Y19325I259J-25*
G01*
X22165*
G75*
G02X22092Y19183I-385J108*
G01*
X25825*
G37*
X25928D02*
G36*
G75*
G03X26055Y19075I152J50D01*
G01*
Y19041*
X26105*
Y19075*
G75*
G03X26232Y19183I-25J158*
G01*
X25928*
G37*
X26335D02*
G36*
G75*
G02X26255Y19041I-255J50D01*
G01*
X36739*
Y19183*
X26335*
G37*
X38121D02*
G36*
Y19041D01*
X49130*
Y19183*
X46037*
G75*
G02X45811I-113J234*
G01*
X38121*
G37*
X45811D02*
G36*
G75*
G02X45681Y19325I113J234D01*
G01*
X38121*
Y19183*
X45811*
G37*
X49130D02*
G36*
Y19325D01*
X46999*
G75*
G02X46648I-176J192*
G01*
X46167*
G75*
G02X46037Y19183I-243J92*
G01*
X49130*
G37*
X1630Y1136D02*
G36*
Y283D01*
X49130*
Y1136*
X23887*
G75*
G02X23352Y796I-536J253*
G01*
G75*
G02X22816Y1136J592*
G01*
X14987*
G75*
G02X14452Y796I-536J253*
G01*
G75*
G02X13916Y1136J592*
G01*
X12247*
X12025Y913*
X11855*
Y1013*
X11983*
X12106Y1136*
X11554*
X11677Y1013*
X11805*
Y913*
X11635*
X11413Y1136*
X11247*
X11025Y913*
X10635*
X10413Y1136*
X10247*
X10025Y913*
X9635*
X9413Y1136*
X9247*
X9025Y913*
X8635*
X8413Y1136*
X8247*
X8025Y913*
X7635*
X7413Y1136*
X7247*
X7025Y913*
X6635*
X6413Y1136*
X6247*
X6025Y913*
X5635*
X5413Y1136*
X5247*
X5025Y913*
X4635*
X4413Y1136*
X4247*
X4025Y913*
X3635*
X3413Y1136*
X3247*
X3025Y913*
X2635*
X2413Y1136*
X1630*
G37*
X2413Y1631D02*
G36*
X2635Y1853D01*
X3025*
X3247Y1631*
X3413*
X3635Y1853*
X4025*
X4247Y1631*
X4413*
X4635Y1853*
X5025*
X5247Y1631*
X5413*
X5635Y1853*
X6025*
X6247Y1631*
X6413*
X6635Y1853*
X7025*
X7247Y1631*
X7413*
X7635Y1853*
X8025*
X8247Y1631*
X8413*
X8635Y1853*
X9025*
X9247Y1631*
X9413*
X9635Y1853*
X10025*
X10247Y1631*
X10413*
X10635Y1853*
X11025*
X11247Y1631*
X11413*
X11635Y1853*
X11805*
Y1753*
X11677*
X11554Y1631*
X12106*
X11983Y1753*
X11855*
Y1853*
X12025*
X12247Y1631*
X13911*
G75*
G02X14452Y1981I540J-242*
G01*
G75*
G02X14992Y1631J-592*
G01*
X22811*
G75*
G02X23352Y1981I540J-242*
G01*
G75*
G02X23892Y1631J-592*
G01*
X49130*
Y1991*
X23048*
G75*
G02X22564Y1741I-483J342*
G01*
G75*
G02X22081Y1991J592*
G01*
X19148*
G75*
G02X18955Y1874I-218J142*
G01*
Y1975*
G75*
G03X19004Y1991I-25J158*
G01*
X18856*
G75*
G03X18905Y1975I74J142*
G01*
Y1874*
G75*
G02X18712Y1991I25J259*
G01*
X14148*
G75*
G02X13664Y1741I-483J342*
G01*
G75*
G02X13181Y1991J592*
G01*
X12103*
X12025Y1913*
X11635*
X11557Y1991*
X11103*
X11025Y1913*
X10635*
X10557Y1991*
X10103*
X10025Y1913*
X9635*
X9557Y1991*
X9103*
X9025Y1913*
X8635*
X8557Y1991*
X8103*
X8025Y1913*
X7635*
X7557Y1991*
X7103*
X7025Y1913*
X6635*
X6557Y1991*
X6103*
X6025Y1913*
X5635*
X5557Y1991*
X5103*
X5025Y1913*
X4635*
X4557Y1991*
X4103*
X4025Y1913*
X3635*
X3557Y1991*
X3103*
X3025Y1913*
X2635*
X2557Y1991*
X1630*
Y1631*
X2413*
G37*
X1630Y13091D02*
G36*
Y12625D01*
X25912*
G75*
G02X26105Y12742I218J-142*
G01*
Y12641*
G75*
G03X26056Y12625I25J-158*
G01*
X26204*
G75*
G03X26155Y12641I-74J-142*
G01*
Y12742*
G75*
G02X26348Y12625I-25J-259*
G01*
X37278*
X37294Y12642*
X37866*
X37882Y12625*
X39866*
Y13091*
X28483*
G75*
G02X28230Y12773I-253J-58*
G01*
G75*
G02X27977Y13091J260*
G01*
X12298*
G75*
G02X12105Y12974I-218J142*
G01*
Y13075*
G75*
G03X12154Y13091I-25J158*
G01*
X12006*
G75*
G03X12055Y13075I74J142*
G01*
Y12974*
G75*
G02X11862Y13091I25J259*
G01*
X11498*
G75*
G02X11062I-218J142*
G01*
X1630*
G37*
X40806D02*
G36*
Y12625D01*
X46589*
G75*
G02X46659I35J-258*
G01*
X48105*
G75*
G02X48455I175J-192*
G01*
X49130*
Y13091*
X40806*
G37*
X1630Y4164D02*
G36*
Y4041D01*
X13342*
G75*
G02X13205Y4164I322J497*
G01*
X1630*
G37*
X13205D02*
G36*
G75*
G02X13112Y4325I459J374D01*
G01*
X1630*
Y4164*
X13205*
G37*
X14911D02*
G36*
G75*
G02X14988Y4041I-459J-374D01*
G01*
X22242*
G75*
G02X22105Y4164I322J497*
G01*
X14911*
G37*
X22105D02*
G36*
G75*
G02X22012Y4325I459J374D01*
G01*
X14705*
G75*
G02X14911Y4164I-253J-535*
G01*
X22105*
G37*
X23811D02*
G36*
G75*
G02X23888Y4041I-459J-374D01*
G01*
X30662*
G75*
G02X30621Y4158I218J142*
G01*
X30722*
G75*
G03X30806Y4041I158J25*
G01*
X30954*
G75*
G03X31038Y4158I-74J142*
G01*
X31139*
G75*
G02X31098Y4041I-259J25*
G01*
X37063*
X36940Y4164*
X31420*
G75*
G02X31280Y4123I-140J219*
G01*
G75*
G02X31140Y4164J260*
G01*
X23811*
G37*
X31140D02*
G36*
G75*
G02X31088Y4208I140J219D01*
G01*
X31038*
G75*
G03X30954Y4325I-158J-25*
G01*
X30806*
G75*
G03X30722Y4208I74J-142*
G01*
X30621*
G75*
G02X30662Y4325I259J-25*
G01*
X23605*
G75*
G02X23811Y4164I-253J-535*
G01*
X31140*
G37*
X36940D02*
G36*
X36779Y4325D01*
X31533*
G75*
G02X31420Y4164I-253J58*
G01*
X36940*
G37*
X37920D02*
G36*
X37797Y4041D01*
X49130*
Y4164*
X37920*
G37*
X49130D02*
G36*
Y4325D01*
X38081*
X37920Y4164*
X49130*
G37*
X14120Y11133D02*
G36*
G75*
G02X14640I260D01*
G01*
X17420*
G75*
G02X17940I260*
G01*
X48359*
G75*
G02X48170Y11383I71J250*
G01*
G75*
G02X48224Y11541I260J0*
G01*
X38147*
X37866Y11260*
X37294*
X37013Y11541*
X30848*
G75*
G02X30655Y11424I-218J142*
G01*
Y11525*
G75*
G03X30704Y11541I-25J158*
G01*
X30556*
G75*
G03X30605Y11525I74J142*
G01*
Y11424*
G75*
G02X30412Y11541I25J259*
G01*
X5540*
G75*
G02X5220I-160J442*
G01*
X4540*
G75*
G02X4220I-160J442*
G01*
X3540*
G75*
G02X3220I-160J442*
G01*
X1630*
Y11133*
X14120*
G37*
X49130D02*
G36*
Y11541D01*
X48636*
G75*
G02X48690Y11383I-206J-158*
G01*
G75*
G02X48501Y11133I-260*
G01*
X49130*
G37*
X8439Y26141D02*
G36*
G75*
G02X8830Y26313I391J-358D01*
G01*
G75*
G02X9221Y26141J-530*
G01*
X10687*
G75*
G02X10548Y26425I543J442*
G01*
X1630*
Y26141*
X8439*
G37*
X14062D02*
G36*
G75*
G02X14021Y26258I218J142D01*
G01*
X14122*
G75*
G03X14206Y26141I158J25*
G01*
X14354*
G75*
G03X14438Y26258I-74J142*
G01*
X14539*
G75*
G02X14498Y26141I-259J25*
G01*
X19979*
G75*
G02X19941Y26425I351J192*
G01*
X14498*
G75*
G02X14539Y26308I-218J-142*
G01*
X14438*
G75*
G03X14354Y26425I-158J-25*
G01*
X14206*
G75*
G03X14122Y26308I74J-142*
G01*
X14021*
G75*
G02X14062Y26425I259J-25*
G01*
X11912*
G75*
G02X11773Y26141I-682J158*
G01*
X14062*
G37*
X21979D02*
G36*
G75*
G02X21931Y26308I351J192D01*
G01*
X22031*
G75*
G03X22099Y26141I299J25*
G01*
X22561*
G75*
G03X22629Y26308I-231J192*
G01*
X22729*
G75*
G02X22681Y26141I-399J25*
G01*
X25887*
G75*
G02X25871Y26208I243J92*
G01*
X25972*
G75*
G03X25999Y26141I158J25*
G01*
X26261*
G75*
G03X26288Y26208I-131J92*
G01*
X26389*
G75*
G02X26373Y26141I-259J25*
G01*
X36639*
Y26425*
X26305*
G75*
G02X26389Y26258I-175J-192*
G01*
X26288*
G75*
G03X26155Y26391I-158J-25*
G01*
Y26425*
X26105*
Y26391*
G75*
G03X25972Y26258I25J-158*
G01*
X25871*
G75*
G02X25955Y26425I259J-25*
G01*
X22719*
G75*
G02X22729Y26358I-389J-92*
G01*
X22629*
G75*
G03X22616Y26425I-299J-25*
G01*
X22044*
G75*
G03X22031Y26358I286J-92*
G01*
X21931*
G75*
G02X21941Y26425I399J-25*
G01*
X20719*
G75*
G02X20681Y26141I-389J-92*
G01*
X21979*
G37*
X49130D02*
G36*
Y26425D01*
X46946*
G75*
G02X46433I-257J42*
G01*
X45982*
G75*
G02X45496I-243J92*
G01*
X38021*
Y26141*
X49130*
G37*
X11124Y27741D02*
G36*
G75*
G02X10732Y27941I106J692D01*
G01*
X1630*
Y27741*
X11124*
G37*
X14062D02*
G36*
G75*
G02X14021Y27858I218J142D01*
G01*
X14122*
G75*
G03X14206Y27741I158J25*
G01*
X14354*
G75*
G03X14438Y27858I-74J142*
G01*
X14539*
G75*
G02X14498Y27741I-259J25*
G01*
X39616*
Y27941*
X31698*
G75*
G02X31505Y27824I-218J142*
G01*
Y27925*
G75*
G03X31554Y27941I-25J158*
G01*
X31406*
G75*
G03X31455Y27925I74J142*
G01*
Y27824*
G75*
G02X31262Y27941I25J259*
G01*
X26923*
G75*
G02X26680Y27773I-243J92*
G01*
G75*
G02X26437Y27941J260*
G01*
X14533*
G75*
G02X14539Y27908I-253J-58*
G01*
X14438*
G75*
G03X14429Y27941I-158J-25*
G01*
X14131*
G75*
G03X14122Y27908I149J-58*
G01*
X14021*
G75*
G02X14027Y27941I259J-25*
G01*
X11728*
G75*
G02X11336Y27741I-498J492*
G01*
X14062*
G37*
X43238D02*
G36*
G75*
G02X43180Y27941I532J260D01*
G01*
X40556*
Y27741*
X43238*
G37*
X45442D02*
G36*
G75*
G02X45385Y27941I532J260D01*
G01*
X44358*
G75*
G02X44301Y27741I-589J60*
G01*
X45442*
G37*
X49130D02*
G36*
Y27941D01*
X46563*
G75*
G02X46506Y27741I-589J60*
G01*
X49130*
G37*
X10548Y26425D02*
G36*
G75*
G02X10530Y26583I682J158D01*
G01*
G75*
G02X10575Y26829I700*
G01*
X1630*
Y26425*
X10548*
G37*
X14062D02*
G36*
G75*
G02X14255Y26542I218J-142D01*
G01*
Y26441*
G75*
G03X14206Y26425I25J-158*
G01*
X14354*
G75*
G03X14305Y26441I-74J-142*
G01*
Y26542*
G75*
G02X14498Y26425I-25J-259*
G01*
X19941*
G75*
G02X20330Y26733I389J-92*
G01*
G75*
G02X20719Y26425J-400*
G01*
X21941*
G75*
G02X22305Y26732I389J-92*
G01*
Y26632*
G75*
G03X22044Y26425I25J-299*
G01*
X22616*
G75*
G03X22355Y26632I-286J-92*
G01*
Y26732*
G75*
G02X22719Y26425I-25J-399*
G01*
X25955*
G75*
G02X26105Y26492I175J-192*
G01*
Y26425*
X26155*
Y26492*
G75*
G02X26305Y26425I-25J-259*
G01*
X36639*
Y26437*
X37031Y26829*
X28540*
G75*
G02X28280Y26569I-260*
G01*
G75*
G02X28020Y26829J260*
G01*
X11885*
G75*
G02X11930Y26583I-656J-246*
G01*
G75*
G02X11912Y26425I-700J0*
G01*
X14062*
G37*
X45496D02*
G36*
G75*
G02X45479Y26518I243J92D01*
G01*
G75*
G02X45999I260*
G01*
G75*
G02X45982Y26425I-260J0*
G01*
X46433*
G75*
G02X46429Y26468I257J42*
G01*
G75*
G02X46949I260*
G01*
G75*
G02X46946Y26425I-260J0*
G01*
X49130*
Y26829*
X40556*
Y26429*
X39616*
Y26829*
X37629*
X38021Y26437*
Y26425*
X45496*
G37*
X1630Y6034D02*
G36*
Y5433D01*
X17376*
Y6034*
X15044*
G75*
G02X14452Y5442I-592*
G01*
G75*
G02X13860Y6034J592*
G01*
X1630*
G37*
X13860D02*
G36*
G75*
G02X14146Y6541I592D01*
G01*
X1630*
Y6034*
X13860*
G37*
X17376D02*
G36*
Y6209D01*
X18316*
Y6034*
X18360*
Y6209*
X19300*
Y6034*
X19344*
Y6209*
X20284*
Y6034*
X22760*
G75*
G02X23046Y6541I592*
G01*
X14757*
G75*
G02X15044Y6034I-305J-507*
G01*
X17376*
G37*
X18316D02*
G36*
Y5433D01*
X18360*
Y6034*
X18316*
G37*
X19300D02*
G36*
Y5433D01*
X19344*
Y6034*
X19300*
G37*
X20284D02*
G36*
Y5433D01*
X28170*
G75*
G02X28430Y5693I260*
G01*
G75*
G02X28690Y5433J-260*
G01*
X39716*
Y5869*
X40656*
Y5433*
X46620*
G75*
G02X47140I260*
G01*
X49130*
Y6034*
X46524*
G75*
G02X45524I-500J318*
G01*
X44319*
G75*
G02X43320I-500J318*
G01*
X40656*
Y5913*
X39716*
Y6034*
X32142*
G75*
G02X31930Y5623I-212J-151*
G01*
G75*
G02X31718Y6034J260*
G01*
X23944*
G75*
G02X23352Y5442I-592*
G01*
G75*
G02X22760Y6034J592*
G01*
X20284*
G37*
X31718D02*
G36*
G75*
G02X31930Y6143I212J-151D01*
G01*
G75*
G02X32142Y6034J-260*
G01*
X39716*
Y6541*
X31848*
G75*
G02X31655Y6424I-218J142*
G01*
Y6525*
G75*
G03X31704Y6541I-25J158*
G01*
X31556*
G75*
G03X31605Y6525I74J142*
G01*
Y6424*
G75*
G02X31412Y6541I25J259*
G01*
X26998*
G75*
G02X26780Y6423I-218J142*
G01*
G75*
G02X26562Y6541J260*
G01*
X23657*
G75*
G02X23944Y6034I-305J-507*
G01*
X31718*
G37*
X43320D02*
G36*
G75*
G02X43227Y6352I500J318D01*
G01*
G75*
G02X43258Y6541I592*
G01*
X40656*
Y6034*
X43320*
G37*
X45524D02*
G36*
G75*
G02X45432Y6352I500J318D01*
G01*
G75*
G02X45463Y6541I592*
G01*
X44380*
G75*
G02X44411Y6352I-561J-190*
G01*
G75*
G02X44319Y6034I-592J0*
G01*
X45524*
G37*
X49130D02*
G36*
Y6541D01*
X46585*
G75*
G02X46616Y6352I-561J-190*
G01*
G75*
G02X46524Y6034I-592J0*
G01*
X49130*
G37*
X14962Y22375D02*
G36*
G75*
G02X15155Y22492I218J-142D01*
G01*
Y22391*
G75*
G03X15106Y22375I25J-158*
G01*
X15254*
G75*
G03X15205Y22391I-74J-142*
G01*
Y22492*
G75*
G02X15398Y22375I-25J-259*
G01*
X16727*
G75*
G02X16720Y22433I253J58*
G01*
G75*
G02X17240I260*
G01*
G75*
G02X17233Y22375I-260*
G01*
X31327*
G75*
G02X31580Y22693I253J58*
G01*
G75*
G02X31833Y22375J-260*
G01*
X36744*
X36739Y22380*
Y22952*
X36929Y23141*
X30748*
G75*
G02X30555Y23024I-218J142*
G01*
Y23125*
G75*
G03X30604Y23141I-25J158*
G01*
X30456*
G75*
G03X30505Y23125I74J142*
G01*
Y23024*
G75*
G02X30312Y23141I25J259*
G01*
X16505*
G75*
G02X16155I-175J192*
G01*
X15275*
G75*
G02X15085I-95J242*
G01*
X1630*
Y22375*
X14962*
G37*
X39716D02*
G36*
Y22388D01*
X40656*
Y22375*
X49130*
Y23141*
X37931*
X38121Y22952*
Y22380*
X38116Y22375*
X39716*
G37*
X2597Y15191D02*
G36*
G75*
G02X2830Y15253I233J-408D01*
G01*
G75*
G02X3063Y15191J-470*
G01*
X15112*
G75*
G02X15071Y15308I218J142*
G01*
X15172*
G75*
G03X15256Y15191I158J25*
G01*
X15404*
G75*
G03X15488Y15308I-74J142*
G01*
X15589*
G75*
G02X15548Y15191I-259J25*
G01*
X17554*
G75*
G02X17780Y15323I226J-128*
G01*
G75*
G02X18006Y15191J-260*
G01*
X18912*
G75*
G02Y15475I218J142*
G01*
X15548*
G75*
G02X15589Y15358I-218J-142*
G01*
X15488*
G75*
G03X15404Y15475I-158J-25*
G01*
X15256*
G75*
G03X15172Y15358I74J-142*
G01*
X15071*
G75*
G02X15112Y15475I259J-25*
G01*
X3185*
G75*
G02X2830Y15313I-355J308*
G01*
G75*
G02X2475Y15475J470*
G01*
X1630*
Y15191*
X2597*
G37*
X32824D02*
G36*
G75*
G02X32980Y15243I156J-208D01*
G01*
G75*
G02X33136Y15191J-260*
G01*
X36889*
Y15475*
X31666*
G75*
G02X31430Y15323I-236J108*
G01*
G75*
G02X31194Y15475J260*
G01*
X21340*
G75*
G02X21080Y15203I-260J-12*
G01*
G75*
G02X20820Y15475J260*
G01*
X19348*
G75*
G02Y15191I-218J-142*
G01*
X32824*
G37*
X42110D02*
G36*
G75*
G02X42298Y15231I214J-552D01*
G01*
Y15191*
X42348*
Y15231*
G75*
G02X42537Y15191I-25J-592*
G01*
X44354*
G75*
G02X44542Y15231I214J-552*
G01*
Y15191*
X44592*
Y15231*
G75*
G02X44781Y15191I-25J-592*
G01*
X46755*
G75*
G02X46944Y15231I214J-552*
G01*
Y15191*
X46994*
Y15231*
G75*
G02X47183Y15191I-25J-592*
G01*
X49130*
Y15475*
X38271*
Y15191*
X42110*
G37*
X16170Y21033D02*
G36*
G75*
G02X16255Y21225I260D01*
G01*
X1630*
Y21033*
X16170*
G37*
X21777D02*
G36*
G75*
G02X21438Y21225I3J400D01*
G01*
X16605*
G75*
G02X16690Y21033I-175J-192*
G01*
X21777*
G37*
X21783D02*
G36*
X26325D01*
G75*
G02X26362Y21225I255J50*
G01*
X22122*
G75*
G02X21783Y21033I-342J208*
G01*
G37*
X31475D02*
G36*
G75*
G02X31471Y21058I255J50D01*
G01*
X31572*
G75*
G03X31578Y21033I158J25*
G01*
X31882*
G75*
G03X31888Y21058I-152J50*
G01*
X31989*
G75*
G02X31985Y21033I-259J25*
G01*
X39716*
Y21225*
X31948*
G75*
G02X31989Y21108I-218J-142*
G01*
X31888*
G75*
G03X31804Y21225I-158J-25*
G01*
X31656*
G75*
G03X31572Y21108I74J-142*
G01*
X31471*
G75*
G02X31512Y21225I259J-25*
G01*
X26798*
G75*
G02X26835Y21033I-218J-142*
G01*
X31475*
G37*
X43283D02*
G36*
G75*
G02X43344Y21225I586J-81D01*
G01*
X42667*
G75*
G02X42398Y21148I-294J514*
G01*
Y21225*
X42348*
Y21148*
G75*
G02X42079Y21225I25J592*
G01*
X40656*
Y21033*
X43283*
G37*
X45488D02*
G36*
G75*
G02X45549Y21225I586J-81D01*
G01*
X44911*
G75*
G02X44642Y21148I-294J514*
G01*
Y21225*
X44592*
Y21148*
G75*
G02X44415Y21183I25J592*
G01*
G75*
G02X44456Y21033I-545J-231*
G01*
X45488*
G37*
X49130D02*
G36*
Y21225D01*
X47313*
G75*
G02X47044Y21148I-294J514*
G01*
Y21225*
X46994*
Y21148*
G75*
G02X46725Y21225I25J592*
G01*
X46599*
G75*
G02X46661Y21033I-525J-273*
G01*
X49130*
G37*
X11412Y19325D02*
G36*
G75*
G02X11848I218J-142D01*
G01*
X14170*
G75*
G02X14170Y19333I260J8*
G01*
G75*
G02X14430Y19593I260*
G01*
G75*
G02X14350Y19645I100J240*
G01*
X5360*
G75*
G02X5000I-180J188*
G01*
X1630*
Y19325*
X11412*
G37*
X16662D02*
G36*
G75*
G02X16855Y19442I218J-142D01*
G01*
Y19341*
G75*
G03X16806Y19325I25J-158*
G01*
X16954*
G75*
G03X16905Y19341I-74J-142*
G01*
Y19442*
G75*
G02X17098Y19325I-25J-259*
G01*
X21395*
G75*
G02X21381Y19408I385J108*
G01*
X21481*
G75*
G03X21500Y19325I299J25*
G01*
X22060*
G75*
G03X22079Y19408I-280J108*
G01*
X22179*
G75*
G02X22165Y19325I-399J25*
G01*
X25837*
G75*
G02X26055Y19492I243J-92*
G01*
Y19391*
G75*
G03X25949Y19325I25J-158*
G01*
X26211*
G75*
G03X26105Y19391I-131J-92*
G01*
Y19492*
G75*
G02X26323Y19325I-25J-259*
G01*
X36739*
Y19487*
X36898Y19645*
X28410*
G75*
G02X28230Y19573I-180J188*
G01*
G75*
G02X28050Y19645J260*
G01*
X22119*
G75*
G02X22179Y19458I-339J-212*
G01*
X22079*
G75*
G03X21992Y19645I-299J-25*
G01*
X21568*
G75*
G03X21481Y19458I212J-212*
G01*
X21381*
G75*
G02X21441Y19645I399J-25*
G01*
X17753*
G75*
G02X17307I-223J134*
G01*
X14710*
G75*
G02X14530Y19573I-180J188*
G01*
G75*
G02X14690Y19333I-100J-240*
G01*
G75*
G02X14690Y19325I-260J0*
G01*
X16662*
G37*
X45681D02*
G36*
G75*
G02X45664Y19418I243J92D01*
G01*
G75*
G02X45799Y19645I260*
G01*
X40656*
Y19479*
X39716*
Y19645*
X37962*
X38121Y19487*
Y19325*
X45681*
G37*
X46648D02*
G36*
G75*
G02X46564Y19517I176J192D01*
G01*
G75*
G02X46597Y19645I260*
G01*
X46049*
G75*
G02X46184Y19418I-125J-228*
G01*
G75*
G02X46167Y19325I-260J0*
G01*
X46648*
G37*
X49130D02*
G36*
Y19645D01*
X47050*
G75*
G02X47084Y19517I-226J-128*
G01*
G75*
G02X46999Y19325I-260*
G01*
X49130*
G37*
X3076Y12341D02*
G36*
G75*
G02X3684I304J-358D01*
G01*
X4076*
G75*
G02X4684I304J-358*
G01*
X5076*
G75*
G02X5684I304J-358*
G01*
X25912*
G75*
G02X25871Y12458I218J142*
G01*
X25972*
G75*
G03X26056Y12341I158J25*
G01*
X26204*
G75*
G03X26288Y12458I-74J142*
G01*
X26389*
G75*
G02X26348Y12341I-259J25*
G01*
X31199*
G75*
G02X31230Y12343I31J-258*
G01*
G75*
G02X31261Y12341J-260*
G01*
X36994*
X37278Y12625*
X26348*
G75*
G02X26389Y12508I-218J-142*
G01*
X26288*
G75*
G03X26204Y12625I-158J-25*
G01*
X26056*
G75*
G03X25972Y12508I74J-142*
G01*
X25871*
G75*
G02X25912Y12625I259J-25*
G01*
X1630*
Y12341*
X3076*
G37*
X39866D02*
G36*
Y12625D01*
X37882*
X38166Y12341*
X39866*
G37*
X45615D02*
G36*
G75*
G02X46133I259J-24D01*
G01*
X46365*
G75*
G02X46364Y12368I259J26*
G01*
G75*
G02X46589Y12625I260*
G01*
X40806*
Y12341*
X45615*
G37*
X48037D02*
G36*
G75*
G02X48020Y12433I243J92D01*
G01*
G75*
G02X48105Y12625I260*
G01*
X46659*
G75*
G02X46884Y12368I-35J-258*
G01*
G75*
G02X46883Y12341I-260J0*
G01*
X48037*
G37*
X49130D02*
G36*
Y12625D01*
X48455*
G75*
G02X48540Y12433I-175J-192*
G01*
G75*
G02X48523Y12341I-260*
G01*
X49130*
G37*
X1630Y4741D02*
G36*
Y4325D01*
X13112*
G75*
G02X13108Y4741I553J213*
G01*
X1630*
G37*
X13108D02*
G36*
G75*
G02X13328Y5025I556J-203D01*
G01*
X1630*
Y4741*
X13108*
G37*
X14220D02*
G36*
G75*
G02X14221Y4335I-556J-203D01*
G01*
G75*
G02X14452Y4382I231J-545*
G01*
G75*
G02X14705Y4325J-592*
G01*
X22012*
G75*
G02X22008Y4741I553J213*
G01*
X14220*
G37*
X22008D02*
G36*
G75*
G02X22228Y5025I556J-203D01*
G01*
X14001*
G75*
G02X14220Y4741I-337J-487*
G01*
X22008*
G37*
X23120D02*
G36*
G75*
G02X23121Y4335I-556J-203D01*
G01*
G75*
G02X23352Y4382I231J-545*
G01*
G75*
G02X23605Y4325J-592*
G01*
X30662*
G75*
G02X30855Y4442I218J-142*
G01*
Y4341*
G75*
G03X30806Y4325I25J-158*
G01*
X30954*
G75*
G03X30905Y4341I-74J-142*
G01*
Y4442*
G75*
G02X31021Y4402I-25J-259*
G01*
G75*
G02X31280Y4643I259J-19*
G01*
G75*
G02X31533Y4325J-260*
G01*
X36779*
X36739Y4365*
Y4741*
X26448*
G75*
G02X26255Y4624I-218J142*
G01*
Y4725*
G75*
G03X26304Y4741I-25J158*
G01*
X26156*
G75*
G03X26205Y4725I74J142*
G01*
Y4624*
G75*
G02X26012Y4741I25J259*
G01*
X23120*
G37*
X26012D02*
G36*
G75*
G02X25971Y4858I218J142D01*
G01*
X26072*
G75*
G03X26156Y4741I158J25*
G01*
X26304*
G75*
G03X26388Y4858I-74J142*
G01*
X26489*
G75*
G02X26448Y4741I-259J25*
G01*
X36739*
Y4937*
X36828Y5025*
X26448*
G75*
G02X26489Y4908I-218J-142*
G01*
X26388*
G75*
G03X26304Y5025I-158J-25*
G01*
X26156*
G75*
G03X26072Y4908I74J-142*
G01*
X25971*
G75*
G02X26012Y5025I259J-25*
G01*
X22901*
G75*
G02X23120Y4741I-337J-487*
G01*
X26012*
G37*
X38121D02*
G36*
Y4365D01*
X38081Y4325*
X49130*
Y4741*
X46065*
G75*
G02X45683I-191J176*
G01*
X38121*
G37*
X45683D02*
G36*
G75*
G02X45614Y4918I191J176D01*
G01*
G75*
G02X45637Y5025I260J0*
G01*
X40656*
Y4929*
X39716*
Y5025*
X38032*
X38121Y4937*
Y4741*
X45683*
G37*
X49130D02*
G36*
Y5025D01*
X46111*
G75*
G02X46134Y4918I-237J-108*
G01*
G75*
G02X46065Y4741I-260*
G01*
X49130*
G37*
X13328Y5025D02*
G36*
G75*
G02X13664Y5130I337J-487D01*
G01*
G75*
G02X14001Y5025J-592*
G01*
X22228*
G75*
G02X22564Y5130I337J-487*
G01*
G75*
G02X22901Y5025J-592*
G01*
X26012*
G75*
G02X26205Y5142I218J-142*
G01*
Y5041*
G75*
G03X26156Y5025I25J-158*
G01*
X26304*
G75*
G03X26255Y5041I-74J-142*
G01*
Y5142*
G75*
G02X26448Y5025I-25J-259*
G01*
X36828*
X37144Y5342*
X37716*
X38032Y5025*
X39716*
Y5433*
X28690*
G75*
G02X28430Y5173I-260*
G01*
G75*
G02X28170Y5433J260*
G01*
X20284*
Y5269*
X19344*
Y5433*
X19300*
Y5269*
X18360*
Y5433*
X18316*
Y5269*
X17376*
Y5433*
X1630*
Y5025*
X13328*
G37*
X45637D02*
G36*
G75*
G02X46111I237J-108D01*
G01*
X49130*
Y5433*
X47140*
G75*
G02X46620I-260*
G01*
X40656*
Y5025*
X45637*
G37*
X2694Y14233D02*
G36*
G75*
G02X2830Y14253I136J-450D01*
G01*
G75*
G02X2966Y14233J-470*
G01*
X18191*
G75*
G02X18330Y14273I139J-220*
G01*
G75*
G02X18469Y14233J-260*
G01*
X26420*
G75*
G02X26505Y14425I260*
G01*
X24911*
G75*
G02X24849I-31J258*
G01*
X18000*
G75*
G02X17780Y14303I-220J138*
G01*
G75*
G02X17560Y14425J260*
G01*
X9266*
G75*
G02X8794I-236J108*
G01*
X3134*
G75*
G02X2830Y14313I-304J358*
G01*
G75*
G02X2526Y14425J470*
G01*
X1630*
Y14233*
X2694*
G37*
X31225D02*
G36*
G75*
G02X31221Y14258I255J50D01*
G01*
X31322*
G75*
G03X31328Y14233I158J25*
G01*
X31632*
G75*
G03X31638Y14258I-152J50*
G01*
X31739*
G75*
G02X31735Y14233I-259J25*
G01*
X39866*
Y14425*
X31698*
G75*
G02X31739Y14308I-218J-142*
G01*
X31638*
G75*
G03X31554Y14425I-158J-25*
G01*
X31406*
G75*
G03X31322Y14308I74J-142*
G01*
X31221*
G75*
G02X31262Y14425I259J-25*
G01*
X26855*
G75*
G02X26940Y14233I-175J-192*
G01*
X31225*
G37*
X41892D02*
G36*
G75*
G02X41771Y14425I431J406D01*
G01*
X40806*
Y14233*
X41892*
G37*
X42602D02*
G36*
G75*
G03X42766Y14425I-278J406D01*
G01*
X41880*
G75*
G03X42045Y14233I443J214*
G01*
X42602*
G37*
X43367D02*
G36*
G75*
G02X43672Y14425I453J-381D01*
G01*
X42875*
G75*
G02X42754Y14233I-552J214*
G01*
X43367*
G37*
X44846D02*
G36*
G75*
G03X45011Y14425I-278J406D01*
G01*
X44124*
G75*
G03X44289Y14233I443J214*
G01*
X44846*
G37*
X45571D02*
G36*
G75*
G02X45876Y14425I453J-381D01*
G01*
X45120*
G75*
G02X44999Y14233I-552J214*
G01*
X45571*
G37*
X46538D02*
G36*
G75*
G02X46417Y14425I431J406D01*
G01*
X46172*
G75*
G02X46477Y14233I-148J-573*
G01*
X46538*
G37*
X47247D02*
G36*
G75*
G03X47412Y14425I-278J406D01*
G01*
X46526*
G75*
G03X46691Y14233I443J214*
G01*
X47247*
G37*
X49130D02*
G36*
Y14425D01*
X47521*
G75*
G02X47400Y14233I-552J214*
G01*
X49130*
G37*
X1630Y6683D02*
G36*
Y6541D01*
X14146*
G75*
G02X14452Y6626I305J-507*
G01*
G75*
G02X14757Y6541J-592*
G01*
X23046*
G75*
G02X23352Y6626I305J-507*
G01*
G75*
G02X23657Y6541J-592*
G01*
X26562*
G75*
G02X26520Y6683I218J142*
G01*
X1630*
G37*
X26520D02*
G36*
G75*
G02X26562Y6825I260D01*
G01*
X1630*
Y6683*
X26520*
G37*
X27040D02*
G36*
G75*
G02X26998Y6541I-260D01*
G01*
X31412*
G75*
G02X31371Y6658I218J142*
G01*
X31472*
G75*
G03X31556Y6541I158J25*
G01*
X31704*
G75*
G03X31788Y6658I-74J142*
G01*
X31889*
G75*
G02X31848Y6541I-259J25*
G01*
X39716*
Y6683*
X27040*
G37*
X39716D02*
G36*
Y6825D01*
X31848*
G75*
G02X31889Y6708I-218J-142*
G01*
X31788*
G75*
G03X31704Y6825I-158J-25*
G01*
X31556*
G75*
G03X31472Y6708I74J-142*
G01*
X31371*
G75*
G02X31412Y6825I259J-25*
G01*
X26998*
G75*
G02X27040Y6683I-218J-142*
G01*
X39716*
G37*
X40656D02*
G36*
Y6541D01*
X43258*
G75*
G02X43329Y6683I561J-190*
G01*
X42701*
G75*
G02X42348Y6548I-378J456*
G01*
Y6648*
G75*
G03X42509Y6683I-25J491*
G01*
X42138*
G75*
G03X42298Y6648I185J456*
G01*
Y6548*
G75*
G02X41945Y6683I25J592*
G01*
X40656*
G37*
X41945D02*
G36*
G75*
G02X41821Y6825I378J456D01*
G01*
X40656*
Y6683*
X41945*
G37*
X42509D02*
G36*
G75*
G03X42702Y6825I-185J456D01*
G01*
X41944*
G75*
G03X42138Y6683I379J314*
G01*
X42509*
G37*
X43329D02*
G36*
G75*
G02X43464Y6825I491J-331D01*
G01*
X42825*
G75*
G02X42701Y6683I-502J314*
G01*
X43329*
G37*
X44382D02*
G36*
G75*
G03X44542Y6648I185J456D01*
G01*
Y6548*
G75*
G02X44365Y6583I25J592*
G01*
G75*
G02X44380Y6541I-545J-231*
G01*
X45463*
G75*
G02X45533Y6683I561J-190*
G01*
X44945*
G75*
G02X44592Y6548I-378J456*
G01*
Y6648*
G75*
G03X44753Y6683I-25J491*
G01*
X44382*
G37*
X44753D02*
G36*
G75*
G03X44946Y6825I-185J456D01*
G01*
X44188*
G75*
G03X44382Y6683I379J314*
G01*
X44753*
G37*
X45533D02*
G36*
G75*
G02X45668Y6825I491J-331D01*
G01*
X45069*
G75*
G02X44945Y6683I-502J314*
G01*
X45533*
G37*
X46515D02*
G36*
G75*
G02X46585Y6541I-491J-331D01*
G01*
X49130*
Y6683*
X47347*
G75*
G02X46994Y6548I-378J456*
G01*
Y6648*
G75*
G03X47154Y6683I-25J491*
G01*
X46784*
G75*
G03X46944Y6648I185J456*
G01*
Y6548*
G75*
G02X46591Y6683I25J592*
G01*
X46515*
G37*
X46591D02*
G36*
G75*
G02X46467Y6825I378J456D01*
G01*
X46380*
G75*
G02X46515Y6683I-356J-473*
G01*
X46591*
G37*
X47154D02*
G36*
G75*
G03X47348Y6825I-185J456D01*
G01*
X46590*
G75*
G03X46784Y6683I379J314*
G01*
X47154*
G37*
X49130D02*
G36*
Y6825D01*
X47471*
G75*
G02X47347Y6683I-502J314*
G01*
X49130*
G37*
X1630Y25337D02*
G36*
Y24733D01*
X31320*
G75*
G02X31840I260*
G01*
X34770*
G75*
G02X35290I260*
G01*
X49130*
Y25337*
X30798*
G75*
G02X30605Y25220I-218J142*
G01*
Y25321*
G75*
G03X30654Y25337I-25J158*
G01*
X30506*
G75*
G03X30555Y25321I74J142*
G01*
Y25220*
G75*
G02X30362Y25337I25J259*
G01*
X9116*
G75*
G02X8830Y25253I-286J446*
G01*
G75*
G02X8544Y25337J530*
G01*
X1630*
G37*
X8544D02*
G36*
G75*
G02X8326Y25621I286J446D01*
G01*
X1630*
Y25337*
X8544*
G37*
X30362D02*
G36*
G75*
G02X30321Y25454I218J142D01*
G01*
X30422*
G75*
G03X30506Y25337I158J25*
G01*
X30654*
G75*
G03X30738Y25454I-74J142*
G01*
X30839*
G75*
G02X30798Y25337I-259J25*
G01*
X49130*
Y25621*
X37776*
X37616Y25460*
X37044*
X36884Y25621*
X31130*
G75*
G02X30980Y25573I-150J212*
G01*
G75*
G02X30830Y25621J260*
G01*
X30798*
G75*
G02X30839Y25504I-218J-142*
G01*
X30738*
G75*
G03X30654Y25621I-158J-25*
G01*
X30506*
G75*
G03X30422Y25504I74J-142*
G01*
X30321*
G75*
G02X30362Y25621I259J-25*
G01*
X9334*
G75*
G02X9116Y25337I-504J162*
G01*
X30362*
G37*
X30412Y8591D02*
G36*
G75*
G02X30371Y8708I218J142D01*
G01*
X30472*
G75*
G03X30556Y8591I158J25*
G01*
X30704*
G75*
G03X30788Y8708I-74J142*
G01*
X30889*
G75*
G02X30848Y8591I-259J25*
G01*
X36929*
X37144Y8806*
X37716*
X37931Y8591*
X49130*
Y8875*
X30848*
G75*
G02X30889Y8758I-218J-142*
G01*
X30788*
G75*
G03X30704Y8875I-158J-25*
G01*
X30556*
G75*
G03X30472Y8758I74J-142*
G01*
X30371*
G75*
G02X30412Y8875I259J-25*
G01*
X8795*
G75*
G02X8714Y8769I-430J243*
G01*
G75*
G02X7936Y8875I-349J349*
G01*
X1630*
Y8591*
X30412*
G37*
X3220Y11541D02*
G36*
G75*
G02X2937Y11825I160J442D01*
G01*
X1630*
Y11541*
X3220*
G37*
X4220D02*
G36*
G75*
G02X3937Y11825I160J442D01*
G01*
X3823*
G75*
G02X3540Y11541I-443J158*
G01*
X4220*
G37*
X5220D02*
G36*
G75*
G02X4937Y11825I160J442D01*
G01*
X4823*
G75*
G02X4540Y11541I-443J158*
G01*
X5220*
G37*
X30412D02*
G36*
G75*
G02X30371Y11658I218J142D01*
G01*
X30472*
G75*
G03X30556Y11541I158J25*
G01*
X30704*
G75*
G03X30788Y11658I-74J142*
G01*
X30889*
G75*
G02X30848Y11541I-259J25*
G01*
X37013*
X36889Y11665*
Y11825*
X31261*
G75*
G02X31230Y11823I-31J258*
G01*
G75*
G02X31199Y11825J260*
G01*
X30848*
G75*
G02X30889Y11708I-218J-142*
G01*
X30788*
G75*
G03X30704Y11825I-158J-25*
G01*
X30556*
G75*
G03X30472Y11708I74J-142*
G01*
X30371*
G75*
G02X30412Y11825I259J-25*
G01*
X17916*
G75*
G02X17444I-236J108*
G01*
X14616*
G75*
G02X14144I-236J108*
G01*
X5823*
G75*
G02X5540Y11541I-443J158*
G01*
X30412*
G37*
X48224D02*
G36*
G75*
G02X48636I206J-158D01*
G01*
X49130*
Y11825*
X38271*
Y11665*
X38147Y11541*
X48224*
G37*
X1630Y4041D02*
G36*
Y2818D01*
X2600*
X2635Y2853*
X3025*
X3060Y2818*
X3600*
X3635Y2853*
X4025*
X4060Y2818*
X4600*
X4635Y2853*
X5025*
X5060Y2818*
X5600*
X5635Y2853*
X6025*
X6060Y2818*
X6600*
X6635Y2853*
X7025*
X7060Y2818*
X7600*
X7635Y2853*
X8025*
X8060Y2818*
X8600*
X8635Y2853*
X9025*
X9060Y2818*
X9600*
X9635Y2853*
X10025*
X10060Y2818*
X10600*
X10635Y2853*
X11025*
X11060Y2818*
X11600*
X11635Y2853*
X12025*
X12060Y2818*
X13324*
G75*
G02X13664Y2925I341J-484*
G01*
G75*
G02X14005Y2818J-592*
G01*
X16407*
Y3269*
X16812Y3674*
X17384*
X17788Y3269*
Y2818*
X19872*
Y3269*
X20276Y3674*
X20848*
X21253Y3269*
Y2818*
X22224*
G75*
G02X22564Y2925I341J-484*
G01*
G75*
G02X22905Y2818J-592*
G01*
X45064*
G75*
G02X45584I260*
G01*
X49130*
Y4041*
X37797*
X37716Y3960*
X37144*
X37063Y4041*
X31098*
G75*
G02X30905Y3924I-218J142*
G01*
Y4025*
G75*
G03X30954Y4041I-25J158*
G01*
X30806*
G75*
G03X30855Y4025I74J142*
G01*
Y3924*
G75*
G02X30662Y4041I25J259*
G01*
X23888*
G75*
G02X23352Y3198I-536J-251*
G01*
G75*
G02X22795Y3993J592*
G01*
G75*
G02X22564Y3946I-231J545*
G01*
G75*
G02X22242Y4041J592*
G01*
X14988*
G75*
G02X14452Y3198I-536J-251*
G01*
G75*
G02X13895Y3993J592*
G01*
G75*
G02X13664Y3946I-231J545*
G01*
G75*
G02X13342Y4041J592*
G01*
X1630*
G37*
X5154Y28783D02*
G36*
G75*
G02X5143Y28908I938J150D01*
G01*
X5243*
G75*
G03X5256Y28783I850J25*
G01*
X6929*
G75*
G03X6942Y28908I-837J150*
G01*
X7042*
G75*
G02X7031Y28783I-950J25*
G01*
X10624*
G75*
G02X11009Y29097I606J-350*
G01*
X7028*
G75*
G02X7042Y28958I-936J-165*
G01*
X6942*
G75*
G03X6927Y29097I-850J-25*
G01*
X5259*
G75*
G03X5243Y28958I834J-165*
G01*
X5143*
G75*
G02X5157Y29097I950J-25*
G01*
X1630*
Y28783*
X5154*
G37*
X32320D02*
G36*
G75*
G02X32580Y29043I260D01*
G01*
G75*
G02X32840Y28783J-260*
G01*
X34075*
G75*
G02X34330Y29093I255J50*
G01*
G75*
G02X34585Y28783J-260*
G01*
X39616*
Y29097*
X37789*
X37616Y28925*
X37044*
X36871Y29097*
X11451*
G75*
G02X11836Y28783I-221J-664*
G01*
X32320*
G37*
X49130D02*
G36*
Y29097D01*
X47425*
G75*
G02X47511Y28814I-506J-308*
G01*
X47410*
G75*
G03X47303Y29097I-491J-25*
G01*
X46535*
G75*
G03X46427Y28814I384J-308*
G01*
X46327*
G75*
G02X46413Y29097I592J-25*
G01*
X45023*
G75*
G02X45109Y28814I-506J-308*
G01*
X45009*
G75*
G03X44901Y29097I-491J-25*
G01*
X44134*
G75*
G03X44026Y28814I384J-308*
G01*
X43926*
G75*
G02X44012Y29097I592J-25*
G01*
X42779*
G75*
G02X42865Y28814I-506J-308*
G01*
X42765*
G75*
G03X42657Y29097I-491J-25*
G01*
X41890*
G75*
G03X41782Y28814I384J-308*
G01*
X41682*
G75*
G02X41768Y29097I592J-25*
G01*
X40556*
Y28783*
X49130*
G37*
X0Y0D02*
M02*
