%FSLAX24Y24*%
%MOIN*%
G04 EasyPC Gerber Version 16.0.4 Build 3240 *
%AMT23*0 Octagon Pad at angle 0*4,1,8,-0.01656,-0.04000,0.01656,-0.04000,0.04000,-0.01656,0.04000,0.01656,0.01656,0.04000,-0.01656,0.04000,-0.04000,0.01656,-0.04000,-0.01656,-0.01656,-0.04000,0*%
%ADD23T23*%
%ADD106R,0.01500X0.06400*%
%ADD110R,0.03750X0.05324*%
%ADD117R,0.03946X0.04143*%
%ADD107R,0.04537X0.04931*%
%ADD119R,0.06899X0.07687*%
%ADD113R,0.08200X0.21600*%
%ADD120R,0.13100X0.13100*%
%ADD111R,0.03750X0.03750*%
%ADD73R,0.08000X0.08000*%
%ADD78C,0.00500*%
%ADD76C,0.03800*%
%ADD29C,0.05600*%
%ADD25C,0.06600*%
%ADD24C,0.07600*%
%ADD22C,0.08000*%
%ADD75C,0.08474*%
%ADD28C,0.09200*%
%ADD72C,0.10443*%
%ADD27C,0.12600*%
%ADD26C,0.17600*%
%AMT74*0 Octagon Pad at angle 0*4,1,8,-0.02570,-0.06206,0.02570,-0.06206,0.06206,-0.02570,0.06206,0.02570,0.02570,0.06206,-0.02570,0.06206,-0.06206,0.02570,-0.06206,-0.02570,-0.02570,-0.06206,0*%
%ADD74T74*%
%ADD105R,0.06400X0.01500*%
%ADD115R,0.10443X0.02569*%
%ADD114R,0.08400X0.02800*%
%AMT112*0 Rectangle Pad at angle 45*21,1,0.03750,0.05324,0,0,45*%
%ADD112T112*%
%ADD109R,0.05324X0.03750*%
%ADD118R,0.04143X0.03946*%
%ADD108R,0.04931X0.04537*%
%ADD116R,0.10443X0.08474*%
X0Y0D02*
D02*
D22*
X2830Y13783D03*
Y14783D03*
Y15783D03*
Y16783D03*
Y17783D03*
Y18783D03*
X3380Y11983D03*
X4380D03*
X5380D03*
D02*
D23*
X2830Y1383D03*
Y2383D03*
X3830Y1383D03*
Y2383D03*
X4830Y1383D03*
Y2383D03*
X5830Y1383D03*
Y2383D03*
X6830Y1383D03*
Y2383D03*
X7830Y1383D03*
Y2383D03*
X8830Y1383D03*
Y2383D03*
X9830Y1383D03*
Y2383D03*
X10830Y1383D03*
Y2383D03*
X11830Y1383D03*
Y2383D03*
D02*
D24*
X2430Y7723D03*
Y10282D03*
X4202Y7723D03*
Y10282D03*
D02*
D25*
X20330Y26333D03*
X21780Y19433D03*
Y21433D03*
X22330Y26333D03*
D02*
D26*
X4911Y30783D03*
X6093Y28933D03*
X7274Y30783D03*
D02*
D27*
X11230Y26583D03*
Y28433D03*
Y30283D03*
D02*
D28*
X8830Y25783D03*
Y30783D03*
D02*
D29*
X4080Y22017D03*
Y23749D03*
D02*
D72*
X13664Y2333D03*
Y4538D03*
X14452Y1388D03*
Y3790D03*
Y6034D03*
X22564Y2333D03*
Y4538D03*
X23352Y1388D03*
Y3790D03*
Y6034D03*
X42273Y28789D03*
X42323Y7139D03*
Y14639D03*
X42373Y21739D03*
X43769Y28002D03*
X43819Y6352D03*
Y13852D03*
X43869Y20952D03*
X44517Y28789D03*
X44567Y7139D03*
Y14639D03*
X44617Y21739D03*
X45974Y28002D03*
X46024Y6352D03*
Y13852D03*
X46074Y20952D03*
X46919Y28789D03*
X46969Y7139D03*
Y14639D03*
X47019Y21739D03*
D02*
D73*
X17846Y5739D03*
X18830D03*
X19814D03*
X40086Y26899D03*
Y27883D03*
Y28868D03*
X40186Y5399D03*
Y6383D03*
Y7368D03*
Y19949D03*
Y20933D03*
Y21918D03*
X40336Y12699D03*
Y13683D03*
Y14668D03*
D02*
D74*
X17098Y2983D03*
X20562D03*
X37330Y26151D03*
Y29616D03*
X37430Y4651D03*
Y8116D03*
Y19201D03*
Y22666D03*
X37580Y11951D03*
Y15416D03*
D02*
D75*
X6695Y7448D03*
X8365Y9118D03*
D02*
D76*
X3680Y27283D03*
Y28283D03*
X4430Y16033D03*
Y17033D03*
X4680Y27283D03*
Y28283D03*
X5180Y19833D03*
X5980Y23533D03*
X6130Y20583D03*
X6430Y24283D03*
X7030Y18033D03*
X7230Y20683D03*
X7430Y14883D03*
X7730Y18483D03*
X7780Y21833D03*
X9030Y14533D03*
Y18833D03*
X9330Y17833D03*
X9530Y18683D03*
X9680Y17383D03*
X10130Y23883D03*
X10230Y17283D03*
X10280Y16733D03*
X10580Y17583D03*
X10780Y23883D03*
X11030Y17983D03*
X11280Y13233D03*
X11330Y17033D03*
X11630Y19183D03*
X12030Y23933D03*
X12080Y13233D03*
Y17483D03*
X12330Y20633D03*
X12530Y17883D03*
X12630Y20333D03*
X12780Y16933D03*
X12830Y16383D03*
X12930Y23933D03*
X12980Y20633D03*
X13430D03*
X13730Y17733D03*
X13880Y20633D03*
X14280Y26283D03*
Y27883D03*
X14380Y9533D03*
Y10333D03*
Y11133D03*
Y11933D03*
X14430Y19333D03*
X14530Y19833D03*
X15180Y22233D03*
Y23383D03*
X15330Y15333D03*
X15780Y16783D03*
Y18183D03*
X15830Y20383D03*
X16230Y16783D03*
Y17583D03*
X16330Y23333D03*
X16430Y21033D03*
X16630Y16083D03*
Y17183D03*
X16880Y19183D03*
Y19933D03*
X16980Y17833D03*
Y22433D03*
X17330Y30433D03*
X17530Y19779D03*
X17680Y9533D03*
Y10333D03*
Y11133D03*
Y11933D03*
X17780Y14563D03*
Y15063D03*
Y16063D03*
X18230Y23983D03*
X18330Y14013D03*
Y18163D03*
X18680Y30083D03*
X18930Y2133D03*
X19130Y15333D03*
X19180Y16613D03*
X20680Y18383D03*
X21080Y15463D03*
Y16563D03*
X21280Y30433D03*
X21830Y13763D03*
X22280Y16263D03*
Y17333D03*
X23280Y30233D03*
X24880Y14683D03*
X25480Y17883D03*
X26080Y19233D03*
X26130Y12483D03*
Y26233D03*
X26230Y4883D03*
X26580Y21083D03*
X26680Y14233D03*
Y28033D03*
X26780Y6683D03*
X28230Y13033D03*
Y19833D03*
X28280Y26829D03*
X28430Y5433D03*
X30380Y16483D03*
X30430Y30233D03*
X30530Y23283D03*
X30580Y25479D03*
X30626Y18433D03*
X30630Y8733D03*
Y11683D03*
X30880Y4183D03*
X30980Y25833D03*
X31130Y18633D03*
X31230Y12083D03*
X31280Y4383D03*
X31430Y15583D03*
Y29433D03*
X31480Y14283D03*
Y28083D03*
X31580Y22433D03*
Y24733D03*
Y27283D03*
X31630Y6683D03*
X31680Y8033D03*
X31730Y13583D03*
Y20383D03*
Y21083D03*
X31930Y5883D03*
X32580Y28783D03*
X32930Y21783D03*
X32980Y14983D03*
X33180Y7433D03*
X34330Y28833D03*
X34480Y14783D03*
X34530Y21883D03*
X34730Y7633D03*
X35030Y24733D03*
X44830Y31433D03*
X45030Y29783D03*
Y30183D03*
Y30583D03*
Y30983D03*
X45324Y2818D03*
X45580Y24333D03*
X45591Y9870D03*
X45630Y17183D03*
X45739Y26518D03*
X45874Y4918D03*
Y12318D03*
X45924Y19418D03*
X46135Y10088D03*
X46230Y24283D03*
X46330Y17183D03*
X46624Y12368D03*
X46689Y26468D03*
X46824Y19517D03*
X46880Y5433D03*
X47274Y2468D03*
X48280Y12433D03*
X48430Y11383D03*
D02*
D78*
X1630Y283D02*
X49130D01*
Y32783*
X1630*
Y283*
D02*
D105*
X8380Y16323D03*
Y16483D03*
Y16643D03*
Y16803D03*
Y16953D03*
Y17113D03*
Y17273D03*
Y17433D03*
Y17583D03*
Y17743D03*
Y17903D03*
Y18063D03*
Y18213D03*
Y18373D03*
Y18533D03*
Y18693D03*
Y18843D03*
Y19003D03*
Y19163D03*
Y19323D03*
Y19473D03*
Y19633D03*
Y19793D03*
Y19953D03*
Y20103D03*
Y20263D03*
Y20423D03*
Y20583D03*
Y20733D03*
Y20893D03*
Y21053D03*
Y21213D03*
Y21363D03*
Y21523D03*
Y21683D03*
Y21843D03*
X15180Y16323D03*
Y16483D03*
Y16643D03*
Y16803D03*
Y16953D03*
Y17113D03*
Y17273D03*
Y17433D03*
Y17583D03*
Y17743D03*
Y17903D03*
Y18063D03*
Y18213D03*
Y18373D03*
Y18533D03*
Y18693D03*
Y18843D03*
Y19003D03*
Y19163D03*
Y19323D03*
Y19473D03*
Y19633D03*
Y19793D03*
Y19953D03*
Y20103D03*
Y20263D03*
Y20423D03*
Y20583D03*
Y20733D03*
Y20893D03*
Y21053D03*
Y21213D03*
Y21363D03*
Y21523D03*
Y21683D03*
Y21843D03*
D02*
D106*
X9020Y15683D03*
Y22483D03*
X9180Y15683D03*
Y22483D03*
X9340Y15683D03*
Y22483D03*
X9500Y15683D03*
Y22483D03*
X9650Y15683D03*
Y22483D03*
X9810Y15683D03*
Y22483D03*
X9970Y15683D03*
Y22483D03*
X10130Y15683D03*
Y22483D03*
X10280Y15683D03*
Y22483D03*
X10440Y15683D03*
Y22483D03*
X10600Y15683D03*
Y22483D03*
X10760Y15683D03*
Y22483D03*
X10910Y15683D03*
Y22483D03*
X11070Y15683D03*
Y22483D03*
X11230Y15683D03*
Y22483D03*
X11390Y15683D03*
Y22483D03*
X11540Y15683D03*
Y22483D03*
X11700Y15683D03*
Y22483D03*
X11860Y15683D03*
Y22483D03*
X12020Y15683D03*
Y22483D03*
X12170Y15683D03*
Y22483D03*
X12330Y15683D03*
Y22483D03*
X12490Y15683D03*
Y22483D03*
X12650Y15683D03*
Y22483D03*
X12800Y15683D03*
Y22483D03*
X12960Y15683D03*
Y22483D03*
X13120Y15683D03*
Y22483D03*
X13280Y15683D03*
Y22483D03*
X13430Y15683D03*
Y22483D03*
X13590Y15683D03*
Y22483D03*
X13750Y15683D03*
Y22483D03*
X13910Y15683D03*
Y22483D03*
X14060Y15683D03*
Y22483D03*
X14220Y15683D03*
Y22483D03*
X14380Y15683D03*
Y22483D03*
X14540Y15683D03*
Y22483D03*
D02*
D107*
X3680Y25549D03*
Y26218D03*
X4430Y14699D03*
Y15368D03*
Y17699D03*
Y18368D03*
X6630Y20199D03*
Y20868D03*
X7180Y19299D03*
Y19968D03*
X7430Y13649D03*
Y14318D03*
X7730Y19999D03*
Y20668D03*
X16130Y15349D03*
Y16018D03*
X16330Y19199D03*
Y19868D03*
X17430Y27199D03*
Y27868D03*
X20030Y29049D03*
Y29718D03*
X20880Y29049D03*
Y29718D03*
X21680Y16179D03*
Y16848D03*
X21780Y29049D03*
Y29718D03*
X27080Y20349D03*
Y21018D03*
X27130Y13549D03*
Y14218D03*
X27180Y27294D03*
Y27964D03*
X27280Y5949D03*
Y6618D03*
X27680Y19099D03*
Y19768D03*
X27730Y12349D03*
Y13018D03*
X27830Y26094D03*
Y26764D03*
X27930Y4749D03*
Y5418D03*
X43324Y3583D03*
Y4252D03*
Y10933D03*
Y11602D03*
X43374Y17983D03*
Y18652D03*
X43474Y25083D03*
Y25752D03*
D02*
D108*
X8345Y15033D03*
X9015D03*
X10145Y23333D03*
X10815D03*
X11345Y13783D03*
X12015D03*
X12145Y23333D03*
X12815D03*
X13045Y25833D03*
Y26683D03*
Y27483D03*
X13395Y23333D03*
X13715Y25833D03*
Y26683D03*
Y27483D03*
X14065Y23333D03*
X23511Y16333D03*
Y17683D03*
X23595Y22833D03*
Y23533D03*
X24180Y16333D03*
Y17683D03*
X24265Y22833D03*
Y23533D03*
X29391Y18433D03*
X29395Y11683D03*
Y25479D03*
X29595Y4183D03*
X30060Y18433D03*
X30065Y11683D03*
Y25479D03*
X30265Y4183D03*
X30945Y30233D03*
X30995Y16483D03*
X31095Y23283D03*
X31195Y8733D03*
X31615Y30233D03*
X31665Y16483D03*
X31695Y13033D03*
Y26833D03*
X31745Y19833D03*
X31765Y23283D03*
X31865Y8733D03*
X31895Y5433D03*
Y29483D03*
X31945Y15633D03*
X32095Y14283D03*
X32145Y6683D03*
X32195Y8033D03*
Y22533D03*
Y28083D03*
X32295Y21088D03*
X32365Y13033D03*
Y26833D03*
X32415Y19833D03*
X32565Y5433D03*
Y29483D03*
X32615Y15633D03*
X32765Y14283D03*
X32815Y6683D03*
X32865Y8033D03*
Y22533D03*
Y28083D03*
X32965Y21088D03*
X43055Y26518D03*
X43089Y19417D03*
X43089Y4918D03*
X43139Y12318D03*
X43724Y26518D03*
X43758Y19417D03*
X43759Y4918D03*
X43809Y12318D03*
X44945Y4183D03*
X45045Y11533D03*
X45095Y18633D03*
X45105Y25768D03*
X45615Y4183D03*
X45715Y11533D03*
X45765Y18633D03*
X45774Y25768D03*
D02*
D109*
X4680Y25479D03*
Y26188D03*
X10580Y13029D03*
Y13738D03*
X11430Y23579D03*
Y24288D03*
X16230Y1429D03*
Y2138D03*
X17530Y18575D03*
Y19283D03*
X17580Y16959D03*
Y17668D03*
X18230Y24579D03*
Y25288D03*
Y25829D03*
Y26538D03*
X18680Y27279D03*
Y27988D03*
Y28529D03*
Y29238D03*
X21480Y1429D03*
Y2138D03*
X22680Y29029D03*
Y29738D03*
X24230Y27529D03*
Y28238D03*
X26080Y19729D03*
Y20438D03*
Y20979D03*
Y21688D03*
X26130Y12979D03*
Y13688D03*
Y14179D03*
Y14888D03*
Y26729D03*
Y27438D03*
Y28029D03*
Y28738D03*
X26230Y5429D03*
Y6138D03*
Y6579D03*
Y7288D03*
X27380Y21979D03*
Y22688D03*
X27430Y28979D03*
Y29688D03*
X27530Y15179D03*
Y15888D03*
X27580Y7579D03*
Y8288D03*
X33230Y28779D03*
Y29488D03*
X33330Y26929D03*
Y27638D03*
X33430Y19729D03*
Y20438D03*
X33480Y12879D03*
Y13588D03*
X33580Y14979D03*
Y15688D03*
Y21829D03*
Y22538D03*
X33680Y5379D03*
Y6088D03*
X33780Y7379D03*
Y8088D03*
X44174Y3563D03*
Y4272D03*
X44224Y10913D03*
Y11622D03*
X44274Y18013D03*
Y18722D03*
Y25063D03*
Y25772D03*
D02*
D110*
X13026Y28283D03*
X13734D03*
X15276Y7083D03*
X15984D03*
X16276Y18533D03*
X16376Y9533D03*
Y10333D03*
Y11133D03*
Y11933D03*
X16984Y18533D03*
X17026Y7083D03*
X17084Y9533D03*
Y10333D03*
Y11133D03*
Y11933D03*
X17734Y7083D03*
X18476Y13263D03*
X18826Y18713D03*
X19184Y13263D03*
X19534Y18713D03*
X19726Y13813D03*
X20434D03*
X21026Y17533D03*
X21734D03*
X22276Y13013D03*
Y13813D03*
Y14613D03*
Y15413D03*
X22984Y13013D03*
Y13813D03*
Y14613D03*
Y15413D03*
X23491Y16933D03*
X23576Y24233D03*
X24200Y16933D03*
X24284Y24233D03*
X26376Y4183D03*
Y11683D03*
X26421Y18433D03*
X26576Y25479D03*
X27084Y4183D03*
Y11683D03*
X27130Y18433D03*
X27284Y25479D03*
X28071Y18433D03*
X28126Y11683D03*
X28176Y25479D03*
X28276Y4183D03*
X28780Y18433D03*
X28834Y11683D03*
X28884Y25479D03*
X28984Y4183D03*
X31476Y25833D03*
X31726Y12083D03*
Y18633D03*
X31826Y4383D03*
X32176Y30233D03*
X32184Y25833D03*
X32326Y16483D03*
X32376Y23283D03*
X32434Y12083D03*
Y18633D03*
X32526Y8733D03*
X32534Y4383D03*
X32884Y30233D03*
X33034Y16483D03*
X33084Y23283D03*
X33234Y8733D03*
X44485Y26518D03*
X44570Y4918D03*
Y12318D03*
X44619Y19417D03*
X45194Y26518D03*
X45278Y4918D03*
Y12318D03*
X45328Y19417D03*
X45870Y1068D03*
X46578D03*
D02*
D111*
X15085Y9533D03*
Y10333D03*
Y11133D03*
Y11933D03*
X15675Y9533D03*
Y10333D03*
Y11133D03*
Y11933D03*
X23730Y29088D03*
Y29679D03*
X47174Y10422D03*
Y11013D03*
Y11772D03*
Y12363D03*
X47189Y24722D03*
Y25313D03*
Y25872D03*
Y26463D03*
X47274Y1372D03*
Y1963D03*
Y3272D03*
Y3863D03*
Y4472D03*
Y5063D03*
X47374Y18972D03*
Y19562D03*
X47374Y17672D03*
Y18263D03*
D02*
D112*
X45729Y3183D03*
X45779Y10533D03*
X45979Y17633D03*
Y24783D03*
X46224Y1967D03*
X46231Y3684D03*
X46235Y9237D03*
X46281Y11034D03*
X46295Y23533D03*
X46429Y16332D03*
X46481Y18134D03*
Y25284D03*
X46725Y2468D03*
X46736Y9739D03*
X46796Y24034D03*
X46930Y16833D03*
D02*
D113*
X5930Y14683D03*
Y18483D03*
D02*
D114*
X14550Y28333D03*
Y28833D03*
Y29333D03*
Y29833D03*
X16410Y28333D03*
Y28833D03*
Y29333D03*
Y29833D03*
X18450Y14563D03*
Y15063D03*
Y15563D03*
Y16063D03*
Y16563D03*
Y17063D03*
Y17563D03*
X20310Y14563D03*
Y15063D03*
Y15563D03*
Y16063D03*
Y16563D03*
Y17063D03*
Y17563D03*
X28900Y12783D03*
Y13283D03*
Y13783D03*
Y14283D03*
Y14783D03*
Y15283D03*
Y15783D03*
Y26583D03*
Y27083D03*
Y27583D03*
Y28083D03*
Y28583D03*
Y29083D03*
Y29583D03*
X29000Y19583D03*
Y20083D03*
Y20583D03*
Y21083D03*
Y21583D03*
Y22083D03*
Y22583D03*
X29100Y5183D03*
Y5683D03*
Y6183D03*
Y6683D03*
Y7183D03*
Y7683D03*
Y8183D03*
X30760Y12783D03*
Y13283D03*
Y13783D03*
Y14283D03*
Y14783D03*
Y15283D03*
Y15783D03*
Y26583D03*
Y27083D03*
Y27583D03*
Y28083D03*
Y28583D03*
Y29083D03*
Y29583D03*
X30860Y19583D03*
Y20083D03*
Y20583D03*
Y21083D03*
Y21583D03*
Y22083D03*
Y22583D03*
X30960Y5183D03*
Y5683D03*
Y6183D03*
Y6683D03*
Y7183D03*
Y7683D03*
Y8183D03*
D02*
D115*
X5064Y22253D03*
Y22568D03*
Y22883D03*
Y23198D03*
Y23513D03*
D02*
D116*
X2899Y21112D03*
Y24655D03*
X5064Y21112D03*
Y24655D03*
D02*
D117*
X14336Y24947D03*
X14730Y24120D03*
X15124Y24947D03*
X15936D03*
X16330Y24120D03*
X16724Y24947D03*
D02*
D118*
X17817Y21033D03*
Y22633D03*
X18643Y20640D03*
Y21427D03*
Y22240D03*
Y23027D03*
D02*
D119*
X18829Y6933D03*
X19931D03*
D02*
D120*
X6180Y26933D03*
X13380Y29933D03*
X16780Y8283D03*
X19680Y30833D03*
X19980Y8233D03*
X20530Y23083D03*
X21280Y11733D03*
X24580Y13533D03*
X34180Y11133D03*
Y25533D03*
X34380Y3433D03*
Y18733D03*
X41180Y9533D03*
Y31033D03*
X41230Y4233D03*
Y24033D03*
X41280Y16733D03*
X41430Y18733D03*
X41480Y25733D03*
X41530Y11283D03*
X0Y0D02*
M02*
