%FSLAX24Y24*%
%MOIN*%
G04 EasyPC Gerber Version 16.0.4 Build 3240 *
%AMT23*0 Octagon Pad at angle 0*4,1,8,-0.01656,-0.04000,0.01656,-0.04000,0.04000,-0.01656,0.04000,0.01656,0.01656,0.04000,-0.01656,0.04000,-0.04000,0.01656,-0.04000,-0.01656,-0.01656,-0.04000,0*%
%ADD23T23*%
%ADD73R,0.08000X0.08000*%
%ADD78C,0.00500*%
%ADD76C,0.03800*%
%ADD29C,0.05600*%
%ADD25C,0.06600*%
%ADD24C,0.07600*%
%ADD22C,0.08000*%
%ADD75C,0.08474*%
%ADD28C,0.09200*%
%ADD72C,0.10443*%
%ADD27C,0.12600*%
%ADD26C,0.17600*%
%AMT74*0 Octagon Pad at angle 0*4,1,8,-0.02570,-0.06206,0.02570,-0.06206,0.06206,-0.02570,0.06206,0.02570,0.02570,0.06206,-0.02570,0.06206,-0.06206,0.02570,-0.06206,-0.02570,-0.02570,-0.06206,0*%
%ADD74T74*%
X0Y0D02*
D02*
D22*
X2830Y13783D03*
Y14783D03*
Y15783D03*
Y16783D03*
Y17783D03*
Y18783D03*
X3380Y11983D03*
X4380D03*
X5380D03*
D02*
D23*
X2830Y1383D03*
Y2383D03*
X3830Y1383D03*
Y2383D03*
X4830Y1383D03*
Y2383D03*
X5830Y1383D03*
Y2383D03*
X6830Y1383D03*
Y2383D03*
X7830Y1383D03*
Y2383D03*
X8830Y1383D03*
Y2383D03*
X9830Y1383D03*
Y2383D03*
X10830Y1383D03*
Y2383D03*
X11830Y1383D03*
Y2383D03*
D02*
D24*
X2430Y7723D03*
Y10282D03*
X4202Y7723D03*
Y10282D03*
D02*
D25*
X20330Y26333D03*
X21780Y19433D03*
Y21433D03*
X22330Y26333D03*
D02*
D26*
X4911Y30783D03*
X6093Y28933D03*
X7274Y30783D03*
D02*
D27*
X11230Y26583D03*
Y28433D03*
Y30283D03*
D02*
D28*
X8830Y25783D03*
Y30783D03*
D02*
D29*
X4080Y22017D03*
Y23749D03*
D02*
D72*
X13664Y2333D03*
Y4538D03*
X14452Y1388D03*
Y3790D03*
Y6034D03*
X22564Y2333D03*
Y4538D03*
X23352Y1388D03*
Y3790D03*
Y6034D03*
X42273Y28789D03*
X42323Y7139D03*
Y14639D03*
X42373Y21739D03*
X43769Y28002D03*
X43819Y6352D03*
Y13852D03*
X43869Y20952D03*
X44517Y28789D03*
X44567Y7139D03*
Y14639D03*
X44617Y21739D03*
X45974Y28002D03*
X46024Y6352D03*
Y13852D03*
X46074Y20952D03*
X46919Y28789D03*
X46969Y7139D03*
Y14639D03*
X47019Y21739D03*
D02*
D73*
X17846Y5739D03*
X18830D03*
X19814D03*
X40086Y26899D03*
Y27883D03*
Y28868D03*
X40186Y5399D03*
Y6383D03*
Y7368D03*
Y19949D03*
Y20933D03*
Y21918D03*
X40336Y12699D03*
Y13683D03*
Y14668D03*
D02*
D74*
X17098Y2983D03*
X20562D03*
X37330Y26151D03*
Y29616D03*
X37430Y4651D03*
Y8116D03*
Y19201D03*
Y22666D03*
X37580Y11951D03*
Y15416D03*
D02*
D75*
X6695Y7448D03*
X8365Y9118D03*
D02*
D76*
X3680Y27283D03*
Y28283D03*
X4430Y16033D03*
Y17033D03*
X4680Y27283D03*
Y28283D03*
X5180Y19833D03*
X5980Y23533D03*
X6130Y20583D03*
X6430Y24283D03*
X7030Y18033D03*
X7230Y20683D03*
X7430Y14883D03*
X7730Y18483D03*
X7780Y21833D03*
X9030Y14533D03*
Y18833D03*
X9330Y17833D03*
X9530Y18683D03*
X9680Y17383D03*
X10130Y23883D03*
X10230Y17283D03*
X10280Y16733D03*
X10580Y17583D03*
X10780Y23883D03*
X11030Y17983D03*
X11280Y13233D03*
X11330Y17033D03*
X11630Y19183D03*
X12030Y23933D03*
X12080Y13233D03*
Y17483D03*
X12330Y20633D03*
X12530Y17883D03*
X12630Y20333D03*
X12780Y16933D03*
X12830Y16383D03*
X12930Y23933D03*
X12980Y20633D03*
X13430D03*
X13730Y17733D03*
X13880Y20633D03*
X14280Y26283D03*
Y27883D03*
X14380Y9533D03*
Y10333D03*
Y11133D03*
Y11933D03*
X14430Y19333D03*
X14530Y19833D03*
X15180Y22233D03*
Y23383D03*
X15330Y15333D03*
X15780Y16783D03*
Y18183D03*
X15830Y20383D03*
X16230Y16783D03*
Y17583D03*
X16330Y23333D03*
X16430Y21033D03*
X16630Y16083D03*
Y17183D03*
X16880Y19183D03*
Y19933D03*
X16980Y17833D03*
Y22433D03*
X17330Y30433D03*
X17530Y19779D03*
X17680Y9533D03*
Y10333D03*
Y11133D03*
Y11933D03*
X17780Y14563D03*
Y15063D03*
Y16063D03*
X18230Y23983D03*
X18330Y14013D03*
Y18163D03*
X18680Y30083D03*
X18930Y2133D03*
X19130Y15333D03*
X19180Y16613D03*
X20680Y18383D03*
X21080Y15463D03*
Y16563D03*
X21280Y30433D03*
X21830Y13763D03*
X22280Y16263D03*
Y17333D03*
X23280Y30233D03*
X24880Y14683D03*
X25480Y17883D03*
X26080Y19233D03*
X26130Y12483D03*
Y26233D03*
X26230Y4883D03*
X26580Y21083D03*
X26680Y14233D03*
Y28033D03*
X26780Y6683D03*
X28230Y13033D03*
Y19833D03*
X28280Y26829D03*
X28430Y5433D03*
X30380Y16483D03*
X30430Y30233D03*
X30530Y23283D03*
X30580Y25479D03*
X30626Y18433D03*
X30630Y8733D03*
Y11683D03*
X30880Y4183D03*
X30980Y25833D03*
X31130Y18633D03*
X31230Y12083D03*
X31280Y4383D03*
X31430Y15583D03*
Y29433D03*
X31480Y14283D03*
Y28083D03*
X31580Y22433D03*
Y24733D03*
Y27283D03*
X31630Y6683D03*
X31680Y8033D03*
X31730Y13583D03*
Y20383D03*
Y21083D03*
X31930Y5883D03*
X32580Y28783D03*
X32930Y21783D03*
X32980Y14983D03*
X33180Y7433D03*
X34330Y28833D03*
X34480Y14783D03*
X34530Y21883D03*
X34730Y7633D03*
X35030Y24733D03*
X44830Y31433D03*
X45030Y29783D03*
Y30183D03*
Y30583D03*
Y30983D03*
X45324Y2818D03*
X45580Y24333D03*
X45591Y9870D03*
X45630Y17183D03*
X45739Y26518D03*
X45874Y4918D03*
Y12318D03*
X45924Y19418D03*
X46135Y10088D03*
X46230Y24283D03*
X46330Y17183D03*
X46624Y12368D03*
X46689Y26468D03*
X46824Y19517D03*
X46880Y5433D03*
X47274Y2468D03*
X48280Y12433D03*
X48430Y11383D03*
D02*
D78*
X1630Y283D02*
X49130D01*
Y32783*
X1630*
Y283*
X0Y0D02*
M02*
