%FSLAX24Y24*%
%MOIN*%
G04 EasyPC Gerber Version 16.0.4 Build 3240 *
%AMT11*0 Octagon Pad at angle 0*4,1,8,-0.01533,-0.03700,0.01533,-0.03700,0.03700,-0.01533,0.03700,0.01533,0.01533,0.03700,-0.01533,0.03700,-0.03700,0.01533,-0.03700,-0.01533,-0.01533,-0.03700,0*%
%ADD11T11*%
%AMT70*0 Octagon Pad at angle 0*4,1,8,-0.02446,-0.05906,0.02446,-0.05906,0.05906,-0.02446,0.05906,0.02446,0.02446,0.05906,-0.02446,0.05906,-0.05906,0.02446,-0.05906,-0.02446,-0.02446,-0.05906,0*%
%ADD70T70*%
%ADD19R,0.07400X0.07400*%
%ADD79C,0.00100*%
%ADD78C,0.00500*%
%ADD20C,0.03200*%
%ADD17C,0.05000*%
%ADD13C,0.06000*%
%ADD12C,0.07000*%
%ADD10C,0.07400*%
%ADD71C,0.07874*%
%ADD16C,0.08600*%
%ADD18C,0.09843*%
%ADD15C,0.12000*%
%ADD14C,0.17000*%
X0Y0D02*
D02*
D10*
X2830Y13783D03*
Y14783D03*
Y15783D03*
Y16783D03*
Y17783D03*
Y18783D03*
X3380Y11983D03*
X4380D03*
X5380D03*
D02*
D11*
X2830Y1383D03*
Y2383D03*
X3830Y1383D03*
Y2383D03*
X4830Y1383D03*
Y2383D03*
X5830Y1383D03*
Y2383D03*
X6830Y1383D03*
Y2383D03*
X7830Y1383D03*
Y2383D03*
X8830Y1383D03*
Y2383D03*
X9830Y1383D03*
Y2383D03*
X10830Y1383D03*
Y2383D03*
X11830Y1383D03*
Y2383D03*
D02*
D12*
X2430Y7723D03*
Y10282D03*
X4202Y7723D03*
Y10282D03*
D02*
D13*
X20330Y26333D03*
X21780Y19433D03*
Y21433D03*
X22330Y26333D03*
D02*
D14*
X4911Y30783D03*
X6093Y28933D03*
X7274Y30783D03*
D02*
D15*
X11230Y26583D03*
Y28433D03*
Y30283D03*
D02*
D16*
X8830Y25783D03*
Y30783D03*
D02*
D17*
X4080Y22017D03*
Y23749D03*
D02*
D18*
X13664Y2333D03*
Y4538D03*
X14452Y1388D03*
Y3790D03*
Y6034D03*
X22564Y2333D03*
Y4538D03*
X23352Y1388D03*
Y3790D03*
Y6034D03*
X42273Y28789D03*
X42323Y7139D03*
Y14639D03*
X42373Y21739D03*
X43769Y28002D03*
X43819Y6352D03*
Y13852D03*
X43869Y20952D03*
X44517Y28789D03*
X44567Y7139D03*
Y14639D03*
X44617Y21739D03*
X45974Y28002D03*
X46024Y6352D03*
Y13852D03*
X46074Y20952D03*
X46919Y28789D03*
X46969Y7139D03*
Y14639D03*
X47019Y21739D03*
D02*
D19*
X17846Y5739D03*
X18830D03*
X19814D03*
X40086Y26899D03*
Y27883D03*
Y28868D03*
X40186Y5399D03*
Y6383D03*
Y7368D03*
Y19949D03*
Y20933D03*
Y21918D03*
X40336Y12699D03*
Y13683D03*
Y14668D03*
D02*
D70*
X17098Y2983D03*
X20562D03*
X37330Y26151D03*
Y29616D03*
X37430Y4651D03*
Y8116D03*
Y19201D03*
Y22666D03*
X37580Y11951D03*
Y15416D03*
D02*
D71*
X6695Y7448D03*
X8365Y9118D03*
D02*
D20*
X3680Y27283D03*
Y28283D03*
X4430Y16033D03*
Y17033D03*
X4680Y27283D03*
Y28283D03*
X5180Y19833D03*
X5980Y23533D03*
X6130Y20583D03*
X6430Y24283D03*
X7030Y18033D03*
X7230Y20683D03*
X7430Y14883D03*
X7730Y18483D03*
X7780Y21833D03*
X9030Y14533D03*
Y18833D03*
X9330Y17833D03*
X9530Y18683D03*
X9680Y17383D03*
X10130Y23883D03*
X10230Y17283D03*
X10280Y16733D03*
X10580Y17583D03*
X10780Y23883D03*
X11030Y17983D03*
X11280Y13233D03*
X11330Y17033D03*
X11630Y19183D03*
X12030Y23933D03*
X12080Y13233D03*
Y17483D03*
X12330Y20633D03*
X12530Y17883D03*
X12630Y20333D03*
X12780Y16933D03*
X12830Y16383D03*
X12930Y23933D03*
X12980Y20633D03*
X13430D03*
X13730Y17733D03*
X13880Y20633D03*
X14280Y26283D03*
Y27883D03*
X14380Y9533D03*
Y10333D03*
Y11133D03*
Y11933D03*
X14430Y19333D03*
X14530Y19833D03*
X15180Y22233D03*
Y23383D03*
X15330Y15333D03*
X15780Y16783D03*
Y18183D03*
X15830Y20383D03*
X16230Y16783D03*
Y17583D03*
X16330Y23333D03*
X16430Y21033D03*
X16630Y16083D03*
Y17183D03*
X16880Y19183D03*
Y19933D03*
X16980Y17833D03*
Y22433D03*
X17330Y30433D03*
X17530Y19779D03*
X17680Y9533D03*
Y10333D03*
Y11133D03*
Y11933D03*
X17780Y14563D03*
Y15063D03*
Y16063D03*
X18230Y23983D03*
X18330Y14013D03*
Y18163D03*
X18680Y30083D03*
X18930Y2133D03*
X19130Y15333D03*
X19180Y16613D03*
X20680Y18383D03*
X21080Y15463D03*
Y16563D03*
X21280Y30433D03*
X21830Y13763D03*
X22280Y16263D03*
Y17333D03*
X23280Y30233D03*
X24880Y14683D03*
X25480Y17883D03*
X26080Y19233D03*
X26130Y12483D03*
Y26233D03*
X26230Y4883D03*
X26580Y21083D03*
X26680Y14233D03*
Y28033D03*
X26780Y6683D03*
X28230Y13033D03*
Y19833D03*
X28280Y26829D03*
X28430Y5433D03*
X30380Y16483D03*
X30430Y30233D03*
X30530Y23283D03*
X30580Y25479D03*
X30626Y18433D03*
X30630Y8733D03*
Y11683D03*
X30880Y4183D03*
X30980Y25833D03*
X31130Y18633D03*
X31230Y12083D03*
X31280Y4383D03*
X31430Y15583D03*
Y29433D03*
X31480Y14283D03*
Y28083D03*
X31580Y22433D03*
Y24733D03*
Y27283D03*
X31630Y6683D03*
X31680Y8033D03*
X31730Y13583D03*
Y20383D03*
Y21083D03*
X31930Y5883D03*
X32580Y28783D03*
X32930Y21783D03*
X32980Y14983D03*
X33180Y7433D03*
X34330Y28833D03*
X34480Y14783D03*
X34530Y21883D03*
X34730Y7633D03*
X35030Y24733D03*
X44830Y31433D03*
X45030Y29783D03*
Y30183D03*
Y30583D03*
Y30983D03*
X45324Y2818D03*
X45580Y24333D03*
X45591Y9870D03*
X45630Y17183D03*
X45739Y26518D03*
X45874Y4918D03*
Y12318D03*
X45924Y19418D03*
X46135Y10088D03*
X46230Y24283D03*
X46330Y17183D03*
X46624Y12368D03*
X46689Y26468D03*
X46824Y19517D03*
X46880Y5433D03*
X47274Y2468D03*
X48280Y12433D03*
X48430Y11383D03*
D02*
D78*
X1630Y283D02*
X49130D01*
Y32783*
X1630*
Y283*
D02*
D79*
X49130D01*
Y32783*
X1630*
Y283*
X2430Y8173D02*
G75*
G02Y7273J-450D01*
G01*
G75*
G02Y8173J450*
G01*
Y10732D02*
G75*
G02Y9832J-450D01*
G01*
G75*
G02Y10732J450*
G01*
X2461Y17758D02*
G75*
G03X2805Y17414I369J25D01*
G01*
Y17314*
G75*
G02X2361Y17758I25J469*
G01*
X2461*
X2805Y18152D02*
G75*
G03X2461Y17808I25J-369D01*
G01*
X2361*
G75*
G02X2805Y18253I469J-25*
G01*
Y18152*
X2830Y14253D02*
G75*
G02Y13313J-470D01*
G01*
G75*
G02Y14253J470*
G01*
Y15253D02*
G75*
G02Y14313J-470D01*
G01*
G75*
G02Y15253J470*
G01*
Y16253D02*
G75*
G02Y15313J-470D01*
G01*
G75*
G02Y16253J470*
G01*
Y17253D02*
G75*
G02Y16313J-470D01*
G01*
G75*
G02Y17253J470*
G01*
Y19253D02*
G75*
G02Y18313J-470D01*
G01*
G75*
G02Y19253J470*
G01*
X2855Y17414D02*
G75*
G03X3199Y17758I-25J369D01*
G01*
X3299*
G75*
G02X2855Y17314I-469J25*
G01*
Y17414*
X3025Y1853D02*
X3300Y1578D01*
Y1189*
X3025Y913*
X2635*
X2360Y1189*
Y1578*
X2635Y1853*
X3025*
Y2853D02*
X3300Y2578D01*
Y2189*
X3025Y1913*
X2635*
X2360Y2189*
Y2578*
X2635Y2853*
X3025*
X3199Y17808D02*
G75*
G03X2855Y18152I-369J-25D01*
G01*
Y18253*
G75*
G02X3299Y17808I-25J-469*
G01*
X3199*
X3420Y27283D02*
G75*
G02X3940I260D01*
G01*
G75*
G02X3420I-260*
G01*
Y28283D02*
G75*
G02X3940I260D01*
G01*
G75*
G02X3420I-260*
G01*
X3730Y22017D02*
G75*
G02X4430I350D01*
G01*
G75*
G02X3730I-350*
G01*
Y23749D02*
G75*
G02X4430I350D01*
G01*
G75*
G02X3730I-350*
G01*
X3850Y11983D02*
G75*
G02X2910I-470D01*
G01*
G75*
G02X3850I470*
G01*
X4025Y1853D02*
X4300Y1578D01*
Y1189*
X4025Y913*
X3635*
X3360Y1189*
Y1578*
X3635Y1853*
X4025*
Y2853D02*
X4300Y2578D01*
Y2189*
X4025Y1913*
X3635*
X3360Y2189*
Y2578*
X3635Y2853*
X4025*
X4170Y16033D02*
G75*
G02X4690I260D01*
G01*
G75*
G02X4170I-260*
G01*
Y17033D02*
G75*
G02X4690I260D01*
G01*
G75*
G02X4170I-260*
G01*
X4202Y8173D02*
G75*
G02Y7273J-450D01*
G01*
G75*
G02Y8173J450*
G01*
Y10732D02*
G75*
G02Y9832J-450D01*
G01*
G75*
G02Y10732J450*
G01*
X4420Y27283D02*
G75*
G02X4940I260D01*
G01*
G75*
G02X4420I-260*
G01*
Y28283D02*
G75*
G02X4940I260D01*
G01*
G75*
G02X4420I-260*
G01*
X4850Y11983D02*
G75*
G02X3910I-470D01*
G01*
G75*
G02X4850I470*
G01*
X4911Y31733D02*
G75*
G02Y29833J-950D01*
G01*
G75*
G02Y31733J950*
G01*
X5022Y19808D02*
G75*
G03X5155Y19675I158J25D01*
G01*
Y19574*
G75*
G02X4921Y19808I25J259*
G01*
X5022*
X5025Y1853D02*
X5300Y1578D01*
Y1189*
X5025Y913*
X4635*
X4360Y1189*
Y1578*
X4635Y1853*
X5025*
Y2853D02*
X5300Y2578D01*
Y2189*
X5025Y1913*
X4635*
X4360Y2189*
Y2578*
X4635Y2853*
X5025*
X5155Y19991D02*
G75*
G03X5022Y19858I25J-158D01*
G01*
X4921*
G75*
G02X5155Y20092I259J-25*
G01*
Y19991*
X5205Y19675D02*
G75*
G03X5338Y19808I-25J158D01*
G01*
X5439*
G75*
G02X5205Y19574I-259J25*
G01*
Y19675*
X5338Y19858D02*
G75*
G03X5205Y19991I-158J-25D01*
G01*
Y20092*
G75*
G02X5439Y19858I-25J-259*
G01*
X5338*
X5720Y23533D02*
G75*
G02X6240I260D01*
G01*
G75*
G02X5720I-260*
G01*
X5850Y11983D02*
G75*
G02X4910I-470D01*
G01*
G75*
G02X5850I470*
G01*
X5870Y20583D02*
G75*
G02X6390I260D01*
G01*
G75*
G02X5870I-260*
G01*
X6025Y1853D02*
X6300Y1578D01*
Y1189*
X6025Y913*
X5635*
X5360Y1189*
Y1578*
X5635Y1853*
X6025*
Y2853D02*
X6300Y2578D01*
Y2189*
X6025Y1913*
X5635*
X5360Y2189*
Y2578*
X5635Y2853*
X6025*
X6093Y29883D02*
G75*
G02Y27983J-950D01*
G01*
G75*
G02Y29883J950*
G01*
X6170Y24283D02*
G75*
G02X6690I260D01*
G01*
G75*
G02X6170I-260*
G01*
X6346Y7797D02*
G75*
G02X7044Y7099I349J-349D01*
G01*
G75*
G02X6346Y7797I-349J349*
G01*
X6770Y18033D02*
G75*
G02X7290I260D01*
G01*
G75*
G02X6770I-260*
G01*
X7025Y1853D02*
X7300Y1578D01*
Y1189*
X7025Y913*
X6635*
X6360Y1189*
Y1578*
X6635Y1853*
X7025*
Y2853D02*
X7300Y2578D01*
Y2189*
X7025Y1913*
X6635*
X6360Y2189*
Y2578*
X6635Y2853*
X7025*
X7072Y20658D02*
G75*
G03X7205Y20525I158J25D01*
G01*
Y20424*
G75*
G02X6971Y20658I25J259*
G01*
X7072*
X7170Y14883D02*
G75*
G02X7690I260D01*
G01*
G75*
G02X7170I-260*
G01*
X7205Y20841D02*
G75*
G03X7072Y20708I25J-158D01*
G01*
X6971*
G75*
G02X7205Y20942I259J-25*
G01*
Y20841*
X7255Y20525D02*
G75*
G03X7388Y20658I-25J158D01*
G01*
X7489*
G75*
G02X7255Y20424I-259J25*
G01*
Y20525*
X7274Y31733D02*
G75*
G02Y29833J-950D01*
G01*
G75*
G02Y31733J950*
G01*
X7388Y20708D02*
G75*
G03X7255Y20841I-158J-25D01*
G01*
Y20942*
G75*
G02X7489Y20708I-25J-259*
G01*
X7388*
X7470Y18483D02*
G75*
G02X7990I260D01*
G01*
G75*
G02X7470I-260*
G01*
X7520Y21833D02*
G75*
G02X8040I260D01*
G01*
G75*
G02X7520I-260*
G01*
X8025Y1853D02*
X8300Y1578D01*
Y1189*
X8025Y913*
X7635*
X7360Y1189*
Y1578*
X7635Y1853*
X8025*
Y2853D02*
X8300Y2578D01*
Y2189*
X8025Y1913*
X7635*
X7360Y2189*
Y2578*
X7635Y2853*
X8025*
X8070Y9379D02*
G75*
G03Y8858I296J-260D01*
G01*
X7999Y8787*
G75*
G02Y9449I366J331*
G01*
X8070Y9379*
X8105Y8823D02*
G75*
G03X8625I260J296D01*
G01*
X8696Y8752*
G75*
G02X8034I-331J366*
G01*
X8105Y8823*
X8625Y9414D02*
G75*
G03X8105I-260J-296D01*
G01*
X8034Y9485*
G75*
G02X8696I331J-366*
G01*
X8625Y9414*
X8661Y8858D02*
G75*
G03Y9379I-296J260D01*
G01*
X8731Y9449*
G75*
G02Y8787I-366J-331*
G01*
X8661Y8858*
X8770Y18833D02*
G75*
G02X9290I260D01*
G01*
G75*
G02X8770I-260*
G01*
X8830Y26313D02*
G75*
G02Y25253J-530D01*
G01*
G75*
G02Y26313J530*
G01*
Y31313D02*
G75*
G02Y30253J-530D01*
G01*
G75*
G02Y31313J530*
G01*
X8872Y14508D02*
G75*
G03X9005Y14375I158J25D01*
G01*
Y14274*
G75*
G02X8771Y14508I25J259*
G01*
X8872*
X9005Y14691D02*
G75*
G03X8872Y14558I25J-158D01*
G01*
X8771*
G75*
G02X9005Y14792I259J-25*
G01*
Y14691*
X9025Y1853D02*
X9300Y1578D01*
Y1189*
X9025Y913*
X8635*
X8360Y1189*
Y1578*
X8635Y1853*
X9025*
Y2853D02*
X9300Y2578D01*
Y2189*
X9025Y1913*
X8635*
X8360Y2189*
Y2578*
X8635Y2853*
X9025*
X9055Y14375D02*
G75*
G03X9188Y14508I-25J158D01*
G01*
X9289*
G75*
G02X9055Y14274I-259J25*
G01*
Y14375*
X9070Y17833D02*
G75*
G02X9590I260D01*
G01*
G75*
G02X9070I-260*
G01*
X9188Y14558D02*
G75*
G03X9055Y14691I-158J-25D01*
G01*
Y14792*
G75*
G02X9289Y14558I-25J-259*
G01*
X9188*
X9270Y18683D02*
G75*
G02X9790I260D01*
G01*
G75*
G02X9270I-260*
G01*
X9420Y17383D02*
G75*
G02X9940I260D01*
G01*
G75*
G02X9420I-260*
G01*
X9972Y23858D02*
G75*
G03X10105Y23725I158J25D01*
G01*
Y23624*
G75*
G02X9871Y23858I25J259*
G01*
X9972*
X10020Y16733D02*
G75*
G02X10540I260D01*
G01*
G75*
G02X10020I-260*
G01*
X10025Y1853D02*
X10300Y1578D01*
Y1189*
X10025Y913*
X9635*
X9360Y1189*
Y1578*
X9635Y1853*
X10025*
Y2853D02*
X10300Y2578D01*
Y2189*
X10025Y1913*
X9635*
X9360Y2189*
Y2578*
X9635Y2853*
X10025*
X10105Y24041D02*
G75*
G03X9972Y23908I25J-158D01*
G01*
X9871*
G75*
G02X10105Y24142I259J-25*
G01*
Y24041*
X10155Y23725D02*
G75*
G03X10288Y23858I-25J158D01*
G01*
X10389*
G75*
G02X10155Y23624I-259J25*
G01*
Y23725*
X10288Y23908D02*
G75*
G03X10155Y24041I-158J-25D01*
G01*
Y24142*
G75*
G02X10389Y23908I-25J-259*
G01*
X10288*
X10327Y17525D02*
G75*
G02X10320Y17583I253J59D01*
G01*
G75*
G02X10840I260*
G01*
G75*
G02X10483Y17342I-260*
G01*
G75*
G02X10490Y17283I-253J-59*
G01*
G75*
G02X9970I-260*
G01*
G75*
G02X10327Y17525I260*
G01*
X10520Y23883D02*
G75*
G02X11040I260D01*
G01*
G75*
G02X10520I-260*
G01*
X10530Y26583D02*
G75*
G02X11930I700D01*
G01*
G75*
G02X10530I-700*
G01*
Y28433D02*
G75*
G02X11930I700D01*
G01*
G75*
G02X10530I-700*
G01*
Y30283D02*
G75*
G02X11930I700D01*
G01*
G75*
G02X10530I-700*
G01*
X10770Y17983D02*
G75*
G02X11290I260D01*
G01*
G75*
G02X10770I-260*
G01*
X11025Y1853D02*
X11300Y1578D01*
Y1189*
X11025Y913*
X10635*
X10360Y1189*
Y1578*
X10635Y1853*
X11025*
Y2853D02*
X11300Y2578D01*
Y2189*
X11025Y1913*
X10635*
X10360Y2189*
Y2578*
X10635Y2853*
X11025*
X11070Y17033D02*
G75*
G02X11590I260D01*
G01*
G75*
G02X11070I-260*
G01*
X11122Y13208D02*
G75*
G03X11255Y13075I158J25D01*
G01*
Y12974*
G75*
G02X11021Y13208I25J259*
G01*
X11122*
X11255Y13391D02*
G75*
G03X11122Y13258I25J-158D01*
G01*
X11021*
G75*
G02X11255Y13492I259J-25*
G01*
Y13391*
X11305Y13075D02*
G75*
G03X11438Y13208I-25J158D01*
G01*
X11539*
G75*
G02X11305Y12974I-259J25*
G01*
Y13075*
X11370Y19183D02*
G75*
G02X11890I260D01*
G01*
G75*
G02X11370I-260*
G01*
X11438Y13258D02*
G75*
G03X11305Y13391I-158J-25D01*
G01*
Y13492*
G75*
G02X11539Y13258I-25J-259*
G01*
X11438*
X11460Y2358D02*
Y2230D01*
X11677Y2013*
X11805*
Y1913*
X11635*
X11360Y2189*
Y2358*
X11460*
X11805Y2753D02*
X11677D01*
X11460Y2537*
Y2408*
X11360*
Y2578*
X11635Y2853*
X11805*
Y2753*
X11820Y13233D02*
G75*
G02X12340I260D01*
G01*
G75*
G02X11820I-260*
G01*
Y17483D02*
G75*
G02X12340I260D01*
G01*
G75*
G02X11820I-260*
G01*
X11855Y2013D02*
X11983D01*
X12200Y2230*
Y2358*
X12300*
Y2189*
X12025Y1913*
X11855*
Y2013*
X11872Y23908D02*
G75*
G03X12005Y23775I158J25D01*
G01*
Y23674*
G75*
G02X11771Y23908I25J259*
G01*
X11872*
X12005Y24091D02*
G75*
G03X11872Y23958I25J-158D01*
G01*
X11771*
G75*
G02X12005Y24192I259J-25*
G01*
Y24091*
X12025Y1853D02*
X12300Y1578D01*
Y1189*
X12025Y913*
X11635*
X11360Y1189*
Y1578*
X11635Y1853*
X12025*
X12055Y23775D02*
G75*
G03X12188Y23908I-25J158D01*
G01*
X12289*
G75*
G02X12055Y23674I-259J25*
G01*
Y23775*
X12188Y23958D02*
G75*
G03X12055Y24091I-158J-25D01*
G01*
Y24192*
G75*
G02X12289Y23958I-25J-259*
G01*
X12188*
X12200Y2408D02*
Y2537D01*
X11983Y2753*
X11855*
Y2853*
X12025*
X12300Y2578*
Y2408*
X12200*
X12270Y17883D02*
G75*
G02X12790I260D01*
G01*
G75*
G02X12270I-260*
G01*
X12374Y20377D02*
G75*
G02X12070Y20633I-44J256D01*
G01*
G75*
G02X12590I260*
G01*
G75*
G02X12586Y20590I-260*
G01*
G75*
G02X12727Y20575I44J-256*
G01*
G75*
G02X12720Y20633I253J59*
G01*
G75*
G02X13205Y20764I260*
G01*
G75*
G02X13655I225J-130*
G01*
G75*
G02X14140Y20633I225J-130*
G01*
G75*
G02X13655Y20503I-260*
G01*
G75*
G02X13205I-225J130*
G01*
G75*
G02X12883Y20392I-225J130*
G01*
G75*
G02X12890Y20333I-253J-59*
G01*
G75*
G02X12370I-260*
G01*
G75*
G02X12374Y20377I260*
G01*
X12520Y16933D02*
G75*
G02X13040I260D01*
G01*
G75*
G02X12520I-260*
G01*
X12570Y16383D02*
G75*
G02X13090I260D01*
G01*
G75*
G02X12570I-260*
G01*
X12670Y23933D02*
G75*
G02X13190I260D01*
G01*
G75*
G02X12670I-260*
G01*
X13470Y17733D02*
G75*
G02X13990I260D01*
G01*
G75*
G02X13470I-260*
G01*
X13664Y2925D02*
G75*
G02Y1741J-592D01*
G01*
G75*
G02Y2925J592*
G01*
X13895Y3993D02*
G75*
G02X13664Y3946I-231J545D01*
G01*
G75*
G02Y5130J592*
G01*
G75*
G02X14221Y4335J-592*
G01*
G75*
G02X14452Y4382I231J-545*
G01*
G75*
G02Y3198J-592*
G01*
G75*
G02X13895Y3993J592*
G01*
X14020Y26283D02*
G75*
G02X14540I260D01*
G01*
G75*
G02X14020I-260*
G01*
Y27883D02*
G75*
G02X14540I260D01*
G01*
G75*
G02X14020I-260*
G01*
X14120Y9533D02*
G75*
G02X14640I260D01*
G01*
G75*
G02X14120I-260*
G01*
Y10333D02*
G75*
G02X14640I260D01*
G01*
G75*
G02X14120I-260*
G01*
Y11133D02*
G75*
G02X14640I260D01*
G01*
G75*
G02X14120I-260*
G01*
Y11933D02*
G75*
G02X14640I260D01*
G01*
G75*
G02X14120I-260*
G01*
X14430Y19593D02*
G75*
G02X14270Y19833I100J240D01*
G01*
G75*
G02X14790I260*
G01*
G75*
G02X14530Y19573I-260*
G01*
G75*
G02X14690Y19333I-100J-240*
G01*
G75*
G02X14170I-260*
G01*
G75*
G02X14430Y19593I260*
G01*
X14452Y1981D02*
G75*
G02Y796J-592D01*
G01*
G75*
G02Y1981J592*
G01*
Y6626D02*
G75*
G02Y5442J-592D01*
G01*
G75*
G02Y6626J592*
G01*
X14920Y22233D02*
G75*
G02X15440I260D01*
G01*
G75*
G02X14920I-260*
G01*
Y23383D02*
G75*
G02X15440I260D01*
G01*
G75*
G02X14920I-260*
G01*
X15070Y15333D02*
G75*
G02X15590I260D01*
G01*
G75*
G02X15070I-260*
G01*
X15520Y18183D02*
G75*
G02X16040I260D01*
G01*
G75*
G02X15520I-260*
G01*
X15570Y20383D02*
G75*
G02X16090I260D01*
G01*
G75*
G02X15570I-260*
G01*
X15970Y17583D02*
G75*
G02X16490I260D01*
G01*
G75*
G02X15970I-260*
G01*
X16005Y16653D02*
G75*
G02X15520Y16783I-225J130D01*
G01*
G75*
G02X16005Y16914I260*
G01*
G75*
G02X16490Y16783I225J-130*
G01*
G75*
G02X16005Y16653I-260*
G01*
X16070Y23333D02*
G75*
G02X16590I260D01*
G01*
G75*
G02X16070I-260*
G01*
X16170Y21033D02*
G75*
G02X16690I260D01*
G01*
G75*
G02X16170I-260*
G01*
X16370Y17183D02*
G75*
G02X16890I260D01*
G01*
G75*
G02X16370I-260*
G01*
X16472Y16058D02*
G75*
G03X16605Y15925I158J25D01*
G01*
Y15824*
G75*
G02X16371Y16058I25J259*
G01*
X16472*
X16605Y16241D02*
G75*
G03X16472Y16108I25J-158D01*
G01*
X16371*
G75*
G02X16605Y16342I259J-25*
G01*
Y16241*
X16620Y19183D02*
G75*
G02X17140I260D01*
G01*
G75*
G02X16620I-260*
G01*
X16655Y15925D02*
G75*
G03X16788Y16058I-25J158D01*
G01*
X16889*
G75*
G02X16655Y15824I-259J25*
G01*
Y15925*
X16720Y17833D02*
G75*
G02X17240I260D01*
G01*
G75*
G02X16720I-260*
G01*
Y22433D02*
G75*
G02X17240I260D01*
G01*
G75*
G02X16720I-260*
G01*
X16722Y19908D02*
G75*
G03X16855Y19775I158J25D01*
G01*
Y19674*
G75*
G02X16621Y19908I25J259*
G01*
X16722*
X16788Y16108D02*
G75*
G03X16655Y16241I-158J-25D01*
G01*
Y16342*
G75*
G02X16889Y16108I-25J-259*
G01*
X16788*
X16855Y20091D02*
G75*
G03X16722Y19958I25J-158D01*
G01*
X16621*
G75*
G02X16855Y20192I259J-25*
G01*
Y20091*
X16905Y19775D02*
G75*
G03X17038Y19908I-25J158D01*
G01*
X17139*
G75*
G02X16905Y19674I-259J25*
G01*
Y19775*
X17038Y19958D02*
G75*
G03X16905Y20091I-158J-25D01*
G01*
Y20192*
G75*
G02X17139Y19958I-25J-259*
G01*
X17038*
X17172Y30408D02*
G75*
G03X17305Y30275I158J25D01*
G01*
Y30174*
G75*
G02X17071Y30408I25J259*
G01*
X17172*
X17305Y30591D02*
G75*
G03X17172Y30458I25J-158D01*
G01*
X17071*
G75*
G02X17305Y30692I259J-25*
G01*
Y30591*
X17355Y30275D02*
G75*
G03X17488Y30408I-25J158D01*
G01*
X17589*
G75*
G02X17355Y30174I-259J25*
G01*
Y30275*
X17372Y19754D02*
G75*
G03X17505Y19621I158J25D01*
G01*
Y19520*
G75*
G02X17271Y19754I25J259*
G01*
X17372*
X17488Y30458D02*
G75*
G03X17355Y30591I-158J-25D01*
G01*
Y30692*
G75*
G02X17589Y30458I-25J-259*
G01*
X17488*
X17505Y19937D02*
G75*
G03X17372Y19804I25J-158D01*
G01*
X17271*
G75*
G02X17505Y20038I259J-25*
G01*
Y19937*
X17522Y9508D02*
G75*
G03X17655Y9375I158J25D01*
G01*
Y9274*
G75*
G02X17421Y9508I25J259*
G01*
X17522*
Y10308D02*
G75*
G03X17655Y10175I158J25D01*
G01*
Y10074*
G75*
G02X17421Y10308I25J259*
G01*
X17522*
Y11108D02*
G75*
G03X17655Y10975I158J25D01*
G01*
Y10874*
G75*
G02X17421Y11108I25J259*
G01*
X17522*
Y11908D02*
G75*
G03X17655Y11775I158J25D01*
G01*
Y11674*
G75*
G02X17421Y11908I25J259*
G01*
X17522*
X17555Y19621D02*
G75*
G03X17688Y19754I-25J158D01*
G01*
X17789*
G75*
G02X17555Y19520I-259J25*
G01*
Y19621*
X17655Y9691D02*
G75*
G03X17522Y9558I25J-158D01*
G01*
X17421*
G75*
G02X17655Y9792I259J-25*
G01*
Y9691*
Y10491D02*
G75*
G03X17522Y10358I25J-158D01*
G01*
X17421*
G75*
G02X17655Y10592I259J-25*
G01*
Y10491*
Y11291D02*
G75*
G03X17522Y11158I25J-158D01*
G01*
X17421*
G75*
G02X17655Y11392I259J-25*
G01*
Y11291*
Y12091D02*
G75*
G03X17522Y11958I25J-158D01*
G01*
X17421*
G75*
G02X17655Y12192I259J-25*
G01*
Y12091*
X17688Y19804D02*
G75*
G03X17555Y19937I-158J-25D01*
G01*
Y20038*
G75*
G02X17789Y19804I-25J-259*
G01*
X17688*
X17705Y9375D02*
G75*
G03X17838Y9508I-25J158D01*
G01*
X17939*
G75*
G02X17705Y9274I-259J25*
G01*
Y9375*
Y10175D02*
G75*
G03X17838Y10308I-25J158D01*
G01*
X17939*
G75*
G02X17705Y10074I-259J25*
G01*
Y10175*
Y10975D02*
G75*
G03X17838Y11108I-25J158D01*
G01*
X17939*
G75*
G02X17705Y10874I-259J25*
G01*
Y10975*
Y11775D02*
G75*
G03X17838Y11908I-25J158D01*
G01*
X17939*
G75*
G02X17705Y11674I-259J25*
G01*
Y11775*
X17709Y14813D02*
G75*
G02X17780Y15323I71J250D01*
G01*
G75*
G02X17851Y14813J-260*
G01*
G75*
G02X17780Y14303I-71J-250*
G01*
G75*
G02X17709Y14813J260*
G01*
X17780Y16323D02*
G75*
G02Y15803J-260D01*
G01*
G75*
G02Y16323J260*
G01*
X17788Y2697D02*
X17384Y2293D01*
X16812*
X16407Y2697*
Y3269*
X16812Y3674*
X17384*
X17788Y3269*
Y2697*
X17838Y9558D02*
G75*
G03X17705Y9691I-158J-25D01*
G01*
Y9792*
G75*
G02X17939Y9558I-25J-259*
G01*
X17838*
Y10358D02*
G75*
G03X17705Y10491I-158J-25D01*
G01*
Y10592*
G75*
G02X17939Y10358I-25J-259*
G01*
X17838*
Y11158D02*
G75*
G03X17705Y11291I-158J-25D01*
G01*
Y11392*
G75*
G02X17939Y11158I-25J-259*
G01*
X17838*
Y11958D02*
G75*
G03X17705Y12091I-158J-25D01*
G01*
Y12192*
G75*
G02X17939Y11958I-25J-259*
G01*
X17838*
X18072Y23958D02*
G75*
G03X18205Y23825I158J25D01*
G01*
Y23724*
G75*
G02X17971Y23958I25J259*
G01*
X18072*
X18205Y24141D02*
G75*
G03X18072Y24008I25J-158D01*
G01*
X17971*
G75*
G02X18205Y24242I259J-25*
G01*
Y24141*
X18255Y23825D02*
G75*
G03X18388Y23958I-25J158D01*
G01*
X18489*
G75*
G02X18255Y23724I-259J25*
G01*
Y23825*
X18316Y5269D02*
X17376D01*
Y6209*
X18316*
Y5269*
X18330Y14273D02*
G75*
G02Y13753J-260D01*
G01*
G75*
G02Y14273J260*
G01*
Y18423D02*
G75*
G02Y17903J-260D01*
G01*
G75*
G02Y18423J260*
G01*
X18388Y24008D02*
G75*
G03X18255Y24141I-158J-25D01*
G01*
Y24242*
G75*
G02X18489Y24008I-25J-259*
G01*
X18388*
X18522Y30058D02*
G75*
G03X18655Y29925I158J25D01*
G01*
Y29824*
G75*
G02X18421Y30058I25J259*
G01*
X18522*
X18655Y30241D02*
G75*
G03X18522Y30108I25J-158D01*
G01*
X18421*
G75*
G02X18655Y30342I259J-25*
G01*
Y30241*
X18705Y29925D02*
G75*
G03X18838Y30058I-25J158D01*
G01*
X18939*
G75*
G02X18705Y29824I-259J25*
G01*
Y29925*
X18838Y30108D02*
G75*
G03X18705Y30241I-158J-25D01*
G01*
Y30342*
G75*
G02X18939Y30108I-25J-259*
G01*
X18838*
X18930Y1873D02*
G75*
G02Y2393J260D01*
G01*
G75*
G02Y1873J-260*
G01*
X19130Y15593D02*
G75*
G02Y15073J-260D01*
G01*
G75*
G02Y15593J260*
G01*
X19180Y16873D02*
G75*
G02Y16353J-260D01*
G01*
G75*
G02Y16873J260*
G01*
X19300Y5269D02*
X18360D01*
Y6209*
X19300*
Y5269*
X20284D02*
X19344D01*
Y6209*
X20284*
Y5269*
X20330Y26733D02*
G75*
G02Y25933J-400D01*
G01*
G75*
G02Y26733J400*
G01*
X20680Y18643D02*
G75*
G02Y18123J-260D01*
G01*
G75*
G02Y18643J260*
G01*
X21080Y15723D02*
G75*
G02Y15203J-260D01*
G01*
G75*
G02Y15723J260*
G01*
Y16823D02*
G75*
G02Y16303J-260D01*
G01*
G75*
G02Y16823J260*
G01*
X21122Y30408D02*
G75*
G03X21255Y30275I158J25D01*
G01*
Y30174*
G75*
G02X21021Y30408I25J259*
G01*
X21122*
X21253Y2697D02*
X20848Y2293D01*
X20276*
X19872Y2697*
Y3269*
X20276Y3674*
X20848*
X21253Y3269*
Y2697*
X21255Y30591D02*
G75*
G03X21122Y30458I25J-158D01*
G01*
X21021*
G75*
G02X21255Y30692I259J-25*
G01*
Y30591*
X21305Y30275D02*
G75*
G03X21438Y30408I-25J158D01*
G01*
X21539*
G75*
G02X21305Y30174I-259J25*
G01*
Y30275*
X21438Y30458D02*
G75*
G03X21305Y30591I-158J-25D01*
G01*
Y30692*
G75*
G02X21539Y30458I-25J-259*
G01*
X21438*
X21830Y14023D02*
G75*
G02Y13503J-260D01*
G01*
G75*
G02Y14023J260*
G01*
X22122Y16238D02*
G75*
G03X22255Y16105I158J25D01*
G01*
Y16004*
G75*
G02X22021Y16238I25J259*
G01*
X22122*
X22180Y19433D02*
G75*
G02X21380I-400D01*
G01*
G75*
G02X22180I400*
G01*
Y21433D02*
G75*
G02X21380I-400D01*
G01*
G75*
G02X22180I400*
G01*
X22255Y16421D02*
G75*
G03X22122Y16288I25J-158D01*
G01*
X22021*
G75*
G02X22255Y16522I259J-25*
G01*
Y16421*
X22280Y17593D02*
G75*
G02Y17073J-260D01*
G01*
G75*
G02Y17593J260*
G01*
X22305Y16105D02*
G75*
G03X22438Y16238I-25J158D01*
G01*
X22539*
G75*
G02X22305Y16004I-259J25*
G01*
Y16105*
X22330Y26733D02*
G75*
G02Y25933J-400D01*
G01*
G75*
G02Y26733J400*
G01*
X22438Y16288D02*
G75*
G03X22305Y16421I-158J-25D01*
G01*
Y16522*
G75*
G02X22539Y16288I-25J-259*
G01*
X22438*
X22564Y2925D02*
G75*
G02Y1741J-592D01*
G01*
G75*
G02Y2925J592*
G01*
X22795Y3993D02*
G75*
G02X22564Y3946I-231J545D01*
G01*
G75*
G02Y5130J592*
G01*
G75*
G02X23121Y4335J-592*
G01*
G75*
G02X23352Y4382I231J-545*
G01*
G75*
G02Y3198J-592*
G01*
G75*
G02X22795Y3993J592*
G01*
X23122Y30208D02*
G75*
G03X23255Y30075I158J25D01*
G01*
Y29974*
G75*
G02X23021Y30208I25J259*
G01*
X23122*
X23255Y30391D02*
G75*
G03X23122Y30258I25J-158D01*
G01*
X23021*
G75*
G02X23255Y30492I259J-25*
G01*
Y30391*
X23305Y30075D02*
G75*
G03X23438Y30208I-25J158D01*
G01*
X23539*
G75*
G02X23305Y29974I-259J25*
G01*
Y30075*
X23352Y1981D02*
G75*
G02Y796J-592D01*
G01*
G75*
G02Y1981J592*
G01*
Y6626D02*
G75*
G02Y5442J-592D01*
G01*
G75*
G02Y6626J592*
G01*
X23438Y30258D02*
G75*
G03X23305Y30391I-158J-25D01*
G01*
Y30492*
G75*
G02X23539Y30258I-25J-259*
G01*
X23438*
X24620Y14683D02*
G75*
G02X25140I260D01*
G01*
G75*
G02X24620I-260*
G01*
X25220Y17883D02*
G75*
G02X25740I260D01*
G01*
G75*
G02X25220I-260*
G01*
X26080Y18973D02*
G75*
G02Y19493J260D01*
G01*
G75*
G02Y18973J-260*
G01*
X26130Y12223D02*
G75*
G02Y12743J260D01*
G01*
G75*
G02Y12223J-260*
G01*
Y25973D02*
G75*
G02Y26493J260D01*
G01*
G75*
G02Y25973J-260*
G01*
X26230Y4623D02*
G75*
G02Y5143J260D01*
G01*
G75*
G02Y4623J-260*
G01*
X26422Y21058D02*
G75*
G03X26555Y20925I158J25D01*
G01*
Y20824*
G75*
G02X26321Y21058I25J259*
G01*
X26422*
X26522Y14208D02*
G75*
G03X26655Y14075I158J25D01*
G01*
Y13974*
G75*
G02X26421Y14208I25J259*
G01*
X26522*
Y28008D02*
G75*
G03X26655Y27875I158J25D01*
G01*
Y27774*
G75*
G02X26421Y28008I25J259*
G01*
X26522*
X26555Y21241D02*
G75*
G03X26422Y21108I25J-158D01*
G01*
X26321*
G75*
G02X26555Y21342I259J-25*
G01*
Y21241*
X26605Y20925D02*
G75*
G03X26738Y21058I-25J158D01*
G01*
X26839*
G75*
G02X26605Y20824I-259J25*
G01*
Y20925*
X26622Y6658D02*
G75*
G03X26755Y6525I158J25D01*
G01*
Y6424*
G75*
G02X26521Y6658I25J259*
G01*
X26622*
X26655Y14391D02*
G75*
G03X26522Y14258I25J-158D01*
G01*
X26421*
G75*
G02X26655Y14492I259J-25*
G01*
Y14391*
Y28191D02*
G75*
G03X26522Y28058I25J-158D01*
G01*
X26421*
G75*
G02X26655Y28292I259J-25*
G01*
Y28191*
X26705Y14075D02*
G75*
G03X26838Y14208I-25J158D01*
G01*
X26939*
G75*
G02X26705Y13974I-259J25*
G01*
Y14075*
Y27875D02*
G75*
G03X26838Y28008I-25J158D01*
G01*
X26939*
G75*
G02X26705Y27774I-259J25*
G01*
Y27875*
X26738Y21108D02*
G75*
G03X26605Y21241I-158J-25D01*
G01*
Y21342*
G75*
G02X26839Y21108I-25J-259*
G01*
X26738*
X26755Y6841D02*
G75*
G03X26622Y6708I25J-158D01*
G01*
X26521*
G75*
G02X26755Y6942I259J-25*
G01*
Y6841*
X26805Y6525D02*
G75*
G03X26938Y6658I-25J158D01*
G01*
X27039*
G75*
G02X26805Y6424I-259J25*
G01*
Y6525*
X26838Y14258D02*
G75*
G03X26705Y14391I-158J-25D01*
G01*
Y14492*
G75*
G02X26939Y14258I-25J-259*
G01*
X26838*
Y28058D02*
G75*
G03X26705Y28191I-158J-25D01*
G01*
Y28292*
G75*
G02X26939Y28058I-25J-259*
G01*
X26838*
X26938Y6708D02*
G75*
G03X26805Y6841I-158J-25D01*
G01*
Y6942*
G75*
G02X27039Y6708I-25J-259*
G01*
X26938*
X28230Y12773D02*
G75*
G02Y13293J260D01*
G01*
G75*
G02Y12773J-260*
G01*
Y19573D02*
G75*
G02Y20093J260D01*
G01*
G75*
G02Y19573J-260*
G01*
X28280Y26569D02*
G75*
G02Y27089J260D01*
G01*
G75*
G02Y26569J-260*
G01*
X28430Y5173D02*
G75*
G02Y5693J260D01*
G01*
G75*
G02Y5173J-260*
G01*
X30380Y16223D02*
G75*
G02Y16743J260D01*
G01*
G75*
G02Y16223J-260*
G01*
X30430Y29973D02*
G75*
G02Y30493J260D01*
G01*
G75*
G02Y29973J-260*
G01*
X30530Y23023D02*
G75*
G02Y23543J260D01*
G01*
G75*
G02Y23023J-260*
G01*
X30580Y25219D02*
G75*
G02Y25739J260D01*
G01*
G75*
G02Y25219J-260*
G01*
X30626Y18173D02*
G75*
G02Y18693J260D01*
G01*
G75*
G02Y18173J-260*
G01*
X30630Y8473D02*
G75*
G02Y8993J260D01*
G01*
G75*
G02Y8473J-260*
G01*
Y11423D02*
G75*
G02Y11943J260D01*
G01*
G75*
G02Y11423J-260*
G01*
X30980Y25573D02*
G75*
G02Y26093J260D01*
G01*
G75*
G02Y25573J-260*
G01*
X31021Y4402D02*
G75*
G02X31280Y4643I259J-19D01*
G01*
G75*
G02Y4123J-260*
G01*
G75*
G02X31139Y4165J260*
G01*
G75*
G02X30880Y3923I-259J19*
G01*
G75*
G02Y4443J260*
G01*
G75*
G02X31021Y4402J-260*
G01*
X31130Y18373D02*
G75*
G02Y18893J260D01*
G01*
G75*
G02Y18373J-260*
G01*
X31230Y11823D02*
G75*
G02Y12343J260D01*
G01*
G75*
G02Y11823J-260*
G01*
X31320Y24733D02*
G75*
G02X31840I260D01*
G01*
G75*
G02X31320I-260*
G01*
X31430Y15323D02*
G75*
G02Y15843J260D01*
G01*
G75*
G02Y15323J-260*
G01*
Y29173D02*
G75*
G02Y29693J260D01*
G01*
G75*
G02Y29173J-260*
G01*
X31480Y14023D02*
G75*
G02Y14543J260D01*
G01*
G75*
G02Y14023J-260*
G01*
Y27823D02*
G75*
G02Y28343J260D01*
G01*
G75*
G02Y27823J-260*
G01*
X31580Y22173D02*
G75*
G02Y22693J260D01*
G01*
G75*
G02Y22173J-260*
G01*
Y27023D02*
G75*
G02Y27543J260D01*
G01*
G75*
G02Y27023J-260*
G01*
X31630Y6423D02*
G75*
G02Y6943J260D01*
G01*
G75*
G02Y6423J-260*
G01*
X31680Y7773D02*
G75*
G02Y8293J260D01*
G01*
G75*
G02Y7773J-260*
G01*
X31730Y13323D02*
G75*
G02Y13843J260D01*
G01*
G75*
G02Y13323J-260*
G01*
Y20123D02*
G75*
G02Y20643J260D01*
G01*
G75*
G02Y20123J-260*
G01*
Y20823D02*
G75*
G02Y21343J260D01*
G01*
G75*
G02Y20823J-260*
G01*
X31930Y5623D02*
G75*
G02Y6143J260D01*
G01*
G75*
G02Y5623J-260*
G01*
X32580Y28523D02*
G75*
G02Y29043J260D01*
G01*
G75*
G02Y28523J-260*
G01*
X32930Y21523D02*
G75*
G02Y22043J260D01*
G01*
G75*
G02Y21523J-260*
G01*
X32980Y14723D02*
G75*
G02Y15243J260D01*
G01*
G75*
G02Y14723J-260*
G01*
X33180Y7173D02*
G75*
G02Y7693J260D01*
G01*
G75*
G02Y7173J-260*
G01*
X34330Y28573D02*
G75*
G02Y29093J260D01*
G01*
G75*
G02Y28573J-260*
G01*
X34480Y14523D02*
G75*
G02Y15043J260D01*
G01*
G75*
G02Y14523J-260*
G01*
X34530Y21623D02*
G75*
G02Y22143J260D01*
G01*
G75*
G02Y21623J-260*
G01*
X34730Y7373D02*
G75*
G02Y7893J260D01*
G01*
G75*
G02Y7373J-260*
G01*
X34770Y24733D02*
G75*
G02X35290I260D01*
G01*
G75*
G02X34770I-260*
G01*
X37044Y25460D02*
X36639Y25865D01*
Y26437*
X37044Y26842*
X37616*
X38021Y26437*
Y25865*
X37616Y25460*
X37044*
Y28925D02*
X36639Y29330D01*
Y29902*
X37044Y30306*
X37616*
X38021Y29902*
Y29330*
X37616Y28925*
X37044*
X37144Y3960D02*
X36739Y4365D01*
Y4937*
X37144Y5342*
X37716*
X38121Y4937*
Y4365*
X37716Y3960*
X37144*
Y7425D02*
X36739Y7830D01*
Y8402*
X37144Y8806*
X37716*
X38121Y8402*
Y7830*
X37716Y7425*
X37144*
Y18510D02*
X36739Y18915D01*
Y19487*
X37144Y19892*
X37716*
X38121Y19487*
Y18915*
X37716Y18510*
X37144*
Y21975D02*
X36739Y22380D01*
Y22952*
X37144Y23356*
X37716*
X38121Y22952*
Y22380*
X37716Y21975*
X37144*
X37294Y11260D02*
X36889Y11665D01*
Y12237*
X37294Y12642*
X37866*
X38271Y12237*
Y11665*
X37866Y11260*
X37294*
Y14725D02*
X36889Y15130D01*
Y15702*
X37294Y16106*
X37866*
X38271Y15702*
Y15130*
X37866Y14725*
X37294*
X39616Y26429D02*
Y27369D01*
X40556*
Y26429*
X39616*
Y27413D02*
Y28353D01*
X40556*
Y27413*
X39616*
Y28398D02*
Y29338D01*
X40556*
Y28398*
X39616*
X39716Y4929D02*
Y5869D01*
X40656*
Y4929*
X39716*
Y5913D02*
Y6853D01*
X40656*
Y5913*
X39716*
Y6898D02*
Y7838D01*
X40656*
Y6898*
X39716*
Y19479D02*
Y20419D01*
X40656*
Y19479*
X39716*
Y20463D02*
Y21403D01*
X40656*
Y20463*
X39716*
Y21448D02*
Y22388D01*
X40656*
Y21448*
X39716*
X39866Y12229D02*
Y13169D01*
X40806*
Y12229*
X39866*
Y13213D02*
Y14153D01*
X40806*
Y13213*
X39866*
Y14198D02*
Y15138D01*
X40806*
Y14198*
X39866*
X41681Y28789D02*
G75*
G02X42865I592D01*
G01*
G75*
G02X41681I-592*
G01*
X41731Y7139D02*
G75*
G02X42915I592D01*
G01*
G75*
G02X41731I-592*
G01*
Y14639D02*
G75*
G02X42915I592D01*
G01*
G75*
G02X41731I-592*
G01*
X41781Y21739D02*
G75*
G02X42965I592D01*
G01*
G75*
G02X41781I-592*
G01*
X43972Y28558D02*
G75*
G02X43925Y28789I545J231D01*
G01*
G75*
G02X45110I592*
G01*
G75*
G02X44315Y28233I-592*
G01*
G75*
G02X44361Y28002I-545J-231*
G01*
G75*
G02X43177I-592*
G01*
G75*
G02X43972Y28558I592*
G01*
X44022Y6908D02*
G75*
G02X43975Y7139I545J231D01*
G01*
G75*
G02X45160I592*
G01*
G75*
G02X44365Y6583I-592*
G01*
G75*
G02X44411Y6352I-545J-231*
G01*
G75*
G02X43227I-592*
G01*
G75*
G02X44022Y6908I592*
G01*
Y14408D02*
G75*
G02X43975Y14639I545J231D01*
G01*
G75*
G02X45160I592*
G01*
G75*
G02X44365Y14083I-592*
G01*
G75*
G02X44411Y13852I-545J-231*
G01*
G75*
G02X43227I-592*
G01*
G75*
G02X44022Y14408I592*
G01*
X44072Y21508D02*
G75*
G02X44025Y21739I545J231D01*
G01*
G75*
G02X45210I592*
G01*
G75*
G02X44415Y21183I-592*
G01*
G75*
G02X44461Y20952I-545J-231*
G01*
G75*
G02X43277I-592*
G01*
G75*
G02X44072Y21508I592*
G01*
X44854Y31174D02*
G75*
G02X44570Y31433I-24J259D01*
G01*
G75*
G02X45090I260*
G01*
G75*
G02X45006Y31242I-260J0*
G01*
G75*
G02X45290Y30983I24J-259*
G01*
G75*
G02X45196Y30783I-260*
G01*
G75*
G02X45290Y30583I-166J-200*
G01*
G75*
G02X45196Y30383I-260*
G01*
G75*
G02X45290Y30183I-166J-200*
G01*
G75*
G02X45196Y29983I-260*
G01*
G75*
G02X45290Y29783I-166J-200*
G01*
G75*
G02X44770I-260*
G01*
G75*
G02X44864Y29983I260*
G01*
G75*
G02X44770Y30183I166J200*
G01*
G75*
G02X44864Y30383I260*
G01*
G75*
G02X44770Y30583I166J200*
G01*
G75*
G02X44864Y30783I260*
G01*
G75*
G02X44770Y30983I166J200*
G01*
G75*
G02X44854Y31174I260J0*
G01*
X45166Y2793D02*
G75*
G03X45299Y2659I158J25D01*
G01*
Y2559*
G75*
G02X45065Y2793I25J259*
G01*
X45166*
X45299Y2976D02*
G75*
G03X45166Y2843I25J-158D01*
G01*
X45065*
G75*
G02X45299Y3076I259J-25*
G01*
Y2976*
X45349Y2659D02*
G75*
G03X45482Y2793I-25J158D01*
G01*
X45583*
G75*
G02X45349Y2559I-259J25*
G01*
Y2659*
X45382Y28002D02*
G75*
G02X46566I592D01*
G01*
G75*
G02X45382I-592*
G01*
X45422Y24308D02*
G75*
G03X45555Y24175I158J25D01*
G01*
Y24074*
G75*
G02X45321Y24308I25J259*
G01*
X45422*
X45432Y6352D02*
G75*
G02X46616I592D01*
G01*
G75*
G02X45432I-592*
G01*
Y13852D02*
G75*
G02X46616I592D01*
G01*
G75*
G02X45432I-592*
G01*
X45433Y9845D02*
G75*
G03X45566Y9712I158J25D01*
G01*
Y9611*
G75*
G02X45332Y9845I25J259*
G01*
X45433*
X45472Y17158D02*
G75*
G03X45605Y17025I158J25D01*
G01*
Y16924*
G75*
G02X45371Y17158I25J259*
G01*
X45472*
X45482Y2843D02*
G75*
G03X45349Y2976I-158J-25D01*
G01*
Y3076*
G75*
G02X45583Y2843I-25J-259*
G01*
X45482*
X45482Y20952D02*
G75*
G02X46666I592D01*
G01*
G75*
G02X45482I-592*
G01*
X45555Y24491D02*
G75*
G03X45422Y24358I25J-158D01*
G01*
X45321*
G75*
G02X45555Y24592I259J-25*
G01*
Y24491*
X45566Y10028D02*
G75*
G03X45433Y9895I25J-158D01*
G01*
X45332*
G75*
G02X45566Y10129I259J-25*
G01*
Y10028*
X45581Y26493D02*
G75*
G03X45714Y26359I158J25D01*
G01*
Y26259*
G75*
G02X45481Y26493I25J259*
G01*
X45581*
X45605Y17341D02*
G75*
G03X45472Y17208I25J-158D01*
G01*
X45371*
G75*
G02X45605Y17442I259J-25*
G01*
Y17341*
Y24175D02*
G75*
G03X45738Y24308I-25J158D01*
G01*
X45839*
G75*
G02X45605Y24074I-259J25*
G01*
Y24175*
X45616Y9712D02*
G75*
G03X45749Y9845I-25J158D01*
G01*
X45850*
G75*
G02X45616Y9611I-259J25*
G01*
Y9712*
X45655Y17025D02*
G75*
G03X45788Y17158I-25J158D01*
G01*
X45889*
G75*
G02X45655Y16924I-259J25*
G01*
Y17025*
X45714Y26676D02*
G75*
G03X45581Y26543I25J-158D01*
G01*
X45481*
G75*
G02X45714Y26776I259J-25*
G01*
Y26676*
X45716Y4893D02*
G75*
G03X45849Y4759I158J25D01*
G01*
Y4659*
G75*
G02X45615Y4893I25J259*
G01*
X45716*
Y12293D02*
G75*
G03X45849Y12159I158J25D01*
G01*
Y12059*
G75*
G02X45615Y12293I25J259*
G01*
X45716*
X45738Y24358D02*
G75*
G03X45605Y24491I-158J-25D01*
G01*
Y24592*
G75*
G02X45839Y24358I-25J-259*
G01*
X45738*
X45749Y9895D02*
G75*
G03X45616Y10028I-158J-25D01*
G01*
Y10129*
G75*
G02X45850Y9895I-25J-259*
G01*
X45749*
X45764Y26359D02*
G75*
G03X45897Y26493I-25J158D01*
G01*
X45998*
G75*
G02X45764Y26259I-259J25*
G01*
Y26359*
X45766Y19393D02*
G75*
G03X45899Y19259I158J25D01*
G01*
Y19159*
G75*
G02X45665Y19393I25J259*
G01*
X45766*
X45788Y17208D02*
G75*
G03X45655Y17341I-158J-25D01*
G01*
Y17442*
G75*
G02X45889Y17208I-25J-259*
G01*
X45788*
X45849Y5076D02*
G75*
G03X45716Y4943I25J-158D01*
G01*
X45615*
G75*
G02X45849Y5176I259J-25*
G01*
Y5076*
Y12476D02*
G75*
G03X45716Y12343I25J-158D01*
G01*
X45615*
G75*
G02X45849Y12576I259J-25*
G01*
Y12476*
X45875Y10088D02*
G75*
G02X46395I260D01*
G01*
G75*
G02X45875I-260*
G01*
X45897Y26543D02*
G75*
G03X45764Y26676I-158J-25D01*
G01*
Y26776*
G75*
G02X45998Y26543I-25J-259*
G01*
X45897*
X45899Y4759D02*
G75*
G03X46032Y4893I-25J158D01*
G01*
X46133*
G75*
G02X45899Y4659I-259J25*
G01*
Y4759*
Y12159D02*
G75*
G03X46032Y12293I-25J158D01*
G01*
X46133*
G75*
G02X45899Y12059I-259J25*
G01*
Y12159*
Y19576D02*
G75*
G03X45766Y19443I25J-158D01*
G01*
X45665*
G75*
G02X45899Y19676I259J-25*
G01*
Y19576*
X45949Y19259D02*
G75*
G03X46082Y19393I-25J158D01*
G01*
X46183*
G75*
G02X45949Y19159I-259J25*
G01*
Y19259*
X45970Y24283D02*
G75*
G02X46490I260D01*
G01*
G75*
G02X45970I-260*
G01*
X46032Y4943D02*
G75*
G03X45899Y5076I-158J-25D01*
G01*
Y5176*
G75*
G02X46133Y4943I-25J-259*
G01*
X46032*
Y12343D02*
G75*
G03X45899Y12476I-158J-25D01*
G01*
Y12576*
G75*
G02X46133Y12343I-25J-259*
G01*
X46032*
X46070Y17183D02*
G75*
G02X46590I260D01*
G01*
G75*
G02X46070I-260*
G01*
X46082Y19443D02*
G75*
G03X45949Y19576I-158J-25D01*
G01*
Y19676*
G75*
G02X46183Y19443I-25J-259*
G01*
X46082*
X46327Y28789D02*
G75*
G02X47511I592D01*
G01*
G75*
G02X46327I-592*
G01*
X46364Y12368D02*
G75*
G02X46884I260D01*
G01*
G75*
G02X46364I-260*
G01*
X46377Y7139D02*
G75*
G02X47561I592D01*
G01*
G75*
G02X46377I-592*
G01*
Y14639D02*
G75*
G02X47561I592D01*
G01*
G75*
G02X46377I-592*
G01*
X46427Y21739D02*
G75*
G02X47611I592D01*
G01*
G75*
G02X46427I-592*
G01*
X46429Y26468D02*
G75*
G02X46949I260D01*
G01*
G75*
G02X46429I-260*
G01*
X46564Y19517D02*
G75*
G02X47084I260D01*
G01*
G75*
G02X46564I-260*
G01*
X46620Y5433D02*
G75*
G02X47140I260D01*
G01*
G75*
G02X46620I-260*
G01*
X47014Y2468D02*
G75*
G02X47534I260D01*
G01*
G75*
G02X47014I-260*
G01*
X48020Y12433D02*
G75*
G02X48540I260D01*
G01*
G75*
G02X48020I-260*
G01*
X48170Y11383D02*
G75*
G02X48690I260D01*
G01*
G75*
G02X48170I-260*
G01*
X1630Y7723D02*
G36*
Y7433D01*
X2085*
G75*
G02X1980Y7723I345J289*
G01*
X1630*
G37*
X1980D02*
G36*
G75*
G02X2104Y8033I450D01*
G01*
X1630*
Y7723*
X1980*
G37*
X2880D02*
G36*
G75*
G02X2775Y7433I-450J0D01*
G01*
X3857*
G75*
G02X3752Y7723I345J289*
G01*
X2880*
G37*
X3752D02*
G36*
G75*
G02X3876Y8033I450D01*
G01*
X2756*
G75*
G02X2880Y7723I-326J-311*
G01*
X3752*
G37*
X4652D02*
G36*
G75*
G02X4546Y7433I-450J0D01*
G01*
X6201*
G75*
G02X6285Y7723I493J15*
G01*
X4652*
G37*
X6285D02*
G36*
G75*
G02X6346Y7797I410J-275D01*
G01*
G75*
G02X7105Y7723I349J-349*
G01*
X34486*
G75*
G02X34730Y7893I244J-89*
G01*
G75*
G02X34974Y7723J-260*
G01*
X36846*
X36739Y7830*
Y8033*
X31940*
G75*
G02X31680Y7773I-260*
G01*
G75*
G02X31420Y8033J260*
G01*
X4527*
G75*
G02X4652Y7723I-326J-311*
G01*
X6285*
G37*
X7105D02*
G36*
G75*
G02X7188Y7433I-410J-275D01*
G01*
X32920*
G75*
G02X33180Y7693I260*
G01*
G75*
G02X33440Y7433J-260*
G01*
X34564*
G75*
G02X34486Y7723I166J200*
G01*
X7105*
G37*
X34974D02*
G36*
G75*
G02X34896Y7433I-244J-89D01*
G01*
X37136*
X36846Y7723*
X34974*
G37*
X38014D02*
G36*
X37724Y7433D01*
X39716*
Y7723*
X38014*
G37*
X39716D02*
G36*
Y7838D01*
X40656*
Y7723*
X42222*
G75*
G02X42424I101J-583*
G01*
X44466*
G75*
G02X44668I101J-583*
G01*
X46868*
G75*
G02X47070I101J-583*
G01*
X49130*
Y8033*
X38121*
Y7830*
X38014Y7723*
X39716*
G37*
X40656D02*
G36*
Y7433D01*
X41809*
G75*
G02X42222Y7723I514J-294*
G01*
X40656*
G37*
X42424D02*
G36*
G75*
G02X42837Y7433I-101J-583D01*
G01*
X44053*
G75*
G02X44466Y7723I514J-294*
G01*
X42424*
G37*
X44668D02*
G36*
G75*
G02X45081Y7433I-101J-583D01*
G01*
X46455*
G75*
G02X46868Y7723I514J-294*
G01*
X44668*
G37*
X47070D02*
G36*
G75*
G02X47483Y7433I-101J-583D01*
G01*
X49130*
Y7723*
X47070*
G37*
X1630Y10282D02*
G36*
Y10012D01*
X2070*
G75*
G02X1980Y10282I360J270*
G01*
X1630*
G37*
X1980D02*
G36*
G75*
G02X2024Y10475I450J0D01*
G01*
X1630*
Y10282*
X1980*
G37*
X2880D02*
G36*
G75*
G02X2790Y10012I-450J0D01*
G01*
X3841*
G75*
G02X3752Y10282I360J270*
G01*
X2880*
G37*
X3752D02*
G36*
G75*
G02X3795Y10475I450J0D01*
G01*
X2836*
G75*
G02X2880Y10282I-406J-193*
G01*
X3752*
G37*
X4652D02*
G36*
G75*
G02X4562Y10012I-450J0D01*
G01*
X45373*
G75*
G02X45566Y10129I218J-142*
G01*
Y10028*
G75*
G03X45517Y10012I25J-158*
G01*
X45665*
G75*
G03X45616Y10028I-74J-142*
G01*
Y10129*
G75*
G02X45809Y10012I-25J-259*
G01*
X45887*
G75*
G02X45875Y10088I249J76*
G01*
G75*
G02X45962Y10282I260*
G01*
X17935*
G75*
G02X17705Y10074I-255J52*
G01*
Y10175*
G75*
G03X17831Y10282I-25J158*
G01*
X17529*
G75*
G03X17655Y10175I151J52*
G01*
Y10074*
G75*
G02X17425Y10282I25J259*
G01*
X14635*
G75*
G02X14125I-255J52*
G01*
X4652*
G37*
X14125D02*
G36*
G75*
G02X14120Y10333I255J52D01*
G01*
G75*
G02X14162Y10475I260*
G01*
X4608*
G75*
G02X4652Y10282I-406J-193*
G01*
X14125*
G37*
X17425D02*
G36*
G75*
G02X17421Y10308I255J52D01*
G01*
X17522*
G75*
G03X17529Y10282I158J25*
G01*
X17831*
G75*
G03X17838Y10308I-151J52*
G01*
X17939*
G75*
G02X17935Y10282I-259J25*
G01*
X45962*
G75*
G02X46309I173J-194*
G01*
X49130*
Y10475*
X17898*
G75*
G02X17939Y10358I-218J-142*
G01*
X17838*
G75*
G03X17754Y10475I-158J-25*
G01*
X17606*
G75*
G03X17522Y10358I74J-142*
G01*
X17421*
G75*
G02X17462Y10475I259J-25*
G01*
X14598*
G75*
G02X14640Y10333I-218J-142*
G01*
G75*
G02X14635Y10282I-260J0*
G01*
X17425*
G37*
X46309D02*
G36*
G75*
G02X46395Y10088I-173J-194D01*
G01*
G75*
G02X46384Y10012I-260*
G01*
X49130*
Y10282*
X46309*
G37*
X1630Y17536D02*
G36*
Y17325D01*
X2725*
G75*
G02X2430Y17536I105J458*
G01*
X1630*
G37*
X2430D02*
G36*
G75*
G02X2361Y17758I400J247D01*
G01*
X2461*
G75*
G03X2555Y17536I369J25*
G01*
X3105*
G75*
G03X3199Y17758I-275J247*
G01*
X3299*
G75*
G02X3230Y17536I-469J25*
G01*
X9470*
G75*
G02X9890I210J-153*
G01*
X10169*
G75*
G02X10327Y17525I61J-253*
G01*
G75*
G02X10320Y17583I253J59*
G01*
G75*
G02X10840I260*
G01*
G75*
G02X10836Y17536I-260J0*
G01*
X11825*
G75*
G02X12335I255J-53*
G01*
X13561*
G75*
G02X13470Y17733I169J197*
G01*
G75*
G02X13990I260*
G01*
G75*
G02X13899Y17536I-260*
G01*
X15974*
G75*
G02X15970Y17583I256J47*
G01*
G75*
G02X16490I260*
G01*
G75*
G02X16486Y17536I-260J0*
G01*
X22117*
G75*
G02X22280Y17593I163J-203*
G01*
G75*
G02X22443Y17536J-260*
G01*
X49130*
Y18030*
X25694*
G75*
G02X25740Y17883I-214J-147*
G01*
G75*
G02X25220I-260*
G01*
G75*
G02X25266Y18030I260*
G01*
X18554*
G75*
G02X18330Y17903I-224J133*
G01*
G75*
G02X18106Y18030J260*
G01*
X17149*
G75*
G02X17240Y17833I-169J-197*
G01*
G75*
G02X16720I-260*
G01*
G75*
G02X16811Y18030I260*
G01*
X15990*
G75*
G02X15570I-210J153*
G01*
X12744*
G75*
G02X12790Y17883I-214J-147*
G01*
G75*
G02X12270I-260*
G01*
G75*
G02X12316Y18030I260*
G01*
X11286*
G75*
G02X11290Y17983I-256J-47*
G01*
G75*
G02X10770I-260*
G01*
G75*
G02X10774Y18030I260J0*
G01*
X9499*
G75*
G02X9590Y17833I-169J-197*
G01*
G75*
G02X9070I-260*
G01*
G75*
G02X9161Y18030I260*
G01*
X7290*
G75*
G02X6770I-260J3*
G01*
X3230*
G75*
G02X3299Y17808I-400J-247*
G01*
X3199*
G75*
G03X3105Y18030I-369J-25*
G01*
X2555*
G75*
G03X2461Y17808I275J-247*
G01*
X2361*
G75*
G02X2430Y18030I469J-25*
G01*
X1630*
Y17536*
X2430*
G37*
X2555D02*
G36*
G75*
G03X2805Y17414I275J247D01*
G01*
Y17325*
X2855*
Y17414*
G75*
G03X3105Y17536I-25J369*
G01*
X2555*
G37*
X3230D02*
G36*
G75*
G02X2935Y17325I-400J247D01*
G01*
X9427*
G75*
G02X9420Y17383I253J58*
G01*
G75*
G02X9470Y17536I260J0*
G01*
X3230*
G37*
X9890D02*
G36*
G75*
G02X9940Y17383I-210J-153D01*
G01*
G75*
G02X9933Y17325I-260*
G01*
X9973*
G75*
G02X10169Y17536I257J-42*
G01*
X9890*
G37*
X10836D02*
G36*
G75*
G02X10611Y17325I-256J47D01*
G01*
X11874*
G75*
G02X11820Y17483I206J158*
G01*
G75*
G02X11825Y17536I260J0*
G01*
X10836*
G37*
X12335D02*
G36*
G75*
G02X12340Y17483I-255J-53D01*
G01*
G75*
G02X12286Y17325I-260*
G01*
X16199*
G75*
G02X15974Y17536I31J258*
G01*
X13899*
G75*
G02X13561I-169J197*
G01*
X12335*
G37*
X16486D02*
G36*
G75*
G02X16261Y17325I-256J47D01*
G01*
X16412*
G75*
G02X16848I218J-142*
G01*
X22020*
G75*
G02X22117Y17536I260J8*
G01*
X16486*
G37*
X22443D02*
G36*
G75*
G02X22540Y17325I-163J-203D01*
G01*
X45412*
G75*
G02X45605Y17442I218J-142*
G01*
Y17341*
G75*
G03X45556Y17325I25J-158*
G01*
X45704*
G75*
G03X45655Y17341I-74J-142*
G01*
Y17442*
G75*
G02X45848Y17325I-25J-259*
G01*
X46112*
G75*
G02X46548I218J-142*
G01*
X49130*
Y17536*
X22443*
G37*
X2430Y18030D02*
G36*
G75*
G02X2805Y18253I400J-247D01*
G01*
Y18152*
G75*
G03X2555Y18030I25J-369*
G01*
X3105*
G75*
G03X2855Y18152I-275J-247*
G01*
Y18253*
G75*
G02X3230Y18030I-25J-469*
G01*
X6770*
G75*
G02Y18033I260J1*
G01*
G75*
G02X7290I260*
G01*
G75*
G02Y18030I-260J-1*
G01*
X9161*
G75*
G02X9499I169J-197*
G01*
X10774*
G75*
G02X11286I256J-47*
G01*
X12316*
G75*
G02X12744I214J-147*
G01*
X15570*
G75*
G02X15520Y18183I210J153*
G01*
G75*
G02X16040I260*
G01*
G75*
G02X15990Y18030I-260J0*
G01*
X16811*
G75*
G02X17149I169J-197*
G01*
X18106*
G75*
G02X18330Y18423I224J133*
G01*
G75*
G02X18554Y18030J-260*
G01*
X25266*
G75*
G02X25694I214J-147*
G01*
X49130*
Y18483*
X31342*
G75*
G02X31130Y18373I-212J150*
G01*
G75*
G02X30918Y18483J260*
G01*
X30881*
G75*
G02X30626Y18173I-255J-50*
G01*
G75*
G02X30371Y18483J260*
G01*
X20920*
G75*
G02X20680Y18123I-240J-100*
G01*
G75*
G02X20440Y18483J260*
G01*
X9696*
G75*
G02X9364I-166J200*
G01*
X7990*
G75*
G02X7470I-260*
G01*
X3192*
G75*
G02X2830Y18313I-362J300*
G01*
G75*
G02X2468Y18483J470*
G01*
X1630*
Y18030*
X2430*
G37*
X1630Y13783D02*
G36*
Y13375D01*
X2597*
G75*
G02X2360Y13783I233J408*
G01*
X1630*
G37*
X2360D02*
G36*
G75*
G02X2475Y14091I470D01*
G01*
X1630*
Y13783*
X2360*
G37*
X3300D02*
G36*
G75*
G02X3063Y13375I-470D01*
G01*
X11062*
G75*
G02X11255Y13492I218J-142*
G01*
Y13391*
G75*
G03X11206Y13375I25J-158*
G01*
X11354*
G75*
G03X11305Y13391I-74J-142*
G01*
Y13492*
G75*
G02X11498Y13375I-25J-259*
G01*
X11862*
G75*
G02X12298I218J-142*
G01*
X31574*
G75*
G02X31564Y13783I156J208*
G01*
X22089*
G75*
G02X21830Y13503I-259J-20*
G01*
G75*
G02X21571Y13783J260*
G01*
X18451*
G75*
G02X18330Y13753I-121J230*
G01*
G75*
G02X18209Y13783J260*
G01*
X3300*
G37*
X18209D02*
G36*
G75*
G02X18082Y14091I121J230D01*
G01*
X3185*
G75*
G02X3300Y13783I-355J-308*
G01*
X18209*
G37*
X21571D02*
G36*
G75*
G02X21830Y14023I259J-20D01*
G01*
G75*
G02X22089Y13783J-260*
G01*
X31564*
G75*
G02X31730Y13843I166J-200*
G01*
G75*
G02X31896Y13783J-260*
G01*
X39866*
Y14091*
X31655*
G75*
G02X31480Y14023I-175J192*
G01*
G75*
G02X31305Y14091J260*
G01*
X26898*
G75*
G02X26705Y13974I-218J142*
G01*
Y14075*
G75*
G03X26754Y14091I-25J158*
G01*
X26606*
G75*
G03X26655Y14075I74J142*
G01*
Y13974*
G75*
G02X26462Y14091I25J259*
G01*
X18578*
G75*
G02X18451Y13783I-248J-78*
G01*
X21571*
G37*
X31896D02*
G36*
G75*
G02X31886Y13375I-166J-200D01*
G01*
X39866*
Y13783*
X31896*
G37*
X40806D02*
G36*
Y13375D01*
X43468*
G75*
G02X43231Y13783I351J477*
G01*
X40806*
G37*
X43231D02*
G36*
G75*
G02X43227Y13852I588J69D01*
G01*
G75*
G02X43278Y14091I592J0*
G01*
X42548*
G75*
G02X42099I-225J548*
G01*
X40806*
Y13783*
X43231*
G37*
X44408D02*
G36*
G75*
G02X44171Y13375I-588J69D01*
G01*
X45673*
G75*
G02X45436Y13783I351J477*
G01*
X44408*
G37*
X45436D02*
G36*
G75*
G02X45432Y13852I588J69D01*
G01*
G75*
G02X45483Y14091I592J0*
G01*
X44792*
G75*
G02X44365Y14083I-225J548*
G01*
G75*
G02X44411Y13852I-545J-231*
G01*
G75*
G02X44408Y13783I-592*
G01*
X45436*
G37*
X46612D02*
G36*
G75*
G02X46375Y13375I-588J69D01*
G01*
X49130*
Y13783*
X46612*
G37*
X49130D02*
G36*
Y14091D01*
X47194*
G75*
G02X46744I-225J548*
G01*
X46566*
G75*
G02X46616Y13852I-542J-240*
G01*
G75*
G02X46612Y13783I-592*
G01*
X49130*
G37*
X1630Y14783D02*
G36*
Y14391D01*
X2571*
G75*
G02X2360Y14783I259J392*
G01*
X1630*
G37*
X2360D02*
G36*
G75*
G02X2830Y15253I470D01*
G01*
G75*
G02X3300Y14783J-470*
G01*
X7190*
G75*
G02X7170Y14883I240J100*
G01*
G75*
G02X7690I260*
G01*
G75*
G02X7670Y14783I-260*
G01*
X8959*
G75*
G02X9005Y14792I71J-250*
G01*
Y14783*
X9055*
Y14792*
G75*
G02X9101Y14783I-25J-259*
G01*
X17641*
G75*
G02X17709Y14813I139J-220*
G01*
G75*
G02X17780Y15323I71J250*
G01*
G75*
G02X17851Y14813J-260*
G01*
G75*
G02X17919Y14783I-71J-250*
G01*
X24640*
G75*
G02X25120I240J-100*
G01*
X32814*
G75*
G02X32980Y15243I166J200*
G01*
G75*
G02X33146Y14783J-260*
G01*
X34220*
G75*
G02X34480Y15043I260*
G01*
G75*
G02X34740Y14783J-260*
G01*
X37236*
X36889Y15130*
Y15333*
X31501*
G75*
G02X31430Y15323I-71J250*
G01*
G75*
G02X31359Y15333J260*
G01*
X21305*
G75*
G02X21080Y15203I-225J130*
G01*
G75*
G02X20855Y15333J260*
G01*
X19390*
G75*
G02X19130Y15073I-260*
G01*
G75*
G02X18870Y15333J260*
G01*
X15590*
G75*
G02X15070I-260*
G01*
X2966*
G75*
G02X2830Y15313I-136J450*
G01*
G75*
G02X2694Y15333J470*
G01*
X1630*
Y14783*
X2360*
G37*
X3300D02*
G36*
G75*
G02X3089Y14391I-470D01*
G01*
X8812*
G75*
G02X8771Y14508I218J142*
G01*
X8872*
G75*
G03X8956Y14391I158J25*
G01*
X9104*
G75*
G03X9188Y14508I-74J142*
G01*
X9289*
G75*
G02X9248Y14391I-259J25*
G01*
X17585*
G75*
G02X17641Y14783I195J172*
G01*
X9101*
G75*
G02X9289Y14558I-71J-250*
G01*
X9188*
G75*
G03X9055Y14691I-158J-25*
G01*
Y14783*
X9005*
Y14691*
G75*
G03X8872Y14558I25J-158*
G01*
X8771*
G75*
G02X8959Y14783I259J-25*
G01*
X7670*
G75*
G02X7190I-240J100*
G01*
X3300*
G37*
X17919D02*
G36*
G75*
G02X17975Y14391I-139J-220D01*
G01*
X26474Y14391*
G75*
G02X26655Y14492I206J-158*
G01*
Y14391*
X26705Y14391*
Y14492*
G75*
G02X26886Y14391I-25J-259*
G01*
X31244*
G75*
G02X31480Y14543I236J-108*
G01*
G75*
G02X31716Y14391J-260*
G01*
X39866*
Y14783*
X37924*
X37866Y14725*
X37294*
X37236Y14783*
X34740*
G75*
G02X34480Y14523I-260*
G01*
G75*
G02X34220Y14783J260*
G01*
X33146*
G75*
G02X32980Y14723I-166J200*
G01*
G75*
G02X32814Y14783J260*
G01*
X25120*
G75*
G02X25140Y14683I-240J-100*
G01*
G75*
G02X24620I-260*
G01*
G75*
G02X24640Y14783I260*
G01*
X17919*
G37*
X39866D02*
G36*
Y15138D01*
X40806*
Y14783*
X41749*
G75*
G02X42898I574J-144*
G01*
X43993*
G75*
G02X45142I574J-144*
G01*
X46395*
G75*
G02X47543I574J-144*
G01*
X49130*
Y15333*
X38271*
Y15130*
X37924Y14783*
X39866*
G37*
X40806D02*
G36*
Y14391D01*
X41786*
G75*
G02X41731Y14639I538J248*
G01*
G75*
G02X41749Y14783I592J0*
G01*
X40806*
G37*
X42898D02*
G36*
G75*
G02X42915Y14639I-574J-144D01*
G01*
G75*
G02X42861Y14391I-592J0*
G01*
X43576*
G75*
G02X44022Y14408I244J-540*
G01*
G75*
G02X43975Y14639I545J231*
G01*
G75*
G02X43993Y14783I592J0*
G01*
X42898*
G37*
X45142D02*
G36*
G75*
G02X45160Y14639I-574J-144D01*
G01*
G75*
G02X45105Y14391I-592J0*
G01*
X45780*
G75*
G02X46268I244J-540*
G01*
X46431*
G75*
G02X46377Y14639I538J248*
G01*
G75*
G02X46395Y14783I592J0*
G01*
X45142*
G37*
X47543D02*
G36*
G75*
G02X47561Y14639I-574J-144D01*
G01*
G75*
G02X47507Y14391I-592J0*
G01*
X49130*
Y14783*
X47543*
G37*
X1630Y15783D02*
G36*
Y15333D01*
X2694*
G75*
G02X2360Y15783I136J450*
G01*
X1630*
G37*
X2360D02*
G36*
G75*
G02X2387Y15941I470J0D01*
G01*
X1630*
Y15783*
X2360*
G37*
X3300D02*
G36*
G75*
G02X2966Y15333I-470D01*
G01*
X15070*
G75*
G02X15590I260*
G01*
X18870*
G75*
G02X19130Y15593I260*
G01*
G75*
G02X19390Y15333J-260*
G01*
X20855*
G75*
G02X21080Y15723I225J130*
G01*
G75*
G02X21305Y15333J-260*
G01*
X31359*
G75*
G02X31264Y15783I71J250*
G01*
X4501*
G75*
G02X4359I-71J250*
G01*
X3300*
G37*
X4359D02*
G36*
G75*
G02X4187Y15941I71J250D01*
G01*
X3273*
G75*
G02X3300Y15783I-443J-158*
G01*
X4359*
G37*
X31264D02*
G36*
G75*
G02X31430Y15843I166J-200D01*
G01*
G75*
G02X31596Y15783J-260*
G01*
X36971*
X37129Y15941*
X18010*
G75*
G02X17780Y15803I-230J122*
G01*
G75*
G02X17550Y15941J260*
G01*
X16848*
G75*
G02X16655Y15824I-218J142*
G01*
Y15925*
G75*
G03X16704Y15941I-25J158*
G01*
X16556*
G75*
G03X16605Y15925I74J142*
G01*
Y15824*
G75*
G02X16412Y15941I25J259*
G01*
X4673*
G75*
G02X4501Y15783I-243J92*
G01*
X31264*
G37*
X31596D02*
G36*
G75*
G02X31501Y15333I-166J-200D01*
G01*
X36889*
Y15702*
X36971Y15783*
X31596*
G37*
X38189D02*
G36*
X38271Y15702D01*
Y15333*
X49130*
Y15783*
X38189*
G37*
X49130D02*
G36*
Y15941D01*
X38031*
X38189Y15783*
X49130*
G37*
X1630Y16783D02*
G36*
Y16383D01*
X2583*
G75*
G02X2360Y16783I247J400*
G01*
X1630*
G37*
X2360D02*
G36*
G75*
G02X2437Y17041I470D01*
G01*
X1630*
Y16783*
X2360*
G37*
X3300D02*
G36*
G75*
G02X3077Y16383I-470D01*
G01*
X12570*
G75*
G02X13090I260*
G01*
X19059*
G75*
G02X18983Y16783I121J230*
G01*
X16490*
G75*
G02X16005Y16653I-260*
G01*
G75*
G02X15520Y16783I-225J130*
G01*
X12992*
G75*
G02X12568I-212J150*
G01*
X11401*
G75*
G02X11259I-71J250*
G01*
X10535*
G75*
G02X10540Y16733I-255J-50*
G01*
G75*
G02X10020I-260*
G01*
G75*
G02X10025Y16783I260J0*
G01*
X4501*
G75*
G02X4359I-71J250*
G01*
X3300*
G37*
X4359D02*
G36*
G75*
G02X4170Y17033I71J250D01*
G01*
G75*
G02X4170Y17041I260J0*
G01*
X3223*
G75*
G02X3300Y16783I-393J-258*
G01*
X4359*
G37*
X10025D02*
G36*
G75*
G02X10535I255J-50D01*
G01*
X11259*
G75*
G02X11070Y17033I71J250*
G01*
G75*
G02X11070Y17041I260J0*
G01*
X10325*
G75*
G02X10135I-95J242*
G01*
X4690*
G75*
G02X4690Y17033I-260J-8*
G01*
G75*
G02X4501Y16783I-260*
G01*
X10025*
G37*
X12568D02*
G36*
G75*
G02X12520Y16933I212J150D01*
G01*
G75*
G02X12544Y17041I260*
G01*
X11590*
G75*
G02X11590Y17033I-260J-8*
G01*
G75*
G02X11401Y16783I-260*
G01*
X12568*
G37*
X15520D02*
G36*
G75*
G02X15749Y17041I260D01*
G01*
X13016*
G75*
G02X13040Y16933I-236J-108*
G01*
G75*
G02X12992Y16783I-260*
G01*
X15520*
G37*
X18983D02*
G36*
G75*
G02X19180Y16873I197J-170D01*
G01*
G75*
G02X19377Y16783J-260*
G01*
X20941*
G75*
G02X21080Y16823I139J-220*
G01*
G75*
G02X21219Y16783J-260*
G01*
X49130*
Y17041*
X46548*
G75*
G02X46112I-218J142*
G01*
X45848*
G75*
G02X45655Y16924I-218J142*
G01*
Y17025*
G75*
G03X45704Y17041I-25J158*
G01*
X45556*
G75*
G03X45605Y17025I74J142*
G01*
Y16924*
G75*
G02X45412Y17041I25J259*
G01*
X16848*
G75*
G02X16412I-218J142*
G01*
X16261*
G75*
G02X16490Y16783I-31J-258*
G01*
X18983*
G37*
X19377D02*
G36*
G75*
G02X19301Y16383I-197J-170D01*
G01*
X20892*
G75*
G02X20941Y16783I188J180*
G01*
X19377*
G37*
X21219D02*
G36*
G75*
G02X21268Y16383I-139J-220D01*
G01*
X22049*
G75*
G02X22255Y16522I231J-120*
G01*
Y16421*
G75*
G03X22174Y16383I25J-158*
G01*
X22386*
G75*
G03X22305Y16421I-106J-120*
G01*
Y16522*
G75*
G02X22511Y16383I-25J-259*
G01*
X30140*
G75*
G02X30380Y16743I240J100*
G01*
G75*
G02X30620Y16383J-260*
G01*
X49130*
Y16783*
X21219*
G37*
X1630Y18783D02*
G36*
Y18483D01*
X2468*
G75*
G02X2360Y18783I362J300*
G01*
X1630*
G37*
X2360D02*
G36*
G75*
G02X2583Y19183I470D01*
G01*
X1630*
Y18783*
X2360*
G37*
X3300D02*
G36*
G75*
G02X3192Y18483I-470D01*
G01*
X7470*
G75*
G02X7990I260*
G01*
X9364*
G75*
G02X9270Y18683I166J200*
G01*
G75*
G02X9290Y18783I260*
G01*
X9285*
G75*
G02X8775I-255J50*
G01*
X3300*
G37*
X8775D02*
G36*
G75*
G02X8770Y18833I255J50D01*
G01*
G75*
G02X9290I260*
G01*
G75*
G02X9285Y18783I-260J0*
G01*
X9290*
G75*
G02X9770I240J-100*
G01*
X30918*
G75*
G02X31130Y18893I212J-150*
G01*
G75*
G02X31342Y18783J-260*
G01*
X36871*
X36739Y18915*
Y19183*
X26335*
G75*
G02X26080Y18973I-255J50*
G01*
G75*
G02X25825Y19183J260*
G01*
X22092*
G75*
G02X21468I-312J250*
G01*
X17140*
G75*
G02X16620I-260*
G01*
X14642*
G75*
G02X14218I-212J150*
G01*
X11890*
G75*
G02X11370I-260*
G01*
X3077*
G75*
G02X3300Y18783I-247J-400*
G01*
X8775*
G37*
X9770D02*
G36*
G75*
G02X9790Y18683I-240J-100D01*
G01*
G75*
G02X9696Y18483I-260*
G01*
X20440*
G75*
G02X20680Y18643I240J-100*
G01*
G75*
G02X20920Y18483J-260*
G01*
X30371*
G75*
G02X30626Y18693I255J-50*
G01*
G75*
G02X30881Y18483J-260*
G01*
X30918*
G75*
G02Y18783I212J150*
G01*
X9770*
G37*
X31342D02*
G36*
G75*
G02Y18483I-212J-150D01*
G01*
X49130*
Y18783*
X37989*
X37716Y18510*
X37144*
X36871Y18783*
X31342*
G37*
X49130D02*
G36*
Y19183D01*
X46037*
G75*
G02X45949Y19159I-113J234*
G01*
Y19183*
X45899*
Y19159*
G75*
G02X45811Y19183I25J259*
G01*
X38121*
Y18915*
X37989Y18783*
X49130*
G37*
X1630Y1383D02*
G36*
Y283D01*
X49130*
Y1383*
X23944*
G75*
G02X23352Y796I-592J5*
G01*
G75*
G02X22760Y1383J592*
G01*
X15044*
G75*
G02X14452Y796I-592J5*
G01*
G75*
G02X13860Y1383J592*
G01*
X12300*
Y1189*
X12025Y913*
X11635*
X11360Y1189*
Y1383*
X11300*
Y1189*
X11025Y913*
X10635*
X10360Y1189*
Y1383*
X10300*
Y1189*
X10025Y913*
X9635*
X9360Y1189*
Y1383*
X9300*
Y1189*
X9025Y913*
X8635*
X8360Y1189*
Y1383*
X8300*
Y1189*
X8025Y913*
X7635*
X7360Y1189*
Y1383*
X7300*
Y1189*
X7025Y913*
X6635*
X6360Y1189*
Y1383*
X6300*
Y1189*
X6025Y913*
X5635*
X5360Y1189*
Y1383*
X5300*
Y1189*
X5025Y913*
X4635*
X4360Y1189*
Y1383*
X4300*
Y1189*
X4025Y913*
X3635*
X3360Y1189*
Y1383*
X3300*
Y1189*
X3025Y913*
X2635*
X2360Y1189*
Y1383*
X1630*
G37*
X2360D02*
G36*
Y1578D01*
X2635Y1853*
X3025*
X3300Y1578*
Y1383*
X3360*
Y1578*
X3635Y1853*
X4025*
X4300Y1578*
Y1383*
X4360*
Y1578*
X4635Y1853*
X5025*
X5300Y1578*
Y1383*
X5360*
Y1578*
X5635Y1853*
X6025*
X6300Y1578*
Y1383*
X6360*
Y1578*
X6635Y1853*
X7025*
X7300Y1578*
Y1383*
X7360*
Y1578*
X7635Y1853*
X8025*
X8300Y1578*
Y1383*
X8360*
Y1578*
X8635Y1853*
X9025*
X9300Y1578*
Y1383*
X9360*
Y1578*
X9635Y1853*
X10025*
X10300Y1578*
Y1383*
X10360*
Y1578*
X10635Y1853*
X11025*
X11300Y1578*
Y1383*
X11360*
Y1578*
X11635Y1853*
X12025*
X12300Y1578*
Y1383*
X13860*
G75*
G02X14452Y1981I592J5*
G01*
G75*
G02X15044Y1383J-592*
G01*
X22760*
G75*
G02X23352Y1981I592J5*
G01*
G75*
G02X23944Y1383J-592*
G01*
X49130*
Y2136*
X23122*
G75*
G02X22564Y1741I-558J198*
G01*
G75*
G02X22006Y2136J592*
G01*
X19190*
G75*
G02X18930Y1873I-260J-2*
G01*
G75*
G02X18670Y2136J260*
G01*
X14222*
G75*
G02X13664Y1741I-558J198*
G01*
G75*
G02X13106Y2136J592*
G01*
X12247*
X12025Y1913*
X11855*
Y2013*
X11983*
X12106Y2136*
X11554*
X11677Y2013*
X11805*
Y1913*
X11635*
X11413Y2136*
X11247*
X11025Y1913*
X10635*
X10413Y2136*
X10247*
X10025Y1913*
X9635*
X9413Y2136*
X9247*
X9025Y1913*
X8635*
X8413Y2136*
X8247*
X8025Y1913*
X7635*
X7413Y2136*
X7247*
X7025Y1913*
X6635*
X6413Y2136*
X6247*
X6025Y1913*
X5635*
X5413Y2136*
X5247*
X5025Y1913*
X4635*
X4413Y2136*
X4247*
X4025Y1913*
X3635*
X3413Y2136*
X3247*
X3025Y1913*
X2635*
X2413Y2136*
X1630*
Y1383*
X2360*
G37*
X1630Y2383D02*
G36*
Y2136D01*
X2413*
X2360Y2189*
Y2383*
X1630*
G37*
X2360D02*
G36*
Y2578D01*
X2413Y2631*
X1630*
Y2383*
X2360*
G37*
X3300D02*
G36*
Y2189D01*
X3247Y2136*
X3413*
X3360Y2189*
Y2383*
X3300*
G37*
X3360D02*
G36*
Y2578D01*
X3413Y2631*
X3247*
X3300Y2578*
Y2383*
X3360*
G37*
X4300D02*
G36*
Y2189D01*
X4247Y2136*
X4413*
X4360Y2189*
Y2383*
X4300*
G37*
X4360D02*
G36*
Y2578D01*
X4413Y2631*
X4247*
X4300Y2578*
Y2383*
X4360*
G37*
X5300D02*
G36*
Y2189D01*
X5247Y2136*
X5413*
X5360Y2189*
Y2383*
X5300*
G37*
X5360D02*
G36*
Y2578D01*
X5413Y2631*
X5247*
X5300Y2578*
Y2383*
X5360*
G37*
X6300D02*
G36*
Y2189D01*
X6247Y2136*
X6413*
X6360Y2189*
Y2383*
X6300*
G37*
X6360D02*
G36*
Y2578D01*
X6413Y2631*
X6247*
X6300Y2578*
Y2383*
X6360*
G37*
X7300D02*
G36*
Y2189D01*
X7247Y2136*
X7413*
X7360Y2189*
Y2383*
X7300*
G37*
X7360D02*
G36*
Y2578D01*
X7413Y2631*
X7247*
X7300Y2578*
Y2383*
X7360*
G37*
X8300D02*
G36*
Y2189D01*
X8247Y2136*
X8413*
X8360Y2189*
Y2383*
X8300*
G37*
X8360D02*
G36*
Y2578D01*
X8413Y2631*
X8247*
X8300Y2578*
Y2383*
X8360*
G37*
X9300D02*
G36*
Y2189D01*
X9247Y2136*
X9413*
X9360Y2189*
Y2383*
X9300*
G37*
X9360D02*
G36*
Y2578D01*
X9413Y2631*
X9247*
X9300Y2578*
Y2383*
X9360*
G37*
X10300D02*
G36*
Y2189D01*
X10247Y2136*
X10413*
X10360Y2189*
Y2383*
X10300*
G37*
X10360D02*
G36*
Y2578D01*
X10413Y2631*
X10247*
X10300Y2578*
Y2383*
X10360*
G37*
X11300D02*
G36*
Y2189D01*
X11247Y2136*
X11413*
X11360Y2189*
Y2358*
X11460*
Y2230*
X11554Y2136*
X12106*
X12200Y2230*
Y2358*
X12300*
Y2189*
X12247Y2136*
X13106*
G75*
G02X13074Y2383I558J197*
G01*
X11300*
G37*
X13074D02*
G36*
G75*
G02X13152Y2631I590J-50D01*
G01*
X12247*
X12300Y2578*
Y2408*
X12200*
Y2537*
X12106Y2631*
X11554*
X11460Y2537*
Y2408*
X11360*
Y2578*
X11413Y2631*
X11247*
X11300Y2578*
Y2383*
X13074*
G37*
X14254D02*
G36*
G75*
G02X14222Y2136I-590J-50D01*
G01*
X18670*
G75*
G02X18859Y2383I260J-2*
G01*
X17474*
X17384Y2293*
X16812*
X16721Y2383*
X14254*
G37*
X16721D02*
G36*
X16474Y2631D01*
X14176*
G75*
G02X14254Y2383I-512J-297*
G01*
X16721*
G37*
X18859D02*
G36*
G75*
G02X18930Y2393I71J-250D01*
G01*
G75*
G02X19001Y2383J-260*
G01*
X20186*
X19938Y2631*
X17722*
X17474Y2383*
X18859*
G37*
X19001D02*
G36*
G75*
G02X19190Y2136I-71J-250D01*
G01*
X22006*
G75*
G02X21974Y2383I558J197*
G01*
X20939*
X20848Y2293*
X20276*
X20186Y2383*
X19001*
G37*
X21974D02*
G36*
G75*
G02X22052Y2631I590J-50D01*
G01*
X21186*
X20939Y2383*
X21974*
G37*
X23154D02*
G36*
G75*
G02X23122Y2136I-590J-50D01*
G01*
X49130*
Y2383*
X47520*
G75*
G02X47028I-246J84*
G01*
X23154*
G37*
X47028D02*
G36*
G75*
G02X47014Y2468I246J84D01*
G01*
G75*
G02X47072Y2631I260*
G01*
X45505*
G75*
G02X45349Y2559I-181J187*
G01*
Y2631*
X45299*
Y2559*
G75*
G02X45143Y2631I25J259*
G01*
X23076*
G75*
G02X23154Y2383I-512J-297*
G01*
X47028*
G37*
X49130D02*
G36*
Y2631D01*
X47476*
G75*
G02X47534Y2468I-202J-163*
G01*
G75*
G02X47520Y2383I-260J0*
G01*
X49130*
G37*
X1630Y27283D02*
G36*
Y26583D01*
X10530*
G75*
G02X11230Y27283I700*
G01*
X4940*
G75*
G02X4420I-260*
G01*
X3940*
G75*
G02X3420I-260*
G01*
X1630*
G37*
X11230D02*
G36*
G75*
G02X11930Y26583J-700D01*
G01*
X20018*
G75*
G02X20330Y26733I312J-250*
G01*
G75*
G02X20642Y26583J-400*
G01*
X22018*
G75*
G02X22330Y26733I312J-250*
G01*
G75*
G02X22642Y26583J-400*
G01*
X28195*
G75*
G02X28280Y27089I85J246*
G01*
G75*
G02X28365Y26583J-260*
G01*
X36786*
X37044Y26842*
X37616*
X37874Y26583*
X39616*
Y27283*
X31840*
G75*
G02X31580Y27023I-260*
G01*
G75*
G02X31320Y27283J260*
G01*
X11230*
G37*
X3420D02*
G36*
G75*
G02X3940I260D01*
G01*
X4420*
G75*
G02X4940I260*
G01*
X31320*
G75*
G02X31580Y27543I260*
G01*
G75*
G02X31840Y27283J-260*
G01*
X39616*
Y27369*
X40556*
Y27283*
X49130*
Y27883*
X46554*
G75*
G02X45394I-580J119*
G01*
X44350*
G75*
G02X43189I-580J119*
G01*
X40556*
Y27413*
X39616*
Y27883*
X31646*
G75*
G02X31480Y27823I-166J200*
G01*
G75*
G02X31314Y27883J260*
G01*
X26892*
G75*
G02X26705Y27774I-212J150*
G01*
Y27875*
G75*
G03X26736Y27883I-25J158*
G01*
X26624*
G75*
G03X26655Y27875I56J150*
G01*
Y27774*
G75*
G02X26468Y27883I25J259*
G01*
X14540*
G75*
G02X14020I-260*
G01*
X11663*
G75*
G02X10797I-433J550*
G01*
X1630*
Y27283*
X3420*
G37*
X40556D02*
G36*
Y26583D01*
X45488*
G75*
G02X45714Y26776I252J-66*
G01*
Y26676*
G75*
G03X45594Y26583I25J-158*
G01*
X45885*
G75*
G03X45764Y26676I-146J-66*
G01*
Y26776*
G75*
G02X45991Y26583I-25J-259*
G01*
X46457*
G75*
G02X46922I233J-116*
G01*
X49130*
Y27283*
X40556*
G37*
X1630Y28283D02*
G36*
Y27883D01*
X10797*
G75*
G02X10546Y28283I433J550*
G01*
X6786*
G75*
G02X6093Y27983I-693J650*
G01*
G75*
G02X5399Y28283J950*
G01*
X4940*
G75*
G02X4420I-260*
G01*
X3940*
G75*
G02X3420I-260*
G01*
X1630*
G37*
X3420D02*
G36*
G75*
G02X3940I260D01*
G01*
X4420*
G75*
G02X4940I260*
G01*
X5399*
G75*
G02X5154Y28783I693J650*
G01*
X1630*
Y28283*
X3420*
G37*
X10546D02*
G36*
G75*
G02X10530Y28433I684J150D01*
G01*
G75*
G02X10624Y28783I700*
G01*
X7031*
G75*
G02X6786Y28283I-938J150*
G01*
X10546*
G37*
X11914D02*
G36*
G75*
G02X11663Y27883I-684J150D01*
G01*
X14020*
G75*
G02X14540I260*
G01*
X26468*
G75*
G02X26421Y28008I212J150*
G01*
X26522*
G75*
G03X26624Y27883I158J25*
G01*
X26736*
G75*
G03X26838Y28008I-56J150*
G01*
X26939*
G75*
G02X26892Y27883I-259J25*
G01*
X31314*
G75*
G02Y28283I166J200*
G01*
X26751*
G75*
G02X26939Y28058I-71J-250*
G01*
X26838*
G75*
G03X26705Y28191I-158J-25*
G01*
Y28283*
X26655*
Y28191*
G75*
G03X26522Y28058I25J-158*
G01*
X26421*
G75*
G02X26609Y28283I259J-25*
G01*
X11914*
G37*
X26609D02*
G36*
G75*
G02X26655Y28292I71J-250D01*
G01*
Y28283*
X26705*
Y28292*
G75*
G02X26751Y28283I-25J-259*
G01*
X31314*
G75*
G02X31480Y28343I166J-200*
G01*
G75*
G02X31646Y28283J-260*
G01*
X39616*
Y28353*
X40556*
Y28283*
X41966*
G75*
G02X41681Y28783I308J506*
G01*
X40556*
Y28398*
X39616*
Y28783*
X34585*
G75*
G02X34330Y28573I-255J50*
G01*
G75*
G02X34075Y28783J260*
G01*
X32840*
G75*
G02X32580Y28523I-260*
G01*
G75*
G02X32320Y28783J260*
G01*
X11836*
G75*
G02X11930Y28433I-606J-350*
G01*
G75*
G02X11914Y28283I-700*
G01*
X26609*
G37*
X31646D02*
G36*
G75*
G02Y27883I-166J-200D01*
G01*
X39616*
Y28283*
X31646*
G37*
X40556D02*
G36*
Y27883D01*
X43189*
G75*
G02X43177Y28002I580J118*
G01*
G75*
G02X43248Y28283I592*
G01*
X42581*
G75*
G02X41966I-308J506*
G01*
X40556*
G37*
X43248D02*
G36*
G75*
G02X43972Y28558I521J-281D01*
G01*
G75*
G02X43925Y28783I545J231*
G01*
X42865*
G75*
G02X42581Y28283I-592J6*
G01*
X43248*
G37*
X44825D02*
G36*
G75*
G02X44315Y28233I-308J506D01*
G01*
G75*
G02X44361Y28002I-545J-231*
G01*
G75*
G02X44350Y27883I-592J0*
G01*
X45394*
G75*
G02X45382Y28002I580J118*
G01*
G75*
G02X45453Y28283I592*
G01*
X44825*
G37*
X45453D02*
G36*
G75*
G02X46495I521J-281D01*
G01*
X46611*
G75*
G02X46327Y28783I308J506*
G01*
X45110*
G75*
G02X44825Y28283I-592J6*
G01*
X45453*
G37*
X46495D02*
G36*
G75*
G02X46566Y28002I-521J-281D01*
G01*
G75*
G02X46554Y27883I-592J0*
G01*
X49130*
Y28283*
X47227*
G75*
G02X46611I-308J506*
G01*
X46495*
G37*
X49130D02*
G36*
Y28783D01*
X47511*
G75*
G02X47227Y28283I-592J6*
G01*
X49130*
G37*
X1630Y22017D02*
G36*
Y21433D01*
X21380*
G75*
G02X22180I400*
G01*
X41866*
G75*
G02X41781Y21739I507J306*
G01*
G75*
G02X41850Y22017I592*
G01*
X40656*
Y21448*
X39716*
Y22017*
X37758*
X37716Y21975*
X37144*
X37102Y22017*
X34753*
G75*
G02X34530Y21623I-223J-134*
G01*
G75*
G02X34307Y22017J260*
G01*
X33044*
G75*
G02X32930Y21523I-114J-234*
G01*
G75*
G02X32816Y22017J260*
G01*
X15325*
G75*
G02X15035I-145J216*
G01*
X7964*
G75*
G02X8040Y21833I-184J-184*
G01*
G75*
G02X7520I-260*
G01*
G75*
G02X7596Y22017I260*
G01*
X4430*
G75*
G02X3730I-350*
G01*
X1630*
G37*
X3730D02*
G36*
G75*
G02X4430I350D01*
G01*
X7596*
G75*
G02X7964I184J-184*
G01*
X15035*
G75*
G02X14920Y22233I145J216*
G01*
G75*
G02X15014Y22433I260*
G01*
X1630*
Y22017*
X3730*
G37*
X32816D02*
G36*
G75*
G02X32930Y22043I114J-234D01*
G01*
G75*
G02X33044Y22017J-260*
G01*
X34307*
G75*
G02X34530Y22143I223J-134*
G01*
G75*
G02X34753Y22017J-260*
G01*
X37102*
X36739Y22380*
Y22433*
X31840*
G75*
G02X31580Y22173I-260*
G01*
G75*
G02X31320Y22433J260*
G01*
X17240*
G75*
G02X16720I-260*
G01*
X15346*
G75*
G02X15440Y22233I-166J-200*
G01*
G75*
G02X15325Y22017I-260*
G01*
X32816*
G37*
X39716D02*
G36*
Y22388D01*
X40656*
Y22017*
X41850*
G75*
G02X42896I523J-278*
G01*
X44095*
G75*
G02X45140I523J-278*
G01*
X46496*
G75*
G02X47542I523J-278*
G01*
X49130*
Y22433*
X38121*
Y22380*
X37758Y22017*
X39716*
G37*
X42896D02*
G36*
G75*
G02X42965Y21739I-523J-278D01*
G01*
G75*
G02X42880Y21433I-592J0*
G01*
X43525*
G75*
G02X44072Y21508I345J-481*
G01*
G75*
G02X44025Y21739I545J231*
G01*
G75*
G02X44095Y22017I592*
G01*
X42896*
G37*
X45140D02*
G36*
G75*
G02X45210Y21739I-523J-278D01*
G01*
G75*
G02X45124Y21433I-592J0*
G01*
X45729*
G75*
G02X46419I345J-481*
G01*
X46512*
G75*
G02X46427Y21739I507J306*
G01*
G75*
G02X46496Y22017I592*
G01*
X45140*
G37*
X47542D02*
G36*
G75*
G02X47611Y21739I-523J-278D01*
G01*
G75*
G02X47526Y21433I-592J0*
G01*
X49130*
Y22017*
X47542*
G37*
X1630Y23749D02*
G36*
Y23383D01*
X5768*
G75*
G02X5720Y23533I212J150*
G01*
G75*
G02X5835Y23749I260*
G01*
X4430*
G75*
G02X3730I-350*
G01*
X1630*
G37*
X3730D02*
G36*
G75*
G02X3864Y24025I350D01*
G01*
X1630*
Y23749*
X3730*
G37*
X5835D02*
G36*
G75*
G02X6125I145J-216D01*
G01*
X9907*
G75*
G02X9871Y23858I223J134*
G01*
X9972*
G75*
G03X10042Y23749I158J25*
G01*
X10218*
G75*
G03X10288Y23858I-88J134*
G01*
X10389*
G75*
G02X10353Y23749I-259J25*
G01*
X10557*
G75*
G02X10520Y23883I223J134*
G01*
G75*
G02X10562Y24025I260*
G01*
X10348*
G75*
G02X10389Y23908I-218J-142*
G01*
X10288*
G75*
G03X10204Y24025I-158J-25*
G01*
X10056*
G75*
G03X9972Y23908I74J-142*
G01*
X9871*
G75*
G02X9912Y24025I259J-25*
G01*
X6461*
G75*
G02X6399I-31J258*
G01*
X4296*
G75*
G02X4430Y23749I-216J-276*
G01*
X5835*
G37*
X6125D02*
G36*
G75*
G02X6240Y23533I-145J-216D01*
G01*
G75*
G02X6192Y23383I-260*
G01*
X14920*
G75*
G02X15440I260*
G01*
X16075*
G75*
G02X16585I255J-50*
G01*
X30290*
G75*
G02X30530Y23543I240J-100*
G01*
G75*
G02X30770Y23383J-260*
G01*
X49130*
Y23749*
X18344*
G75*
G02X18255Y23724I-114J234*
G01*
Y23749*
X18205*
Y23724*
G75*
G02X18116Y23749I25J259*
G01*
X13114*
G75*
G02X12746I-184J184*
G01*
X12214*
G75*
G02X12055Y23674I-184J184*
G01*
Y23749*
X12005*
Y23674*
G75*
G02X11846Y23749I25J259*
G01*
X11003*
G75*
G02X10557I-223J134*
G01*
X10353*
G75*
G02X10155Y23624I-223J134*
G01*
Y23725*
G75*
G03X10218Y23749I-25J158*
G01*
X10042*
G75*
G03X10105Y23725I88J134*
G01*
Y23624*
G75*
G02X9907Y23749I25J259*
G01*
X6125*
G37*
X11846D02*
G36*
G75*
G02X11771Y23908I184J184D01*
G01*
X11872*
G75*
G03X12005Y23775I158J25*
G01*
Y23749*
X12055*
Y23775*
G75*
G03X12188Y23908I-25J158*
G01*
X12289*
G75*
G02X12214Y23749I-259J25*
G01*
X12746*
G75*
G02X12670Y23933I184J184*
G01*
G75*
G02X12687Y24025I260J0*
G01*
X12273*
G75*
G02X12289Y23958I-243J-92*
G01*
X12188*
G75*
G03X12161Y24025I-158J-25*
G01*
X11899*
G75*
G03X11872Y23958I131J-92*
G01*
X11771*
G75*
G02X11787Y24025I259J-25*
G01*
X10998*
G75*
G02X11040Y23883I-218J-142*
G01*
G75*
G02X11003Y23749I-260J0*
G01*
X11846*
G37*
X18116D02*
G36*
G75*
G02X17971Y23958I114J234D01*
G01*
X18072*
G75*
G03X18205Y23825I158J25*
G01*
Y23749*
X18255*
Y23825*
G75*
G03X18388Y23958I-25J158*
G01*
X18489*
G75*
G02X18344Y23749I-259J25*
G01*
X49130*
Y24025*
X46261*
G75*
G02X46199I-31J258*
G01*
X18487*
G75*
G02X18489Y24008I-257J-42*
G01*
X18388*
G75*
G03X18384Y24025I-158J-25*
G01*
X18076*
G75*
G03X18072Y24008I154J-42*
G01*
X17971*
G75*
G02X17973Y24025I259J-25*
G01*
X13173*
G75*
G02X13190Y23933I-243J-92*
G01*
G75*
G02X13114Y23749I-260*
G01*
X18116*
G37*
X1630Y11983D02*
G36*
Y11791D01*
X2951*
G75*
G02X2910Y11983I429J192*
G01*
X1630*
G37*
X2910D02*
G36*
G75*
G02X2951Y12176I470J0D01*
G01*
X1630*
Y11983*
X2910*
G37*
X3850D02*
G36*
G75*
G02X3809Y11791I-470J0D01*
G01*
X3951*
G75*
G02X3910Y11983I429J192*
G01*
X3850*
G37*
X3910D02*
G36*
G75*
G02X3951Y12176I470J0D01*
G01*
X3809*
G75*
G02X3850Y11983I-429J-192*
G01*
X3910*
G37*
X4850D02*
G36*
G75*
G02X4809Y11791I-470J0D01*
G01*
X4951*
G75*
G02X4910Y11983I429J192*
G01*
X4850*
G37*
X4910D02*
G36*
G75*
G02X4951Y12176I470J0D01*
G01*
X4809*
G75*
G02X4850Y11983I-429J-192*
G01*
X4910*
G37*
X5850D02*
G36*
G75*
G02X5809Y11791I-470J0D01*
G01*
X14162*
G75*
G02X14120Y11933I218J142*
G01*
G75*
G02X14125Y11983I260J0*
G01*
X5850*
G37*
X14125D02*
G36*
G75*
G02X14286Y12176I255J-50D01*
G01*
X5809*
G75*
G02X5850Y11983I-429J-192*
G01*
X14125*
G37*
X14635D02*
G36*
G75*
G02X14640Y11933I-255J-50D01*
G01*
G75*
G02X14598Y11791I-260*
G01*
X17462*
G75*
G02X17421Y11908I218J142*
G01*
X17522*
G75*
G03X17606Y11791I158J25*
G01*
X17754*
G75*
G03X17838Y11908I-74J142*
G01*
X17939*
G75*
G02X17898Y11791I-259J25*
G01*
X30394*
G75*
G02X30630Y11943I236J-108*
G01*
G75*
G02X30866Y11791J-260*
G01*
X36889*
Y11983*
X31470*
G75*
G02X31230Y11823I-240J100*
G01*
G75*
G02X30990Y11983J260*
G01*
X17935*
G75*
G02X17939Y11958I-255J-50*
G01*
X17838*
G75*
G03X17832Y11983I-158J-25*
G01*
X17528*
G75*
G03X17522Y11958I152J-50*
G01*
X17421*
G75*
G02X17425Y11983I259J-25*
G01*
X14635*
G37*
X17425D02*
G36*
G75*
G02X17586Y12176I255J-50D01*
G01*
X14474*
G75*
G02X14635Y11983I-94J-242*
G01*
X17425*
G37*
X17832D02*
G36*
G75*
G03X17705Y12091I-152J-50D01*
G01*
Y12176*
X17655*
Y12091*
G75*
G03X17528Y11983I25J-158*
G01*
X17832*
G37*
X30990D02*
G36*
G75*
G02X30987Y12176I240J100D01*
G01*
X17774*
G75*
G02X17935Y11983I-94J-242*
G01*
X30990*
G37*
X36889D02*
G36*
Y12176D01*
X31473*
G75*
G02X31470Y11983I-243J-92*
G01*
X36889*
G37*
X38271D02*
G36*
Y11791D01*
X49130*
Y11983*
X38271*
G37*
X49130D02*
G36*
Y12176D01*
X48315*
G75*
G02X48245I-35J258*
G01*
X46800*
G75*
G02X46449I-175J192*
G01*
X46092*
G75*
G02X45899Y12059I-218J142*
G01*
Y12159*
G75*
G03X45948Y12176I-25J158*
G01*
X45800*
G75*
G03X45849Y12159I74J142*
G01*
Y12059*
G75*
G02X45656Y12176I25J259*
G01*
X38271*
Y11983*
X49130*
G37*
X1630Y30783D02*
G36*
Y30575D01*
X3985*
G75*
G02X3961Y30783I927J208*
G01*
X1630*
G37*
X3961D02*
G36*
G75*
G02X4911Y31733I950D01*
G01*
G75*
G02X5861Y30783J-950*
G01*
X6324*
G75*
G02X7274Y31733I950*
G01*
G75*
G02X8224Y30783J-950*
G01*
X8300*
G75*
G02X8830Y31313I530*
G01*
G75*
G02X9360Y30783J-530*
G01*
X10740*
G75*
G02X11720I490J-500*
G01*
X44864*
G75*
G02X44854Y31174I166J200*
G01*
G75*
G02X44570Y31433I-24J259*
G01*
G75*
G02X45090I260*
G01*
G75*
G02X45006Y31242I-260J0*
G01*
G75*
G02X45196Y30783I24J-259*
G01*
X49130*
Y32783*
X1630*
Y30783*
X3961*
G37*
X5861D02*
G36*
G75*
G02X5838Y30575I-950D01*
G01*
X6347*
G75*
G02X6324Y30783I927J208*
G01*
X5861*
G37*
X8224D02*
G36*
G75*
G02X8201Y30575I-950D01*
G01*
X8343*
G75*
G02X8300Y30783I487J208*
G01*
X8224*
G37*
X9360D02*
G36*
G75*
G02X9317Y30575I-530D01*
G01*
X10594*
G75*
G02X10740Y30783I636J-292*
G01*
X9360*
G37*
X11720D02*
G36*
G75*
G02X11866Y30575I-490J-500D01*
G01*
X17112*
G75*
G02X17305Y30692I218J-142*
G01*
Y30591*
G75*
G03X17256Y30575I25J-158*
G01*
X17404*
G75*
G03X17355Y30591I-74J-142*
G01*
Y30692*
G75*
G02X17548Y30575I-25J-259*
G01*
X21062*
G75*
G02X21255Y30692I218J-142*
G01*
Y30591*
G75*
G03X21206Y30575I25J-158*
G01*
X21354*
G75*
G03X21305Y30591I-74J-142*
G01*
Y30692*
G75*
G02X21498Y30575I-25J-259*
G01*
X44770*
G75*
G02X44864Y30783I260J8*
G01*
X11720*
G37*
X45196D02*
G36*
G75*
G02X45290Y30575I-166J-200D01*
G01*
X49130*
Y30783*
X45196*
G37*
X1630Y19691D02*
G36*
Y19559D01*
X14302*
G75*
G02X14430Y19593I128J-226*
G01*
G75*
G02X14312Y19691I100J240*
G01*
X5398*
G75*
G02X5205Y19574I-218J142*
G01*
Y19675*
G75*
G03X5254Y19691I-25J158*
G01*
X5106*
G75*
G03X5155Y19675I74J142*
G01*
Y19574*
G75*
G02X4962Y19691I25J259*
G01*
X1630*
G37*
X4962D02*
G36*
G75*
G02X4921Y19808I218J142D01*
G01*
X5022*
G75*
G03X5106Y19691I158J25*
G01*
X5254*
G75*
G03X5338Y19808I-74J142*
G01*
X5439*
G75*
G02X5398Y19691I-259J25*
G01*
X14312*
G75*
G02X14270Y19833I218J142*
G01*
G75*
G02X14312Y19975I260*
G01*
X5398*
G75*
G02X5439Y19858I-218J-142*
G01*
X5338*
G75*
G03X5254Y19975I-158J-25*
G01*
X5106*
G75*
G03X5022Y19858I74J-142*
G01*
X4921*
G75*
G02X4962Y19975I259J-25*
G01*
X1630*
Y19691*
X4962*
G37*
X14748D02*
G36*
G75*
G02X14530Y19573I-218J142D01*
G01*
G75*
G02X14558Y19559I-100J-240*
G01*
X17391*
G75*
G02X17285Y19691I139J220*
G01*
X16975*
G75*
G02X16905Y19674I-95J242*
G01*
Y19691*
X16855*
Y19674*
G75*
G02X16785Y19691I25J259*
G01*
X14748*
G37*
X16785D02*
G36*
G75*
G02X16621Y19908I95J242D01*
G01*
X16722*
G75*
G03X16855Y19775I158J25*
G01*
Y19691*
X16905*
Y19775*
G75*
G03X17038Y19908I-25J158*
G01*
X17139*
G75*
G02X16975Y19691I-259J25*
G01*
X17285*
G75*
G02X17271Y19754I245J88*
G01*
X17372*
G75*
G03X17396Y19691I158J25*
G01*
X17664*
G75*
G03X17688Y19754I-134J88*
G01*
X17789*
G75*
G02X17775Y19691I-259J25*
G01*
X21474*
G75*
G02X22086I306J-258*
G01*
X28012*
G75*
G02Y19975I218J142*
G01*
X17701*
G75*
G02X17789Y19804I-171J-196*
G01*
X17688*
G75*
G03X17555Y19937I-158J-25*
G01*
Y19975*
X17505*
Y19937*
G75*
G03X17372Y19804I25J-158*
G01*
X17271*
G75*
G02X17359Y19975I259J-25*
G01*
X17137*
G75*
G02X17139Y19958I-257J-42*
G01*
X17038*
G75*
G03X17034Y19975I-158J-25*
G01*
X16726*
G75*
G03X16722Y19958I154J-42*
G01*
X16621*
G75*
G02X16623Y19975I259J-25*
G01*
X14748*
G75*
G02X14790Y19833I-218J-142*
G01*
G75*
G02X14748Y19691I-260*
G01*
X16785*
G37*
X17396D02*
G36*
G75*
G03X17505Y19621I134J88D01*
G01*
Y19559*
X17555*
Y19621*
G75*
G03X17664Y19691I-25J158*
G01*
X17396*
G37*
X17775D02*
G36*
G75*
G02X17669Y19559I-245J88D01*
G01*
X21400*
G75*
G02X21474Y19691I380J-126*
G01*
X17775*
G37*
X22086D02*
G36*
G75*
G02X22160Y19559I-306J-258D01*
G01*
X36812*
X36944Y19691*
X28448*
G75*
G02X28230Y19573I-218J142*
G01*
G75*
G02X28012Y19691J260*
G01*
X22086*
G37*
X36944D02*
G36*
X37144Y19892D01*
X37716*
X37916Y19691*
X39716*
Y19975*
X28448*
G75*
G02Y19691I-218J-142*
G01*
X36944*
G37*
X37916D02*
G36*
X38048Y19559D01*
X39716*
Y19691*
X37916*
G37*
X40656D02*
G36*
Y19559D01*
X45706*
G75*
G02X45899Y19676I218J-142*
G01*
Y19576*
G75*
G03X45850Y19559I25J-158*
G01*
X45998*
G75*
G03X45949Y19576I-74J-142*
G01*
Y19676*
G75*
G02X46142Y19559I-25J-259*
G01*
X46567*
G75*
G02X46631Y19691I257J-42*
G01*
X40656*
G37*
X46631D02*
G36*
G75*
G02X47016I193J-174D01*
G01*
X49130*
Y19975*
X40656*
Y19691*
X46631*
G37*
X47016D02*
G36*
G75*
G02X47080Y19559I-193J-174D01*
G01*
X49130*
Y19691*
X47016*
G37*
X4962Y19975D02*
G36*
G75*
G02X5155Y20092I218J-142D01*
G01*
Y19991*
G75*
G03X5106Y19975I25J-158*
G01*
X5254*
G75*
G03X5205Y19991I-74J-142*
G01*
Y20092*
G75*
G02X5398Y19975I-25J-259*
G01*
X14312*
G75*
G02X14748I218J-142*
G01*
X16623*
G75*
G02X16855Y20192I257J-42*
G01*
Y20091*
G75*
G03X16726Y19975I25J-158*
G01*
X17034*
G75*
G03X16905Y20091I-154J-42*
G01*
Y20192*
G75*
G02X17137Y19975I-25J-259*
G01*
X17359*
G75*
G02X17505Y20038I171J-196*
G01*
Y19975*
X17555*
Y20038*
G75*
G02X17701Y19975I-25J-259*
G01*
X28012*
G75*
G02X28230Y20093I218J-142*
G01*
G75*
G02X28448Y19975J-260*
G01*
X39716*
Y20419*
X40656*
Y19975*
X49130*
Y20583*
X46538*
G75*
G02X45611I-464J369*
G01*
X44333*
G75*
G02X43406I-464J369*
G01*
X40656*
Y20463*
X39716*
Y20583*
X31896*
G75*
G02X31730Y20123I-166J-200*
G01*
G75*
G02X31564Y20583J260*
G01*
X15996*
G75*
G02X16090Y20383I-166J-200*
G01*
G75*
G02X15570I-260*
G01*
G75*
G02X15664Y20583I260*
G01*
X14135*
G75*
G02X13655Y20503I-255J50*
G01*
G75*
G02X13205I-225J130*
G01*
G75*
G02X12883Y20392I-225J130*
G01*
G75*
G02X12890Y20333I-253J-59*
G01*
G75*
G02X12370I-260*
G01*
G75*
G02X12374Y20377I260*
G01*
G75*
G02X12075Y20583I-44J256*
G01*
X7470*
G75*
G02X7255Y20424I-240J100*
G01*
Y20525*
G75*
G03X7355Y20583I-25J158*
G01*
X7105*
G75*
G03X7205Y20525I125J100*
G01*
Y20424*
G75*
G02X6990Y20583I25J259*
G01*
X6390*
G75*
G02X5870I-260*
G01*
X1630*
Y19975*
X4962*
G37*
X5870Y20583D02*
G36*
G75*
G02X6035Y20825I260D01*
G01*
X1630*
Y20583*
X5870*
G37*
X6990D02*
G36*
G75*
G02X6971Y20658I240J100D01*
G01*
X7072*
G75*
G03X7105Y20583I158J25*
G01*
X7355*
G75*
G03X7388Y20658I-125J100*
G01*
X7489*
G75*
G02X7470Y20583I-259J25*
G01*
X12075*
G75*
G02X12070Y20633I255J50*
G01*
G75*
G02X12155Y20825I260*
G01*
X7448*
G75*
G02X7489Y20708I-218J-142*
G01*
X7388*
G75*
G03X7304Y20825I-158J-25*
G01*
X7156*
G75*
G03X7072Y20708I74J-142*
G01*
X6971*
G75*
G02X7012Y20825I259J-25*
G01*
X6225*
G75*
G02X6390Y20583I-95J-242*
G01*
X6990*
G37*
X15664D02*
G36*
G75*
G02X15996I166J-200D01*
G01*
X31564*
G75*
G02X31730Y20643I166J-200*
G01*
G75*
G02X31896Y20583J-260*
G01*
X39716*
Y20825*
X31761*
G75*
G02X31730Y20823I-31J258*
G01*
G75*
G02X31699Y20825J260*
G01*
X26611*
G75*
G02X26605Y20824I-31J258*
G01*
Y20825*
X26555*
Y20824*
G75*
G02X26549Y20825I25J259*
G01*
X16586*
G75*
G02X16274I-156J208*
G01*
X14055*
G75*
G02X14140Y20633I-175J-192*
G01*
G75*
G02X14135Y20583I-260J0*
G01*
X15664*
G37*
X43406D02*
G36*
G75*
G02X43291Y20825I464J368D01*
G01*
X40656*
Y20583*
X43406*
G37*
X45611D02*
G36*
G75*
G02X45496Y20825I464J368D01*
G01*
X44448*
G75*
G02X44333Y20583I-578J127*
G01*
X45611*
G37*
X49130D02*
G36*
Y20825D01*
X46653*
G75*
G02X46538Y20583I-578J127*
G01*
X49130*
G37*
X1630Y24283D02*
G36*
Y24025D01*
X3864*
G75*
G02X4296I216J-276*
G01*
X6399*
G75*
G02X6170Y24283I31J258*
G01*
X1630*
G37*
X6170D02*
G36*
G75*
G02X6255Y24475I260D01*
G01*
X1630*
Y24283*
X6170*
G37*
X6690D02*
G36*
G75*
G02X6461Y24025I-260D01*
G01*
X9912*
G75*
G02X10105Y24142I218J-142*
G01*
Y24041*
G75*
G03X10056Y24025I25J-158*
G01*
X10204*
G75*
G03X10155Y24041I-74J-142*
G01*
Y24142*
G75*
G02X10348Y24025I-25J-259*
G01*
X10562*
G75*
G02X10998I218J-142*
G01*
X11787*
G75*
G02X12005Y24192I243J-92*
G01*
Y24091*
G75*
G03X11899Y24025I25J-158*
G01*
X12161*
G75*
G03X12055Y24091I-131J-92*
G01*
Y24192*
G75*
G02X12273Y24025I-25J-259*
G01*
X12687*
G75*
G02X13173I243J-92*
G01*
X17973*
G75*
G02X18205Y24242I257J-42*
G01*
Y24141*
G75*
G03X18076Y24025I25J-158*
G01*
X18384*
G75*
G03X18255Y24141I-154J-42*
G01*
Y24242*
G75*
G02X18487Y24025I-25J-259*
G01*
X46199*
G75*
G02X45970Y24283I31J258*
G01*
X45835*
G75*
G02X45605Y24074I-255J50*
G01*
Y24175*
G75*
G03X45732Y24283I-25J158*
G01*
X45428*
G75*
G03X45555Y24175I152J50*
G01*
Y24074*
G75*
G02X45325Y24283I25J259*
G01*
X6690*
G37*
X45325D02*
G36*
G75*
G02X45321Y24308I255J50D01*
G01*
X45422*
G75*
G03X45428Y24283I158J25*
G01*
X45732*
G75*
G03X45738Y24308I-152J50*
G01*
X45839*
G75*
G02X45835Y24283I-259J25*
G01*
X45970*
G75*
G02X46055Y24475I260*
G01*
X45798*
G75*
G02X45839Y24358I-218J-142*
G01*
X45738*
G75*
G03X45654Y24475I-158J-25*
G01*
X45506*
G75*
G03X45422Y24358I74J-142*
G01*
X45321*
G75*
G02X45362Y24475I259J-25*
G01*
X35061*
G75*
G02X34999I-31J258*
G01*
X31611*
G75*
G02X31549I-31J258*
G01*
X6605*
G75*
G02X6690Y24283I-175J-192*
G01*
X45325*
G37*
X46490D02*
G36*
G75*
G02X46261Y24025I-260D01*
G01*
X49130*
Y24283*
X46490*
G37*
X49130D02*
G36*
Y24475D01*
X46405*
G75*
G02X46490Y24283I-175J-192*
G01*
X49130*
G37*
X6035Y20825D02*
G36*
G75*
G02X6225I95J-242D01*
G01*
X7012*
G75*
G02X7205Y20942I218J-142*
G01*
Y20841*
G75*
G03X7156Y20825I25J-158*
G01*
X7304*
G75*
G03X7255Y20841I-74J-142*
G01*
Y20942*
G75*
G02X7448Y20825I-25J-259*
G01*
X12155*
G75*
G02X12590Y20633I175J-192*
G01*
G75*
G02X12586Y20590I-260*
G01*
G75*
G02X12727Y20575I44J-256*
G01*
G75*
G02X13205Y20764I253J59*
G01*
G75*
G02X13655I225J-130*
G01*
G75*
G02X14055Y20825I225J-130*
G01*
X16274*
G75*
G02X16170Y21033I156J208*
G01*
G75*
G02X16255Y21225I260*
G01*
X1630*
Y20825*
X6035*
G37*
X26549D02*
G36*
G75*
G02X26321Y21058I31J258D01*
G01*
X26422*
G75*
G03X26555Y20925I158J25*
G01*
Y20825*
X26605*
Y20925*
G75*
G03X26738Y21058I-25J158*
G01*
X26839*
G75*
G02X26611Y20825I-259J25*
G01*
X31699*
G75*
G02X31512Y21225I31J258*
G01*
X26798*
G75*
G02X26839Y21108I-218J-142*
G01*
X26738*
G75*
G03X26654Y21225I-158J-25*
G01*
X26506*
G75*
G03X26422Y21108I74J-142*
G01*
X26321*
G75*
G02X26362Y21225I259J-25*
G01*
X22122*
G75*
G02X21438I-342J208*
G01*
X16605*
G75*
G02X16690Y21033I-175J-192*
G01*
G75*
G02X16586Y20825I-260*
G01*
X26549*
G37*
X39716D02*
G36*
Y21225D01*
X31948*
G75*
G02X31761Y20825I-218J-142*
G01*
X39716*
G37*
X43291D02*
G36*
G75*
G02X43277Y20952I578J127D01*
G01*
G75*
G02X43344Y21225I592*
G01*
X42667*
G75*
G02X42079I-294J514*
G01*
X40656*
Y20825*
X43291*
G37*
X45496D02*
G36*
G75*
G02X45482Y20952I578J127D01*
G01*
G75*
G02X45549Y21225I592*
G01*
X44911*
G75*
G02X44415Y21183I-294J514*
G01*
G75*
G02X44461Y20952I-545J-231*
G01*
G75*
G02X44448Y20825I-592J0*
G01*
X45496*
G37*
X49130D02*
G36*
Y21225D01*
X47313*
G75*
G02X46725I-294J514*
G01*
X46599*
G75*
G02X46666Y20952I-525J-273*
G01*
G75*
G02X46653Y20825I-592J0*
G01*
X49130*
G37*
X1630Y9118D02*
G36*
Y8724D01*
X8068*
G75*
G02X8034Y8752I297J395*
G01*
X8105Y8823*
G75*
G03X8625I260J296*
G01*
X8696Y8752*
G75*
G02X8662Y8724I-331J366*
G01*
X30370*
G75*
G02X30630Y8993I260J9*
G01*
G75*
G02X30890Y8724J-260*
G01*
X37062*
X37144Y8806*
X37716*
X37798Y8724*
X49130*
Y9118*
X8859*
G75*
G02X8731Y8787I-494*
G01*
X8661Y8858*
G75*
G03X8759Y9118I-296J260*
G01*
X7971*
G75*
G03X8070Y8858I394*
G01*
X7999Y8787*
G75*
G02X7871Y9118I366J331*
G01*
X1630*
G37*
X7871D02*
G36*
G75*
G02X7954Y9391I494J0D01*
G01*
X1630*
Y9118*
X7871*
G37*
X8759D02*
G36*
G75*
G03X8661Y9379I-394D01*
G01*
X8673Y9391*
X8057*
X8070Y9379*
G75*
G03X7971Y9118I296J-260*
G01*
X8759*
G37*
X49130D02*
G36*
Y9391D01*
X17898*
G75*
G02X17705Y9274I-218J142*
G01*
Y9375*
G75*
G03X17754Y9391I-25J158*
G01*
X17606*
G75*
G03X17655Y9375I74J142*
G01*
Y9274*
G75*
G02X17462Y9391I25J259*
G01*
X14598*
G75*
G02X14162I-218J142*
G01*
X8777*
G75*
G02X8859Y9118I-411J-273*
G01*
X49130*
G37*
X1630Y8724D02*
G36*
Y8033D01*
X2104*
G75*
G02X2430Y8173I326J-311*
G01*
G75*
G02X2756Y8033J-450*
G01*
X3876*
G75*
G02X4202Y8173I326J-311*
G01*
G75*
G02X4527Y8033J-450*
G01*
X31420*
G75*
G02X31680Y8293I260*
G01*
G75*
G02X31940Y8033J-260*
G01*
X36739*
Y8402*
X37062Y8724*
X30890*
G75*
G02X30630Y8473I-260J9*
G01*
G75*
G02X30370Y8724J260*
G01*
X8662*
G75*
G02X8068I-297J395*
G01*
X1630*
G37*
X37798D02*
G36*
X38121Y8402D01*
Y8033*
X49130*
Y8724*
X37798*
G37*
X1630Y9513D02*
G36*
Y9391D01*
X7954*
G75*
G02X7999Y9449I411J-273*
G01*
X8057Y9391*
X8673*
X8731Y9449*
G75*
G02X8777Y9391I-366J-331*
G01*
X14162*
G75*
G02X14121Y9513I218J142*
G01*
X8662*
G75*
G02X8696Y9485I-297J-395*
G01*
X8625Y9414*
G75*
G03X8105I-260J-296*
G01*
X8034Y9485*
G75*
G02X8068Y9513I331J-366*
G01*
X1630*
G37*
X8068D02*
G36*
G75*
G02X8662I297J-395D01*
G01*
X14121*
G75*
G02X14120Y9533I259J20*
G01*
G75*
G02X14162Y9675I260*
G01*
X1630*
Y9513*
X8068*
G37*
X14639D02*
G36*
G75*
G02X14598Y9391I-259J20D01*
G01*
X17462*
G75*
G02X17421Y9508I218J142*
G01*
X17522*
G75*
G03X17606Y9391I158J25*
G01*
X17754*
G75*
G03X17838Y9508I-74J142*
G01*
X17939*
G75*
G02X17898Y9391I-259J25*
G01*
X49130*
Y9513*
X14639*
G37*
X49130D02*
G36*
Y9675D01*
X45763*
G75*
G02X45616Y9611I-172J195*
G01*
Y9675*
X45566*
Y9611*
G75*
G02X45419Y9675I25J259*
G01*
X17898*
G75*
G02X17939Y9558I-218J-142*
G01*
X17838*
G75*
G03X17754Y9675I-158J-25*
G01*
X17606*
G75*
G03X17522Y9558I74J-142*
G01*
X17421*
G75*
G02X17462Y9675I259J-25*
G01*
X14598*
G75*
G02X14640Y9533I-218J-142*
G01*
G75*
G02X14639Y9513I-260*
G01*
X49130*
G37*
X1630Y25783D02*
G36*
Y25479D01*
X8396*
G75*
G02X8300Y25783I434J304*
G01*
X1630*
G37*
X8300D02*
G36*
G75*
G02X8654Y26283I530D01*
G01*
X1630*
Y25783*
X8300*
G37*
X9360D02*
G36*
G75*
G02X9264Y25479I-530J0D01*
G01*
X30320*
G75*
G02X30580Y25739I260*
G01*
G75*
G02X30840Y25479J-260*
G01*
X37025*
X36721Y25783*
X31235*
G75*
G02X30980Y25573I-255J50*
G01*
G75*
G02X30725Y25783J260*
G01*
X9360*
G37*
X30725D02*
G36*
G75*
G02X30980Y26093I255J50D01*
G01*
G75*
G02X31235Y25783J-260*
G01*
X36721*
X36639Y25865*
Y26283*
X26385*
G75*
G02X26130Y25973I-255J-50*
G01*
G75*
G02X25875Y26283J260*
G01*
X22727*
G75*
G02X22330Y25933I-397J50*
G01*
G75*
G02X21933Y26283J400*
G01*
X20727*
G75*
G02X20330Y25933I-397J50*
G01*
G75*
G02X19933Y26283J400*
G01*
X14540*
G75*
G02X14020I-260*
G01*
X11862*
G75*
G02X10598I-632J300*
G01*
X9006*
G75*
G02X9360Y25783I-176J-500*
G01*
X30725*
G37*
X37939D02*
G36*
X37635Y25479D01*
X49130*
Y25783*
X37939*
G37*
X49130D02*
G36*
Y26283D01*
X46873*
G75*
G02X46506I-183J184*
G01*
X45852*
G75*
G02X45764Y26259I-113J234*
G01*
Y26283*
X45714*
Y26259*
G75*
G02X45627Y26283I25J259*
G01*
X38021*
Y25865*
X37939Y25783*
X49130*
G37*
X1630Y14391D02*
G36*
Y14091D01*
X2475*
G75*
G02X2830Y14253I355J-308*
G01*
G75*
G02X3185Y14091J-470*
G01*
X18082*
G75*
G02X18330Y14273I248J-78*
G01*
G75*
G02X18578Y14091J-260*
G01*
X26462*
G75*
G02X26421Y14208I218J142*
G01*
X26522*
G75*
G03X26606Y14091I158J25*
G01*
X26754*
G75*
G03X26838Y14208I-74J142*
G01*
X26939*
G75*
G02X26898Y14091I-259J25*
G01*
X31305*
G75*
G02X31244Y14391I175J192*
G01*
X26886*
G75*
G02X26939Y14258I-206J-158*
G01*
X26838*
G75*
G03X26705Y14391I-158J-25*
G01*
X26655Y14391*
G75*
G03X26522Y14258I25J-158*
G01*
X26421*
G75*
G02X26474Y14391I259J-25*
G01*
X17975Y14391*
G75*
G02X17780Y14303I-195J172*
G01*
G75*
G02X17585Y14391J260*
G01*
X9248*
G75*
G02X9055Y14274I-218J142*
G01*
Y14375*
G75*
G03X9104Y14391I-25J158*
G01*
X8956*
G75*
G03X9005Y14375I74J142*
G01*
Y14274*
G75*
G02X8812Y14391I25J259*
G01*
X3089*
G75*
G02X2830Y14313I-259J392*
G01*
G75*
G02X2571Y14391J470*
G01*
X1630*
G37*
X31716D02*
G36*
G75*
G02X31655Y14091I-236J-108D01*
G01*
X39866*
Y14153*
X40806*
Y14091*
X42099*
G75*
G02X41786Y14391I225J548*
G01*
X40806*
Y14198*
X39866*
Y14391*
X31716*
G37*
X42861D02*
G36*
G75*
G02X42548Y14091I-538J248D01*
G01*
X43278*
G75*
G02X43576Y14391I541J-240*
G01*
X42861*
G37*
X45105D02*
G36*
G75*
G02X44792Y14091I-538J248D01*
G01*
X45483*
G75*
G02X45780Y14391I541J-240*
G01*
X45105*
G37*
X46268D02*
G36*
G75*
G02X46566Y14091I-244J-540D01*
G01*
X46744*
G75*
G02X46431Y14391I225J548*
G01*
X46268*
G37*
X47507D02*
G36*
G75*
G02X47194Y14091I-538J248D01*
G01*
X49130*
Y14391*
X47507*
G37*
X1630Y26583D02*
G36*
Y26283D01*
X8654*
G75*
G02X8830Y26313I176J-500*
G01*
G75*
G02X9006Y26283J-530*
G01*
X10598*
G75*
G02X10530Y26583I632J300*
G01*
X1630*
G37*
X11930D02*
G36*
G75*
G02X11862Y26283I-700J0D01*
G01*
X14020*
G75*
G02X14540I260*
G01*
X19933*
G75*
G02X20018Y26583I397J50*
G01*
X11930*
G37*
X20642D02*
G36*
G75*
G02X20727Y26283I-312J-250D01*
G01*
X21933*
G75*
G02X22018Y26583I397J50*
G01*
X20642*
G37*
X22642D02*
G36*
G75*
G02X22727Y26283I-312J-250D01*
G01*
X25875*
G75*
G02X26130Y26493I255J-50*
G01*
G75*
G02X26385Y26283J-260*
G01*
X36639*
Y26437*
X36786Y26583*
X28365*
G75*
G02X28280Y26569I-85J246*
G01*
G75*
G02X28195Y26583J260*
G01*
X22642*
G37*
X37874D02*
G36*
X38021Y26437D01*
Y26283*
X45627*
G75*
G02X45481Y26493I113J234*
G01*
X45581*
G75*
G03X45714Y26359I158J25*
G01*
Y26283*
X45764*
Y26359*
G75*
G03X45897Y26493I-25J158*
G01*
X45998*
G75*
G02X45852Y26283I-259J25*
G01*
X46506*
G75*
G02X46429Y26468I183J184*
G01*
G75*
G02X46457Y26583I260J0*
G01*
X45991*
G75*
G02X45998Y26543I-252J-66*
G01*
X45897*
G75*
G03X45885Y26583I-158J-25*
G01*
X45594*
G75*
G03X45581Y26543I146J-66*
G01*
X45481*
G75*
G02X45488Y26583I259J-25*
G01*
X40556*
Y26429*
X39616*
Y26583*
X37874*
G37*
X46922D02*
G36*
G75*
G02X46949Y26468I-233J-116D01*
G01*
G75*
G02X46873Y26283I-260*
G01*
X49130*
Y26583*
X46922*
G37*
X1630Y13091D02*
G36*
Y12483D01*
X25870*
G75*
G02X26130Y12743I260*
G01*
G75*
G02X26390Y12483J-260*
G01*
X37136*
X37294Y12642*
X37866*
X38024Y12483*
X39866*
Y13091*
X28483*
G75*
G02X28230Y12773I-253J-58*
G01*
G75*
G02X27977Y13091J260*
G01*
X12298*
G75*
G02X11862I-218J142*
G01*
X11498*
G75*
G02X11305Y12974I-218J142*
G01*
Y13075*
G75*
G03X11354Y13091I-25J158*
G01*
X11206*
G75*
G03X11255Y13075I74J142*
G01*
Y12974*
G75*
G02X11062Y13091I25J259*
G01*
X1630*
G37*
X11062D02*
G36*
G75*
G02X11021Y13208I218J142D01*
G01*
X11122*
G75*
G03X11206Y13091I158J25*
G01*
X11354*
G75*
G03X11438Y13208I-74J142*
G01*
X11539*
G75*
G02X11498Y13091I-259J25*
G01*
X11862*
G75*
G02X11820Y13233I218J142*
G01*
G75*
G02X11862Y13375I260*
G01*
X11498*
G75*
G02X11539Y13258I-218J-142*
G01*
X11438*
G75*
G03X11354Y13375I-158J-25*
G01*
X11206*
G75*
G03X11122Y13258I74J-142*
G01*
X11021*
G75*
G02X11062Y13375I259J-25*
G01*
X3063*
G75*
G02X2830Y13313I-233J408*
G01*
G75*
G02X2597Y13375J470*
G01*
X1630*
Y13091*
X11062*
G37*
X27977D02*
G36*
G75*
G02X28230Y13293I253J-58D01*
G01*
G75*
G02X28483Y13091J-260*
G01*
X39866*
Y13169*
X40806*
Y13091*
X49130*
Y13375*
X46375*
G75*
G02X45673I-351J477*
G01*
X44171*
G75*
G02X43468I-351J477*
G01*
X40806*
Y13213*
X39866*
Y13375*
X31886*
G75*
G02X31730Y13323I-156J208*
G01*
G75*
G02X31574Y13375J260*
G01*
X12298*
G75*
G02X12340Y13233I-218J-142*
G01*
G75*
G02X12298Y13091I-260*
G01*
X27977*
G37*
X40806D02*
G36*
Y12483D01*
X45674*
G75*
G02X45849Y12576I200J-166*
G01*
Y12483*
X45899*
Y12576*
G75*
G02X46074Y12483I-25J-259*
G01*
X46391*
G75*
G02X46857I233J-116*
G01*
X48025*
G75*
G02X48535I255J-50*
G01*
X49130*
Y13091*
X40806*
G37*
X2583Y19183D02*
G36*
G75*
G02X2830Y19253I247J-400D01*
G01*
G75*
G02X3077Y19183J-470*
G01*
X11370*
G75*
G02X11890I260*
G01*
X14218*
G75*
G02X14170Y19333I212J150*
G01*
G75*
G02X14302Y19559I260*
G01*
X1630*
Y19183*
X2583*
G37*
X16620D02*
G36*
G75*
G02X17140I260D01*
G01*
X21468*
G75*
G02X21380Y19433I312J250*
G01*
G75*
G02X21400Y19559I400J0*
G01*
X17669*
G75*
G02X17555Y19520I-139J220*
G01*
Y19559*
X17505*
Y19520*
G75*
G02X17391Y19559I25J259*
G01*
X14558*
G75*
G02X14690Y19333I-128J-226*
G01*
G75*
G02X14642Y19183I-260*
G01*
X16620*
G37*
X25825D02*
G36*
G75*
G02X26080Y19493I255J50D01*
G01*
G75*
G02X26335Y19183J-260*
G01*
X36739*
Y19487*
X36812Y19559*
X22160*
G75*
G02X22180Y19433I-380J-126*
G01*
G75*
G02X22092Y19183I-400*
G01*
X25825*
G37*
X45811D02*
G36*
G75*
G02X45665Y19393I113J234D01*
G01*
X45766*
G75*
G03X45899Y19259I158J25*
G01*
Y19183*
X45949*
Y19259*
G75*
G03X46082Y19393I-25J158*
G01*
X46183*
G75*
G02X46037Y19183I-259J25*
G01*
X49130*
Y19559*
X47080*
G75*
G02X47084Y19517I-256J-43*
G01*
G75*
G02X46564I-260*
G01*
G75*
G02X46567Y19559I260J0*
G01*
X46142*
G75*
G02X46183Y19443I-218J-142*
G01*
X46082*
G75*
G03X45998Y19559I-158J-25*
G01*
X45850*
G75*
G03X45766Y19443I74J-142*
G01*
X45665*
G75*
G02X45706Y19559I259J-25*
G01*
X40656*
Y19479*
X39716*
Y19559*
X38048*
X38121Y19487*
Y19183*
X45811*
G37*
X2413Y2631D02*
G36*
X2635Y2853D01*
X3025*
X3247Y2631*
X3413*
X3635Y2853*
X4025*
X4247Y2631*
X4413*
X4635Y2853*
X5025*
X5247Y2631*
X5413*
X5635Y2853*
X6025*
X6247Y2631*
X6413*
X6635Y2853*
X7025*
X7247Y2631*
X7413*
X7635Y2853*
X8025*
X8247Y2631*
X8413*
X8635Y2853*
X9025*
X9247Y2631*
X9413*
X9635Y2853*
X10025*
X10247Y2631*
X10413*
X10635Y2853*
X11025*
X11247Y2631*
X11413*
X11635Y2853*
X11805*
Y2753*
X11677*
X11554Y2631*
X12106*
X11983Y2753*
X11855*
Y2853*
X12025*
X12247Y2631*
X13152*
G75*
G02X13664Y2925I512J-297*
G01*
G75*
G02X14176Y2631J-592*
G01*
X16474*
X16407Y2697*
Y2959*
X1630*
Y2631*
X2413*
G37*
X19938D02*
G36*
X19872Y2697D01*
Y2959*
X17788*
Y2697*
X17722Y2631*
X19938*
G37*
X22052D02*
G36*
G75*
G02X22564Y2925I512J-297D01*
G01*
G75*
G02X23076Y2631J-592*
G01*
X45143*
G75*
G02X45065Y2793I181J187*
G01*
X45166*
G75*
G03X45299Y2659I158J25*
G01*
Y2631*
X45349*
Y2659*
G75*
G03X45482Y2793I-25J158*
G01*
X45583*
G75*
G02X45505Y2631I-259J25*
G01*
X47072*
G75*
G02X47476I202J-163*
G01*
X49130*
Y2959*
X45542*
G75*
G02X45583Y2843I-218J-142*
G01*
X45482*
G75*
G03X45398Y2959I-158J-25*
G01*
X45250*
G75*
G03X45166Y2843I74J-142*
G01*
X45065*
G75*
G02X45106Y2959I259J-25*
G01*
X21253*
Y2697*
X21186Y2631*
X22052*
G37*
X1630Y16383D02*
G36*
Y16225D01*
X2670*
G75*
G02X2830Y16253I160J-442*
G01*
G75*
G02X2990Y16225J-470*
G01*
X4255*
G75*
G02X4605I175J-192*
G01*
X12624*
G75*
G02X12570Y16383I206J158*
G01*
X3077*
G75*
G02X2830Y16313I-247J400*
G01*
G75*
G02X2583Y16383J470*
G01*
X1630*
G37*
X13090D02*
G36*
G75*
G02X13036Y16225I-260D01*
G01*
X16412*
G75*
G02X16605Y16342I218J-142*
G01*
Y16241*
G75*
G03X16556Y16225I25J-158*
G01*
X16704*
G75*
G03X16655Y16241I-74J-142*
G01*
Y16342*
G75*
G02X16848Y16225I-25J-259*
G01*
X17577*
G75*
G02X17780Y16323I203J-162*
G01*
G75*
G02X17983Y16225J-260*
G01*
X22023*
G75*
G02X22021Y16238I257J38*
G01*
X22122*
G75*
G03X22125Y16225I158J25*
G01*
X22435*
G75*
G03X22438Y16238I-155J38*
G01*
X22539*
G75*
G02X22537Y16225I-259J25*
G01*
X30349*
G75*
G02X30140Y16383I31J258*
G01*
X22511*
G75*
G02X22539Y16288I-231J-120*
G01*
X22438*
G75*
G03X22386Y16383I-158J-25*
G01*
X22174*
G75*
G03X22122Y16288I106J-120*
G01*
X22021*
G75*
G02X22049Y16383I259J-25*
G01*
X21268*
G75*
G02X21080Y16303I-188J180*
G01*
G75*
G02X20892Y16383J260*
G01*
X19301*
G75*
G02X19180Y16353I-121J230*
G01*
G75*
G02X19059Y16383J260*
G01*
X13090*
G37*
X30620D02*
G36*
G75*
G02X30411Y16225I-240J100D01*
G01*
X49130*
Y16383*
X30620*
G37*
X1630Y4164D02*
G36*
Y2959D01*
X16407*
Y3269*
X16812Y3674*
X17384*
X17788Y3269*
Y2959*
X19872*
Y3269*
X20276Y3674*
X20848*
X21253Y3269*
Y2959*
X45106*
G75*
G02X45299Y3076I218J-142*
G01*
Y2976*
G75*
G03X45250Y2959I25J-158*
G01*
X45398*
G75*
G03X45349Y2976I-74J-142*
G01*
Y3076*
G75*
G02X45542Y2959I-25J-259*
G01*
X49130*
Y4164*
X37920*
X37716Y3960*
X37144*
X36940Y4164*
X31420*
G75*
G02X31280Y4123I-140J219*
G01*
G75*
G02X31139Y4165J260*
G01*
G75*
G02X30880Y3923I-259J19*
G01*
G75*
G02X30621Y4164J260*
G01*
X23811*
G75*
G02X23352Y3198I-459J-374*
G01*
G75*
G02X22795Y3993J592*
G01*
G75*
G02X22564Y3946I-231J545*
G01*
G75*
G02X22105Y4164J592*
G01*
X14911*
G75*
G02X14452Y3198I-459J-374*
G01*
G75*
G02X13895Y3993J592*
G01*
G75*
G02X13664Y3946I-231J545*
G01*
G75*
G02X13205Y4164J592*
G01*
X1630*
G37*
X13205D02*
G36*
G75*
G02X13183Y4883I459J374D01*
G01*
X1630*
Y4164*
X13205*
G37*
X22105D02*
G36*
G75*
G02X22083Y4883I459J374D01*
G01*
X14145*
G75*
G02X14221Y4335I-481J-345*
G01*
G75*
G02X14452Y4382I231J-545*
G01*
G75*
G02X14911Y4164J-592*
G01*
X22105*
G37*
X30621D02*
G36*
G75*
G02X30880Y4443I259J19D01*
G01*
G75*
G02X31021Y4402J-260*
G01*
G75*
G02X31280Y4643I259J-19*
G01*
G75*
G02X31420Y4164J-260*
G01*
X36940*
X36739Y4365*
Y4883*
X26490*
G75*
G02X26230Y4623I-260*
G01*
G75*
G02X25970Y4883J260*
G01*
X23045*
G75*
G02X23121Y4335I-481J-345*
G01*
G75*
G02X23352Y4382I231J-545*
G01*
G75*
G02X23811Y4164J-592*
G01*
X30621*
G37*
X49130D02*
G36*
Y4883D01*
X46132*
G75*
G02X45899Y4659I-258J34*
G01*
Y4759*
G75*
G03X46030Y4883I-25J158*
G01*
X45718*
G75*
G03X45849Y4759I156J34*
G01*
Y4659*
G75*
G02X45616Y4883I25J259*
G01*
X38121*
Y4365*
X37920Y4164*
X49130*
G37*
X1630Y11133D02*
G36*
Y10991D01*
X14162*
G75*
G02X14120Y11133I218J142*
G01*
X1630*
G37*
X14120D02*
G36*
G75*
G02X14162Y11275I260D01*
G01*
X1630*
Y11133*
X14120*
G37*
X14640D02*
G36*
G75*
G02X14598Y10991I-260D01*
G01*
X17462*
G75*
G02X17421Y11108I218J142*
G01*
X17522*
G75*
G03X17606Y10991I158J25*
G01*
X17754*
G75*
G03X17838Y11108I-74J142*
G01*
X17939*
G75*
G02X17898Y10991I-259J25*
G01*
X49130*
Y11133*
X48501*
G75*
G02X48359I-71J250*
G01*
X14640*
G37*
X48359D02*
G36*
G75*
G02X48194Y11275I71J250D01*
G01*
X37881*
X37866Y11260*
X37294*
X37279Y11275*
X17898*
G75*
G02X17939Y11158I-218J-142*
G01*
X17838*
G75*
G03X17754Y11275I-158J-25*
G01*
X17606*
G75*
G03X17522Y11158I74J-142*
G01*
X17421*
G75*
G02X17462Y11275I259J-25*
G01*
X14598*
G75*
G02X14640Y11133I-218J-142*
G01*
X48359*
G37*
X49130D02*
G36*
Y11275D01*
X48666*
G75*
G02X48501Y11133I-236J108*
G01*
X49130*
G37*
X1630Y6034D02*
G36*
Y5433D01*
X17376*
Y6034*
X15044*
G75*
G02X14452Y5442I-592*
G01*
G75*
G02X13860Y6034J592*
G01*
X1630*
G37*
X13860D02*
G36*
G75*
G02X14146Y6541I592D01*
G01*
X1630*
Y6034*
X13860*
G37*
X17376D02*
G36*
Y6209D01*
X18316*
Y6034*
X18360*
Y6209*
X19300*
Y6034*
X19344*
Y6209*
X20284*
Y6034*
X22760*
G75*
G02X23046Y6541I592*
G01*
X14757*
G75*
G02X15044Y6034I-305J-507*
G01*
X17376*
G37*
X18316D02*
G36*
Y5433D01*
X18360*
Y6034*
X18316*
G37*
X19300D02*
G36*
Y5433D01*
X19344*
Y6034*
X19300*
G37*
X20284D02*
G36*
Y5433D01*
X28170*
G75*
G02X28430Y5693I260*
G01*
G75*
G02X28690Y5433J-260*
G01*
X39716*
Y5869*
X40656*
Y5433*
X46620*
G75*
G02X47140I260*
G01*
X49130*
Y6034*
X46524*
G75*
G02X45524I-500J318*
G01*
X44319*
G75*
G02X43320I-500J318*
G01*
X40656*
Y5913*
X39716*
Y6034*
X32142*
G75*
G02X31930Y5623I-212J-151*
G01*
G75*
G02X31718Y6034J260*
G01*
X23944*
G75*
G02X23352Y5442I-592*
G01*
G75*
G02X22760Y6034J592*
G01*
X20284*
G37*
X31718D02*
G36*
G75*
G02X31930Y6143I212J-151D01*
G01*
G75*
G02X32142Y6034J-260*
G01*
X39716*
Y6541*
X31848*
G75*
G02X31630Y6423I-218J142*
G01*
G75*
G02X31412Y6541J260*
G01*
X26998*
G75*
G02X26805Y6424I-218J142*
G01*
Y6525*
G75*
G03X26854Y6541I-25J158*
G01*
X26706*
G75*
G03X26755Y6525I74J142*
G01*
Y6424*
G75*
G02X26562Y6541I25J259*
G01*
X23657*
G75*
G02X23944Y6034I-305J-507*
G01*
X31718*
G37*
X43320D02*
G36*
G75*
G02X43227Y6352I500J318D01*
G01*
G75*
G02X43258Y6541I592*
G01*
X40656*
Y6034*
X43320*
G37*
X45524D02*
G36*
G75*
G02X45432Y6352I500J318D01*
G01*
G75*
G02X45463Y6541I592*
G01*
X44380*
G75*
G02X44411Y6352I-561J-190*
G01*
G75*
G02X44319Y6034I-592J0*
G01*
X45524*
G37*
X49130D02*
G36*
Y6541D01*
X46585*
G75*
G02X46616Y6352I-561J-190*
G01*
G75*
G02X46524Y6034I-592J0*
G01*
X49130*
G37*
X1630Y23383D02*
G36*
Y22433D01*
X15014*
G75*
G02X15346I166J-200*
G01*
X16720*
G75*
G02X17240I260*
G01*
X31320*
G75*
G02X31580Y22693I260*
G01*
G75*
G02X31840Y22433J-260*
G01*
X36739*
Y22952*
X37144Y23356*
X37716*
X38121Y22952*
Y22433*
X49130*
Y23383*
X30770*
G75*
G02X30530Y23023I-240J-100*
G01*
G75*
G02X30290Y23383J260*
G01*
X16585*
G75*
G02X16590Y23333I-255J-50*
G01*
G75*
G02X16070I-260*
G01*
G75*
G02X16075Y23383I260J0*
G01*
X15440*
G75*
G02X14920I-260*
G01*
X6192*
G75*
G02X5768I-212J150*
G01*
X1630*
G37*
Y17183D02*
G36*
Y17041D01*
X2437*
G75*
G02X2583Y17183I393J-258*
G01*
X1630*
G37*
X2583D02*
G36*
G75*
G02X2830Y17253I247J-400D01*
G01*
G75*
G02X3077Y17183J-470*
G01*
X4218*
G75*
G02X4642I212J-150*
G01*
X9514*
G75*
G02X9427Y17325I166J200*
G01*
X2935*
G75*
G02X2855Y17314I-105J458*
G01*
Y17325*
X2805*
Y17314*
G75*
G02X2725Y17325I25J469*
G01*
X1630*
Y17183*
X2583*
G37*
X3077D02*
G36*
G75*
G02X3223Y17041I-247J-400D01*
G01*
X4170*
G75*
G02X4218Y17183I260J-8*
G01*
X3077*
G37*
X4642D02*
G36*
G75*
G02X4690Y17041I-212J-150D01*
G01*
X10135*
G75*
G02X9990Y17183I95J242*
G01*
X9846*
G75*
G02X9514I-166J200*
G01*
X4642*
G37*
X9990D02*
G36*
G75*
G02X9970Y17283I240J100D01*
G01*
G75*
G02X9973Y17325I260J0*
G01*
X9933*
G75*
G02X9846Y17183I-253J58*
G01*
X9990*
G37*
X10470D02*
G36*
G75*
G02X10325Y17041I-240J100D01*
G01*
X11070*
G75*
G02X11118Y17183I260J-8*
G01*
X10470*
G37*
X11118D02*
G36*
G75*
G02X11542I212J-150D01*
G01*
X12709*
G75*
G02X12851I71J-250*
G01*
X16370*
G75*
G02X16412Y17325I260*
G01*
X16261*
G75*
G02X16199I-31J258*
G01*
X12286*
G75*
G02X11874I-206J158*
G01*
X10611*
G75*
G02X10483Y17342I-31J258*
G01*
G75*
G02X10490Y17283I-253J-59*
G01*
G75*
G02X10470Y17183I-260*
G01*
X11118*
G37*
X11542D02*
G36*
G75*
G02X11590Y17041I-212J-150D01*
G01*
X12544*
G75*
G02X12709Y17183I236J-108*
G01*
X11542*
G37*
X12851D02*
G36*
G75*
G02X13016Y17041I-71J-250D01*
G01*
X15749*
G75*
G02X16005Y16914I31J-258*
G01*
G75*
G02X16261Y17041I225J-130*
G01*
X16412*
G75*
G02X16370Y17183I218J142*
G01*
X12851*
G37*
X16890D02*
G36*
G75*
G02X16848Y17041I-260D01*
G01*
X45412*
G75*
G02X45371Y17158I218J142*
G01*
X45472*
G75*
G03X45556Y17041I158J25*
G01*
X45704*
G75*
G03X45788Y17158I-74J142*
G01*
X45889*
G75*
G02X45848Y17041I-259J25*
G01*
X46112*
G75*
G02X46070Y17183I218J142*
G01*
X22492*
G75*
G02X22280Y17073I-212J150*
G01*
G75*
G02X22068Y17183J260*
G01*
X16890*
G37*
X22068D02*
G36*
G75*
G02X22020Y17325I212J150D01*
G01*
X16848*
G75*
G02X16890Y17183I-218J-142*
G01*
X22068*
G37*
X46070D02*
G36*
G75*
G02X46112Y17325I260D01*
G01*
X45848*
G75*
G02X45889Y17208I-218J-142*
G01*
X45788*
G75*
G03X45704Y17325I-158J-25*
G01*
X45556*
G75*
G03X45472Y17208I74J-142*
G01*
X45371*
G75*
G02X45412Y17325I259J-25*
G01*
X22540*
G75*
G02X22492Y17183I-260J8*
G01*
X46070*
G37*
X46590D02*
G36*
G75*
G02X46548Y17041I-260D01*
G01*
X49130*
Y17183*
X46590*
G37*
X49130D02*
G36*
Y17325D01*
X46548*
G75*
G02X46590Y17183I-218J-142*
G01*
X49130*
G37*
X2387Y15941D02*
G36*
G75*
G02X2670Y16225I443J-158D01*
G01*
X1630*
Y15941*
X2387*
G37*
X4187D02*
G36*
G75*
G02X4170Y16033I243J92D01*
G01*
G75*
G02X4255Y16225I260*
G01*
X2990*
G75*
G02X3273Y15941I-160J-442*
G01*
X4187*
G37*
X16412D02*
G36*
G75*
G02X16371Y16058I218J142D01*
G01*
X16472*
G75*
G03X16556Y15941I158J25*
G01*
X16704*
G75*
G03X16788Y16058I-74J142*
G01*
X16889*
G75*
G02X16848Y15941I-259J25*
G01*
X17550*
G75*
G02X17577Y16225I230J122*
G01*
X16848*
G75*
G02X16889Y16108I-218J-142*
G01*
X16788*
G75*
G03X16704Y16225I-158J-25*
G01*
X16556*
G75*
G03X16472Y16108I74J-142*
G01*
X16371*
G75*
G02X16412Y16225I259J-25*
G01*
X13036*
G75*
G02X12624I-206J158*
G01*
X4605*
G75*
G02X4690Y16033I-175J-192*
G01*
G75*
G02X4673Y15941I-260*
G01*
X16412*
G37*
X37129D02*
G36*
X37294Y16106D01*
X37866*
X38031Y15941*
X49130*
Y16225*
X30411*
G75*
G02X30380Y16223I-31J258*
G01*
G75*
G02X30349Y16225J260*
G01*
X22537*
G75*
G02X22305Y16004I-257J38*
G01*
Y16105*
G75*
G03X22435Y16225I-25J158*
G01*
X22125*
G75*
G03X22255Y16105I155J38*
G01*
Y16004*
G75*
G02X22023Y16225I25J259*
G01*
X17983*
G75*
G02X18010Y15941I-203J-162*
G01*
X37129*
G37*
X1630Y30291D02*
G36*
Y30091D01*
X4261*
G75*
G02X4099Y30291I651J692*
G01*
X1630*
G37*
X4099D02*
G36*
G75*
G02X3985Y30575I813J492D01*
G01*
X1630*
Y30291*
X4099*
G37*
X5724D02*
G36*
G75*
G02X5562Y30091I-813J492D01*
G01*
X6623*
G75*
G02X6461Y30291I651J692*
G01*
X5724*
G37*
X6461D02*
G36*
G75*
G02X6347Y30575I813J492D01*
G01*
X5838*
G75*
G02X5724Y30291I-927J208*
G01*
X6461*
G37*
X8086D02*
G36*
G75*
G02X7925Y30091I-813J492D01*
G01*
X10557*
G75*
G02X10530Y30283I673J192*
G01*
G75*
G02Y30291I700J4*
G01*
X9027*
G75*
G02X8830Y30253I-197J492*
G01*
G75*
G02X8633Y30291J530*
G01*
X8086*
G37*
X8633D02*
G36*
G75*
G02X8343Y30575I197J492D01*
G01*
X8201*
G75*
G02X8086Y30291I-927J208*
G01*
X8633*
G37*
X10530D02*
G36*
G75*
G02X10594Y30575I700J-8D01*
G01*
X9317*
G75*
G02X9027Y30291I-487J208*
G01*
X10530*
G37*
X11930D02*
G36*
G75*
G02Y30283I-701J-4D01*
G01*
G75*
G02X11903Y30091I-700*
G01*
X23062*
G75*
G02X23021Y30208I218J142*
G01*
X23122*
G75*
G03X23206Y30091I158J25*
G01*
X23354*
G75*
G03X23438Y30208I-74J142*
G01*
X23539*
G75*
G02X23498Y30091I-259J25*
G01*
X30212*
G75*
G02X30177Y30291I218J142*
G01*
X23533*
G75*
G02X23539Y30258I-253J-58*
G01*
X23438*
G75*
G03X23429Y30291I-158J-25*
G01*
X23131*
G75*
G03X23122Y30258I149J-58*
G01*
X23021*
G75*
G02X23027Y30291I259J-25*
G01*
X21498*
G75*
G02X21305Y30174I-218J142*
G01*
Y30275*
G75*
G03X21354Y30291I-25J158*
G01*
X21206*
G75*
G03X21255Y30275I74J142*
G01*
Y30174*
G75*
G02X21062Y30291I25J259*
G01*
X18836*
G75*
G02X18939Y30108I-156J-208*
G01*
X18838*
G75*
G03X18705Y30241I-158J-25*
G01*
Y30291*
X18655*
Y30241*
G75*
G03X18522Y30108I25J-158*
G01*
X18421*
G75*
G02X18524Y30291I259J-25*
G01*
X17548*
G75*
G02X17355Y30174I-218J142*
G01*
Y30275*
G75*
G03X17404Y30291I-25J158*
G01*
X17256*
G75*
G03X17305Y30275I74J142*
G01*
Y30174*
G75*
G02X17112Y30291I25J259*
G01*
X11930*
G37*
X17112D02*
G36*
G75*
G02X17071Y30408I218J142D01*
G01*
X17172*
G75*
G03X17256Y30291I158J25*
G01*
X17404*
G75*
G03X17488Y30408I-74J142*
G01*
X17589*
G75*
G02X17548Y30291I-259J25*
G01*
X18524*
G75*
G02X18655Y30342I156J-208*
G01*
Y30291*
X18705*
Y30342*
G75*
G02X18836Y30291I-25J-259*
G01*
X21062*
G75*
G02X21021Y30408I218J142*
G01*
X21122*
G75*
G03X21206Y30291I158J25*
G01*
X21354*
G75*
G03X21438Y30408I-74J142*
G01*
X21539*
G75*
G02X21498Y30291I-259J25*
G01*
X23027*
G75*
G02X23255Y30492I253J-58*
G01*
Y30391*
G75*
G03X23131Y30291I25J-158*
G01*
X23429*
G75*
G03X23305Y30391I-149J-58*
G01*
Y30492*
G75*
G02X23533Y30291I-25J-259*
G01*
X30177*
G75*
G02X30430Y30493I253J-58*
G01*
G75*
G02X30683Y30291J-260*
G01*
X37029*
X37044Y30306*
X37616*
X37631Y30291*
X44794*
G75*
G02X44864Y30383I236J-108*
G01*
G75*
G02X44770Y30575I166J200*
G01*
X21498*
G75*
G02X21539Y30458I-218J-142*
G01*
X21438*
G75*
G03X21354Y30575I-158J-25*
G01*
X21206*
G75*
G03X21122Y30458I74J-142*
G01*
X21021*
G75*
G02X21062Y30575I259J-25*
G01*
X17548*
G75*
G02X17589Y30458I-218J-142*
G01*
X17488*
G75*
G03X17404Y30575I-158J-25*
G01*
X17256*
G75*
G03X17172Y30458I74J-142*
G01*
X17071*
G75*
G02X17112Y30575I259J-25*
G01*
X11866*
G75*
G02X11930Y30291I-636J-292*
G01*
X17112*
G37*
X30683D02*
G36*
G75*
G02X30648Y30091I-253J-58D01*
G01*
X36829*
X37029Y30291*
X30683*
G37*
X37631D02*
G36*
X37831Y30091D01*
X44787*
G75*
G02X44794Y30291I243J92*
G01*
X37631*
G37*
X45266D02*
G36*
G75*
G02X45273Y30091I-236J-108D01*
G01*
X49130*
Y30291*
X45266*
G37*
X49130D02*
G36*
Y30575D01*
X45290*
G75*
G02X45196Y30383I-260J8*
G01*
G75*
G02X45266Y30291I-166J-200*
G01*
X49130*
G37*
X1630Y10991D02*
G36*
Y10475D01*
X2024*
G75*
G02X2430Y10732I406J-193*
G01*
G75*
G02X2836Y10475J-450*
G01*
X3795*
G75*
G02X4202Y10732I406J-193*
G01*
G75*
G02X4608Y10475J-450*
G01*
X14162*
G75*
G02X14598I218J-142*
G01*
X17462*
G75*
G02X17655Y10592I218J-142*
G01*
Y10491*
G75*
G03X17606Y10475I25J-158*
G01*
X17754*
G75*
G03X17705Y10491I-74J-142*
G01*
Y10592*
G75*
G02X17898Y10475I-25J-259*
G01*
X49130*
Y10991*
X17898*
G75*
G02X17705Y10874I-218J142*
G01*
Y10975*
G75*
G03X17754Y10991I-25J158*
G01*
X17606*
G75*
G03X17655Y10975I74J142*
G01*
Y10874*
G75*
G02X17462Y10991I25J259*
G01*
X14598*
G75*
G02X14162I-218J142*
G01*
X1630*
G37*
Y11791D02*
G36*
Y11275D01*
X14162*
G75*
G02X14598I218J-142*
G01*
X17462*
G75*
G02X17655Y11392I218J-142*
G01*
Y11291*
G75*
G03X17606Y11275I25J-158*
G01*
X17754*
G75*
G03X17705Y11291I-74J-142*
G01*
Y11392*
G75*
G02X17898Y11275I-25J-259*
G01*
X37279*
X36889Y11665*
Y11791*
X30866*
G75*
G02X30630Y11423I-236J-108*
G01*
G75*
G02X30394Y11791J260*
G01*
X17898*
G75*
G02X17705Y11674I-218J142*
G01*
Y11775*
G75*
G03X17754Y11791I-25J158*
G01*
X17606*
G75*
G03X17655Y11775I74J142*
G01*
Y11674*
G75*
G02X17462Y11791I25J259*
G01*
X14598*
G75*
G02X14162I-218J142*
G01*
X5809*
G75*
G02X4951I-429J192*
G01*
X4809*
G75*
G02X3951I-429J192*
G01*
X3809*
G75*
G02X2951I-429J192*
G01*
X1630*
G37*
X38271D02*
G36*
Y11665D01*
X37881Y11275*
X48194*
G75*
G02X48170Y11383I236J108*
G01*
G75*
G02X48690I260*
G01*
G75*
G02X48666Y11275I-260*
G01*
X49130*
Y11791*
X38271*
G37*
X14162Y9675D02*
G36*
G75*
G02X14598I218J-142D01*
G01*
X17462*
G75*
G02X17655Y9792I218J-142*
G01*
Y9691*
G75*
G03X17606Y9675I25J-158*
G01*
X17754*
G75*
G03X17705Y9691I-74J-142*
G01*
Y9792*
G75*
G02X17898Y9675I-25J-259*
G01*
X45419*
G75*
G02X45332Y9845I172J195*
G01*
X45433*
G75*
G03X45566Y9712I158J25*
G01*
Y9675*
X45616*
Y9712*
G75*
G03X45749Y9845I-25J158*
G01*
X45850*
G75*
G02X45763Y9675I-259J25*
G01*
X49130*
Y10012*
X46384*
G75*
G02X45887I-249J76*
G01*
X45809*
G75*
G02X45850Y9895I-218J-142*
G01*
X45749*
G75*
G03X45665Y10012I-158J-25*
G01*
X45517*
G75*
G03X45433Y9895I74J-142*
G01*
X45332*
G75*
G02X45373Y10012I259J-25*
G01*
X4562*
G75*
G02X4202Y9832I-360J270*
G01*
G75*
G02X3841Y10012J450*
G01*
X2790*
G75*
G02X2430Y9832I-360J270*
G01*
G75*
G02X2070Y10012J450*
G01*
X1630*
Y9675*
X14162*
G37*
X1630Y29941D02*
G36*
Y29433D01*
X5285*
G75*
G02X6093Y29883I808J-500*
G01*
G75*
G02X6900Y29433J-950*
G01*
X31170*
G75*
G02X31430Y29693I260*
G01*
G75*
G02X31690Y29433J-260*
G01*
X36639*
Y29902*
X36679Y29941*
X18898*
G75*
G02X18705Y29824I-218J142*
G01*
Y29925*
G75*
G03X18754Y29941I-25J158*
G01*
X18606*
G75*
G03X18655Y29925I74J142*
G01*
Y29824*
G75*
G02X18462Y29941I25J259*
G01*
X11841*
G75*
G02X10619I-611J342*
G01*
X7714*
G75*
G02X7274Y29833I-440J842*
G01*
G75*
G02X6834Y29941J950*
G01*
X5352*
G75*
G02X4911Y29833I-440J842*
G01*
G75*
G02X4471Y29941J950*
G01*
X1630*
G37*
X4471D02*
G36*
G75*
G02X4261Y30091I440J842D01*
G01*
X1630*
Y29941*
X4471*
G37*
X6834D02*
G36*
G75*
G02X6623Y30091I440J842D01*
G01*
X5562*
G75*
G02X5352Y29941I-651J692*
G01*
X6834*
G37*
X10619D02*
G36*
G75*
G02X10557Y30091I611J342D01*
G01*
X7925*
G75*
G02X7714Y29941I-651J692*
G01*
X10619*
G37*
X18462D02*
G36*
G75*
G02X18421Y30058I218J142D01*
G01*
X18522*
G75*
G03X18606Y29941I158J25*
G01*
X18754*
G75*
G03X18838Y30058I-74J142*
G01*
X18939*
G75*
G02X18898Y29941I-259J25*
G01*
X36679*
X36829Y30091*
X30648*
G75*
G02X30430Y29973I-218J142*
G01*
G75*
G02X30212Y30091J260*
G01*
X23498*
G75*
G02X23305Y29974I-218J142*
G01*
Y30075*
G75*
G03X23354Y30091I-25J158*
G01*
X23206*
G75*
G03X23255Y30075I74J142*
G01*
Y29974*
G75*
G02X23062Y30091I25J259*
G01*
X11903*
G75*
G02X11841Y29941I-673J192*
G01*
X18462*
G37*
X37981D02*
G36*
X38021Y29902D01*
Y29433*
X49130*
Y29941*
X45236*
G75*
G02X45290Y29783I-206J-158*
G01*
G75*
G02X44770I-260*
G01*
G75*
G02X44824Y29941I260J0*
G01*
X37981*
G37*
X44824D02*
G36*
G75*
G02X44864Y29983I206J-158D01*
G01*
G75*
G02X44787Y30091I166J200*
G01*
X37831*
X37981Y29941*
X44824*
G37*
X49130D02*
G36*
Y30091D01*
X45273*
G75*
G02X45196Y29983I-243J92*
G01*
G75*
G02X45236Y29941I-166J-200*
G01*
X49130*
G37*
X1630Y21433D02*
G36*
Y21225D01*
X16255*
G75*
G02X16605I175J-192*
G01*
X21438*
G75*
G02X21380Y21433I342J208*
G01*
X1630*
G37*
X22180D02*
G36*
G75*
G02X22122Y21225I-400J0D01*
G01*
X26362*
G75*
G02X26555Y21342I218J-142*
G01*
Y21241*
G75*
G03X26506Y21225I25J-158*
G01*
X26654*
G75*
G03X26605Y21241I-74J-142*
G01*
Y21342*
G75*
G02X26798Y21225I-25J-259*
G01*
X31512*
G75*
G02X31730Y21343I218J-142*
G01*
G75*
G02X31948Y21225J-260*
G01*
X39716*
Y21403*
X40656*
Y21225*
X42079*
G75*
G02X41866Y21433I294J514*
G01*
X22180*
G37*
X42880D02*
G36*
G75*
G02X42667Y21225I-507J306D01*
G01*
X43344*
G75*
G02X43525Y21433I525J-273*
G01*
X42880*
G37*
X45124D02*
G36*
G75*
G02X44911Y21225I-507J306D01*
G01*
X45549*
G75*
G02X45729Y21433I525J-273*
G01*
X45124*
G37*
X46419D02*
G36*
G75*
G02X46599Y21225I-345J-481D01*
G01*
X46725*
G75*
G02X46512Y21433I294J514*
G01*
X46419*
G37*
X47526D02*
G36*
G75*
G02X47313Y21225I-507J306D01*
G01*
X49130*
Y21433*
X47526*
G37*
X1630Y12483D02*
G36*
Y12176D01*
X2951*
G75*
G02X3809I429J-192*
G01*
X3951*
G75*
G02X4809I429J-192*
G01*
X4951*
G75*
G02X5809I429J-192*
G01*
X14286*
G75*
G02X14474I94J-242*
G01*
X17586*
G75*
G02X17655Y12192I94J-242*
G01*
Y12176*
X17705*
Y12192*
G75*
G02X17774Y12176I-25J-259*
G01*
X30987*
G75*
G02X31230Y12343I243J-92*
G01*
G75*
G02X31473Y12176J-260*
G01*
X36889*
Y12237*
X37136Y12483*
X26390*
G75*
G02X26130Y12223I-260*
G01*
G75*
G02X25870Y12483J260*
G01*
X1630*
G37*
X38024D02*
G36*
X38271Y12237D01*
Y12176*
X45656*
G75*
G02X45615Y12293I218J142*
G01*
X45716*
G75*
G03X45800Y12176I158J25*
G01*
X45948*
G75*
G03X46032Y12293I-74J142*
G01*
X46133*
G75*
G02X46092Y12176I-259J25*
G01*
X46449*
G75*
G02X46364Y12368I175J192*
G01*
G75*
G02X46391Y12483I260J0*
G01*
X46074*
G75*
G02X46133Y12343I-200J-166*
G01*
X46032*
G75*
G03X45899Y12476I-158J-25*
G01*
Y12483*
X45849*
Y12476*
G75*
G03X45716Y12343I25J-158*
G01*
X45615*
G75*
G02X45674Y12483I259J-25*
G01*
X40806*
Y12229*
X39866*
Y12483*
X38024*
G37*
X46857D02*
G36*
G75*
G02X46884Y12368I-233J-116D01*
G01*
G75*
G02X46800Y12176I-260*
G01*
X48245*
G75*
G02X48020Y12433I35J258*
G01*
G75*
G02X48025Y12483I260J0*
G01*
X46857*
G37*
X48535D02*
G36*
G75*
G02X48540Y12433I-255J-50D01*
G01*
G75*
G02X48315Y12176I-260*
G01*
X49130*
Y12483*
X48535*
G37*
X13183Y4883D02*
G36*
G75*
G02X13384Y5059I481J-345D01*
G01*
X1630*
Y4883*
X13183*
G37*
X22083D02*
G36*
G75*
G02X22284Y5059I481J-345D01*
G01*
X13945*
G75*
G02X14145Y4883I-281J-521*
G01*
X22083*
G37*
X25970D02*
G36*
G75*
G02X26039Y5059I260D01*
G01*
X22845*
G75*
G02X23045Y4883I-281J-521*
G01*
X25970*
G37*
X36739D02*
G36*
Y4937D01*
X36862Y5059*
X26421*
G75*
G02X26490Y4883I-191J-176*
G01*
X36739*
G37*
X45616D02*
G36*
G75*
G02X45615Y4893I258J34D01*
G01*
X45716*
G75*
G03X45718Y4883I158J25*
G01*
X46030*
G75*
G03X46032Y4893I-156J34*
G01*
X46133*
G75*
G02X46132Y4883I-259J25*
G01*
X49130*
Y5059*
X46092*
G75*
G02X46133Y4943I-218J-142*
G01*
X46032*
G75*
G03X45948Y5059I-158J-25*
G01*
X45800*
G75*
G03X45716Y4943I74J-142*
G01*
X45615*
G75*
G02X45656Y5059I259J-25*
G01*
X40656*
Y4929*
X39716*
Y5059*
X37998*
X38121Y4937*
Y4883*
X45616*
G37*
X14146Y6541D02*
G36*
G75*
G02X14452Y6626I305J-507D01*
G01*
G75*
G02X14757Y6541J-592*
G01*
X23046*
G75*
G02X23352Y6626I305J-507*
G01*
G75*
G02X23657Y6541J-592*
G01*
X26562*
G75*
G02X26521Y6658I218J142*
G01*
X26622*
G75*
G03X26706Y6541I158J25*
G01*
X26854*
G75*
G03X26938Y6658I-74J142*
G01*
X27039*
G75*
G02X26998Y6541I-259J25*
G01*
X31412*
G75*
G02Y6825I218J142*
G01*
X26998*
G75*
G02X27039Y6708I-218J-142*
G01*
X26938*
G75*
G03X26854Y6825I-158J-25*
G01*
X26706*
G75*
G03X26622Y6708I74J-142*
G01*
X26521*
G75*
G02X26562Y6825I259J-25*
G01*
X1630*
Y6541*
X14146*
G37*
X39716D02*
G36*
Y6825D01*
X31848*
G75*
G02Y6541I-218J-142*
G01*
X39716*
G37*
X43258D02*
G36*
G75*
G02X43464Y6825I561J-190D01*
G01*
X42825*
G75*
G02X41821I-502J314*
G01*
X40656*
Y6541*
X43258*
G37*
X45463D02*
G36*
G75*
G02X45668Y6825I561J-190D01*
G01*
X45069*
G75*
G02X44365Y6583I-502J314*
G01*
G75*
G02X44380Y6541I-545J-231*
G01*
X45463*
G37*
X49130D02*
G36*
Y6825D01*
X47471*
G75*
G02X46467I-502J314*
G01*
X46380*
G75*
G02X46585Y6541I-356J-473*
G01*
X49130*
G37*
X26562Y6825D02*
G36*
G75*
G02X26755Y6942I218J-142D01*
G01*
Y6841*
G75*
G03X26706Y6825I25J-158*
G01*
X26854*
G75*
G03X26805Y6841I-74J-142*
G01*
Y6942*
G75*
G02X26998Y6825I-25J-259*
G01*
X31412*
G75*
G02X31630Y6943I218J-142*
G01*
G75*
G02X31848Y6825J-260*
G01*
X39716*
Y6853*
X40656*
Y6825*
X41821*
G75*
G02X41731Y7139I502J314*
G01*
G75*
G02X41809Y7433I592*
G01*
X40656*
Y6898*
X39716*
Y7433*
X37724*
X37716Y7425*
X37144*
X37136Y7433*
X34896*
G75*
G02X34730Y7373I-166J200*
G01*
G75*
G02X34564Y7433J260*
G01*
X33440*
G75*
G02X33180Y7173I-260*
G01*
G75*
G02X32920Y7433J260*
G01*
X7188*
G75*
G02X7044Y7099I-493J15*
G01*
G75*
G02X6201Y7433I-349J349*
G01*
X4546*
G75*
G02X4202Y7273I-345J289*
G01*
G75*
G02X3857Y7433J450*
G01*
X2775*
G75*
G02X2430Y7273I-345J289*
G01*
G75*
G02X2085Y7433J450*
G01*
X1630*
Y6825*
X26562*
G37*
X43464D02*
G36*
G75*
G02X44022Y6908I356J-473D01*
G01*
G75*
G02X43975Y7139I545J231*
G01*
G75*
G02X44053Y7433I592*
G01*
X42837*
G75*
G02X42915Y7139I-514J-294*
G01*
G75*
G02X42825Y6825I-592*
G01*
X43464*
G37*
X45668D02*
G36*
G75*
G02X46380I356J-473D01*
G01*
X46467*
G75*
G02X46377Y7139I502J314*
G01*
G75*
G02X46455Y7433I592*
G01*
X45081*
G75*
G02X45160Y7139I-514J-294*
G01*
G75*
G02X45069Y6825I-592*
G01*
X45668*
G37*
X49130D02*
G36*
Y7433D01*
X47483*
G75*
G02X47561Y7139I-514J-294*
G01*
G75*
G02X47471Y6825I-592*
G01*
X49130*
G37*
X1630Y5433D02*
G36*
Y5059D01*
X13384*
G75*
G02X13664Y5130I281J-521*
G01*
G75*
G02X13945Y5059J-592*
G01*
X22284*
G75*
G02X22564Y5130I281J-521*
G01*
G75*
G02X22845Y5059J-592*
G01*
X26039*
G75*
G02X26230Y5143I191J-176*
G01*
G75*
G02X26421Y5059J-260*
G01*
X36862*
X37144Y5342*
X37716*
X37998Y5059*
X39716*
Y5433*
X28690*
G75*
G02X28430Y5173I-260*
G01*
G75*
G02X28170Y5433J260*
G01*
X20284*
Y5269*
X19344*
Y5433*
X19300*
Y5269*
X18360*
Y5433*
X18316*
Y5269*
X17376*
Y5433*
X1630*
G37*
X40656D02*
G36*
Y5059D01*
X45656*
G75*
G02X45849Y5176I218J-142*
G01*
Y5076*
G75*
G03X45800Y5059I25J-158*
G01*
X45948*
G75*
G03X45899Y5076I-74J-142*
G01*
Y5176*
G75*
G02X46092Y5059I-25J-259*
G01*
X49130*
Y5433*
X47140*
G75*
G02X46620I-260*
G01*
X40656*
G37*
X1630Y25479D02*
G36*
Y24733D01*
X31320*
G75*
G02X31840I260*
G01*
X34770*
G75*
G02X35290I260*
G01*
X49130*
Y25479*
X37635*
X37616Y25460*
X37044*
X37025Y25479*
X30840*
G75*
G02X30580Y25219I-260*
G01*
G75*
G02X30320Y25479J260*
G01*
X9264*
G75*
G02X8830Y25253I-434J304*
G01*
G75*
G02X8396Y25479J530*
G01*
X1630*
G37*
Y24733D02*
G36*
Y24475D01*
X6255*
G75*
G02X6605I175J-192*
G01*
X31549*
G75*
G02X31320Y24733I31J258*
G01*
X1630*
G37*
X31840D02*
G36*
G75*
G02X31611Y24475I-260D01*
G01*
X34999*
G75*
G02X34770Y24733I31J258*
G01*
X31840*
G37*
X35290D02*
G36*
G75*
G02X35061Y24475I-260D01*
G01*
X45362*
G75*
G02X45555Y24592I218J-142*
G01*
Y24491*
G75*
G03X45506Y24475I25J-158*
G01*
X45654*
G75*
G03X45605Y24491I-74J-142*
G01*
Y24592*
G75*
G02X45798Y24475I-25J-259*
G01*
X46055*
G75*
G02X46405I175J-192*
G01*
X49130*
Y24733*
X35290*
G37*
X1630Y29433D02*
G36*
Y28783D01*
X5154*
G75*
G02X5285Y29433I938J150*
G01*
X1630*
G37*
X6900D02*
G36*
G75*
G02X7031Y28783I-808J-500D01*
G01*
X10624*
G75*
G02X11836I606J-350*
G01*
X32320*
G75*
G02X32580Y29043I260*
G01*
G75*
G02X32840Y28783J-260*
G01*
X34075*
G75*
G02X34330Y29093I255J50*
G01*
G75*
G02X34585Y28783J-260*
G01*
X39616*
Y29338*
X40556*
Y28783*
X41681*
G75*
G02Y28789I592J3*
G01*
G75*
G02X42865I592*
G01*
G75*
G02Y28783I-593J-3*
G01*
X43925*
G75*
G02Y28789I592J3*
G01*
G75*
G02X45110I592*
G01*
G75*
G02Y28783I-593J-3*
G01*
X46327*
G75*
G02Y28789I592J3*
G01*
G75*
G02X47511I592*
G01*
G75*
G02Y28783I-593J-3*
G01*
X49130*
Y29433*
X38021*
Y29330*
X37616Y28925*
X37044*
X36639Y29330*
Y29433*
X31690*
G75*
G02X31430Y29173I-260*
G01*
G75*
G02X31170Y29433J260*
G01*
X6900*
G37*
X0Y0D02*
M02*
